<svg xmlns="http://www.w3.org/2000/svg" xmlns:xlink="http://www.w3.org/1999/xlink" viewBox="0 0 613.73 338.16">
  <defs>
    <style>
      .cls-1 {
        fill: none;
      }

      .cls-2 {
        clip-path: url(#clip-path);
      }

      .cls-3 {
        clip-path: url(#clip-path-2);
      }

      .cls-4 {
        clip-path: url(#clip-path-4);
      }

      .cls-5 {
        fill: #111413;
      }

      .cls-6 {
        clip-path: url(#clip-path-5);
      }

      .cls-7 {
        clip-path: url(#clip-path-9);
      }

      .cls-8 {
        clip-path: url(#clip-path-10);
      }

      .cls-9 {
        clip-path: url(#clip-path-12);
      }

      .cls-10 {
        clip-path: url(#clip-path-13);
      }

      .cls-11 {
        clip-path: url(#clip-path-16);
      }

      .cls-12 {
        clip-path: url(#clip-path-17);
      }

      .cls-13 {
        clip-path: url(#clip-path-21);
      }

      .cls-14 {
        clip-path: url(#clip-path-25);
      }

      .cls-15 {
        clip-path: url(#clip-path-29);
      }

      .cls-16 {
        clip-path: url(#clip-path-33);
      }

      .cls-17 {
        clip-path: url(#clip-path-34);
      }

      .cls-18 {
        clip-path: url(#clip-path-36);
      }

      .cls-19 {
        clip-path: url(#clip-path-37);
      }

      .cls-20 {
        clip-path: url(#clip-path-41);
      }

      .cls-21 {
        clip-path: url(#clip-path-45);
      }

      .cls-22 {
        clip-path: url(#clip-path-49);
      }

      .cls-23 {
        clip-path: url(#clip-path-53);
      }

      .cls-24 {
        clip-path: url(#clip-path-57);
      }

      .cls-25 {
        clip-path: url(#clip-path-61);
      }

      .cls-26 {
        clip-path: url(#clip-path-65);
      }

      .cls-27 {
        clip-path: url(#clip-path-69);
      }

      .cls-28 {
        clip-path: url(#clip-path-73);
      }

      .cls-29 {
        clip-path: url(#clip-path-77);
      }

      .cls-30 {
        clip-path: url(#clip-path-81);
      }

      .cls-31 {
        clip-path: url(#clip-path-82);
      }

      .cls-32 {
        clip-path: url(#clip-path-85);
      }

      .cls-33 {
        clip-path: url(#clip-path-89);
      }

      .cls-34 {
        clip-path: url(#clip-path-93);
      }
    </style>
    <clipPath id="clip-path" transform="translate(-22.72 -249.56)">
      <rect class="cls-1" x="108.42" y="100" width="486.64" height="491.98" transform="translate(-141.63 350.06) rotate(-45)"/>
    </clipPath>
    <clipPath id="clip-path-2" transform="translate(-22.72 -249.56)">
      <rect class="cls-1" x="146.13" y="99.32" width="352.94" height="613.65" transform="translate(-113.13 687.5) rotate(-84.39)"/>
    </clipPath>
    <clipPath id="clip-path-4" transform="translate(-22.72 -249.56)">
      <polygon class="cls-1" points="610.71 611.78 645.2 260.66 35.2 200.71 0.68 551.83 610.71 611.78"/>
    </clipPath>
    <clipPath id="clip-path-5" transform="translate(-22.72 -249.56)">
      <rect class="cls-1" x="71.14" y="413.28" width="5.35" height="5.35" transform="translate(-272.5 174.02) rotate(-45)"/>
    </clipPath>
    <clipPath id="clip-path-9" transform="translate(-22.72 -249.56)">
      <rect class="cls-1" x="136.77" y="299.7" width="112.3" height="32.09" transform="translate(-166.76 228.9) rotate(-45)"/>
    </clipPath>
    <clipPath id="clip-path-10" transform="translate(-22.72 -249.56)">
      <rect class="cls-1" x="146.13" y="99.33" width="352.94" height="613.65" transform="translate(-113.14 687.5) rotate(-84.39)"/>
    </clipPath>
    <clipPath id="clip-path-12" transform="translate(-22.72 -249.56)">
      <polygon class="cls-1" points="610.71 611.78 645.2 260.66 35.2 200.71 0.68 551.83 610.71 611.78"/>
    </clipPath>
    <clipPath id="clip-path-13" transform="translate(-22.72 -249.56)">
      <rect class="cls-1" x="124.4" y="348.21" width="16.04" height="10.7" transform="translate(-211.22 197.19) rotate(-45)"/>
    </clipPath>
    <clipPath id="clip-path-16" transform="translate(-22.72 -249.56)">
      <polygon class="cls-1" points="610.71 611.78 645.2 260.66 35.2 200.71 0.68 551.83 610.71 611.78"/>
    </clipPath>
    <clipPath id="clip-path-17" transform="translate(-22.72 -249.56)">
      <rect class="cls-1" x="511.26" y="289.6" width="85.56" height="10.7" transform="translate(-46.28 478.16) rotate(-45)"/>
    </clipPath>
    <clipPath id="clip-path-21" transform="translate(-22.72 -249.56)">
      <rect class="cls-1" x="508.21" y="326.3" width="16.04" height="5.35" transform="translate(-81.42 461.39) rotate(-45)"/>
    </clipPath>
    <clipPath id="clip-path-25" transform="translate(-22.72 -249.56)">
      <rect class="cls-1" x="279.44" y="367.12" width="16.04" height="10.7" transform="translate(-179.18 312.36) rotate(-45)"/>
    </clipPath>
    <clipPath id="clip-path-29" transform="translate(-22.72 -249.56)">
      <rect class="cls-1" x="508.86" y="374.54" width="37.43" height="37.43" transform="translate(-123.55 488.24) rotate(-45)"/>
    </clipPath>
    <clipPath id="clip-path-33" transform="translate(-22.72 -249.56)">
      <rect class="cls-1" x="593.61" y="351.21" width="26.74" height="16.04" transform="translate(-76.23 534.42) rotate(-45)"/>
    </clipPath>
    <clipPath id="clip-path-34" transform="translate(-22.72 -249.56)">
      <rect class="cls-1" x="146.14" y="99.33" width="352.94" height="613.65" transform="translate(-113.13 687.51) rotate(-84.39)"/>
    </clipPath>
    <clipPath id="clip-path-36" transform="translate(-22.72 -249.56)">
      <polygon class="cls-1" points="610.71 611.78 645.2 260.66 35.2 200.71 0.68 551.83 610.71 611.78"/>
    </clipPath>
    <clipPath id="clip-path-37" transform="translate(-22.72 -249.56)">
      <rect class="cls-1" x="371.16" y="373.9" width="48.13" height="16.04" transform="translate(-154.3 391.33) rotate(-45)"/>
    </clipPath>
    <clipPath id="clip-path-41" transform="translate(-22.72 -249.56)">
      <rect class="cls-1" x="384.53" y="387.91" width="21.39" height="10.7" transform="translate(-162.32 394.65) rotate(-45)"/>
    </clipPath>
    <clipPath id="clip-path-45" transform="translate(-22.72 -249.56)">
      <rect class="cls-1" x="163.84" y="370.76" width="69.52" height="37.43" transform="translate(-217.24 254.5) rotate(-45)"/>
    </clipPath>
    <clipPath id="clip-path-49" transform="translate(-22.72 -249.56)">
      <rect class="cls-1" x="265.88" y="363.33" width="5.35" height="10.7" transform="translate(-182.04 297.88) rotate(-45)"/>
    </clipPath>
    <clipPath id="clip-path-53" transform="translate(-22.72 -249.56)">
      <rect class="cls-1" x="501.3" y="491.12" width="37.43" height="16.04" transform="translate(-200.64 513.9) rotate(-45)"/>
    </clipPath>
    <clipPath id="clip-path-57" transform="translate(-22.72 -249.56)">
      <rect class="cls-1" x="513.88" y="488.12" width="16.04" height="10.7" transform="translate(-196.07 513.58) rotate(-45)"/>
    </clipPath>
    <clipPath id="clip-path-61" transform="translate(-22.72 -249.56)">
      <rect class="cls-1" x="412.57" y="532.9" width="10.7" height="53.48" transform="translate(-273.32 459.43) rotate(-45)"/>
    </clipPath>
    <clipPath id="clip-path-65" transform="translate(-22.72 -249.56)">
      <rect class="cls-1" x="392.55" y="530.5" width="5.35" height="5.35" transform="translate(-261.25 435.63) rotate(-45)"/>
    </clipPath>
    <clipPath id="clip-path-69" transform="translate(-22.72 -249.56)">
      <rect class="cls-1" x="523.98" y="430.62" width="37.43" height="16.04" transform="translate(-151.21 512.22) rotate(-45)"/>
    </clipPath>
    <clipPath id="clip-path-73" transform="translate(-22.72 -249.56)">
      <rect class="cls-1" x="531.22" y="427.62" width="26.74" height="10.7" transform="translate(-146.65 511.9) rotate(-45)"/>
    </clipPath>
    <clipPath id="clip-path-77" transform="translate(-22.72 -249.56)">
      <rect class="cls-1" x="189.47" y="505.13" width="10.7" height="10.7" transform="translate(-303.91 287.27) rotate(-45)"/>
    </clipPath>
    <clipPath id="clip-path-81" transform="translate(-22.72 -249.56)">
      <rect class="cls-1" x="163" y="455.98" width="10.7" height="10.7" transform="translate(-276.9 254.16) rotate(-45)"/>
    </clipPath>
    <clipPath id="clip-path-82" transform="translate(-22.72 -249.56)">
      <rect class="cls-1" x="146.14" y="99.33" width="352.94" height="613.65" transform="matrix(0.1, -1, 1, 0.1, -113.13, 687.51)"/>
    </clipPath>
    <clipPath id="clip-path-85" transform="translate(-22.72 -249.56)">
      <rect class="cls-1" x="194.03" y="510.81" width="5.35" height="10.7" transform="translate(-307.36 290.27) rotate(-45)"/>
    </clipPath>
    <clipPath id="clip-path-89" transform="translate(-22.72 -249.56)">
      <rect class="cls-1" x="195.92" y="515.37" width="5.35" height="5.35" transform="translate(-308.15 292.16) rotate(-45)"/>
    </clipPath>
    <clipPath id="clip-path-93" transform="translate(-22.72 -249.56)">
      <rect class="cls-1" x="211.05" y="522.93" width="5.35" height="5.35" transform="translate(-309.06 305.07) rotate(-45)"/>
    </clipPath>
  </defs>
  <title>Branch 1</title>
  <g id="Layer_2" data-name="Layer 2">
    <g id="Layer_1-2" data-name="Layer 1">
      <g id="Olive_brance" data-name="Olive brance">
        <g class="cls-2">
          <g id="Group_564" data-name="Group 564">
            <g class="cls-3">
              <g id="Group_563" data-name="Group 563">
                <g class="cls-3">
                  <g id="Group_562" data-name="Group 562">
                    <g class="cls-4">
                      <g id="Group_561" data-name="Group 561">
                        <path id="Path_567" data-name="Path 567" class="cls-5" d="M339.17,455a1.72,1.72,0,0,1,.64-.34c2.3-.21,4.63-.41,6.95-.58a25.23,25.23,0,0,1,2.88-.13,101.36,101.36,0,0,0,12.32-.62,25.7,25.7,0,0,1,4.11-.24c2.91.19,5.76-.26,8.64-.34s5.48-.31,8.21-.53c2.06-.16,4.09-.37,6.15-.56a12.7,12.7,0,0,1,2-.2c4,.11,8-.17,11.93-.21a8.74,8.74,0,0,1,2,.3,8.69,8.69,0,0,0,2.44.19,17.2,17.2,0,0,1,2.87,0,55.5,55.5,0,0,0,6.94.71,3.18,3.18,0,0,1,1.22.19,36.2,36.2,0,0,0,5.65,1.12c6.22,1.07,12.39,2.35,18.51,4,2.23.6,4.53,1.08,6.75,1.79s4.66,1.62,7,2.51a6.41,6.41,0,0,1,1.39.91,1.58,1.58,0,0,1,.59,1.45,3.16,3.16,0,0,1-.17.81,19.72,19.72,0,0,0-1,10.93c.21,1.21.36,2.46.56,3.67a41.54,41.54,0,0,0,5.57,14.55c3.28,5.46,7.45,10.22,13.13,13.39.6.33,1.19.68,1.76,1.05a14.43,14.43,0,0,0,4.43,2.1c2.5.73,4.94,1.68,7.37,2.59a16.19,16.19,0,0,0,4,.9,47.93,47.93,0,0,0,9,.41c2.57-.18,5.18.08,7.78-.28a49.16,49.16,0,0,0,10.47-2.14c1.42-.53,2.85-1,4.28-1.48a17.61,17.61,0,0,0,6.78-4.5,107.23,107.23,0,0,0,7-8.64,5.94,5.94,0,0,0,.83-1.42c1.64-4.09,3-8.26,3.2-12.72a26.09,26.09,0,0,0-.63-5.71,49.51,49.51,0,0,0-1.75-6.8,25.38,25.38,0,0,0-6.83-10.65c-.7-.66-1.33-1.36-2-2.05a.87.87,0,0,1,.28-1.08c3-1,5.66-2.76,8.58-3.94a50.31,50.31,0,0,0,9.92-5.87,11.46,11.46,0,0,0,1.81-1.67c1.61-1.7,3.21-3.41,4.76-5.14a8.76,8.76,0,0,0,1.24-1.66,49.41,49.41,0,0,1,3.53-5.54,6.92,6.92,0,0,0,1.15-3.07,39.16,39.16,0,0,0,.46-9.85,7.68,7.68,0,0,1,0-1.66,14.72,14.72,0,0,0-1.14-6,11.65,11.65,0,0,0-1.67-2.82,27.89,27.89,0,0,0-6.23-5.94c-.54-.4-1.14-.75-1.64-1.19-.18-.15-.22-.49-.27-.74,0-.07.15-.24.25-.28,4.13-1.08,8.11-2.56,12.12-4,1.93-.69,3.9-1.33,5.83-2a35.51,35.51,0,0,0,5.68-2.42,11.7,11.7,0,0,1,2.29-.93A71,71,0,0,0,589.69,388c3.28-1.74,6.59-3.4,9.93-5a26.86,26.86,0,0,0,4.5-2.88c1.18-.95,2.43-1.8,3.68-2.65a56.81,56.81,0,0,0,5.58-4.19c3.21-2.79,6.52-5.51,9.69-8.33q4-3.57,7.82-7.34a23.56,23.56,0,0,0,4.62-6.28,10.49,10.49,0,0,0,.84-2.29,2.68,2.68,0,0,0-1.46-3.15,7.11,7.11,0,0,0-1.88-.75,16.3,16.3,0,0,0-4.52-.24,94.64,94.64,0,0,0-12.18,2c-3.34.74-6.7,1.46-10,2.42-1.84.52-3.78.71-5.64,1.15-5.08,1.18-10.13,2.48-15.24,3.51-1.07.21-2.13.54-3.21.67-3.43.38-6.76,1.15-10.19,1.5-3.81.42-7.62.83-11.46.92a129.35,129.35,0,0,0-21.7,2c-2.82.55-5.63,1.14-8.45,1.78a19.49,19.49,0,0,0-2.32.84c-1.8.65-3.6,1.3-5.43,1.92a1.36,1.36,0,0,1-.74-.18c-.27-.12-.23-.75.1-1.11a186.17,186.17,0,0,0,13.5-17.16c2.79-3.91,5.6-7.81,8.12-11.93,1.21-2,2.57-3.87,3.76-5.91a26,26,0,0,1,2.39-3.31,169.82,169.82,0,0,0,10.13-14,75.85,75.85,0,0,1,10.67-13.09,36,36,0,0,0,3.28-3.7c1.49-2,3.31-3.69,4.89-5.57a44.66,44.66,0,0,1,6.18-6,62,62,0,0,0,4.85-4.46c2.29-2.2,4.58-4.37,6.75-6.66a47.35,47.35,0,0,0,6.13-7.76,5.87,5.87,0,0,0,1-2.66c.21-1.83-.31-3-2.58-3.53a6.38,6.38,0,0,0-2.85,0,62.25,62.25,0,0,0-13.27,4.4,84.69,84.69,0,0,0-9.77,5.32c-2.16,1.45-4.46,2.69-6.68,4.07-5.12,3.21-10.25,6.41-15.08,10.06-.55.43-1.12.77-1.71,1.15-2.54,1.62-5.13,3.18-7.52,5a10.61,10.61,0,0,1-1.36.94c-3.72,2.1-7.14,4.63-10.65,7-2.6,1.8-5.07,3.77-7.58,5.68-3.38,2.59-6.72,5.22-10.13,7.77-3.64,2.72-7.24,5.47-10.59,8.53-.5.47-1,.9-1.55,1.34a98,98,0,0,0-11.86,11.45,9,9,0,0,1-.8.94c-2.9,2.6-4.88,5.94-7.17,9a19.29,19.29,0,0,0-1.05,1.75c-1.16,2-2.24,4.11-3.48,6.09a147.43,147.43,0,0,0-7.36,13.82,30.08,30.08,0,0,0-1.76,4.6,51.78,51.78,0,0,0-2.32,9.17c-.23,1.74-.93,3.44-1.33,5.17a36.22,36.22,0,0,1-1.08,5.25c-.53,1.41-.94,2.86-1.4,4.3-.58,1.84-1.12,3.68-1.67,5.54a41.8,41.8,0,0,1-3.8,8.67,7.58,7.58,0,0,1-2.88,2.85c-1.19.69-2.42,1.3-3.66,1.89-2.47,1.17-5,2.27-7.46,3.47-3.31,1.65-6.6,3.38-9.91,5.07-5.73,3-11.46,5.93-17.34,8.59-3.4,1.51-6.9,2.74-10.36,4.09-1.15.45-2.32.88-3.42,1.42a35.34,35.34,0,0,1-6.12,2.4,21.21,21.21,0,0,0-2.66,1.09c-.89.38-1.76.81-2.66,1.12-4,1.44-8,2.9-12.05,4.2-3,1-6.07,1.73-9.1,2.57a46.07,46.07,0,0,1-5.54,1.58q-2.62.51-5.18,1.28a74,74,0,0,1-11.36,1.88c-2.73.16-5.45.66-8.17,1s-5.45.72-8.17,1.05a13.4,13.4,0,0,1-2.45.17,24.71,24.71,0,0,0-7,.61,35.08,35.08,0,0,1-11.06.37,52,52,0,0,0-7.38-.35,22.75,22.75,0,0,1-5.34-.49,86,86,0,0,0-8.53-1.27,98.32,98.32,0,0,1-11.3-2.29c-.36-.09-.45-.33-.24-.62a.62.62,0,0,1,.26-.27,2.29,2.29,0,0,1,.77-.23l8.63-.51a96.22,96.22,0,0,0,15.49-2.05,92.06,92.06,0,0,0,16.17-4.86c3.53-1.49,7.17-2.76,10.77-4.12a23.19,23.19,0,0,0,4.06-2c1.41-.87,2.9-1.56,4.35-2.36a60,60,0,0,0,10.4-6.65,2.6,2.6,0,0,1,.31-.25,68.31,68.31,0,0,0,7-5,2,2,0,0,1,2-.29c.4.13.76.31,1.16.44,2.33.83,4.63,1.69,7,2.42a6.19,6.19,0,0,0,2.42.27c2.6-.18,5.2-.35,7.78-.75a33.82,33.82,0,0,0,7.88-2.32,51,51,0,0,0,16.69-11.14,63.11,63.11,0,0,0,5.23-5.85,26.74,26.74,0,0,0,4.31-7.92,27.67,27.67,0,0,1,2.92-6.35,23.06,23.06,0,0,0,2.12-4.92,36.64,36.64,0,0,0,2.27-8.74,28.24,28.24,0,0,0,.08-5.36,12.77,12.77,0,0,1-.22-1.63c.15-3.25-.94-6.2-2.11-9.14-.2-.5-.34-1.05-.53-1.57a19.6,19.6,0,0,0-12.27-11.92A27.17,27.17,0,0,0,398.1,341a58.55,58.55,0,0,0-11.91-.33,24.82,24.82,0,0,0-7.23,1.48c-3,1.09-5.9,2.29-8.84,3.46a8.35,8.35,0,0,0-1.8,1c-3.2,2.35-6.54,4.51-9.55,7.14a38.68,38.68,0,0,0-6.69,7.81,47.54,47.54,0,0,0-3.45,6.1,41.47,41.47,0,0,0-2,5.39c-.64,2-1.06,4-1.7,6-1.2,3.71-1.18,7.59-1.64,11.39a25,25,0,0,0,.81,5.3c.85,2.62,1.73,5.22,2.56,7.85a12.47,12.47,0,0,0,2.32,4.32,52.58,52.58,0,0,0,4.73,5.7,1.08,1.08,0,0,1,0,1.51,16.29,16.29,0,0,1-2.21,1.85c-3.16,1.92-6.2,4-9.54,5.7-3.79,1.9-7.42,4.16-11.21,6.1a153.81,153.81,0,0,1-18.46,8.12,67.51,67.51,0,0,1-10,2.44c-3.11.56-6.24,1-9.35,1.49a42.59,42.59,0,0,1-4.91.53c-2.18.09-4.37.44-6.56.59a65.93,65.93,0,0,1-11.5.19,19.14,19.14,0,0,0-3.3,0,10.49,10.49,0,0,1-3.25-.33A33.71,33.71,0,0,0,259,441a42.44,42.44,0,0,1-5.23-1,87.19,87.19,0,0,0-9.2-2.17c-1.75-.25-3.45-.83-5.2-1.24-1.17-.28-12.52-3.66-13.78-4.15a.39.39,0,0,1-.21-.27.46.46,0,0,1,.23-.34,14.46,14.46,0,0,1,4.75-1.21A147.16,147.16,0,0,0,246,427.09a29.33,29.33,0,0,1,3.22-.71A52.94,52.94,0,0,0,260.66,423c2-.82,4-1.87,5.95-2.82,1.49-.72,3-1.41,4.44-2.17a38.68,38.68,0,0,0,8.23-5.45c.83-.71,1.76-1.31,2.59-2a24,24,0,0,0,2.76-2.47,74.67,74.67,0,0,0,7-8.67c.65-1,1.39-2,2.11-3l6.15-8.26a8.6,8.6,0,0,0,.85-1.42c1.94-4.27,4.85-8,6.93-12.19,1-2.08,2.2-4.12,3.3-6.19.25-.49.44-1,.73-1.48.77-1.3,1.53-2.61,2.35-3.88s2.34-1.89,3.52-2.84a65.38,65.38,0,0,1,10.19-6.94,11.2,11.2,0,0,1,1.42-.83c5.33-1.84,10.22-4.69,15.47-6.78a56.44,56.44,0,0,0,5.83-3,6.22,6.22,0,0,0,2.26-2.35,3.9,3.9,0,0,0,.56-2.78,3,3,0,0,0-1.89-2.51,14.44,14.44,0,0,0-3.19-.71c-2.88-.28-5.76-.5-8.64-.72a6,6,0,0,0-1.64,0,40.68,40.68,0,0,1-7.4.16c-.55-.1-.71-.41-.52-.93,1.49-3.08,2.94-6.19,4.46-9.27,1.35-2.7,2.75-5.37,4.14-8.06.46-.84,1-1.67,1.48-2.48,2.81-4.41,5.77-8.7,8.41-13.22,1.93-3.32,3.87-6.65,5.83-9.94a9.92,9.92,0,0,1,2.41-2.79,25.87,25.87,0,0,1,2.32-1.73c3.19-1.86,6.41-3.72,9.65-5.51a9.45,9.45,0,0,1,1.93-.69q5.88-1.93,11.74-3.83a12.19,12.19,0,0,0,1.93-.74,16.12,16.12,0,0,1,4.28-1.44,31,31,0,0,0,6.63-2.23c2.61-1.2,5.22-2.47,7.79-3.74,2.21-1.12,4.43-2.16,6.54-3.5a68.76,68.76,0,0,0,7.58-5.69,15.84,15.84,0,0,0,3.72-4.87,1.65,1.65,0,0,0-.49-1.85,7.69,7.69,0,0,0-3.79-1.46,26.23,26.23,0,0,0-3.31-.18,65.93,65.93,0,0,0-15,2.22c-2.38.63-4.75,1.33-7.18,1.86a31.29,31.29,0,0,0-10.87,4.76l-3.41,2.31a8,8,0,0,0-1,.7c-2.2,2.26-4.89,4-6.94,6.44a16.28,16.28,0,0,1-4.16,3.32,89.72,89.72,0,0,1-17.17,7.94c-3,1-6,2.05-8.93,3.19-2.43.93-4.81,2-7.2,3a22.84,22.84,0,0,0-2.18,1.17c-1.66.93-3.29,2-5,2.85-2.57,1.33-4.88,3.07-7.32,4.59a11.79,11.79,0,0,0-2.26,1.79c-2,2.08-4.25,3.93-6,6.23-1.17,1.52-2.41,3-3.61,4.52a27.68,27.68,0,0,0-1.68,2.34q-5.28,8.37-10.52,16.78c-.93,1.52-1.71,3.12-2.61,4.68s-1.77,3.1-2.76,4.59a2.37,2.37,0,0,1-1.27.95,39.13,39.13,0,0,1-4.4,1.06c-2.28.42-4.6.76-6.88,1.15a4.64,4.64,0,0,0-1.17.34,16.08,16.08,0,0,1-5.5,1.66,3,3,0,0,0-1.16.4c-2.26,1.4-4.88,1.8-7.34,2.61a24.27,24.27,0,0,0-3.08,1.15,5.65,5.65,0,0,1-1.92.68A17.74,17.74,0,0,0,250,346.3c-2.57,1-5.16,1.9-7.73,2.85a43,43,0,0,0-8.59,3.93,10.18,10.18,0,0,1-1.5.69c-4.86,1.91-9.51,4.29-14.42,6.09a5.7,5.7,0,0,0-1.46.73,60,60,0,0,1-5.76,3.21c-1.67.93-3.35,1.85-4.95,2.94a43.6,43.6,0,0,1-4.62,2.71,31.85,31.85,0,0,0-7.42,5.14c-1.42,1.36-3.22,2.09-4.78,3.19a44.74,44.74,0,0,0-4.36,3.11,21.73,21.73,0,0,1-3.38,2.35c-2.26,1.32-4.36,2.88-6.69,4s-4.57,2.55-6.9,3.7a50.13,50.13,0,0,1-8.29,3.56c-2,.57-3.87,1.42-5.79,2.13a43.87,43.87,0,0,1-10.83,2.59c-2.05.19-4.07.59-6.11.85-1.76.26-3.53.46-5.31.67a3.12,3.12,0,0,1-1.21-.18c-1.15-.41-2.32-.84-3.47-1.31a224.6,224.6,0,0,1-21.49-10.36c-.71-.43-1.44-.82-2.19-1.18a93,93,0,0,1-10.78-6c-.93-.57-1.9-1.07-2.86-1.62s-1.7-.93-2.49-1.48c-3-2.08-6.1-4.21-9.14-6.34a.59.59,0,0,1-.13-.37c.21-.11.43-.31.62-.29a18.32,18.32,0,0,1,2.86.35c2.53.64,5,1.36,7.55,2a23.89,23.89,0,0,0,3.24.57,22.79,22.79,0,0,1,4.84.95,12.55,12.55,0,0,0,4.48.46,42.41,42.41,0,0,1,4.51,0,58.08,58.08,0,0,0,9-.35c4.39-.37,8.67-1.41,13-1.92,8-1.79,16.08-3.73,23.59-7.2,3.49-1.62,6.88-3.45,10.24-5.33,3-1.68,5.86-3.56,8.76-5.39,1.27-.8,2.48-1.71,3.73-2.56,3.55-2.36,6.83-5.08,10.39-7.43,1.37-.9,2.69-1.92,4-2.91,1.86-1.42,3.74-2.82,5.56-4.28s3.42-2.72,5-4.25q4-3.84,8.43-7.26a64.4,64.4,0,0,0,5.83-5.25,50.58,50.58,0,0,1,4.22-3.93c3.62-3,7.28-5.87,10.93-8.81,1-.78,1.93-1.52,2.86-2.33a89.59,89.59,0,0,1,15.34-10.4c2.62-1.47,5.19-3.07,7.71-4.76a35.34,35.34,0,0,0,7.52-7,7.72,7.72,0,0,0,.84-1.41,1.41,1.41,0,0,0,0-1.38,1.46,1.46,0,0,0-1.12-.8,39.09,39.09,0,0,0-8.23-.43c-2.06.1-4.08.41-6.11.68-3,.38-6,.7-9,1-3.41.34-6.81.81-10.18,1.46a185.06,185.06,0,0,0-18.09,4c-.78.22-1.61.37-2.41.54-5.87,1.42-11.63,3.22-17.38,5.13a105.61,105.61,0,0,0-12.49,5.34c-2.23,1.07-4.5,2.05-6.72,3.14s-4.13,2.16-6.2,3.25l-4.71,2.53c-2.79,1.46-5.45,3.2-8.11,4.89-3.27,2.05-6.32,4.4-9.47,6.6a11.5,11.5,0,0,0-1.3,1c-3.59,3.59-7.3,7.09-11.15,10.42a4.78,4.78,0,0,0-.86.88,12.81,12.81,0,0,1-3.87,3.64c-4.86,3.17-9.1,7.12-13.75,10.53a27.15,27.15,0,0,1-3.43,2.27,36.82,36.82,0,0,0-6.82,4.58A11.09,11.09,0,0,1,98.59,354c-1,.5-1.89,1.1-2.85,1.64a8,8,0,0,1-1,.64c-2.82,1.07-5.49,2.48-8.32,3.56-2.18.83-4.4,1.54-6.6,2.32-3,1-6.06,1.77-9.13,2.51a11.57,11.57,0,0,1-2,.22,2.84,2.84,0,0,1-2-.56c-2.62-2-5.41-3.75-7.67-6.19a14.35,14.35,0,0,0-1.9-1.58c-4-3-7.39-6.56-11-9.91-.69-.67-1.42-1.3-2.16-1.92-4.13-3.61-8.06-7.45-12.14-11.14-1.71-1.57-3.11-3.47-4.68-5.22-.44-.5-.93-1-1.43-1.46a1.77,1.77,0,0,0-2.21.45,4.88,4.88,0,0,0-.64,3.56,1.51,1.51,0,0,0,.36.74,9,9,0,0,0,.9.84,119.3,119.3,0,0,1,9.23,8.76,76.68,76.68,0,0,0,8.36,7.33c4.82,3.66,9.44,7.54,13.93,11.59a91,91,0,0,0,12,9.39c4,2.63,7.89,5.5,11.73,8.39a117.6,117.6,0,0,0,11,7.21c3.93,2.28,8,4.27,12.07,6.25s8.32,4.24,12.52,6.24c5,2.36,9.86,4.83,15,6.72,3.62,1.31,7.06,3,10.75,4.19a2.33,2.33,0,0,1,1.82,2c.17,1.22.4,2.44.5,3.67.25,3.14.41,6.29.62,9.45,0,.81.13,1.64.19,2.47a12.41,12.41,0,0,1,.16,2c-.23,3.87.39,7.68.59,11.52a3,3,0,0,0,0,.42A35.62,35.62,0,0,1,145.8,447a64.78,64.78,0,0,0,1.2,6.48,18.48,18.48,0,0,0,.87,3.18c1.49,4,3.07,7.94,4.59,11.92a14.66,14.66,0,0,0,1.66,3.31,7.08,7.08,0,0,1,1,1.75,29,29,0,0,0,3.45,6.09c1.22,1.83,2.26,3.76,3.39,5.65.28.46.56.95.87,1.38,1.49,2.14,3,4.28,4.49,6.41a25.72,25.72,0,0,0,1.79,2.26,36.5,36.5,0,0,1,4.24,5,10.84,10.84,0,0,0,2,2.06,37.55,37.55,0,0,1,5.37,5.69,13.22,13.22,0,0,0,2.66,2.57,46.25,46.25,0,0,1,5.52,4.94c1.08,1.08,2.16,2.12,3.3,3.11,1.89,1.6,3.75,3.22,5.52,4.94,2.08,2,4.14,4,6.29,5.91a16.85,16.85,0,0,1,4.25,6.49c.85,2,1.61,4.09,2.46,6.12a69.06,69.06,0,0,0,5.87,10.4,55.47,55.47,0,0,0,10.83,10.65c3.11,2,6.18,4.1,9.41,5.92a82,82,0,0,0,14.65,6.53,22.2,22.2,0,0,0,8.56,1.05,3.38,3.38,0,0,0,3-1.89,2.58,2.58,0,0,0,.37-1.58,14.34,14.34,0,0,0-3-7.14,30.3,30.3,0,0,0-4.81-5.61,5.5,5.5,0,0,1-.86-.88c-3-4-6.88-7.1-10.49-10.46-2.29-2.17-4.75-4.17-7.18-6.18s-5-4.31-7.49-6.45c-1.26-1.07-2.57-2.07-3.85-3.12a65.13,65.13,0,0,1-7-6.43c-.82-.91-1.74-1.74-2.63-2.6-1.79-1.72-3.57-3.43-5.33-5.18-2.63-2.66-4.49-5.88-6.47-9a5.83,5.83,0,0,1-.52-1.54c-.59-2.12-1.19-4.24-1.72-6.36-.3-1.21-.52-2.41-.71-3.64a68.57,68.57,0,0,0-3.5-13.13c-1.28-3.34-2.62-6.66-3.91-10a11.44,11.44,0,0,0-.48-1.14c-2.94-5.45-5.31-11.18-8.22-16.63-2.08-3.89-4.12-7.78-5.8-11.83a6.41,6.41,0,0,0-.68-1.51c-1.69-2.33-3-4.92-4.82-7.18-1.46-1.81-2.82-3.73-4.22-5.58a13.24,13.24,0,0,0-1.38-1.52,50.27,50.27,0,0,1-4.4-4.93,48.84,48.84,0,0,0-6.29-7,17.36,17.36,0,0,1-2.1-2.51.45.45,0,0,1-.06-.39,2.78,2.78,0,0,1,.7-.25.73.73,0,0,1,.41.06c3,1.51,6.22,2.12,9.35,3.12,2.75.88,5.45,1.84,8.17,2.82,4.13,1.48,8.33,2.84,12.48,4.24,6,2,12.08,3.66,18.21,5.18.67.16,1.29.46,1.94.67a25,25,0,0,0,3.53,1.13c5,.94,9.65,3.07,14.47,4.67a54.85,54.85,0,0,0,7.93,2.2,22.39,22.39,0,0,1,6.52,2.47,4.7,4.7,0,0,1,1.64,1.22,17.3,17.3,0,0,0,3.87,3.05A92,92,0,0,1,260,459.19c4.49,4.85,8.65,9.94,12.9,15,1.67,2,3.48,3.87,5.18,5.86a51.55,51.55,0,0,0,6.22,6.57,8,8,0,0,1,.86.89c3.26,3.91,7.16,7.19,10.72,10.81a52,52,0,0,0,7.45,5.85c2.12,1.51,4.31,3,6.35,4.58a75.22,75.22,0,0,0,8.58,5.66c.59.35,1.27.59,1.82,1,3.32,2.46,7.15,4.07,10.75,6,3.26,1.76,6.69,3.21,10,4.83s7.07,3,10.65,4.39a30.52,30.52,0,0,0,6.29,1.86c3.25.53,6.37,1.73,9.68,1.94a11.25,11.25,0,0,1,1.61.34,2.4,2.4,0,0,1,1.86,1.44,2.23,2.23,0,0,1,.16.4c2,5.47,5.35,10.2,8.78,14.83a62.43,62.43,0,0,0,9.55,10.21c2.4,2.07,4.75,4.18,7.3,6.06A47.48,47.48,0,0,0,403.3,572c1.1.56,2.19,1.15,3.24,1.78A86.33,86.33,0,0,0,426,582.58c.38.12.72.34,1.12.47,3.24,1.08,6.34,2.61,9.76,3.12,2.16,1.06,4.51,1.16,6.83,1.47a10,10,0,0,0,2.05.05,3.55,3.55,0,0,0,3-1.83,7.34,7.34,0,0,0,1.14-5.93,13.43,13.43,0,0,0-.6-2,49.16,49.16,0,0,0-4.05-7.62c-1.92-3-4.25-5.73-6.07-8.82a23.78,23.78,0,0,0-1.46-2c-1.67-2.2-3.27-4.41-4.88-6.64-2.42-3.34-5-6.55-7.65-9.72a72.63,72.63,0,0,1-4.89-7.14.38.38,0,0,1,.09-.35c.18-.18.43-.46.64-.43,3.81.45,7.62,1,11.42,1.41,4.66.5,9.3.94,13.95,1.4a19,19,0,0,0,5.73,0,10.12,10.12,0,0,1,2.46.06,36.88,36.88,0,0,0,8.19-.73,3.15,3.15,0,0,0,2.57-2.36,5,5,0,0,0,.27-1.21,3.29,3.29,0,0,0-.65-2.72,44.15,44.15,0,0,0-3.25-3.72,49.15,49.15,0,0,0-8.4-6.6c-2.22-1.36-4.44-2.75-6.67-4.12a63.38,63.38,0,0,0-6.82-3.84c-3.1-1.45-5.94-3.4-9-4.95a86.09,86.09,0,0,0-10-4.76c-2.06-.72-4-1.78-6-2.65-7.67-3.36-15.57-6.12-23.46-8.93-1.93-.69-3.95-1.15-5.95-1.67a5.36,5.36,0,0,1-2.45-1.41,25.66,25.66,0,0,1-3-3.39,34.94,34.94,0,0,0-5.16-5.3c-4.09-3.44-8.18-6.91-12.06-10.59a11.87,11.87,0,0,0-1.63-1.27l-9.27-6.14a15.48,15.48,0,0,0-1.42-.83q-4.64-2.23-9.26-4.5A4,4,0,0,1,339.17,455Zm-61.28,9.35a4,4,0,0,1,3.13,1.95,17.35,17.35,0,0,1,6.84,4.47c.07.07.07.25.1.37a1.34,1.34,0,0,0,.37-.16c1.15-.68,1.28-1.17.43-1.76q-2.37-1.62-4.79-3.19c-1.15-.77-2.3-1.51-3.44-2.26-.28-.19-.31-.45-.15-.62a.58.58,0,0,1,.37-.13,3.61,3.61,0,0,1,2,.5,25.74,25.74,0,0,0,8,3,22.57,22.57,0,0,1,5.4,1.92,16.09,16.09,0,0,0,4.7,1.38,27.55,27.55,0,0,1,5.24,1.08c1.95.62,4,1.12,6,1.57,4,.87,8,1.81,12,3,1,.31,2.07.77,3.13,1a91.6,91.6,0,0,1,10.61,3.28c2,.67,3.84,1.44,5.85,2a31.06,31.06,0,0,1,7.12,3.16,4.19,4.19,0,0,1,1.06,1.2c.06.09,0,.31-.07.4a1.26,1.26,0,0,1-.58.49,1.61,1.61,0,0,1-.78-.1c-3.51-1.16-7.15-2-10.72-2.87a1.1,1.1,0,0,0-.8,0,2.71,2.71,0,0,0-.78.87c-.14.28.29.92.56,1a7.19,7.19,0,0,0,.8.2c4.67.58,9,2.24,13.35,4a6.07,6.07,0,0,1,1.39.86,3,3,0,0,1,.77.94,6.62,6.62,0,0,1,.82,3.14.78.78,0,0,1-.47.56c-.24.12-.53,0-.8,0a2.18,2.18,0,0,0-.75.19c-.3.11-.33.91-.15,1.12.61.67,1.52.58,2.21,1a4.34,4.34,0,0,1,1.88,1.59,1,1,0,0,1,.09.94,1,1,0,0,1-.7.64,4.75,4.75,0,0,0-.81.19.86.86,0,0,0-.43.57.88.88,0,0,0,.33.68,4.93,4.93,0,0,0,1.46.75,4.44,4.44,0,0,1,2.85,2.77c.55,1.25,1.11,2.49,1.62,3.78a2.69,2.69,0,0,1,.17,1.19.74.74,0,0,1-.46.55,4.49,4.49,0,0,1-2.79-.43l-6-2.72c-2-.9-3.81-2.18-5.95-2.76a24,24,0,0,0-6.49-2.55,18.75,18.75,0,0,1-4.46-2c-1.05-.64-2.11-1.26-3.21-1.82-.17-.09-.53.12-.73.27a.75.75,0,0,0,0,1.07l0,0c.11.09.17.23.29.29a52.42,52.42,0,0,0,7.79,3.71,63.17,63.17,0,0,1,13.42,6.16,15.05,15.05,0,0,0,1.89.83c2.29.9,4.61,1.74,6.89,2.69a2.56,2.56,0,0,1,1.77,2.57.73.73,0,0,1-.69.76h-.08a4.5,4.5,0,0,1-1.21-.14c-2.85-1-5.82-1.63-8.43-3.24a8.7,8.7,0,0,0-1.9-.77.76.76,0,0,0-.69.26.83.83,0,0,0,0,.75,1,1,0,0,0,.47.62c2.14.93,4.2,2,6.43,2.76s4.36,1.64,6.53,2.54a2.68,2.68,0,0,1,1.4,1.43,1,1,0,0,1-.29,1.42,1.09,1.09,0,0,1-.39.15c-.26,0-.55,0-.81.05a1.09,1.09,0,0,0-1,.56c-.17.3,0,.71.54,1,.86.41,1.72.83,2.56,1.28a.44.44,0,0,1,.16.73,1.5,1.5,0,0,1-.53.53,1.22,1.22,0,0,1-.8.06c-3-.92-6.17-1.3-9.05-2.68a.48.48,0,0,0-.39,0,.56.56,0,0,0-.31.22c-.19.25-.1,1,.1,1.13a12.23,12.23,0,0,0,3,1.35c3,.53,5.75,1.9,8.79,2.11a1.53,1.53,0,0,1,1.2,1,1,1,0,0,1-.62,1.26h0a12.68,12.68,0,0,1-4.46-.53c-.92-.3-1.85-.52-2.78-.74a52,52,0,0,0-6.36-1.61c-4.73-1.8-9.72-2.93-14.17-5.51-.59-.35-1.24-.59-1.86-.89-2.6-1.24-5.22-2.43-7.79-3.73-2-1-3.9-2-5.79-3.14s-3.78-2.24-5.62-3.44c-2.66-1.68-5.39-3.29-7.91-5.21s-5.16-3.6-7.71-5.47c-1.89-1.36-3.81-2.69-5.62-4.15a18.92,18.92,0,0,1-2.16-2.48,8.76,8.76,0,0,0-1-.76c-3.71-3.06-6.95-6.62-10.48-9.85a17.05,17.05,0,0,1-2.39-2.84,14.83,14.83,0,0,0-2.14-2.47,18,18,0,0,1-1.66-1.83l-9.51-11.4c-1.14-1.38-2.21-2.78-3.29-4.21a1.09,1.09,0,0,1-.09-.71c0-.3.75-.19,1.08.16s.94,1,1.37,1.52c1.92,2.33,3.8,4.71,5.7,7a35.91,35.91,0,0,0,2.49,2.75c1.25,1.28,2.52,2.52,3.84,3.72s2.71,2.33,4,3.52,2.66,2.36,4,3.5c.13.13.48,0,.72,0a.44.44,0,0,0,0-.32,22.1,22.1,0,0,0-2.05-2.56c-2.54-2.51-5.17-4.93-7.75-7.39-1-1-2-1.89-2.88-2.94-1.46-1.64-2.85-3.35-4.27-5a5.66,5.66,0,0,1-.66-1c-.25-.32-.19-.55.18-.68a.44.44,0,0,1,.37,0c2.18,1.42,4.37,2.84,6.53,4.28s4.24,3.06,6.45,4.45c2.79,1.76,5.36,3.8,8,5.78,3.4,2.54,7,4.81,10.58,7.12,1.39.88,2.92,1.5,4.38,2.26,1.11.57,2.19,1.15,3.25,1.77q4.63,2.73,9.22,5.47a13.61,13.61,0,0,0,4.15,1.72c.19,0,.46-.16.65-.29s0-.3-.05-.37a7.33,7.33,0,0,0-1.5-1.39c-3-1.68-6.07-3.17-9-5-3.16-1.92-6.43-3.65-9.65-5.48-.71-.42-1.38-.88-2.1-1.33-2.07-1.33-4.11-2.75-6.22-4a53.93,53.93,0,0,1-7.81-6.07c-.27-.23-.28-.72-.44-1.09a3.45,3.45,0,0,1-2.34-.53c-1.42-1-2.82-2.12-4.18-3.24-.28-.22-.29-.71-.41-1.09a5.11,5.11,0,0,1-1.23-.1,2.21,2.21,0,0,1-1.9-1.85l-.76-.1c-.38-.09-.45-.25-.19-.46a.31.31,0,0,1,.34.07A5.25,5.25,0,0,1,277.89,464.31ZM213,526.67l-.1.08c-.37-.73-.78-1.44-1.09-2.19-.09-.18.09-.48.2-.71a.42.42,0,0,1,.34,0A3.57,3.57,0,0,1,214,525a23.94,23.94,0,0,0,2.5,2.73c1.18.94,2.24,2,3.35,3.06,1.79,1.67,3.43,3.55,5.6,4.8a8.38,8.38,0,0,1,1.25,1c2.47,2.17,5.19,4.06,7.37,6.54a12.86,12.86,0,0,0,1.29,1.05c2.82,2.38,5.79,4.61,8.46,7.16,3.16,3,6.55,5.87,9.37,9.28,1.83,2.25,3.68,4.42,5.51,6.66a15.43,15.43,0,0,1,1.32,2.07,10.12,10.12,0,0,1,1,3.11,1.87,1.87,0,0,1-1.29,1.87,10.93,10.93,0,0,1-4.07.19,45.83,45.83,0,0,1-8.65-2.6,48.25,48.25,0,0,0-6.45-2.75,6.3,6.3,0,0,1-1.4-.81c-2.79-1.73-5.46-3.67-8.33-5.29a34.08,34.08,0,0,1-6.56-5,41.22,41.22,0,0,1-6.41-7.48c-1.05-1.61-2-3.31-3.1-4.84a2,2,0,0,1-.3-.77,1.46,1.46,0,0,1,.15-.77c.12-.29.41-.32.7-.13l1.61,1.26a15.78,15.78,0,0,0,3.66,2.62.54.54,0,0,0,.35-.11c.06-.06.11-.25.06-.3-1.75-1.73-3.54-3.43-5.3-5.16a20.65,20.65,0,0,1-4.76-6.64c-.78-1.9-1.52-3.82-2.26-5.74a.61.61,0,0,1,0-.42.62.62,0,0,1,.24-.29.35.35,0,0,1,.34,0c1.84,2.2,3.47,4.57,5.21,6.84a56.22,56.22,0,0,0,7.08,8,15.6,15.6,0,0,1,2.55,2.65,17.42,17.42,0,0,0,2.91,2.91c.71.62,1.46,1.22,2.16,1.89a54.52,54.52,0,0,0,7.33,6,61.08,61.08,0,0,1,5.73,4c.13.11.53,0,.75-.1a.77.77,0,0,0,.06-1.09c-1.77-1.27-3.26-2.94-5.29-3.84a4.51,4.51,0,0,1-1.4-.87,19.77,19.77,0,0,0-3.65-2.65,12.3,12.3,0,0,1-3.32-3,6,6,0,0,0-1.45-1.44,16.23,16.23,0,0,1-2.62-2.62c-.63-.72-1.33-1.36-2-2s-1.21-1.09-1.74-1.71a53.25,53.25,0,0,1-5-6,32.36,32.36,0,0,0-2.05-2.56,50.72,50.72,0,0,1-5.29-8.3.56.56,0,0,1-.07-.4c.06-.24.13-.57.32-.68a.72.72,0,0,1,.7.19c.47.51.84,1.08,1.3,1.6A1.69,1.69,0,0,0,213,526.67Zm-13.36-8.61.1-.07a7.71,7.71,0,0,0,1,3.53c.37.72.81,1.43,1.16,2.17a1.43,1.43,0,0,1-.05.74c-.06.26-.75.17-1.1-.15a8.35,8.35,0,0,1-1.13-1.17c-1.59-2.55-3.53-4.89-5-7.53-.2.12-.35.15-.38.24s-.18.5-.31.75a.77.77,0,0,1-1,.52.87.87,0,0,1-.3-.16,12.91,12.91,0,0,1-3.2-3.74,34.09,34.09,0,0,1-3.8-7.28,5.23,5.23,0,0,0-.74-1.45,13.33,13.33,0,0,1-1.43-2.94,89.29,89.29,0,0,0-3.71-8.73,21.63,21.63,0,0,1-1.27-3.48c-.21-.65-.3-1.33-.5-2q-2.07-6.49-4.15-13a7.86,7.86,0,0,0-.48-1.12c-.16-.31-.37-.43-.54-.28a.59.59,0,0,0-.18.35,14.53,14.53,0,0,0,.77,4.85c.47,1.71,1,3.43,1.56,5.11,1.2,3.8,2.09,7.7,3.62,11.39a91.85,91.85,0,0,0,4.83,10.88.51.51,0,0,1,.05.4,1.25,1.25,0,0,1-.36.68.61.61,0,0,1-.66-.16,32,32,0,0,1-2.75-4.08,33.78,33.78,0,0,0-2.11-3.52,29.32,29.32,0,0,1-2.91-4.95c-1.25-2.9-2.21-5.93-3.27-8.91-.52-1.4-1-2.85-1.48-4.28a2,2,0,0,0-.45-.67.53.53,0,0,0-.37-.13.41.41,0,0,0-.31.17,1.27,1.27,0,0,0-.21,1.53,34.22,34.22,0,0,1,2.71,6.46c.57,1.69,1.24,3.33,1.9,5,.76,1.91,1.55,3.8,2.34,5.7a.39.39,0,0,1-.11.34c-.07.07-.26.13-.31.08a13.53,13.53,0,0,1-2.92-3.43c-1.14-1.87-2.28-3.75-3.36-5.66-.41-.7-.67-1.47-1.77-1.24-.26.06-.69-.4-.94-.71-2.12-2.68-3.73-5.76-5.66-8.58a27.33,27.33,0,0,1-3.81-6.79,6.5,6.5,0,0,0-.58-1.11,40.53,40.53,0,0,1-3.59-7.84c-.62-1.84-1.42-3.58-2.11-5.37a21.23,21.23,0,0,1-1-3.13c-.58-2.82-1.08-5.66-1.57-8.51-.38-2.16-.69-4.32-1-6.51a21.26,21.26,0,0,1-.38-3.28c0-2.6-.5-5.2-.26-7.8a11.22,11.22,0,0,0-.16-2.08c-.06-1.09-.16-2.2-.15-3.27s-.07-2.21-.17-3.28c-.19-1.91-.15-3.84-.21-5.76a.66.66,0,0,1,.13-.37.59.59,0,0,1,.27-.27.58.58,0,0,1,.41,0,1.72,1.72,0,0,1,.64.46c2.42,4,5,7.89,7.47,11.85a8.81,8.81,0,0,1,.7,1.49,82.48,82.48,0,0,0,4.19,9.36,48.23,48.23,0,0,1,4.05,9,17.53,17.53,0,0,0,1.28,3,7.3,7.3,0,0,0,1,1.32.53.53,0,0,0,.36.21c.42-.05.51-.25.31-.64a24.91,24.91,0,0,1-2.52-7.35,4.36,4.36,0,0,0-.39-1.17c-1.19-2.48-2.07-5.08-3.49-7.45a34.53,34.53,0,0,1-2.58-5.59,29.64,29.64,0,0,0-1.82-3.71q-2.52-4.47-5.45-8.73a4.56,4.56,0,0,1-1-2.22.46.46,0,0,1,.2-.31.41.41,0,0,1,.34-.1,1.67,1.67,0,0,1,.73.33c1.5,1.4,2.94,2.88,4.48,4.26a95.71,95.71,0,0,1,9.58,10.15c1.32,1.58,2.62,3.21,4,4.71,3,3.27,5.26,7,7.66,10.71,1,2.42,2.41,4.63,3.58,7s2.18,4.75,3.48,7c2.81,4.9,4.94,10.13,7.64,15.08a18.23,18.23,0,0,1,1.3,3c.75,2.09,1.61,4.09,2.51,6.12a37.1,37.1,0,0,1,2.19,5.76c1.07,4,2.18,7.95,3.05,12,.74,3.49,1.41,7,2.28,10.45.95,3.86,2,7.7,2.67,11.63a8.17,8.17,0,0,1,.1,1.64c0,.19-.29.38-.48.54a.47.47,0,0,1-.4-.07,5.14,5.14,0,0,1-1.14-1.14c-.72-1.16-1.31-2.4-2-3.57A7,7,0,0,0,199.65,518.06Zm146.41-47.89a5.37,5.37,0,0,1,1.81,1.64,17.58,17.58,0,0,0,2.2,2.44,76.32,76.32,0,0,1,8.82,8.61,28.27,28.27,0,0,1,3.38,4.12,42.77,42.77,0,0,0,4.8,6.16,75.76,75.76,0,0,1,5.34,6.78,19.86,19.86,0,0,1,1.52,2.44,62.1,62.1,0,0,0,6.6,9.91c2.41,3.15,4.55,6.53,6.69,9.88a24.27,24.27,0,0,0,3.31,4.17c.33-.5.41.29.31-.25a3.43,3.43,0,0,0-.2-1.15c-.92-1.69-1.93-3.32-2.83-5a53.09,53.09,0,0,0-7.15-10.55,23.26,23.26,0,0,1-3.64-5.45,27.61,27.61,0,0,0-1.82-3.23c-2.54-3.75-5.31-7.34-8.17-10.86-1.72-2.12-3.52-4.19-5.23-6.35a72.4,72.4,0,0,0-9.23-9.94,18.84,18.84,0,0,1-2.34-2.3,28.86,28.86,0,0,0-3.94-4.18A3.36,3.36,0,0,1,345,465c-.25-.05-.51-.06-.74-.12-.39-.09-.46-.25-.19-.46a.48.48,0,0,1,.34.11c.17.17.32.38.48.57a5.67,5.67,0,0,1,2.17,1.11c2.54,1.89,5.12,3.72,7.71,5.52a58.55,58.55,0,0,1,5.31,4.51,7.13,7.13,0,0,1,.66,1,2.1,2.1,0,0,0,.61.54.34.34,0,0,0,.37,0c.19-.19.46-.43.44-.62a3,3,0,0,0-.41-1.12,19.57,19.57,0,0,0-5.23-5.23c-2-1.43-3.93-3-5.88-4.49-1.21-.91-2.48-1.74-3.72-2.57-.55-.4-1.17-.72-1.73-1.14a5.76,5.76,0,0,1-.87-.84.55.55,0,0,1-.14-.37c.18-.15.46-.4.59-.32a40.44,40.44,0,0,1,7,3.45c1.15.74,2.29,1.55,3.5,2.2a37.49,37.49,0,0,1,7.81,6,54.1,54.1,0,0,0,5.88,5.14,49.44,49.44,0,0,1,8.43,7.86c2.26,2.58,4.23,5.39,6.79,7.71a6.06,6.06,0,0,1,.78,1c4.85,6.32,9.38,12.87,14.3,19.11.76,1,1.41,2,2.15,3,.88,1.21,1.78,2.44,2.7,3.62,1.37,1.73,2.79,3.41,4.18,5.09s2.58,3.21,3.88,4.8c3.12,3.86,6.24,7.69,9.31,11.56,1.28,1.61,2.41,3.35,3.68,5,3.07,3.87,6.08,7.77,8.93,11.83,3.22,4.61,6.53,9.16,9.72,13.8a33.32,33.32,0,0,1,3.47,6.54,7.42,7.42,0,0,1,.57,3.22c-.24,2.93-1.91,4-4.78,3.77a1.82,1.82,0,0,1-.79-.18,16.43,16.43,0,0,0-4.79-1.09,8.52,8.52,0,0,1-3.11-1,8.59,8.59,0,0,0-1.86-.89c-2.85-.54-5.32-2.27-8.2-2.67-4-1.74-8.09-3.37-12-5.25-2.62-1.22-5.06-2.77-7.55-4.23a89.32,89.32,0,0,1-15.26-11.84c-1.51-1.38-3-2.86-4.33-4.38-2.95-3.28-5.22-7.07-8-10.51a6.25,6.25,0,0,1-.62-1.06c-1.54-3.66-3.59-7.11-4.78-10.93-1-3.27-2.34-6.44-3.24-9.77a58.86,58.86,0,0,0-2.45-7.44,13,13,0,0,1-.73-2.35,28.27,28.27,0,0,0-2.21-6.2c-1-2.28-2-4.51-2.9-6.83-1.47-4-3.07-8-4.9-11.78a80.73,80.73,0,0,0-5.73-10.94c-1-1.46-2-2.9-3.06-4.38a2.1,2.1,0,0,1-.4-1.94,6.42,6.42,0,0,1-.75-.1c-.38-.09-.44-.27-.18-.47a.39.39,0,0,1,.36.09,3.68,3.68,0,0,1,.45.59ZM87.92,366a1.46,1.46,0,0,1-1.44.52c-.31,0-.48-.2-.44-.42s.25-.16.36-.14l1.59.14a1.08,1.08,0,0,1,.87-.75A27,27,0,0,0,94,363.94a3.83,3.83,0,0,0,.91-.74.38.38,0,0,0,0-.34.44.44,0,0,0-.31-.28,12.27,12.27,0,0,0-5.19.87c-1.85.55-3.75.77-5.63,1.14a8.2,8.2,0,0,1-2.42-.15c-1,.8-1.2.81-.94.35.07-.13.4-.16.62-.23a1.76,1.76,0,0,1,.4,0,3.6,3.6,0,0,1,.87-.78c1.64-.72,3.29-1.37,5-2a84.75,84.75,0,0,0,12-5.38,15.18,15.18,0,0,0,3.34-2.39,21.34,21.34,0,0,1,6.4-4.39,11.18,11.18,0,0,0,3.66-2.62,8.54,8.54,0,0,1,1.92-1.51,44.32,44.32,0,0,0,6.9-5.24,30.55,30.55,0,0,1,4.9-3.72,9.32,9.32,0,0,0,2.24-1.81c3.14-3.48,6.73-6.48,10.11-9.69a75.8,75.8,0,0,1,9.27-7.5,10.06,10.06,0,0,0,1-.74c2.64-2,5.42-3.73,8.18-5.55s5.93-2.91,8.6-4.84c4.68-2.29,9.31-4.68,14.06-6.85,2.48-1.16,5.09-2,7.52-3.36a9.14,9.14,0,0,1,1.89-.77c4.21-1.28,8.4-2.58,12.6-3.79,2.78-.8,5.6-1.41,8.34-2.26a76.68,76.68,0,0,1,7.61-1.85c3.77-.76,7.52-1.46,11.31-2.12,2.69-.47,5.39-.93,8.14-1.17a74.06,74.06,0,0,0,9.37-1.18,52.25,52.25,0,0,1,9-.74,24.13,24.13,0,0,1,3.28.24l.38.14c.31.05.52.76.35,1-.75,1.37-2.14,2.11-3.13,3.25a16.69,16.69,0,0,1-5.79,4.55,11.84,11.84,0,0,0-1.39.86c-3.51,2.18-7,4.4-10.62,6.33a19.47,19.47,0,0,0-2.72,1.81,38.06,38.06,0,0,1-3.91,3,19.3,19.3,0,0,0-3.25,2.51,18.76,18.76,0,0,1-1.92,1.54c-.75.58-1.57,1.09-2.3,1.71-3.09,2.74-6.24,5.38-9.55,7.83A19.4,19.4,0,0,0,212,319.8c-2.85,3.18-6.23,5.79-9.32,8.7a9.57,9.57,0,0,1-1.6,1.3,19.31,19.31,0,0,0-3.44,2.94,18,18,0,0,1-1.86,1.62c-3.19,2.6-6.41,5.17-9.63,7.74-.86.68-1.8,1.27-2.7,1.88-1.94,1.32-4,2.48-5.78,3.94-3.53,2.91-7.45,5.2-11.18,7.76a69.62,69.62,0,0,1-5.94,3.66Q156,361.8,151.39,364c-2.23,1.08-4.52,2-6.84,2.85s-4.39,1.55-6.62,2.24a109.06,109.06,0,0,1-12,2.82c-4.29.81-8.68,1.12-13,1.73a20.68,20.68,0,0,1-5.33.13,20.1,20.1,0,0,0-4.52.12,13.44,13.44,0,0,1-6.28-.8c1.06-.29,1.83-.56,2.61-.69a20.08,20.08,0,0,1,2.45-.21,19.87,19.87,0,0,0,8-1.78.37.37,0,0,0,.18-.32.55.55,0,0,0-.31-.25,7.14,7.14,0,0,0-3.25.15,46.25,46.25,0,0,1-9.82.81c-3.7,0-7.41-.43-11.1-.73a11.32,11.32,0,0,1-2-.48c-.1-.05-.27-.18-.27-.24a.4.4,0,0,1,.24-.33,9.38,9.38,0,0,1,1.58-.4c1.63-.17,3.28-.2,4.89-.48s3.21-.79,4.82-1.15c.65-.15,1.34-.14,2-.23s1.62-.23,2.42-.41c2.66-.65,5.3-1.37,8-2a67.16,67.16,0,0,0,13.11-4.83c1.11-.55,2.23-1.05,3.33-1.6a.49.49,0,0,0,.17-.34c-.17-.16-.39-.41-.58-.4a10.82,10.82,0,0,0-4.25,1.39,46.9,46.9,0,0,1-12.45,4.15c-.94.19-1.82.55-2.78.77-2.4.56-4.77,1.26-7.21,1.6a44.82,44.82,0,0,0-5.27.85A7.76,7.76,0,0,1,87.92,366Zm378.43,18a19.75,19.75,0,0,1,1-4.81,31.67,31.67,0,0,0,1.48-5.56,45.75,45.75,0,0,1,1.34-6,43.53,43.53,0,0,1,4.42-10.62c.43-.69.72-1.46,1.11-2.2,1.7-3.15,3.28-6.35,5.27-9.32a43.72,43.72,0,0,0,2.69-4.64,29.23,29.23,0,0,1,2.7-4.15,125.53,125.53,0,0,1,9.66-10.7c1.42-1.47,2.9-2.95,4.43-4.28,4-3.4,7.9-6.81,12.1-9.94a65.32,65.32,0,0,1,5.64-4.14,10.41,10.41,0,0,0,1.28-1A157.4,157.4,0,0,1,533,296.3c4.68-3.12,9.3-6.32,14-9.35,3.12-2,6.21-4.05,9.23-6.18a143.89,143.89,0,0,1,14.16-9.18c.6-.32,1.14-.75,1.71-1.13a83.09,83.09,0,0,1,9.57-5.68c1.25-.59,2.47-1.17,3.71-1.79A68,68,0,0,1,597,258.83a6.42,6.42,0,0,1,1.63-.3,10.3,10.3,0,0,1,2,.31,1.44,1.44,0,0,1,.83,1.69,12.55,12.55,0,0,1-2.12,3.5c-1.22,1.49-2.4,3-3.73,4.38a136.07,136.07,0,0,1-11.26,10.88,83.59,83.59,0,0,0-9,9c-1.74,1.95-3.28,4.1-5.12,5.92-2.18,2.11-4.1,4.45-6,6.75a80.33,80.33,0,0,0-8,11,70.32,70.32,0,0,1-7.39,9.87,35.43,35.43,0,0,0-3.87,5.32c-1.06,1.77-2,3.57-3.1,5.34-.4.73-.86,1.39-1.31,2.08-1.42,2-2.81,4.08-4.24,6.1a26.4,26.4,0,0,1-2.4,3.34,33,33,0,0,0-2.73,3.59,65,65,0,0,1-5.58,7.12,59.28,59.28,0,0,0-6.06,7.27,14.39,14.39,0,0,1-2.5,2.73c-1.63,1.47-3.3,2.9-4.91,4.42-2.28,2.16-4.45,4.48-6.81,6.54a113.13,113.13,0,0,1-11.29,9c-3.78,2.51-7.8,4.61-11.62,7a2,2,0,0,1-.77.27,1,1,0,0,1-.71-.24.69.69,0,0,1,0-.72,32.09,32.09,0,0,1,3-3.4c2.48-2.25,4.09-5.13,5.85-7.89a1.6,1.6,0,0,0,.07-.81c0-.09-.13-.19-.19-.31a4,4,0,0,0-.91.77,49.79,49.79,0,0,1-10.22,11.26c-.74.59-1.35,1.37-2.06,2-1.13,1-2.27,2-3.47,2.91a4,4,0,0,1-1.11.49.48.48,0,0,1-.37-.05.43.43,0,0,1-.33-.51.47.47,0,0,1,.1-.2,69.29,69.29,0,0,1,5.21-6.87,84.74,84.74,0,0,0,9.78-14.74c.37-.72.75-1.46,1.18-2.15,2.93-4.82,5.76-9.69,9-14.32,1.71-2.48,3.11-5.18,5-7.52a16.58,16.58,0,0,0,2.4-3.36,44.76,44.76,0,0,1,5.57-8.14,19,19,0,0,0,1.1-1.7.4.4,0,0,0-.05-.38c-.2-.34-.42-.36-.65-.06a19.15,19.15,0,0,0-1.79,1.7c-.83.91-1.55,1.93-2.38,2.85a28.55,28.55,0,0,0-3.84,5.35,38,38,0,0,1-3,4.41c-1.23,1.64-2.69,3.1-3.33,5.16a4.63,4.63,0,0,1-.91,1.36c-1,1.35-1.95,2.66-2.88,4a25.21,25.21,0,0,0-2.25,3.45c-2.35,5-5.85,9.31-8.23,14.26-.43.9-8.58,11.83-9.29,12.6a3.47,3.47,0,0,1-1.23,1.05c-.87.28-1.89,0-2.67.69-.07.07-.27.06-.4,0a.42.42,0,0,1-.26-.21,5.12,5.12,0,0,1,.07-1.61c1.61-4.39,3.37-8.72,4.9-13.12a39.09,39.09,0,0,1,4.26-8.89,2.89,2.89,0,0,0,.37-1.14.47.47,0,0,0-.15-.35.37.37,0,0,0-.31,0,20.48,20.48,0,0,0-3.9,5.76A86.84,86.84,0,0,0,468,384.41a6.48,6.48,0,0,1-1.17,2.14.5.5,0,0,1-.38.15.32.32,0,0,1-.16-.28C466.31,385.58,466.32,384.77,466.35,383.94ZM242.1,421.55c-.89.38-1.76.81-2.65,1.16-.19.08-.48,0-.72-.1A2.46,2.46,0,0,1,239,422a13,13,0,0,1,1.93-1.55c1.38-.9,2.81-1.72,4.21-2.56a.73.73,0,0,0,.33-.24c.09-.23.24-.56.15-.71a.76.76,0,0,0-.67-.31,78.17,78.17,0,0,0-8.21,4.67,4.06,4.06,0,0,1-1.11.43c-.07,0-.29-.24-.28-.25a9.89,9.89,0,0,1,2.73-2.47c2.35-1.67,4.82-3.19,7.11-4.92a89.48,89.48,0,0,0,7-6.35,4.49,4.49,0,0,0,.5-.65c2.43-3.16,4.82-6.35,7.3-9.48,2.05-2.58,3.58-5.52,5.51-8.2a4.26,4.26,0,0,0,.53-1.12,52.12,52.12,0,0,1,4.88-10c.47-.83.9-1.7,1.31-2.56,1.12-2.36,2.26-4.71,3.35-7.07,1.33-2.87,2.72-5.71,3.92-8.65.69-1.78,1.46-3.56,2.23-5.3s1.44-3.28,2.05-4.95c.34-.9.37-1.9.7-2.79a96.18,96.18,0,0,1,5.06-11.71c2.1-3.87,4.52-7.56,6.42-11.52a7.09,7.09,0,0,1,.6-1.08q2.82-4.32,5.66-8.61c.52-.82,1-1.64,1.51-2.46a35.72,35.72,0,0,1,3.73-5.42c.92-1,1.78-2.1,2.63-3.19a43,43,0,0,1,11.17-9.66c2.78-1.75,5.67-3.31,8.53-5,.31-.2.55-.14.67.19a.47.47,0,0,1-.05.4c-1,1.25-2.09,2.51-3.2,3.73a25.62,25.62,0,0,0-3.89,5.31,15.53,15.53,0,0,1-1.86,2.69,84.35,84.35,0,0,0-6.13,8.76c-1.85,3.05-3.24,6.36-5.19,9.38a19.71,19.71,0,0,0-.84,1.87c-.46,1-.91,2-1.4,3-1.53,2.94-3.21,5.78-4.49,8.8-2.45,5.68-5.41,11.14-7.15,17.08a5.28,5.28,0,0,1-.31.78c-1.6,3.49-2.72,7.18-4.18,10.74a2.22,2.22,0,0,0-.15.8c0,.1.09.32.18.32.24.06.58.1.69,0a4.46,4.46,0,0,0,.93-1.35q1.85-4.59,3.64-9.18c.59-1.54,1.12-3.11,1.8-4.61,1.2-2.62,2.48-5.2,3.71-7.81.93-2,1.71-4.05,2.76-6,2-3.75,3.49-7.77,5.62-11.46,1.37-2.38,2.64-4.83,3.78-7.33a23.63,23.63,0,0,1,2.74-4.58,8,8,0,0,0,1.17-1.7,19.48,19.48,0,0,1,2.32-3.38c.57-.78,1.19-1.52,1.75-2.29q3.92-5.31,7.77-10.66c1.79-1.67,3.14-3.76,5.1-5.31a16.14,16.14,0,0,1,5.36-2.94,115.69,115.69,0,0,0,11.61-4.22c2.52-1.12,5.06-2.16,7.57-3.25a1.82,1.82,0,0,1,.4-.11.47.47,0,0,1,.62.21.65.65,0,0,1,0,.13.45.45,0,0,1-.06.39,78.72,78.72,0,0,1-5.7,7.53,11.23,11.23,0,0,0-2,3.11,12.42,12.42,0,0,1-2.57,4.19,18.11,18.11,0,0,0-2.43,3.81c-.75,1.46-1.5,3-2.38,4.36q-4.37,7-8.81,13.93a13,13,0,0,0-2,4,9,9,0,0,1-.9,1.85c-1.44,2.65-3.13,5.2-4.31,8a59.86,59.86,0,0,1-4.32,7.95,6.36,6.36,0,0,0-.34.75c-1.07,2.82-2.8,5.35-3.79,8.23a6.11,6.11,0,0,1-.77,1.45c-1.83,2.74-3.32,5.68-4.89,8.61-1.33,2.24-2.56,4.55-3.66,6.91a36.17,36.17,0,0,1-3.06,5.81,52.12,52.12,0,0,0-3.12,5.8,57.73,57.73,0,0,1-3.9,7.27c-.59.92-1.15,1.86-1.71,2.81a71.72,71.72,0,0,1-6.38,9.6,67.64,67.64,0,0,0-5.65,7.62,29.85,29.85,0,0,1-3.08,3.83,67.88,67.88,0,0,1-9.29,8.14,38,38,0,0,1-6.65,4.13q-4.82,2.28-9.68,4.57a13.13,13.13,0,0,1-1.92.74c-2.91.84-5.8,1.66-8.72,2.45a11.65,11.65,0,0,1-2,.27.4.4,0,0,1-.31-.22.28.28,0,0,1,.07-.32,4,4,0,0,1,1-.7c2.55-1,5.11-2,7.66-3a27,27,0,0,0,5.2-2.48c.35-.22.78-.4.77-.89-.05-.73-.7-.67-1.17-.84a.56.56,0,0,1-.4-.4.51.51,0,0,1,.18-.53,105,105,0,0,0,8.89-8c2.44-2.58,4.92-5.15,7.21-7.89a5.57,5.57,0,0,0,.77-1c1.44-2.81,3.45-5.29,4.75-8.18.74-1.63,1.6-3.19,2.4-4.79a.5.5,0,0,0,0-.38.41.41,0,0,0-.27-.27c-.1,0-.32-.09-.38,0a33.79,33.79,0,0,0-3.78,5.35c-2.57,4.22-4.86,8.64-8.65,12a3.09,3.09,0,0,0-.48.66,14.05,14.05,0,0,1-3.06,3.33c-1,.78-1.83,1.68-2.78,2.48a49.81,49.81,0,0,1-6.79,5.31A146.56,146.56,0,0,1,242.1,421.55Zm243.3-23.87c-1.5-.15-3-.3-4.5-.43a6.13,6.13,0,0,1-1.21-.21c-.22-.07-.58-.31-.55-.45a1.06,1.06,0,0,1,.43-.64,7.64,7.64,0,0,1,5.76-1.77,12.44,12.44,0,0,0,4.07-.46.51.51,0,0,0,.26-.3.37.37,0,0,0-.22-.25c-.8-.21-1.59-.36-2.36-.59-.18-.06-.28-.4-.38-.62a.36.36,0,0,1,.1-.37,5.57,5.57,0,0,1,.94-.74c1.91-1.11,3.84-2.16,5.74-3.28.93-.55,1.74-1.39,2.7-1.85s2.11-.51,3.14-.9a23.79,23.79,0,0,1,6-1.33c1.92-.14,3.81-.5,5.72-.66,3.82-.31,7.65-.62,11.49-.8a36.28,36.28,0,0,0,5.3-.6,27,27,0,0,1,6.5-.86,2.9,2.9,0,0,0,.83-.09c2.79-.75,5.67-.89,8.51-1.42a52.25,52.25,0,0,1,5.27-.9,27.69,27.69,0,0,0,8-1.94,15.66,15.66,0,0,1,4.36-1.13c3.16-.24,6.19-1.14,9.29-1.67a7.64,7.64,0,0,0,1.55-.52,68.77,68.77,0,0,1,8.3-2.36,36.16,36.16,0,0,0,4.36-1.11c1.43-.57,2.85-1,4.27-1.43a.91.91,0,0,0,.46-1,1,1,0,0,0-1-.52,10.53,10.53,0,0,0-2.41.55,40.34,40.34,0,0,1-5.91,1.71,46.84,46.84,0,0,0-7.12,2.1,25.05,25.05,0,0,1-6,1.5c-2.43.36-4.79,1.22-7.27,1.33a3.31,3.31,0,0,0-1.15.42,43.89,43.89,0,0,1-9.16,2.36c-4.58.83-9.26.93-13.82,1.92a4,4,0,0,1-.85,0,29.28,29.28,0,0,0-6.9,1,17.05,17.05,0,0,1-2.85.43c-4.66.09-9.28.79-13.94,1.15-2.19.15-4.35.45-6.53.71l-1.23.1a.75.75,0,0,1-.81-.67,1,1,0,0,1,.79-.84,22.47,22.47,0,0,0,2.82-.49,29.12,29.12,0,0,1,10.09-1.67c2.18,0,4.35-.31,6.55-.23a12.74,12.74,0,0,0,2.81-.5.42.42,0,0,0,.24-.33c0-.07-.15-.21-.27-.24-2-.66-4.09-.39-6.13-.37-1.09,0-2.17.1-3.28.06a28.2,28.2,0,0,0-6.16.16,1.38,1.38,0,0,1-.8-.09,1.25,1.25,0,0,1-.48-.54.48.48,0,0,1,0-.42,6,6,0,0,1,3.54-2.64l3.17-.87c.55-.17.62-.59.19-1.29-.57-.93-.47-1.65.31-2a22.81,22.81,0,0,1,2.28-.95c2.43-.9,5-1.62,7.31-2.7a53.46,53.46,0,0,1,12.2-3.6c2.28-.44,4.58-.83,6.9-1.14,2.85-.37,5.7-.74,8.56-.95,4.11-.29,8.23-.28,12.34-.69,6.67-.68,13.32-1.6,19.94-2.84,3.63-.68,7.22-1.55,10.84-2.39,7.61-1.79,15.24-3.49,22.88-5.27a64.19,64.19,0,0,1,6.85-1.33,22.2,22.2,0,0,1,6.56.26,2,2,0,0,1,1.45,2.19,3.63,3.63,0,0,1-.53,1.53c-1.95,2.46-3.71,5.13-6.18,7.15a22.63,22.63,0,0,0-3.07,2.72,39.75,39.75,0,0,1-6.43,5.72A15.67,15.67,0,0,0,616,368a52.65,52.65,0,0,1-8.86,7.32c-1,.7-1.86,1.69-2.91,2.29-3.22,1.87-6.12,4.17-9.53,5.72-3.88,1.76-7.61,3.83-11.39,5.78a20.92,20.92,0,0,1-3.81,1.53c-1.46.4-2.85,1-4.27,1.52-5.12,2-10.16,4.17-15.49,5.57-.65.18-1.3.47-1.94.7a18.24,18.24,0,0,1-8.45,1.36c-.79-.09-1.72.31-2.42.06-2-.71-4.06-.7-6-1.26a35,35,0,0,0-11-1.12,44.89,44.89,0,0,0-9.81.88,14,14,0,0,1-2,.15,24.47,24.47,0,0,0-4.08.59,51.74,51.74,0,0,0-6.66,2.05,9.25,9.25,0,0,1-3.6.71A63.72,63.72,0,0,1,495,402a3.59,3.59,0,0,0-1.22.11,15.29,15.29,0,0,1-4.11,0,48,48,0,0,0-5.75-.19,36.06,36.06,0,0,1-6.57-.19,28.2,28.2,0,0,0-6.16-.16c-.09,0-.29-.15-.31-.22,0-.24.07-.64.21-.68a14.45,14.45,0,0,1,3.1-.95c3.94-.52,7.89-1.24,11.88-.74a5.7,5.7,0,0,0,1.65,0,17.63,17.63,0,0,1,4.92,0c.5.09,1-.37.74-.65s-.43-.45-.62-.44C490.31,398.12,487.87,397.72,485.4,397.68Zm-89.79-54.49a35.23,35.23,0,0,1,7.39,1.56,26.64,26.64,0,0,1,6.6,4.8c.24.33.4.73.65,1.07,2.17,2.91,3.29,6.33,4.31,9.75a30.61,30.61,0,0,1,.9,11.82,10,10,0,0,1-.4,2c-.63,2.11-1.34,4.18-2,6.29a17.94,17.94,0,0,1-2,4.49,27.41,27.41,0,0,0-2.45,5.2,26.62,26.62,0,0,1-4.92,8.94c-.83.92-1.69,1.81-2.47,2.77A44.77,44.77,0,0,1,388.84,412a34.87,34.87,0,0,1-7.48,3.42c-1.05.31-2.09.62-3.14.9a8.89,8.89,0,0,1-1.6.39c-2.31.24-4.65.37-7,.63a11.17,11.17,0,0,1-5.62-.84,21.42,21.42,0,0,1-4.13-1.82.93.93,0,0,1-.13-1.31l.12-.12a1.43,1.43,0,0,1,1.46-.49,9.45,9.45,0,0,1,1.15.45,1.18,1.18,0,0,0,1.47-.78,1.11,1.11,0,0,0,0-.6c0-.26-.14-.53-.17-.79a1.48,1.48,0,0,1,.92-1.89,1.7,1.7,0,0,1,.51-.08c.66-.1,1.36-.11,2-.2a1.82,1.82,0,0,0,.74-.32,1.22,1.22,0,0,0,.38-.68.79.79,0,0,0-.29-.68c-.61-.31-1.27-.48-1.88-.76a.88.88,0,0,1-.47-.65,11,11,0,0,1,0-1.62c0-.55,0-1.11-.55-1.41s-1.21,0-1.76.7c-.25.34-.46.69-.68,1s-.37.4-.54.61-.86.15-1.14-.07a12.86,12.86,0,0,1-2.33-3.34.83.83,0,0,0-1.08-.34c-.27.09-.53.18-.78.28a1,1,0,0,0-.66,1.23s0,0,0,.06a7.39,7.39,0,0,0,.38.74,6.43,6.43,0,0,1,1.31,4.63,1.69,1.69,0,0,0,.59,1,.75.75,0,0,1,.07,1.08,11.66,11.66,0,0,1-1.08,1.25.92.92,0,0,1-1.12.12,4.92,4.92,0,0,1-1-.64,23.71,23.71,0,0,1-6-8.25c-.92-2.31-1.55-4.69-2.38-7a11.78,11.78,0,0,1-.81-4.39c0-1-.12-1.92-.1-2.88a13.06,13.06,0,0,1,.11-2.07c.3-1.74.76-3.47,1-5.24a46.5,46.5,0,0,1,1.41-5.58,39.09,39.09,0,0,1,5.66-13.16A37,37,0,0,1,362,354c1.27-1.06,2.55-2.08,3.88-3.05a28.43,28.43,0,0,1,3.77-2.47,55.82,55.82,0,0,1,9.86-4.08,30.3,30.3,0,0,1,6.46-1.28C389.33,342.91,392.76,343.14,395.61,343.19ZM137,402.63a6.08,6.08,0,0,1,2.32-.85c2.42-.38,4.86-.78,7.3-1.18a39.44,39.44,0,0,0,9.47-2.7c1.13-.49,2.29-.94,3.45-1.34a63.85,63.85,0,0,0,10.15-4.5,40.31,40.31,0,0,1,4-2.15,33.83,33.83,0,0,0,5.38-3c3.2-2.14,6.57-4,9.5-6.54a17.62,17.62,0,0,1,1.71-1.15c1.12-.77,2.28-1.54,3.37-2.37a93.69,93.69,0,0,1,10.68-6.92c1.8-1,3.54-2.1,5.29-3.2a68,68,0,0,1,9.73-5.33c3-1.27,6-2.72,9.07-3.93,1.27-.5,2.5-1.11,3.75-1.65,3.52-1.57,7-3.3,10.55-4.64,6-2.27,12.14-4.34,18.24-6.43,2.34-.79,4.73-1.44,7.09-2.18a68.49,68.49,0,0,1,15.22-3.37c1.25-.1,1.61.46,1.25,1.79a3.14,3.14,0,0,1-3.2,2.64,8.5,8.5,0,0,0-2,.38c-2.79.76-5.56,1.54-8.33,2.34a2.78,2.78,0,0,0-1,.65c-.12.15-.06.5,0,.75a.41.41,0,0,0,.26.27,3.51,3.51,0,0,0,1.21,0c1.44-.46,2.82-1.05,4.27-1.49a16.41,16.41,0,0,1,5.62-1.09,1,1,0,0,1,.73.86,1.24,1.24,0,0,1-.37,1.11,9.7,9.7,0,0,1-1.41.78c-.48.23-1.18.18-1.27.83s.59.8,1.05,1.05a2.6,2.6,0,0,1,.31.25.49.49,0,0,1,.2.67.18.18,0,0,1-.05.07c0,.1-.13.25-.24.27a92.64,92.64,0,0,0-11.69,3.9,3.56,3.56,0,0,0-1,.63.7.7,0,0,0-.18.71.83.83,0,0,0,.62.45,2.31,2.31,0,0,0,1.19-.14,51.73,51.73,0,0,1,8.57-2.89,2.45,2.45,0,0,1,.81,0,.5.5,0,0,1,.31.22.27.27,0,0,1,.09.35.31.31,0,0,1-.28.22,56.14,56.14,0,0,0-6.17,2.25c-2.87,1.3-5.82,2.39-8.79,3.44a44.16,44.16,0,0,0-4.54,1.93c-2.83,1.36-5.66,2.83-8.59,3.93q-5.34,2.18-10.45,4.86c-.45.23-.75.9-.44.92a2.43,2.43,0,0,0,.77.09c5-1.95,10-3.84,14.81-6.16,3.83-1.85,7.68-3.66,11.69-5.15,2.8-1,5.79-1.66,8.45-3.14a3.69,3.69,0,0,1,1.18-.32.87.87,0,0,1,.88.68,3.11,3.11,0,0,1-1.55,3.14,9.71,9.71,0,0,1-1.84.88c-3,1.33-6,2.66-9,4a5.82,5.82,0,0,0-1.25,1,.33.33,0,0,0,0,.38,1.1,1.1,0,0,0,.59.42,1.34,1.34,0,0,0,.78-.2c2.84-1.71,6.06-2.54,9.06-3.88.13-.07.45.19.66.34a.36.36,0,0,1,.07.37c-.53,1.27-1.05,2.52-1.64,3.76a9,9,0,0,1-3.16,3.69,29.85,29.85,0,0,1-6.48,3.62l-3.05,1.21a115.58,115.58,0,0,1-13.46,5.1,1.36,1.36,0,0,0-.34.25.47.47,0,0,0-.19.63.28.28,0,0,0,.08.11,1.34,1.34,0,0,0,.57.51,1.1,1.1,0,0,0,.78,0c3.34-1.27,6.68-2.54,10-3.89,3.7-1.51,7.32-3.09,11-4.62a.43.43,0,0,1,.38.06.37.37,0,0,1,.2.33.42.42,0,0,1-.2.34c-.72.63-1.46,1.22-2.18,1.86a.86.86,0,0,0-.36,1.09,2.58,2.58,0,0,1-1.14,3.21,26.82,26.82,0,0,1-3.36,2.33c-2.06,1.08-3.77,2.77-6.06,3.49a15.57,15.57,0,0,1-5.38,2.92,15.91,15.91,0,0,0-1.8,1,29,29,0,0,1-3.23,1.78c-4.2,1.72-8.47,3.21-12.68,4.88a12,12,0,0,1-1.19.25,46.09,46.09,0,0,0-5.5,1.72,61,61,0,0,1-7.09,2.18,81.74,81.74,0,0,0-8.66,2.54,23.29,23.29,0,0,1-3.6.86c-3.78.65-7.55,1.28-11.36,1.84-5.69.85-11.39,1.67-17.18,1.41a22.52,22.52,0,0,0-2.46.13,23,23,0,0,1-5.74-.21c-.23,0-.42-.28-.65-.44.21-.15.4-.4.61-.43a61.48,61.48,0,0,0,11-1.74,30.4,30.4,0,0,1,6-1c.37,0,.88-.66.67-.84a1,1,0,0,0-.68-.35,40.08,40.08,0,0,0-6.9.88c-1.08.26-2.16.45-3.25.6-2.83.47-5.7.68-8.58.93s-6-.24-9,.38a6.44,6.44,0,0,1-1.64-.1c-1.36-.12-2.73-.22-4.09-.37-2.19-.24-4.37-.48-6.55-.76a.48.48,0,0,1-.32-.2c-.12-.18,0-.39.38-.39,1.38,0,2.77.11,4.12,0,2.46-.27,4.89-.69,7.32-1.08.16,0,.29-.38.38-.62.05-.07-.12-.26-.22-.31s-.49-.22-.72-.37-.54-.35-.52-.52a.81.81,0,0,1,.44-.62,23.15,23.15,0,0,1,3.12-1c2.55-.55,5-1.27,7.55-2a4,4,0,0,0,1.41-.8c.15-.08.12-.44.11-.69a.37.37,0,0,0-.31-.22,16.75,16.75,0,0,0-4.45.66c-3,1.08-6.06,1.75-9.08,2.65-3.43,1-6.93,1.69-10.4,2.51a7.93,7.93,0,0,1-3.25.23,17.57,17.57,0,0,0-5.32.09c-.18,0-.36-.23-.56-.35Zm322.51,67.24c.07-.73.1-1.7.28-2.65a5.14,5.14,0,0,1,.63-1.49,1.71,1.71,0,0,1,2.14-.72c1.08.6,2.08,1.31,3.2,1.81a3.23,3.23,0,0,1,1.87,2.54c.17.95.31,1.91.53,2.84a5.45,5.45,0,0,0,.54,1.08,1,1,0,0,0,1.14.16,2.32,2.32,0,0,0,.63-.49,4.08,4.08,0,0,0,.37-.72c.45-.92.46-.91,1.49-.67.55.13,1.1.3,1.53-.22a1.36,1.36,0,0,0-.14-1.85,1.35,1.35,0,0,1-.26-.32c-.37-.61-.36-1,.17-1.39a3.12,3.12,0,0,0,1.08-1.2,1.21,1.21,0,0,0-.57-1.61,1.46,1.46,0,0,0-.51-.12c-.54,0-1.07.14-1.62.15a.74.74,0,0,1-.79-.67.66.66,0,0,1,0-.14,3.8,3.8,0,0,0,.07-1.2,1.38,1.38,0,0,0-.74-.91,1.22,1.22,0,0,0-1.13.07,7.15,7.15,0,0,0-1,1.25.83.83,0,0,1-1.08.29c-1-.43-2-.88-3-1.33a1.67,1.67,0,0,1-.67-1.78,7,7,0,0,1,2.05-3c1-.94,2-1.85,3.09-2.74a12.88,12.88,0,0,1,1.66-1.19c.94-.58,1.88-1.11,2.86-1.64a12.47,12.47,0,0,1,2.2-1.08A30.68,30.68,0,0,1,482,449.5a7.25,7.25,0,0,1,6.06,2,19.73,19.73,0,0,0,7,4.23c.9.34,1.76.78,2.63,1.18a9.17,9.17,0,0,0,1.51.65c2.54.5,5,1.55,7.59,1.74,1.24.09,2.45.3,3.67.43a31.84,31.84,0,0,0,9.84-.21,16.14,16.14,0,0,1,2.85-.31,12.86,12.86,0,0,0,2.84-.29,1.73,1.73,0,0,1,1.18.18,32.71,32.71,0,0,1,3.17,1.89,15.74,15.74,0,0,1,2.58,2,23.41,23.41,0,0,1,6.09,10.58c.41,1.74.81,3.47,1.24,5.2a23.6,23.6,0,0,1,.35,6.55,19.87,19.87,0,0,1-.84,4.45c-.29,1.18-.74,2.34-1.12,3.52a14.22,14.22,0,0,1-2.95,5.37,32.8,32.8,0,0,0-2.53,3.24,24.51,24.51,0,0,1-5.27,5.15,15.61,15.61,0,0,1-5.14,2.57c-1.85.55-3.68,1.11-5.51,1.64a7.38,7.38,0,0,1-2,.34,34.21,34.21,0,0,0-6.54.73,10.94,10.94,0,0,1-3.28.17,85.86,85.86,0,0,0-10.64-.5,3.78,3.78,0,0,1-1.2-.2c-.79-.22-1.55-.55-2.35-.76A44.14,44.14,0,0,1,479,506.11c-.34-.22-.72-.37-1.09-.56a26.28,26.28,0,0,1-7.44-5.76c-2.31-2.54-4.57-5.16-5.87-8.41-.41-1-1-2-1.43-3a15,15,0,0,1-1-2.23c-.73-2.49-1.46-5-2-7.56-.6-2.79-1.31-5.62-.57-8.76Zm23-36.59a4.69,4.69,0,0,1-.32-1.09,7.3,7.3,0,0,1,.46-3.24,12.15,12.15,0,0,0,.86-3.19,9,9,0,0,1,2.09-4.84A32.87,32.87,0,0,0,488,417.5a17.31,17.31,0,0,1,3.75-4.34,43.34,43.34,0,0,0,4.24-3.88,9.21,9.21,0,0,1,2-1.41,66.51,66.51,0,0,1,10.09-4.6,36.62,36.62,0,0,1,5.52-1.59c2.43-.5,4.86-.78,7.33-1.09a85.85,85.85,0,0,1,11.88-.74c6,.09,11.73,1.18,16.92,4.37,6.28,2.91,5.9,3.83,9.11,7.45.17.2.38.41.54.63a10.66,10.66,0,0,1,2.16,5.7c.1,1.79.26,3.58.25,5.34a32.52,32.52,0,0,1-.55,3.23c-.13,1.08-.12,2.19-.19,3.26a2.43,2.43,0,0,1-.25.79c-.46,1-.87,2-1.4,3a64.42,64.42,0,0,1-4.78,6.72,38.87,38.87,0,0,1-12.73,10.22c-4.15,2.2-8.68,3.4-13,5.12l-6.9,1.14c-.55.08-1.09.15-1.62.27-2,.54-4.08.29-6.13.31a20.2,20.2,0,0,1-2.46,0c-3.11-.4-6.3-.34-9.29-1.58a12.39,12.39,0,0,1-4.28-1.36c-1.37-.58-2.72-1.27-4.07-1.95a23.06,23.06,0,0,1-6.16-4.07,28.21,28.21,0,0,1-6-9.29,1.42,1.42,0,0,1,.79-1.7c.78-.21,1.59-.38,2.39-.59a1.58,1.58,0,0,1,1.76.67c.68.91,1.15,1,2,0,.44-.5.61-1.28,1.29-1.55.87-.34,1.58.26,2.35.51a7.28,7.28,0,0,0,1.12.45,1,1,0,0,0,.74-.24.7.7,0,0,0,.32-.93,1.3,1.3,0,0,0-.1-.15c-.33-.44-.7-.84-1-1.27a.63.63,0,0,1,.1-1.08c.45-.31.93-.6,1.34-.93a.9.9,0,0,0-.23-1.38c-.9-.46-1.86-.09-2.9-.27a4.7,4.7,0,0,1-.2-1.12c.09-.83.34-1.61.43-2.44,0-.13-.34-.43-.57-.44a1.54,1.54,0,0,0-1.74.77c-.21.53-.28,1-.49,1.55-1.09,2.6-2.79,4.42-5.83,4.38a8,8,0,0,1-.91-.09Zm-132.43,17.1c4.62-1.7,9-2.29,13.19-3.56,5-1.51,10.12-2.53,15.19-3.81,1.31-.34,2.63-.74,3.93-1.21,3.61-1.32,7.19-2.71,10.82-4A119.16,119.16,0,0,0,406,432.91c1.6-.77,3.31-1.33,5-2,3.65-1.55,7.39-3,11-4.7,6.8-3.31,13.53-6.71,20.17-10.32.75-.37,1.46-.79,2.15-1.22a36.07,36.07,0,0,1,4.7-2.54c3.81-1.89,7.83-3.36,11.34-5.82.33-.24.71-.41,1.07-.62a11.9,11.9,0,0,1,5.48-1.61,53.39,53.39,0,0,1,11.92.08,26.76,26.76,0,0,0,3.69.2c1.51,0,3,0,4.52,0a75.62,75.62,0,0,0,9.87.24.56.56,0,0,1,.4.07,1.76,1.76,0,0,1,.45.49c.05.07-.06.3-.14.35-2.48,1.75-4.89,3.53-7.21,5.5a15.94,15.94,0,0,0-3.8,4.3c-1.33,2.24-2.75,4.43-4.18,6.6s-1.9,4.83-2.51,7.36c.41,1.74-.65,3.19-.93,4.8a1.55,1.55,0,0,1-1.14,1.07,8,8,0,0,1-1.17.37,116.68,116.68,0,0,1-13.39,2.17c-2.89.34-5.75.55-8.61.88s-5.68,1-8.56,1.28c-2.17.22-4.31.74-6.48,1.11-2,.37-4,.78-6.07,1.08s-4.37.44-6.54.75c-2.44.34-4.86.84-7.31,1.23-2.69.41-5.42.78-8.14,1.17-3,.42-6,.6-8.95,1.24a71.72,71.72,0,0,1-11,1.39c-1.93.08-3.86-.23-5.75,0s-3.75.8-5.66,1c-2.6.21-5.19.56-7.79.71-5.62.33-11.21.73-16.81,1.33A14.84,14.84,0,0,1,350.16,450.38ZM215,429.17c-.47-.06-.95-.15-1.4-.25-.92-.29-1.81-.68-2.72-.95-6-1.75-12-3.9-18.13-5.36-4-.93-7.88-2.3-11.89-3.2a69.69,69.69,0,0,1-9.76-3.12c-.9-.34-1.8-.68-2.7-1-3-.95-6-1.86-9-2.81-.31-.1-.36-.38-.17-.69a.51.51,0,0,1,.27-.27,19.89,19.89,0,0,1,2.44-.19c4.64.12,9.3.27,14,.4a9.11,9.11,0,0,0,1.65-.06c2.29-.37,4.66-.13,7-.6a17.42,17.42,0,0,1,4.07-.36c3.49.24,6.81-.69,10.2-1.18,1.34-.22,2.67-.64,4-.81a56.65,56.65,0,0,0,8.8-2c2.89-.88,5.8-1.63,8.76-2.23a19.16,19.16,0,0,0,2.36-.65c3-1,6-2,9-2.89a92.86,92.86,0,0,0,12.72-4.71,110,110,0,0,0,13.65-6.71c1.06-.65,2.14-1.22,3.23-1.82a8.76,8.76,0,0,1,1.48-.71.74.74,0,0,1,.68.18.8.8,0,0,1,0,.75c-1.74,2.78-3.38,5.66-5.3,8.32-2.42,3.31-5,6.54-7.68,9.66a34,34,0,0,1-6.69,6c-2.94,2-5.83,4.12-8.7,6.25a50.33,50.33,0,0,1-9.72,6.12,5.45,5.45,0,0,0-1.39.88c-1.56,1.39-3.51,2.1-5.26,3.23a5.7,5.7,0,0,1-3.78.74ZM405.4,517.09c.14-.23.29-.46.43-.67s.45-.35.62-.56a.85.85,0,0,0,0-1.21,1,1,0,0,0-.21-.15c-1.17-.4-2.45-.44-3.49-1.21l-1-.65c-.31-.19-.43-.93-.16-1.05a1.14,1.14,0,0,1,.75-.19q4.38,1.77,8.76,3.59c1.12.47,2.26,1,3.4,1.45a8.54,8.54,0,0,0,2,.41c.2,0,.6-.19.62-.32a.82.82,0,0,0-.34-.67c-2.45-.88-4.77-2.08-7.17-3.11s-4.84-2.57-7.5-3.34c-1.05-.31-2.11-.61-3.13-1a3.12,3.12,0,0,1-1.31-.93c-.82-1.11-1.49-2.29-2.23-3.44,0-.1-.06-.36,0-.39s.5-.35.7-.29c.93.22,1.82.54,2.75.77a.76.76,0,0,0,.68-.27.69.69,0,0,0-.12-.74,12.14,12.14,0,0,0-5.14-2.42,4.32,4.32,0,0,1-3.09-1.82c-1.15-1.53-2.31-3.05-3.45-4.6-.13-.2-.27-.57-.16-.73a.85.85,0,0,1,.69-.31,18.54,18.54,0,0,1,3.24.52c2.76.84,5.48,1.81,8.21,2.69,4.45,1.43,8.69,3.36,13.06,5,1,.39,2,.84,3,1.28l6,2.72a87.39,87.39,0,0,1,8.13,4c2.35,1.4,4.7,2.86,7.16,4a65.44,65.44,0,0,1,6.45,3.59c4.9,3,9.9,5.94,14.4,9.59a25.38,25.38,0,0,1,5.23,5.76,2,2,0,0,1-1,2.66l-.13.06a8.41,8.41,0,0,1-1.21.26,60.11,60.11,0,0,1-7,.58,44.6,44.6,0,0,1-7.4-.16,7.76,7.76,0,0,0-2.45-.12,18.36,18.36,0,0,1-5.73-.21,25.35,25.35,0,0,1-4.07-.54c-1.33-.33-2.74,0-4-.65a43.65,43.65,0,0,1-9.68-1.82,3.26,3.26,0,0,0-1.61-.16c-1.62.29-2.57-.59-3.41-1.76-.33-.44-.68-.86-1-1.32a1.55,1.55,0,0,1,0-1.89.85.85,0,0,0-.17-1.19,1,1,0,0,0-.23-.12,10.76,10.76,0,0,1-2.35-.7,5.84,5.84,0,0,1-2.48-2.65.86.86,0,0,1,.13-.76,1.05,1.05,0,0,1,.71-.29,1.87,1.87,0,0,1,.77.2,42.47,42.47,0,0,0,7.18,1.83c3.38.55,6.75,1.23,10.12,1.85.66.13,1.31.37,2,.55,1.43.37,2.89.74,4.36,1.1a1.07,1.07,0,0,0,.85-.76c0-.24-.16-.61-.34-.67-.9-.31-1.86-.44-2.76-.75-3.65-1.29-7.48-1.72-11.23-2.42a78,78,0,0,1-9.94-2.56c-1.56-.53-3.08-1.14-4.6-1.74A1.91,1.91,0,0,1,405.4,517.09Zm-159-73.89a12.86,12.86,0,0,1,3.76.37,33.2,33.2,0,0,0,4.06.83c3.57.36,6.93,1.7,10.45,2.19,4,1.37,8.31,1.89,12.35,3.19a22.51,22.51,0,0,0,3.24.6,15.37,15.37,0,0,1,2.41.49,25.5,25.5,0,0,0,4.83,1c1.49.22,3,.46,4.47.78,3.34.74,6.78.84,10.16,1.3a6,6,0,0,0,1.64,0,8.29,8.29,0,0,1,3.25.32,15.87,15.87,0,0,0,5.31.55,41.41,41.41,0,0,1,7.38.3,12.34,12.34,0,0,0,3.69,0,3.13,3.13,0,0,1,2.36.5,26.49,26.49,0,0,1,3.77,2.5c3.09,2.7,6.19,5.42,9.09,8.34,2.21,2.25,4.07,4.82,6.14,7.21a44.58,44.58,0,0,1,3.89,5.81,1.12,1.12,0,0,1,.1.78c-.06.2-.35.56-.49.52a93.07,93.07,0,0,1-10.59-3.27,73.65,73.65,0,0,0-7.43-2.35c-2.27-.5-4.46-1.33-6.72-1.91-2.51-.65-5.06-1.19-7.6-1.75a44.94,44.94,0,0,1-4.41-1.07c-2.46-.78-5-1.25-7.56-1.86-1.2-.28-2.41-.55-3.57-.91q-5.32-1.65-10.59-3.36a29.09,29.09,0,0,1-4.95-2,42.46,42.46,0,0,0-4.17-1.78,42,42,0,0,1-5.69-2.34c-2.73-1.58-5.63-2.86-8.39-4.38q-3.78-2.05-7.77-3.75a84.66,84.66,0,0,1-9.21-4.55A11.17,11.17,0,0,1,246.44,443.2Zm167.08,5.72a3,3,0,0,1,.67-.39q5-1.12,10-2.23a25.79,25.79,0,0,1,4.42-.87,56.36,56.36,0,0,0,6.47-1.09c1.74-.33,3.5-.55,5.27-.79,8-1.06,16-2,24-3.34a19.91,19.91,0,0,1,2-.37,87.31,87.31,0,0,0,11.38-1.5,1.28,1.28,0,0,1,1.64.78l0,.09a55.86,55.86,0,0,0,2.95,6.32l.14.4a1.15,1.15,0,0,1-.59,1c-1.08.22-2.18.4-3.22.65a30,30,0,0,0-4.35,1.24A27,27,0,0,0,463.25,457a19.57,19.57,0,0,1-2,2.09,1.88,1.88,0,0,1-2.26.46,59.28,59.28,0,0,0-12.46-4c-3.59-.88-7.27-1.3-10.88-2.16-1.46-.34-2.94-.64-4.41-.93-.95-.21-1.86-.45-2.81-.59-4.59-.72-9.14-1.82-13.78-2.17a3.47,3.47,0,0,1-1.15-.42s0-.19,0-.29ZM366.2,275.55c-.31.19-.54.19-.66-.07a.4.4,0,0,1,0-.37,9,9,0,0,1,1.85-2.7c1.7-1.79,3.31-3.7,5.07-5.4a32.81,32.81,0,0,1,8.43-6.51c.74-.35,1.43-.81,2.16-1.21a38.2,38.2,0,0,1,8-3.3,168.75,168.75,0,0,1,18.89-4,15.37,15.37,0,0,1,3.25-.23,27.24,27.24,0,0,0,2.86-.12,3.14,3.14,0,0,1,1.9.71.87.87,0,0,1,.38,1.06,5.08,5.08,0,0,1-1.74,2.72c-.43.34-.83.7-1.27,1q-3.19,2.26-6.43,4.48a7,7,0,0,1-1.06.62c-1.95,1-3.89,2-5.88,2.95a83.26,83.26,0,0,1-12.14,5c-2.78.8-5.44,1.92-8.14,2.94a27.72,27.72,0,0,1-5.14,1.48c-.19.05-.44-.21-.67-.34a.84.84,0,0,1,.14-.37,7.07,7.07,0,0,1,2.55-2c2.44-1.29,4.76-2.78,7.06-4.23a21.46,21.46,0,0,1,5.51-2.73,9.14,9.14,0,0,0,3.92-2.14.42.42,0,0,0,.08-.39,2.76,2.76,0,0,0-.57-.45.55.55,0,0,0-.4,0c-1.79.7-3.62,1.32-5.36,2.11a23.57,23.57,0,0,0-4.67,2.57,28.88,28.88,0,0,1-4.94,3c-2.24,1.06-4,2.88-6.17,4.08a8.24,8.24,0,0,0-1.54,1.35,13.42,13.42,0,0,1-4.5,2.8.39.39,0,0,1-.34-.11c-.22-.19-.18-.41.08-.65,1.41-1.34,2.79-2.65,4.17-4a.41.41,0,0,0,0-.72.37.37,0,0,0-.34,0Zm-34.56,60.68a78.16,78.16,0,0,1,9.91-.78,42.53,42.53,0,0,1,6.93.72,8.64,8.64,0,0,1,1.9.75,1.51,1.51,0,0,1,.56,2.05l0,.07a7.23,7.23,0,0,1-1,1.31,12.37,12.37,0,0,1-3.75,2.48c-4.42,1.91-8.82,3.77-13.15,5.85a18.93,18.93,0,0,1-2.29.93,20.75,20.75,0,0,0-3.34,1.57,34.68,34.68,0,0,0-6.93,4.36,6.76,6.76,0,0,1-1.42.85,3,3,0,0,1-.78.19.45.45,0,0,1-.35-.09c-.09-.09-.21-.26-.18-.35a24.67,24.67,0,0,1,2.58-5.1,3.76,3.76,0,0,1,1.33-.91c1-.39,2.09-.64,3.15-1a.45.45,0,0,0,.41-.47.64.64,0,0,0-.06-.18,1.08,1.08,0,0,0-.47-.56c-.49-.22-1-.36-1.51-.56a.4.4,0,0,1-.25-.32c0-.26.06-.62.24-.73a13.11,13.11,0,0,1,3.41-1.32,46.09,46.09,0,0,1,11.15-2.7c.28-.05.55-.05.83-.09a.74.74,0,0,0,.37-.17,2.41,2.41,0,0,0,.29-.68c0-.07-.11-.23-.22-.28a7.16,7.16,0,0,0-4.81-.14,67.62,67.62,0,0,1-7.15,1.86,7.22,7.22,0,0,1-1.23,0,.66.66,0,0,1-.63-.68,1.18,1.18,0,0,1,0-.2c.09-.27.15-.54.24-.8a1.79,1.79,0,0,1,1.74-1.48,36.38,36.38,0,0,0,3.63-.71,2.7,2.7,0,0,0,1.08-.55.77.77,0,0,0,.31-.69A9.76,9.76,0,0,0,331.64,336.23Zm-255.72,30c.12.36,0,.57-.35.63s-.62,0-.65-.3a.8.8,0,0,1,.34-.61A.49.49,0,0,1,75.92,366.27ZM262.41,458.4c.14-.12.23-.26.32-.26.43-.05.67.28.89.56s.2.47-.11.57a.34.34,0,0,1-.35-.06C262.88,459,262.67,458.67,262.41,458.4ZM329.08,337c.07-.07.13-.19.21-.2a.37.37,0,0,1,.32.06c.2.19.11.34-.23.33-.11,0-.2-.11-.3-.19Zm-71.83,80.07c.07-.07.13-.19.22-.22a.35.35,0,0,1,.34.05c.18.23.07.4-.28.37C257.44,417.28,257.36,417.16,257.25,417.08Z" transform="translate(-22.72 -249.56)"/>
                      </g>
                    </g>
                  </g>
                </g>
              </g>
            </g>
          </g>
        </g>
        <g class="cls-6">
          <g id="Group_568" data-name="Group 568">
            <g class="cls-3">
              <g id="Group_567" data-name="Group 567">
                <g class="cls-3">
                  <g id="Group_566" data-name="Group 566">
                    <g class="cls-4">
                      <g id="Group_565" data-name="Group 565">
                        <path id="Path_572" data-name="Path 572" class="cls-5" d="M74.08,414.74c-.12,0-.28-.11-.37-.05-.56.39-1.11.78-1.64,1.17-.07.07-.19.25-.15.33.15.35.39.41.68.14.53-.41,1.05-.84,1.57-1.3C74.2,415,74.12,414.84,74.08,414.74Z" transform="translate(-22.72 -249.56)"/>
                      </g>
                    </g>
                  </g>
                </g>
              </g>
            </g>
          </g>
        </g>
        <g class="cls-7">
          <g id="Group_572" data-name="Group 572">
            <g class="cls-8">
              <g id="Group_571" data-name="Group 571">
                <g class="cls-8">
                  <g id="Group_570" data-name="Group 570">
                    <g class="cls-9">
                      <g id="Group_569" data-name="Group 569">
                        <path id="Path_577" data-name="Path 577" class="cls-5" d="M240.29,290.08a2.91,2.91,0,0,0-.78,0,123,123,0,0,0-12.14,3.84c-1.15.44-2.29.93-3.46,1.33a19.54,19.54,0,0,0-4.41,2.14,16.05,16.05,0,0,1-5.58,2.54,11.08,11.08,0,0,0-3.06,1.2,50.58,50.58,0,0,1-7.55,3.2,31.93,31.93,0,0,0-5.57,2.65c-1.51.92-3.13,1.68-4.65,2.59-2.82,1.69-5.66,3.38-8.41,5.18-3.32,2.17-6.7,4.25-9.87,6.68-.76.59-1.64,1-2.4,1.58-1.45,1-2.9,2.09-4.3,3.17a75.49,75.49,0,0,1-6.18,4.79,10.37,10.37,0,0,0-1.25,1.05c-2.19,1.89-4.33,3.82-6.55,5.65a32.67,32.67,0,0,1-6,4.33,12.26,12.26,0,0,0-1.9,1.55.84.84,0,0,0-.19,1.11.85.85,0,0,0,1.09.3c1.74-1.54,3.93-2.46,5.7-4s3.35-2.82,5-4.29a70.64,70.64,0,0,1,6.4-5.18c.67-.47,1.32-1,1.95-1.51a103.93,103.93,0,0,1,12.29-9c3.08-2,6-4.27,9.14-6.31,2.29-1.49,4.62-2.91,7-4.22a84.86,84.86,0,0,1,13.07-6c.9-.31,1.76-.76,2.63-1.15a30.06,30.06,0,0,1,3-1.33,37.51,37.51,0,0,0,8.18-3.79,19.12,19.12,0,0,1,3-1.3c4-1.53,7.95-3,11.91-4.58,1.28-.48,2.52-1,3.78-1.59.1,0,.13-.22.23-.33S240.63,290.07,240.29,290.08Z" transform="translate(-22.72 -249.56)"/>
                      </g>
                    </g>
                  </g>
                </g>
              </g>
            </g>
          </g>
        </g>
        <g class="cls-10">
          <g id="Group_576" data-name="Group 576">
            <g class="cls-3">
              <g id="Group_575" data-name="Group 575">
                <g class="cls-3">
                  <g id="Group_574" data-name="Group 574">
                    <g class="cls-11">
                      <g id="Group_573" data-name="Group 573">
                        <path id="Path_582" data-name="Path 582" class="cls-5" d="M138.29,349.55c-.12,0-.28-.13-.37-.1a50.13,50.13,0,0,0-8.65,4.45.73.73,0,0,0,0,.69.75.75,0,0,0,.68.26,12.18,12.18,0,0,0,2.63-1A45.44,45.44,0,0,1,138,351a2.32,2.32,0,0,0,.63-.49.45.45,0,0,0,.08-.37C138.58,350,138.43,349.76,138.29,349.55Z" transform="translate(-22.72 -249.56)"/>
                      </g>
                    </g>
                  </g>
                </g>
              </g>
            </g>
          </g>
        </g>
        <g class="cls-12">
          <g id="Group_580" data-name="Group 580">
            <g class="cls-8">
              <g id="Group_579" data-name="Group 579">
                <g class="cls-8">
                  <g id="Group_578" data-name="Group 578">
                    <g class="cls-9">
                      <g id="Group_577" data-name="Group 577">
                        <path id="Path_587" data-name="Path 587" class="cls-5" d="M524.41,319.17c.15.18.27.47.48.53a.86.86,0,0,0,.74-.17q4.5-4.23,8.74-8.72a6.27,6.27,0,0,1,1.11-1.19c2.41-1.41,4-3.71,6.22-5.37s4.12-3.2,6.13-4.85q4-3.24,7.93-6.58a42.23,42.23,0,0,0,3.89-3.68,19.91,19.91,0,0,1,3.72-3.25c1.83-1.21,3.53-2.58,5.27-3.94,3.37-2.6,6.92-4.93,10.49-7.27a34.28,34.28,0,0,0,5.79-4.61c.1-.1,0-.48-.07-.72,0-.07-.23-.13-.33-.12a2.67,2.67,0,0,0-.78.22c-2,1.35-4.28,2.44-6.27,3.9-2.33,1.68-4.72,3.31-7.16,4.86a102.61,102.61,0,0,0-10.1,7.77,44.54,44.54,0,0,0-5.16,4.74,10.44,10.44,0,0,1-1.87,1.58,48.74,48.74,0,0,0-5.66,4.77c-1.46,1.47-3.09,2.74-4.68,4.07s-3.42,2.76-5.07,4.18a38.78,38.78,0,0,0-3.31,3.1c-2.35,2.49-4.68,5-7.27,7.3a29.27,29.27,0,0,0-2.73,3C524.4,318.86,524.43,319,524.41,319.17Z" transform="translate(-22.72 -249.56)"/>
                      </g>
                    </g>
                  </g>
                </g>
              </g>
            </g>
          </g>
        </g>
        <g class="cls-13">
          <g id="Group_584" data-name="Group 584">
            <g class="cls-8">
              <g id="Group_583" data-name="Group 583">
                <g class="cls-8">
                  <g id="Group_582" data-name="Group 582">
                    <g class="cls-9">
                      <g id="Group_581" data-name="Group 581">
                        <path id="Path_592" data-name="Path 592" class="cls-5" d="M519.2,325.71c-.25.08-.59.06-.73.22q-2.1,2.46-4.12,5c-.1.11,0,.52.2.67a.71.71,0,0,0,.69.19,4,4,0,0,0,1.26-1c1.09-1.36,2.12-2.81,3.14-4.24.11-.13,0-.49-.12-.74C519.52,325.8,519.32,325.77,519.2,325.71Z" transform="translate(-22.72 -249.56)"/>
                      </g>
                    </g>
                  </g>
                </g>
              </g>
            </g>
          </g>
        </g>
        <g class="cls-14">
          <g id="Group_588" data-name="Group 588">
            <g class="cls-3">
              <g id="Group_587" data-name="Group 587">
                <g class="cls-3">
                  <g id="Group_586" data-name="Group 586">
                    <g class="cls-11">
                      <g id="Group_585" data-name="Group 585">
                        <path id="Path_597" data-name="Path 597" class="cls-5" d="M289,370.57a40.13,40.13,0,0,0-2.29,5.1,1.55,1.55,0,0,0,0,.8c0,.11.13.31.22.31s.63.07.69,0c.81-1.7,1.64-3.38,2.33-5.11C290.15,371.16,289.76,370.63,289,370.57Z" transform="translate(-22.72 -249.56)"/>
                      </g>
                    </g>
                  </g>
                </g>
              </g>
            </g>
          </g>
        </g>
        <g class="cls-15">
          <g id="Group_592" data-name="Group 592">
            <g class="cls-8">
              <g id="Group_591" data-name="Group 591">
                <g class="cls-8">
                  <g id="Group_590" data-name="Group 590">
                    <g class="cls-9">
                      <g id="Group_589" data-name="Group 589">
                        <path id="Path_602" data-name="Path 602" class="cls-5" d="M543.88,394.27a85.7,85.7,0,0,0-8.77-.33,63.1,63.1,0,0,1-6.59-.35,63,63,0,0,0-7.77-.18c-3.43.15-6.85.33-10.25.62-1.49.16-3-.06-4.54,0a5.72,5.72,0,0,0-1.58.25,1.44,1.44,0,0,0-.62.5.75.75,0,0,0,.24,1h0a11.56,11.56,0,0,0,4.06.25c4.51-.28,9-.45,13.53-.73,5.08-.33,10.14.26,15.19.56,1.94.1,3.84-.12,5.74,0s3.49.65,5.25,1a6.43,6.43,0,0,0,1.64.08,1.15,1.15,0,0,0,.63-.4c.22-.22,0-.85-.34-1.05a3.45,3.45,0,0,0-1.09-.53C546.85,394.64,545.08,394.43,543.88,394.27Z" transform="translate(-22.72 -249.56)"/>
                      </g>
                    </g>
                  </g>
                </g>
              </g>
            </g>
          </g>
        </g>
        <g class="cls-16">
          <g id="Group_596" data-name="Group 596">
            <g class="cls-17">
              <g id="Group_595" data-name="Group 595">
                <g class="cls-17">
                  <g id="Group_594" data-name="Group 594">
                    <g class="cls-18">
                      <g id="Group_593" data-name="Group 593">
                        <path id="Path_607" data-name="Path 607" class="cls-5" d="M596.08,364.66c.22.14.48.39.67.37a16.2,16.2,0,0,0,2.35-.69,85.49,85.49,0,0,1,11.71-3.68,9.24,9.24,0,0,0,1.15-.41c2.6-.86,4.94-2.31,7.58-3.12a1.92,1.92,0,0,0,.74-.88c.23-.37.12-.59-.29-.68a2.34,2.34,0,0,0-1.17-.16,14.5,14.5,0,0,0-3.06,1.16,40.09,40.09,0,0,1-8.46,3.09c-1.57.47-3.13,1-4.69,1.52-1.4.52-2.83.94-4.25,1.48a4.18,4.18,0,0,0-2.07,1.27A1.91,1.91,0,0,0,596.08,364.66Z" transform="translate(-22.72 -249.56)"/>
                      </g>
                    </g>
                  </g>
                </g>
              </g>
            </g>
          </g>
        </g>
        <g class="cls-19">
          <g id="Group_600" data-name="Group 600">
            <g class="cls-8">
              <g id="Group_599" data-name="Group 599">
                <g class="cls-8">
                  <g id="Group_598" data-name="Group 598">
                    <g class="cls-9">
                      <g id="Group_597" data-name="Group 597">
                        <path id="Path_612" data-name="Path 612" class="cls-5" d="M406.68,363a1.64,1.64,0,0,0-.68.41,1,1,0,0,0-.17.75,10.4,10.4,0,0,1-.72,6.84,7.33,7.33,0,0,0-.46,1.58,23.79,23.79,0,0,1-3.63,8.24c-.74,1.16-1.56,2.26-2.34,3.4a10.68,10.68,0,0,0-1.13,1.7,19.53,19.53,0,0,1-3.5,5.07,41.67,41.67,0,0,1-5,5.43c-.94.77-2,1.45-2.91,2.26a1.39,1.39,0,0,0-.31,1.11,1.07,1.07,0,0,0,.72.9,1.06,1.06,0,0,0,1.16-.21c1.21-1.12,2.39-2.25,3.58-3.41.48-.47.83-1.09,1.35-1.55,3.23-2.88,5.43-6.5,7.68-10.14,1.36-2.21,2.81-4.37,4-6.67a17.52,17.52,0,0,0,1.74-4.17c.49-1.84,1.13-3.68,1.72-5.5a7.28,7.28,0,0,0-.5-5.58C407.19,363.22,406.88,363.11,406.68,363Z" transform="translate(-22.72 -249.56)"/>
                      </g>
                    </g>
                  </g>
                </g>
              </g>
            </g>
          </g>
        </g>
        <g class="cls-20">
          <g id="Group_604" data-name="Group 604">
            <g class="cls-3">
              <g id="Group_603" data-name="Group 603">
                <g class="cls-3">
                  <g id="Group_602" data-name="Group 602">
                    <g class="cls-11">
                      <g id="Group_601" data-name="Group 601">
                        <path id="Path_617" data-name="Path 617" class="cls-5" d="M393,399.05c.12.36.34.55.62.48a2.82,2.82,0,0,0,1.12-.42,20,20,0,0,0,4.54-5.21c1.14-2,2.38-4,3.53-6a3,3,0,0,0,.13-1.17c0-.3-.72-.67-1-.49a3.2,3.2,0,0,0-.88.8,35.33,35.33,0,0,1-7.61,10.56,2.08,2.08,0,0,0-.4.69A4.67,4.67,0,0,0,393,399.05Z" transform="translate(-22.72 -249.56)"/>
                      </g>
                    </g>
                  </g>
                </g>
              </g>
            </g>
          </g>
        </g>
        <g class="cls-21">
          <g id="Group_608" data-name="Group 608">
            <g class="cls-8">
              <g id="Group_607" data-name="Group 607">
                <g class="cls-8">
                  <g id="Group_606" data-name="Group 606">
                    <g class="cls-9">
                      <g id="Group_605" data-name="Group 605">
                        <path id="Path_622" data-name="Path 622" class="cls-5" d="M166.81,402.24c.06.12.09.27.17.33.24.12.54.3.74.24,3.55-1,7.3-1.25,10.82-2.43a22.73,22.73,0,0,0,4.25-1.47,8.63,8.63,0,0,1,2.77-.79,20.76,20.76,0,0,0,7.31-2.55,14.94,14.94,0,0,1,2.66-1.07,30.45,30.45,0,0,0,5.28-2.27c2.26-1.29,4.57-2.47,6.89-3.66a9.43,9.43,0,0,1,2.64-1.11,12.68,12.68,0,0,0,4.48-2c3.26-2.08,6.84-3.53,10.23-5.27,2.07-1.07,4.2-2,6.3-3a1.19,1.19,0,0,0,.59-.54.78.78,0,0,0,0-.7.74.74,0,0,0-.65-.36,12.69,12.69,0,0,0-2.32.79q-4.44,2.16-8.81,4.43c-1.81,1-3.57,2-5.36,3.05a15.25,15.25,0,0,1-2.55,1.29A69.35,69.35,0,0,0,201.36,390,151.22,151.22,0,0,1,185,396.63c-3.37,1.18-6.89,1.83-10.27,3a14.86,14.86,0,0,1-2.39.47,14.62,14.62,0,0,0-5.07,1.58C167.06,401.73,167,402,166.81,402.24Z" transform="translate(-22.72 -249.56)"/>
                      </g>
                    </g>
                  </g>
                </g>
              </g>
            </g>
          </g>
        </g>
        <g class="cls-22">
          <g id="Group_612" data-name="Group 612">
            <g class="cls-3">
              <g id="Group_611" data-name="Group 611">
                <g class="cls-3">
                  <g id="Group_610" data-name="Group 610">
                    <g class="cls-11">
                      <g id="Group_609" data-name="Group 609">
                        <path id="Path_627" data-name="Path 627" class="cls-5" d="M269.31,369.11a2,2,0,0,0-.77-.06,11.71,11.71,0,0,0-1.44.67.49.49,0,0,0-.33.63s0,0,0,0a.94.94,0,0,0,.86.66,2.09,2.09,0,0,0,1.84-1.26.63.63,0,0,0,.06-.38A2.37,2.37,0,0,0,269.31,369.11Z" transform="translate(-22.72 -249.56)"/>
                      </g>
                    </g>
                  </g>
                </g>
              </g>
            </g>
          </g>
        </g>
        <g class="cls-23">
          <g id="Group_616" data-name="Group 616">
            <g class="cls-3">
              <g id="Group_615" data-name="Group 615">
                <g class="cls-3">
                  <g id="Group_614" data-name="Group 614">
                    <g class="cls-11">
                      <g id="Group_613" data-name="Group 613">
                        <path id="Path_632" data-name="Path 632" class="cls-5" d="M508.46,506.76a3,3,0,0,1,.42,0c3.91.81,7.56-.35,11.21-1.61a6.39,6.39,0,0,0,1.43-.78c.47-.3.87-.7,1.36-.95,3.31-1.54,5.67-4.25,8-6.87a10.11,10.11,0,0,0,2.73-6.72.87.87,0,0,0-.56-1,1.19,1.19,0,0,0-1.36.59,3,3,0,0,0-.28.75,11.53,11.53,0,0,1-3.5,6.37c-3.74,3.7-7.94,6.66-13.22,7.81a14.51,14.51,0,0,1-4.05.33c-1.5-.12-3-.25-4.5-.34a8.12,8.12,0,0,0-1.21.11c-.64.11-1.17.64-1,1a1.12,1.12,0,0,0,.84.81c.4.09.81.16,1.21.21l2.45.23Z" transform="translate(-22.72 -249.56)"/>
                      </g>
                    </g>
                  </g>
                </g>
              </g>
            </g>
          </g>
        </g>
        <g class="cls-24">
          <g id="Group_620" data-name="Group 620">
            <g class="cls-3">
              <g id="Group_619" data-name="Group 619">
                <g class="cls-3">
                  <g id="Group_618" data-name="Group 618">
                    <g class="cls-11">
                      <g id="Group_617" data-name="Group 617">
                        <path id="Path_637" data-name="Path 637" class="cls-5" d="M515.92,497.83a1.59,1.59,0,0,0,.49.51,1.2,1.2,0,0,0,.79.09,13.61,13.61,0,0,0,7.08-3.88,8.87,8.87,0,0,0,1.37-2,1.36,1.36,0,0,0-.13-1.55c-.24-.35-.81-.48-1-.22a5.32,5.32,0,0,0-.55.61,12.07,12.07,0,0,1-6.57,5.24,8.71,8.71,0,0,0-1.39.79C515.89,497.47,515.94,497.66,515.92,497.83Z" transform="translate(-22.72 -249.56)"/>
                      </g>
                    </g>
                  </g>
                </g>
              </g>
            </g>
          </g>
        </g>
        <g class="cls-25">
          <g id="Group_624" data-name="Group 624">
            <g class="cls-3">
              <g id="Group_623" data-name="Group 623">
                <g class="cls-3">
                  <g id="Group_622" data-name="Group 622">
                    <g class="cls-11">
                      <g id="Group_621" data-name="Group 621">
                        <path id="Path_642" data-name="Path 642" class="cls-5" d="M402.5,542.12c0,.27-.09.59,0,.77a61.93,61.93,0,0,0,6.59,7.86c.38.38.84.7,1.2,1.11,1.27,1.44,2.45,2.95,3.77,4.36s2.74,2.65,4,4.07c2.29,2.56,4.79,4.88,7.17,7.34.59.57,1.16,1.17,1.7,1.79,2,2.51,4.54,4.28,7,6.2.09.06.26,0,.39,0,.31-.1.4-.34.22-.66a3.18,3.18,0,0,0-.43-.67c-1.24-1.27-2.51-2.51-3.76-3.76-1.47-1.44-2.93-2.9-4.39-4.33s-3-2.84-4.37-4.31c-2.53-2.71-5-5.47-7.48-8.19a23.67,23.67,0,0,0-1.72-1.75,43.62,43.62,0,0,1-6.27-7,36,36,0,0,0-2.67-3.12C403.28,541.55,402.61,541.77,402.5,542.12Z" transform="translate(-22.72 -249.56)"/>
                      </g>
                    </g>
                  </g>
                </g>
              </g>
            </g>
          </g>
        </g>
        <g class="cls-26">
          <g id="Group_628" data-name="Group 628">
            <g class="cls-3">
              <g id="Group_627" data-name="Group 627">
                <g class="cls-3">
                  <g id="Group_626" data-name="Group 626">
                    <g class="cls-11">
                      <g id="Group_625" data-name="Group 625">
                        <path id="Path_647" data-name="Path 647" class="cls-5" d="M396.7,535.15c.37-.16.67-.72.52-1-.63-1-1.27-2.07-1.92-3.1a.68.68,0,0,0-.95-.2.41.41,0,0,0-.13.1,2.47,2.47,0,0,0-.34.69.78.78,0,0,0,.05.4,5.46,5.46,0,0,0,2.39,3.16C396.39,535.26,396.57,535.17,396.7,535.15Z" transform="translate(-22.72 -249.56)"/>
                      </g>
                    </g>
                  </g>
                </g>
              </g>
            </g>
          </g>
        </g>
        <g class="cls-27">
          <g id="Group_632" data-name="Group 632">
            <g class="cls-3">
              <g id="Group_631" data-name="Group 631">
                <g class="cls-3">
                  <g id="Group_630" data-name="Group 630">
                    <g class="cls-4">
                      <g id="Group_629" data-name="Group 629">
                        <path id="Path_652" data-name="Path 652" class="cls-5" d="M554.87,426.43l.07-.84a1,1,0,0,0-.42-1c-.27-.2-.8,0-1,.48-.4,1-.8,2-1.14,3.08a11.14,11.14,0,0,1-2.31,4.33,6.5,6.5,0,0,0-.79,1,23.43,23.43,0,0,1-5.58,6,16.9,16.9,0,0,1-4.48,2.88,8.23,8.23,0,0,0-1.8,1,15.65,15.65,0,0,1-8.48,2.84,6.84,6.84,0,0,0-1.18.23c-.6.14-1.19.85-.9,1.15s.64.66,1,.62c3.27-.21,6.58-.33,9.51-2.16a26.92,26.92,0,0,1,3.29-1.7,13.59,13.59,0,0,0,3.78-2.48,76.22,76.22,0,0,0,5.84-5.81,24.79,24.79,0,0,0,4.22-7.5A9.09,9.09,0,0,0,554.87,426.43Z" transform="translate(-22.72 -249.56)"/>
                      </g>
                    </g>
                  </g>
                </g>
              </g>
            </g>
          </g>
        </g>
        <g class="cls-28">
          <g id="Group_636" data-name="Group 636">
            <g class="cls-3">
              <g id="Group_635" data-name="Group 635">
                <g class="cls-3">
                  <g id="Group_634" data-name="Group 634">
                    <g class="cls-4">
                      <g id="Group_633" data-name="Group 633">
                        <path id="Path_657" data-name="Path 657" class="cls-5" d="M550.44,421.68c-.13,0-.32,0-.35.06a2.86,2.86,0,0,0-.49,1.08,12.68,12.68,0,0,1-3,7.06c-.7.84-1.38,1.7-2,2.57a18.37,18.37,0,0,1-4.48,4.18,27.89,27.89,0,0,0-2.55,2.05c-.15.12-.12.5-.06.74a.47.47,0,0,0,.54.4l.12,0a3.56,3.56,0,0,0,.79-.22,15,15,0,0,0,6-4.82,38.79,38.79,0,0,0,5.63-9.53,6.42,6.42,0,0,0,.59-2.77A.8.8,0,0,0,550.44,421.68Z" transform="translate(-22.72 -249.56)"/>
                      </g>
                    </g>
                  </g>
                </g>
              </g>
            </g>
          </g>
        </g>
        <g class="cls-29">
          <g id="Group_640" data-name="Group 640">
            <g class="cls-3">
              <g id="Group_639" data-name="Group 639">
                <g class="cls-3">
                  <g id="Group_638" data-name="Group 638">
                    <g class="cls-11">
                      <g id="Group_637" data-name="Group 637">
                        <path id="Path_662" data-name="Path 662" class="cls-5" d="M197.58,513.66a3.7,3.7,0,0,0,.07-.81,29,29,0,0,0-1.57-5.49c0-.08-.25-.14-.36-.17a.42.42,0,0,0-.5.31.57.57,0,0,0,0,.13,22.08,22.08,0,0,0,2.15,5.72c0,.12.22.16.32.24Z" transform="translate(-22.72 -249.56)"/>
                      </g>
                    </g>
                  </g>
                </g>
              </g>
            </g>
          </g>
        </g>
        <g class="cls-30">
          <g id="Group_644" data-name="Group 644">
            <g class="cls-31">
              <g id="Group_643" data-name="Group 643">
                <g class="cls-31">
                  <g id="Group_642" data-name="Group 642">
                    <g class="cls-18">
                      <g id="Group_641" data-name="Group 641">
                        <path id="Path_667" data-name="Path 667" class="cls-5" d="M169.34,461c.28,1,.44,1.77.71,2.51.07.4.26.47.57.22a.39.39,0,0,0,.15-.33,12.92,12.92,0,0,0-1.67-4.89.53.53,0,0,0-.3-.23.45.45,0,0,0-.31.56.52.52,0,0,0,.06.13C168.82,459.73,169.13,460.48,169.34,461Z" transform="translate(-22.72 -249.56)"/>
                      </g>
                    </g>
                  </g>
                </g>
              </g>
            </g>
          </g>
        </g>
        <g class="cls-32">
          <g id="Group_648" data-name="Group 648">
            <g class="cls-3">
              <g id="Group_647" data-name="Group 647">
                <g class="cls-3">
                  <g id="Group_646" data-name="Group 646">
                    <g class="cls-11">
                      <g id="Group_645" data-name="Group 645">
                        <path id="Path_672" data-name="Path 672" class="cls-5" d="M199,516.24c-.09-1.09-.28-2.11-1.46-2.58l.1-.07c0,1.1.27,2.12,1.48,2.57Z" transform="translate(-22.72 -249.56)"/>
                      </g>
                    </g>
                  </g>
                </g>
              </g>
            </g>
          </g>
        </g>
        <g class="cls-33">
          <g id="Group_652" data-name="Group 652">
            <g class="cls-17">
              <g id="Group_651" data-name="Group 651">
                <g class="cls-17">
                  <g id="Group_650" data-name="Group 650">
                    <g class="cls-18">
                      <g id="Group_649" data-name="Group 649">
                        <path id="Path_677" data-name="Path 677" class="cls-5" d="M199.16,516.16a1.58,1.58,0,0,0,.59,1.83l-.1.07a2.22,2.22,0,0,0-.61-1.82Z" transform="translate(-22.72 -249.56)"/>
                      </g>
                    </g>
                  </g>
                </g>
              </g>
            </g>
          </g>
        </g>
        <g class="cls-34">
          <g id="Group_656" data-name="Group 656">
            <g class="cls-3">
              <g id="Group_655" data-name="Group 655">
                <g class="cls-3">
                  <g id="Group_654" data-name="Group 654">
                    <g class="cls-4">
                      <g id="Group_653" data-name="Group 653">
                        <path id="Path_682" data-name="Path 682" class="cls-5" d="M213,526.67a4.87,4.87,0,0,0,.17,1.08c0,.15.36.22.56.33a.49.49,0,0,0,.14-.24.54.54,0,0,0-.16-.34,8.49,8.49,0,0,0-.84-.75Z" transform="translate(-22.72 -249.56)"/>
                      </g>
                    </g>
                  </g>
                </g>
              </g>
            </g>
          </g>
        </g>
      </g>
    </g>
  </g>
</svg>
