<svg xmlns="http://www.w3.org/2000/svg" viewBox="0 0 326.95 419.72">
  <title>Branch 2</title>
  <g id="Layer_2" data-name="Layer 2">
    <g id="Layer_1-2" data-name="Layer 1">
      <g id="_9cNc9H.tif" data-name="9cNc9H.tif">
        <g>
          <path d="M87.09,256.61h4a5.21,5.21,0,0,1-3.32,2.07l-6.58,1.06a63.74,63.74,0,0,0-8.43,1.92A6.36,6.36,0,0,0,71,262.8c-.83.63-1.62,1.31-2.45,1.93a2,2,0,0,1-.84.39c-1.17.2-2.37.28-3.53.54a3.59,3.59,0,0,0-1.86.88c-1.14,1.27-2.71,1.51-4.15,2.11-.92.38-2,.36-2.78,1.19-.26.28-.89.28-1.35.28-3.34,0-6.67,0-10,0-9.25,0-18.51.17-27.75-.06a19,19,0,0,1-13.55-5.86,9.6,9.6,0,0,1-2.36-4.53c-.56-2.25-.39-2.19,0-4.85.56-4.07,2.91-7.19,5.06-10.41A70.71,70.71,0,0,1,12.21,236c1.66-1.8,3.21-3.72,5-5.38,2.69-2.48,5.39-5,8.26-7.23,2.71-2.16,5.61-4.1,8.49-6,2.07-1.39,4.21-2.67,6.36-3.94,2.6-1.55,5.29-2.92,8-4.22a88.47,88.47,0,0,1,12.67-5,12,12,0,0,0,4.92-2.71,13.34,13.34,0,0,1,4.73-3c2.3-.81,4.28-2.5,6.43-3.77a34.55,34.55,0,0,1,7.28-3.55,3.13,3.13,0,0,0,1.26-.54c1.82-1.82,4.29-2.15,6.54-2.94,2.41-.85,4.86-1.56,7.28-2.35a12.48,12.48,0,0,1,2.48-.58c2.63-.27,4.91-1.48,7.36-2.23,3.4-1,6.57-2.7,10.09-3.43,1.72-.35,3.4-1,5.14-1.44.29-.07.52-.42.8-.47,1.17-.21,2.36-.37,3.54-.51.41,0,.84,0,1.25,0,.76-.11,2.43-.1,2.73.25,1.14,1.33,2.68,1,3.87.58,1.8-.62,3.66-.79,5.47-1.25a39.71,39.71,0,0,1,4.82-1,14.48,14.48,0,0,0,6.34-2.82,20.49,20.49,0,0,0,4-3.53c1-1.22,2.58-1.55,3.75-2.55.79-.68,1.81-1,1.79-2.27,0-.18.24-.41.42-.56,1.86-1.6,3.37-3.54,5.39-5a12.6,12.6,0,0,0,4.2-4.71,7.39,7.39,0,0,1,1.34-1.69c1-1.07,2-2.06,2.13-3.62,1.74-2,2.2-4.6,3.64-6.76a15.59,15.59,0,0,0,2.88-6.8,2.06,2.06,0,0,1,.55-1c.74-.79,1.55-1.51,2.28-2.31a13.91,13.91,0,0,0,1.84-2.23,9,9,0,0,1,4.14-3.16,9.12,9.12,0,0,0,1.67-.78,15.21,15.21,0,0,1,2.43-2c.49-.23.75-1,1.06-1.52a15.47,15.47,0,0,1,2.86-3.81,71.13,71.13,0,0,1,9.83-7.69c1.9-1.21,3.85-2.23,5.28-4-.72-.63-1.38-.08-1.9.31a1.67,1.67,0,0,1-2.29-.11c-.86-1-1.84-.87-2.9-.94a7.56,7.56,0,0,0-2.55.5c-.83.23-1.82-.35-2.56.49-.07.08-.31,0-.48,0l-7,.51c-.39,0-.91,0-1.15.2-1.36,1.24-3.16,1.25-4.77,1.78-2.25.74-2.23.76-2.35,2.92a18.1,18.1,0,0,1-.67,4.47c-.36,1.13-.15,2.37-.8,3.41.35,2.57-.89,4.81-1.72,7a31.2,31.2,0,0,1-2.29,5.29,17.33,17.33,0,0,1-2.73,3.88c-1.44,1.38-2.8,2.85-4.26,4.22-1.06,1-2.21,1.89-3.32,2.84a22,22,0,0,1-3.12,2.7,29.67,29.67,0,0,0-3.53,2.95A138,138,0,0,0,153.86,159a22,22,0,0,1-6,4.22c-3.61,1.79-7.17,3.61-11.15,4.49a9.92,9.92,0,0,0-2.26,1.17c-1.43.76-2.89,1.5-4.33,2.22a85.6,85.6,0,0,1-9.19,3.77q-4.78,1.76-9.7,3.19a14.87,14.87,0,0,1-4.5.57c-1.51,0-3.12.61-4.57-.4-.23-.16-.64-.05-1,0-2.59.06-4.93-.91-7.27-1.77a27.46,27.46,0,0,1-8-4.24c-.43-.35-.91-.66-1.31-1q-2.67-2.62-5.3-5.3c-.74-.74-1.6-1.32-1.49-2.67a2.32,2.32,0,0,0-1.19-1.89c-1.52-.4-1.67-1.63-2-2.69a13.34,13.34,0,0,0-2.85-5.32c-.76-.76-.16-1.75-.34-2.61,1.24-1.57-.11-3-.28-4.47-.23-2.11-1.32-3.95-1.92-5.95a7.54,7.54,0,0,1-.29-.88c-.24-1.31.42-2.54.44-3.79a8.07,8.07,0,0,1,1-3.34c1.46-3.23,3-6.44,4.12-9.8A17.82,17.82,0,0,1,77.27,118a55.61,55.61,0,0,1,3.54-4.53c1.33-1.49,3-2.69,4.17-4.3a29.52,29.52,0,0,1,4.83-4.66,37.5,37.5,0,0,1,8.83-6.41c2.24-1.06,4.23-2.59,6.53-3.54a1.75,1.75,0,0,0,.53-.52,10.47,10.47,0,0,1,4.69-3.17c1.61-.57,2.7-1.87,4.14-2.69.59-.33.47-1-.18-1.34a3,3,0,0,0-1.15-.23c-1.17,0-2.34.06-3.5,0-1.6-.11-3.19-.38-4.8-.47s-3.25.31-4.72-.1c-1.87-.53-3.83-.44-5.7-1.32s-4.13-1.17-6.15-2C86.83,82,85.57,81,84,80.47s-3-1.94-4.77-2.38A2.05,2.05,0,0,1,78,76.94a11.39,11.39,0,0,1-1-4,5.64,5.64,0,0,1,1.51-3.07,25,25,0,0,1,9-6.71,5.44,5.44,0,0,0,2.32-1.63,15.38,15.38,0,0,1,5-3.78c2.73-1.54,5.22-3.43,7.88-5.07,2-1.23,3.81-2.88,5.94-3.78a20.13,20.13,0,0,1,5-1.8,16.9,16.9,0,0,0,3.37-.87,14.59,14.59,0,0,1,4.81-1c2,0,3.65-1,5.52-1.27,2.28-.37,4.47-1.38,6.75-1.73a48.06,48.06,0,0,0,5-1.19c1.54-.42,3.16-.84,4.69-1.27,2.17-.59,4.4-1.1,6.6-1.64,1.36-.33,2.65-.83,4.07-1.06s2.72-.23,4.06-.44c2.3-.37,4.67-.5,6.83-1.6a9.51,9.51,0,0,1,2.88-.91,12.77,12.77,0,0,0,3.88-.87,1.34,1.34,0,0,1,.46-.09c2.1-.16,4.2-.3,6.29-.51.94-.09,1.86-.32,2.8-.49s1.77.34,2.58-.46c.25-.25,1,0,1.46,0a32.34,32.34,0,0,0,6-.06c4.18-.8,8.37-.31,12.55-.41s8.34,0,12.5-.05a18.59,18.59,0,0,1,3.8.51c1.25.22,2.55-.27,3.82.46.56.32,1.47,0,2.21.07a15.8,15.8,0,0,0,2.05.46c3.15-.11,6,1.26,9.11,1.57.46.71,1.2.49,1.81.43,3.11-.3,6,.71,8.8,1.72,6.68,2.41,13.38,4.76,20.18,6.8,1,1,2.43.29,3.63.92.91.49,2-.27,2.7-1.11,1.22-1.48,2.39-3,3.54-4.53.82-1.09,1.65-2.18.58-3.64-.2-.28-.17-.84.64-1.24a6.64,6.64,0,0,0,2.75-2.78,3.83,3.83,0,0,1,2.7-2.07,4.26,4.26,0,0,0,3.08-2.11c.82-1.65,2.51-2.47,3.34-4.1s2.31-2.72,3.39-4.12A46.33,46.33,0,0,1,300,12.27c1.66-1.52,3.54-2.81,5.19-4.31A33.39,33.39,0,0,1,311.09,4c1.8-1.06,3.85-1.92,5.27-3.6A.92.92,0,0,1,317,.15c1,0,2.17-.35,3,.05,1.5.77,3.24.17,4.73,1.33,1.3,1,2.27,1.76,2.27,3.6A14.63,14.63,0,0,1,325.86,11a15.11,15.11,0,0,1-2.18,3.59c-1.51,1.85-2.48,4.07-4.15,5.82-.39.41-.55.74-1.17.81a3.2,3.2,0,0,0-1.44.71,31,31,0,0,0-2.8,2.29q-5.42,5.1-10.75,10.26c-.67.65-1.47,1.15-1.58,2.37-.07.71-1.09,1.42-1.81,2-1.48,1.09-2.91,2.24-4.37,3.35-3.58,2.7-4.29,3.41-6.12,6.65-1.07,1.9-2.34,3.7-3.51,5.55a25.36,25.36,0,0,0-3.19,7.94c-1,4.21-.88,8.4-.87,12.61,0,1.43.37,2.86.45,4.3s-.27,2.91.09,4.23c.53,2,.37,4.06,1.32,5.94a6.88,6.88,0,0,1,.38,2.34c.25,2.44,1.94,4.37,2.37,6.79.26,1.45,1,2.84.85,4.37-.07,1.15.73,2.1.55,3.3a11.32,11.32,0,0,0,.37,3,53.24,53.24,0,0,0,2.59,10.45c1.38,4.1,2.92,8.14,4.1,12.31a9.09,9.09,0,0,0,1.56,2.6,24.42,24.42,0,0,1,3.92,9.89,24.8,24.8,0,0,0,1.36,5.92,2.87,2.87,0,0,1,.06,1c0,1.06-.23,2.29.21,3.15.54,1.06-.21,2.22.48,3.05s-.28,2.19.81,2.92c.17,1.52.31,3,.51,4.55.13,1,.31,2,.49,3s-.43,2,.45,2.82c.09.08,0,.31.05.47.17,1.93.31,3.87.52,5.79.06.61.37,1.19.46,1.8a6.41,6.41,0,0,1,0,1.75c-.92,7.08-.32,14.19-.49,21.29-1,4.23-.16,8.54-.55,12.79a40.09,40.09,0,0,1-1.1,6.78c-.8,3-1.58,6-2.44,9a73.87,73.87,0,0,1-2.27,7.8c-1,2.44-2.2,4.76-3.23,7.16a31.23,31.23,0,0,1-1.61,3.58c-1.7,2.88-3.23,5.86-5,8.68s-3.56,5.51-5.27,8.31a12.49,12.49,0,0,1-1,1.34c-.54.69-1.38,1.1-1.63,2.08a1.7,1.7,0,0,1-1,1c-1.13.33-1.68,1.27-2.42,2-2.88,2.81-5.66,2.68-9.06.78a9.93,9.93,0,0,1-4.15-4.75,17.28,17.28,0,0,0-1.73-2.28,30.57,30.57,0,0,1-3.48-7.81,77.38,77.38,0,0,0-4.5-11.88,14.46,14.46,0,0,0-.95-1.61,3.77,3.77,0,0,1-1.06-2.57,1,1,0,0,0-.19-.66,1.55,1.55,0,0,0-.76-.54c-.13,0-.41.33-.53.56a13.46,13.46,0,0,1-1.72,3.26c-1,1-1.08,2.27-1.64,3.36a8,8,0,0,1-4.42,4.35,4,4,0,0,0-2.51,2.9c-.79,2.72-1,2.64-3.68,4.55a17.31,17.31,0,0,1-5.1,2.81,6.7,6.7,0,0,0-1.21.69,8.85,8.85,0,0,1-3.88,1.55c-1.38.09-2.73,1-4.09-.06-1.81.31-3.5-.59-5.29-.51-1,0-1.08.14-1,1.18,0,.3.22.58.29.88s.14.74,0,.81a1.09,1.09,0,0,1-.92.11,14.77,14.77,0,0,1-2.31-1.67c-.57-.54-.8.07-.86.26-.17.53-.43,1.35-.18,1.62.71.74.29,1.57.46,2.33.9,4.07.35,8.2.47,12.3,0,.94.68,1.77.1,2.87-.41.79-.08,2-.08,3s.06,2.17,0,3.25-.62,2.12-.52,3.3a4.86,4.86,0,0,1-.42,3.31c-.23.35,0,1,0,1.48v9c0,1.5.07,3,0,4.5a19.27,19.27,0,0,1-.25,4.13c-.38,1.39.06,3-.29,4.4-.47,1.86-.14,3.75-.52,5.54s-.09,3.76-.5,5.54-.08,3.77-.5,5.54-.12,3.75-.47,5.55c-.6,3.16-.48,6.43-1.78,9.5a8.53,8.53,0,0,0-.69,4.23,2.67,2.67,0,0,1-.3,1.61c-1.06,1.54-1.24,3.36-1.63,5.07a60,60,0,0,1-2.22,6.84c-1.33,3.78-3.07,7.39-4.43,11.17-1.27,3.53-2.7,7-4.17,10.51-1.1,2.62-2.31,5.21-3.28,7.9a51,51,0,0,1-3.49,7.54c-1.35,2.44-2.64,4.92-4,7.37-.67,1.24-1.81,2.17-2.28,3.56-.09.25-.65.4-1,.5a2.8,2.8,0,0,1-1,0c-1.44-.17-3,.54-4.31-.41-1.08-.81-2.19-1.55-3.29-2.31a7.13,7.13,0,0,1-2-2.41,35.17,35.17,0,0,1-3.12-6.45,24.22,24.22,0,0,0-2-5.16c-.56-.94-.64-2.18-1.75-2.79a.86.86,0,0,1-.23-.64c0-2.49-1.59-4.62-1.54-7.11-.73-.46-.36-1.19-.48-1.81a10.71,10.71,0,0,1-.46-1.79,40.48,40.48,0,0,0-.63-4.28,43,43,0,0,0-.9-5.35,1.33,1.33,0,0,0-.19-.42c-2.09-2.59-2.42-5.83-3.4-8.85-.45-1.38-.17-2.78-.82-4.16s-.47-2.81-.57-4.25c0-.8-.67-1.41-.57-2.29a5.61,5.61,0,0,0-.45-2c-.47-1.56-1.08-3.08-1.4-4.67a48.88,48.88,0,0,0-1.19-4.77c-.76-2.46-.91-5.05-1.85-7.47a10.73,10.73,0,0,1-.51-4.27c.08-1.56-1.32-2.3-1.64-3.6,0-.13-.58-.19-.89-.19-3.25,0-6.5,0-9.75,0a6.63,6.63,0,0,1-2.59-.36,3.85,3.85,0,0,0-3.32.22,3.63,3.63,0,0,1-1.67.16c-2.67,0-5.34,0-8,0-.78,0-1.14.17-1.37.91-.12.36-.64.92-1,.15a4.06,4.06,0,0,0-1.9-2,15.29,15.29,0,0,0-2.3-1.12,18,18,0,0,1-3.72-1.86,51.71,51.71,0,0,1-5.65-4c-1.73-1.43-3.51-2.79-5.2-4.3a11.87,11.87,0,0,1-3.53-6.05,67.07,67.07,0,0,1-1.57-6.62c-.36-2.27-.61-4.58-1-6.82s-.2-4.72-.42-7.06c-.12-1.35-.64-2.65-.49-4.05.21-2,.41-4,.49-6s-.25-4.21.1-6.23c.29-1.7.09-3.44.49-5a29.21,29.21,0,0,0,.42-6.31c0-1.1,0-2.08,1.28-2.74.62-.33.94-1.4,1.21-2.19a29.22,29.22,0,0,0,.51-7.29c0-.14-.15-.37-.24-.37a1.47,1.47,0,0,0-.67.16,1,1,0,0,0-.35.34c-.31.46-.54,1.23-.91,1.31s-.82-.52-.91-1.13c0-.11-.62-.28-.86-.19A18.57,18.57,0,0,0,87.09,256.61ZM274.39,93.85c0-.17.06-.36,0-.49a3.32,3.32,0,0,0-.75-1.16c-.13-.1-.68.23-1,.44-.66.44-1.26,1-1.92,1.39-.84.56-1.74,1-2.57,1.6s-1.17,1.25-2.06,1.63-1.42,1.32-2.23,1.84-1.16,1.4-1.9,1.64c-1.86.6-2.05,2.34-2.48,3.69a31.3,31.3,0,0,1-1.07,3.55c-.23.47.19.75.69.64a2.63,2.63,0,0,0,.86-.32,48.85,48.85,0,0,0,10.25-8.82c1.15-1.32,2.49-2.71,2.2-4.81-.11-.84.34-.23.65-.13,1,.31,1.31.11.82-8.5,0-.8,0-1.38,0-2a.62.62,0,0,0-.42-.44,3,3,0,0,0-2.68.78c-1.44,1.53-3.11,2.85-4.68,4.25a1.91,1.91,0,0,1-.56.44c-1.37.49-1.74,1.65-2.16,2.87-.86,2.56-1.3,5.24-2.32,7.74,0,.1,0,.31.05.34s.41.12.45.05c.6-.85,1.68-1,2.39-1.74q4-4.12,8.08-8.1C273.3,89,274.24,87.72,274.39,93.85Zm6.13,53c-.38-2.11-.7-4.22-1.17-6.3a2.21,2.21,0,0,0-1.14-1.23c-.25-.13-.84.21-1.17.48-1.83,1.44-3.63,2.91-5.42,4.4-1.37,1.14-2.66,2.38-4.07,3.46-2.27,1.72-4.56,3.42-6.93,5-1.71,1.14-3.22,2.52-5,3.6a22.39,22.39,0,0,0-3.68,3.15,3.08,3.08,0,0,0-1.07,2.3,2,2,0,0,0,2.93,1.77c1.72-1.11,3.41-2.28,5-3.53,1.91-1.46,3.73-3.06,5.61-4.57,1.37-1.09,2.81-2.08,4.16-3.19s2.81-2.47,4.23-3.7c.91-.78,1.83-1.56,2.8-2.28a3,3,0,0,1,1.28-.5,2.32,2.32,0,0,1,.91.17c-.08.28-.07.65-.25.84a75.8,75.8,0,0,1-7,6.05c-2.91,2.34-6,4.36-9.06,6.5-2.2,1.53-4.41,3-6.58,4.61a1.55,1.55,0,0,0-.57,1c-.18,1.68.93,2.75,2.09,3.58.78.56,1.51-.38,2.2-.82.46-.3.91-.61,1.38-.88a12.86,12.86,0,0,0,2.29-1.34c1.53-1.42,3.21-2.65,4.85-3.93,3.83-3,7.82-5.81,11.1-9.46,1.34-1.48,2.29-3.06,3.54,11.25.44-2.49-.67-5-1-7.6a2.47,2.47,0,0,0-1.08-1.72c-.34-.18-1.13.46-1.68.8a8.36,8.36,0,0,0-1.73,1.24c-2.19,2.26-5,3.69-7.41,5.67-1.2,1-2.61,1.72-3.89,2.62a41.1,41.1,0,0,0-3.59,2.49,32.46,32.46,0,0,1-3.93,2.52,2.32,2.32,0,0,0-.83,2.4,27.06,27.06,0,0,0,1.37,4.41c.47,1.29,1.48,1.5,2.54.6a8.42,8.42,0,0,1,1.08-1,59.72,59.72,0,0,0,6.07-4.64,22,22,0,0,0,2.07-1.61c.67-.68,1.16-1.52,1.79-2.24a12.13,12.13,0,0,1,1.31-1c.44-.36,1.06-.64,1.27-1.11.77-1.73,2.41-2.65,3.58-4,.22-.25.7-.29,1.08-.37.12,0,.38.06.41.15a1.23,1.23,0,0,1,0,.66c0,.14-.22.24-.34.36-3,2.82-5.89,5.75-9,8.42-1.11.94-2.07,2.21-3.32,2.79s-2,2-3.37,2.69-2.27,2.15-3.43,3.21a1.19,1.19,0,0,0-.32,1.53,7.69,7.69,0,0,1,.9,4.12.52.52,0,0,0,.81.48c1.57-1.23,3.13-2.48,4.71-3.7,2.14-1.66,4.22-3.41,6.47-4.9a10.88,10.88,0,0,0,3.06-2.72,37.09,37.09,0,0,1,3.94-4.35c.8-.85,2-1.52,2.38-2.51S281.86,164.59,280.52,146.81ZM197.77,252.46c1.19.54,1.67,1.74,2.89,2.31,1,.48,1.87,1.37,2.93,2s1.9,1.21,2.89,1.73,1,.32,1.42-.72a3.19,3.19,0,0,1,.64-1c2.51-2.61,5.08-5.15,7.48-7.88,1.76-2,3.21-4.2,4.88-6.25a21.79,21.79,0,0,1,2.15-2.35,1.22,1.22,0,0,1,1.13,0c.47.29.17.66-.12,1s-.31.73-.55,1c-1.46,1.66-2.94,3.29-4.42,4.92a9.52,9.52,0,0,0-1,1.07c-1.86,2.95-4.37,5.36-6.58,8a10.3,10.3,0,0,0-1.58,2.35c-.43.94-.21,1.5.71,1.5a11.15,11.15,0,0,0,1.37-.29,2.48,2.48,0,0,1,1.33,0,1.88,1.88,0,0,0,2.6-.43c.67-.67,1.52-1.17,2.24-1.79,2.55-2.19,4.39-5,6.52-7.56a25.93,25.93,0,0,0,2.71-4.12,16.63,16.63,0,0,1,3.17-3.67.64.64,0,0,1,.64-.05.68.68,0,0,1,.19.63,9.71,9.71,0,0,1-1,2.06c-.88,1.16-2,2.17-2.79,3.36a82.92,82.92,0,0,1-9.21,11.18,7.93,7.93,0,0,0-.71.71,1.06,1.06,0,0,0,.07,1.53c.36.38.67.66,1.23.21a1.78,1.78,0,0,1,1.13-.25,4.09,4.09,0,0,0,3.28-1.73c.19-.21.24-.74.39-.75,1-.1.74-1.27,1.57-1.59a5.76,5.76,0,0,0,1.87-1.49c.54-.57.92-1.29,1.43-1.9,2-2.35,4.15-4.57,6-7a51.61,51.61,0,0,1,5.88-6.8,3.81,3.81,0,0,1,1-.7.68.68,0,0,1,1,.62,2.67,2.67,0,0,1-1.26,2.49,22.37,22.37,0,0,0-4.42,4.38,65.35,65.35,0,0,1-5.33,6.29,52.92,52.92,0,0,0-3.71,4.21,30.5,30.5,0,0,0-2,2.93c-.15.25-.35.69-.25.83a4,4,0,0,0,1.24,1.19c.2.11.67-.44,1-.43,2.22,0,3.55-1.46,4.77-2.94a28.68,28.68,0,0,0,2-3.41c1.39-2.26,2.81-4.51,4.23-6.75.64-1,1.3-2,1.94-2.94a31.23,31.23,0,0,0,1.75-3.28,4.85,4.85,0,0,1,.74-1.19c.61-.68,1.28-1.31,1.94-2a4.38,4.38,0,0,0,1.35-2.7,32.75,32.75,0,0,1,1-4.09,82.24,82.24,0,0,1,3.29-9.39c.77-1.93,1.75-3.85,1.73-6a1.94,1.94,0,0,1,.46-1c.29-.4.94-.7,1-1.08.15-1.69,1.4-2.95,1.59-4.62.13-1.14,1.09-2.13.94-3.34-.22-1.74.7-3.32.55-5,.92-.47,0-1-.09-1.33s-.68-.9-1.1-1.29-.44-.77,0-1.23.42-.85.73-1.18a7,7,0,0,0,1.93-5.21,17.51,17.51,0,0,1,.09-4.47,8.13,8.13,0,0,0,.38-3.06c-.14-1.17-.36-2.39-2-2.49a1.06,1.06,0,0,1-1-1.19c0-1.08,0-2.17,0-3.25,0-.64.2-1.34-.5-1.79-.48-3.48-2.71-6.21-4.07-9.32a3,3,0,0,0-1.74-2,3.66,3.66,0,0,1-2.2-2.28,31.32,31.32,0,0,1-1.79-3.75,2.79,2.79,0,0,0-2.23-1.85c-2.85-.79-5.73-1.41-8.13-3.36a2.83,2.83,0,0,0-2.12-.08c-.52.13-.69.76-.78,1.4a3.45,3.45,0,0,1-1,1.8c-3.26,3.16-6.43,6.42-9.9,9.34a103.26,103.26,0,0,0-7.85,6.94c-1.22,1.25-2.45,2.5-3.72,3.7a20.71,20.71,0,0,1-3.46,3.07,5.24,5.24,0,0,0-2.31,2.75,5.09,5.09,0,0,1-1.44,1.91,24.62,24.62,0,0,0-3.89,4.39,5.24,5.24,0,0,1-.72,1.19,5,5,0,0,1-1.37.89,11.66,11.66,0,0,0-3.3,2.3c-1.67,1.56-3.06,3.42-5.07,4.63a3.21,3.21,0,0,0-1.41,2.4,36.48,36.48,0,0,1-.65,4,7.66,7.66,0,0,0-.17,3.09c1-1.35,1.81-2.37,2.6-3.39a19.22,19.22,0,0,1,1.61-2.08,14.82,14.82,0,0,1,2.07-1.6,25.42,25.42,0,0,0,6.19-6.14c1.08-1.5,2.79-2.5,3.7-4.18,1.9-.7,2.49-2.62,3.65-4a39.15,39.15,0,0,1,6.71-6.41c.14-.1.44,0,.66,0,0,.29.08.68-.07.84-1,1.09-2.11,2.13-3.16,3.2a4.7,4.7,0,0,0-1.22,2,7.76,7.76,0,0,1-2.12,3.38c-1.8,1.6-3.47,3.36-5.14,5.11-.66.68-1,1.77-1.82,2.19a10.3,10.3,0,0,0-2.56,2.2c-2,2.06-4.07,4-5.92,6.26a21.25,21.25,0,0,1-5.54,5.23.8.8,0,0,0-.29.59c0,1,0,2,0,3,0,.15.52.43.71.37s.5-.42.71-.68a13.92,13.92,0,0,1,2.34-2.74,42.28,42.28,0,0,0,4.53-4.12,2.27,2.27,0,0,1,.58-.41.61.61,0,0,1,.44.1s0,.26,0,.33c-.28.31-.58.6-.88.89-2.41,2.42-4.83,4.83-7.24,7.26-.27.27-.69.7-.62,1a9.16,9.16,0,0,0,.89,2.12c.22.4.59.47,1,.14,1.2-.92,2.5-1.7,3.63-2.68,2.05-1.77,4-3.61,6-5.48,1.77-1.69,3.34-3.59,5-5.39,3.45-3.72,6.94-7.47,11.23-10.26,1.77-1.16,3.31-2.65,5.28-3.53a14.82,14.82,0,0,0,2.5-1.81c.77-.56,1.54-1.11,2.33-1.64.08-.06.3,0,.43.11a.44.44,0,0,1-.07.33c-1.24,1-2.44,2.1-3.75,3-2.93,2.09-6,3.95-8.47,6.69a10.87,10.87,0,0,1-2.59,2.17,8.49,8.49,0,0,0-2.13,2.1c-.62.79-1.62,1.08-2.16,2a14.7,14.7,0,0,1-2.62,3.17q-3.62,3.53-7.39,6.89c-1.06.94-2.37,1.59-3.44,2.51a43.79,43.79,0,0,0-3.54,3.54c-.4.44-.27,1,.14,1.53.56.75.94,0,1.13-.17,2.28-1.58,4.88-2.68,6.76-4.87a20.43,20.43,0,0,1,3.16-2.58c1.19-.93,2.76-1.61,3.53-2.8a12.59,12.59,0,0,1,4.78-4.2c.23-.13.48-.23.72-.35-.06.29,0,.67-.19.84-1.33,1.38-2.69,2.73-4.05,4.08-.94.95-1.73,2.17-2.86,2.77a25.3,25.3,0,0,0-5.39,4.47,12.26,12.26,0,0,1-1.51,1.18c-1.68,1.16-3.68,1.85-5.08,3.43-1.26.08-.87.83-.63,1.53.18.51.35,1,.52,1.52a44.71,44.71,0,0,1,3.54-2.93,20.59,20.59,0,0,0,2.94-2c.11-.11.43,0,.66,0,0,.12,0,.29-.08.35-1.78,1.52-3.52,3.1-5.38,4.52a4.87,4.87,0,0,0-1.7,7c.45.64.84.71,1.38.22,2.17-2,4.39-4,6.49-6,1.28-1.25,2.39-2.66,3.55-4a22.31,22.31,0,0,0,2.61-3.17A14,14,0,0,1,205.3,217c.11-.12.46-.21.5-.16.23.31.63.74.54,1a5.52,5.52,0,0,1-1,1.59,33.75,33.75,0,0,0-2.93,3.54,22,22,0,0,1-4.71,5c-1.88,1.63-3.95,3.06-5.72,4.83-1.09,1.08-1.07,1.07-.1,2.12a2.84,2.84,0,0,1,1,1.58c.18,1.16.8,1.3,1.76.58a10.5,10.5,0,0,0,1.06-1.05,39.06,39.06,0,0,0,4.44-4.91c1.32-1.89,2.76-3.7,4.2-5.51,1.15-1.45,2.36-2.86,3.57-4.27a.75.75,0,0,1,.65-.16.71.71,0,0,1,.25.61,3.1,3.1,0,0,1-.44,1.06c-1.3,1.84-2.74,3.56-4.18,5.29-2,2.36-3.85,4.81-6.06,7-1.08,1-2,2.22-3.21,3.15a3.07,3.07,0,0,0-.89,3.74c.19.56,0,1.21.34,1.59.47.65.07,1.78.89,2,.38.1,1-.69,1.49-1.09a15.58,15.58,0,0,0,3.1-2.69,46.73,46.73,0,0,1,4.12-4.53c1.25-1.39,2.77-2.51,3.75-4.19a11.37,11.37,0,0,1,2.09-2.13c.1-.09.34,0,.52,0a1.33,1.33,0,0,1,0,.49,5.82,5.82,0,0,1-.71,1.21c-2,2.41-4.11,4.8-6.18,7.19a19,19,0,0,0-2.35,2.76c-.51.86-1.56,1.39-2.34,2.1-1,.88-1.92,1.81-2.88,2.71.49.87,1,1.74,1.46,2.62a2.63,2.63,0,0,1,.17.62c1.57-1.35,3.19-2.59,4.62-4,2.2-2.21,4.43-4.38,6.45-6.78,1.64-1.95,3.22-4.17,5.88-5,.43-.13,1.06-.37,1.17-.7.49-1.49,2-2.07,2.74-3.37.41-.75,1.59-1.26,1.82-.93.44.65.1,1.2-.33,1.73-.14.17-.12.47-.26.64-1.28,1.47-2.58,2.93-3.88,4.39-1.53,1.71-3.07,3.4-4.59,5.1-.14.17-.14.47-.29.63-1.17,1.3-1.7,3-2.5,4.46-.64,1.22-1.63,1.29-2.46.22s-.94-1-1.7-.36ZM111.2,240.23a10.08,10.08,0,0,1,1.87-2,54.9,54.9,0,0,0,6.74-5.39c3.27-2.76,6.23-5.88,9.4-8.77a32,32,0,0,1,3.64-2.66c.55-.37,1.43-.08,1.52.46a2.84,2.84,0,0,1-.18,1.17c-.34,1.17-1.53,1.4-2.34,2.07-2.28,1.87-5,3.1-7.07,5.3a41,41,0,0,1-5.28,4.75c-1.19.89-2.12,2-3.32,2.84-2.78,1.87-4.73,4.58-7.19,6.76a.27.27,0,0,0-.09.2,1.14,1.14,0,0,0,.08.46c0,.05.28.05.34,0,1.52-1.58,4-2.12,4.9-4.38a.77.77,0,0,1,.35-.34c.13-.07.37-.14.45-.07s.37.36.35.52a2.15,2.15,0,0,1-.38,1.08,18.78,18.78,0,0,1-4.41,3.84c-.58.34-1.08.52-1.2,1.26s-.38,1.19-.47,1.8c-.07.46.15.51.53.21s.73-.31,1-.56c1.72-1.51,3.45-3,5.09-4.6,1-.95,1.73-2.13,2.68-3.12a42.54,42.54,0,0,1,4-3.59c2.59-2.15,4.93-4.6,7.44-6.84a44.36,44.36,0,0,1,3.82-2.83,1.07,1.07,0,0,1,.64-.17,1.34,1.34,0,0,1,.25.87,2.23,2.23,0,0,1-.61,1c-2.1,2-4.13,4-6.37,5.79-.95.75-1.78,1.66-2.78,2.31a21.52,21.52,0,0,0-5.69,4.86c-1.26,1.64-2.75,3-4.13,4.52a5.77,5.77,0,0,0-.69.71c-1.39,2.11-3,4-5.42,4.94a.3.3,0,0,0-.18.15c0,.15-.14.35-.08.45a.48.48,0,0,0,.41.19c.42-.2.8-.61,1.22-.66.66-.07,1.63-.76,1.87.61,0,0,.35.11.42,0,2.3-2.1,4.64-4.17,6.85-6.37,1.8-1.79,3.84-3.36,5.16-5.6a2.18,2.18,0,0,1,.91-.79,1.07,1.07,0,0,1,.94.08,1,1,0,0,1,.18.88A5.41,5.41,0,0,1,125,243.8c-2.69,2.43-5,5.25-7.9,7.46a46.75,46.75,0,0,0-4.81,4.74c-1.57,1.59-3.42,2.86-4.79,4.7a4.63,4.63,0,0,0-.95,4l5.6-5.6a8.83,8.83,0,0,1,1.07-1.05c.28-.2.81-.45,1-.33.46.31.14.69-.17,1-.55.52-1.07,1.06-1.6,1.59a9,9,0,0,0-1.9,2,13.32,13.32,0,0,1-3.25,3.63c-1.47,1.37-1.57,1.27-1.1,3,1.1-.89,2.31-1.72,3.35-2.73,3-2.91,5.91-5.88,8.85-8.83a6,6,0,0,0,1-1.09c1.28-2.17,3.38-3.57,5-5.4a1.26,1.26,0,0,1,1.11-.22c.22.09.35.65.34,1a1.89,1.89,0,0,1-.37,1.07,9,9,0,0,1-1.22,1.25,43.14,43.14,0,0,0-4.86,4.47,45.27,45.27,0,0,1-3.79,4.15,54.32,54.32,0,0,1-5.65,5.09,44.1,44.1,0,0,0-4,3.6,2.56,2.56,0,0,0-.58,1c-.07.2.06.46.1.7a2.25,2.25,0,0,0,.53-.29c1.13-1.1,2.23-2.24,3.38-3.33.17-.16.55-.1.84-.14,0,.28,0,.67-.11.83-1.32,1.39-2.68,2.74-4.05,4.09a3.36,3.36,0,0,0-1.2,2.24c-.05,1.56,0,3.12,0,5.19,2-3.12,4.43-5,6.57-7.27s4.5-4.46,6.7-6.74c1.41-1.46,2.71-3,4.08-4.55a1.44,1.44,0,0,1,1.84.12,1.55,1.55,0,0,1,.19,1.29,3.18,3.18,0,0,1-1,1.54,20,20,0,0,0-4.56,4c-.91,1.1-2.27,1.83-3.27,2.88-3.25,3.39-6.87,6.43-9.77,10.18-1.36,1.76-1.52,1.74-.92,4a11.77,11.77,0,0,0,1.91-2c1.19-2,3-3.39,4.31-5.2,1.16-1.56,2.91-2.63,3.88-4.4.12-.21.55-.25.83-.37a2.52,2.52,0,0,1,.22.9,1.54,1.54,0,0,1-.43.8,60.69,60.69,0,0,0-4.45,4.9c-1.45,1.87-3.16,3.53-4.73,5.31a16.5,16.5,0,0,0-1.41,1.91,2.31,2.31,0,0,0-.43,1.07c0,.7,0,1.4.1,2.52,1.94-2.41,3.77-4.37,5.23-6.59a27,27,0,0,1,4.87-5.18c1.36-1.2,3-2.1,4.28-3.44,1.61-1.77,3-3.74,4.49-5.63.09-.11.06-.4.14-.42a1.61,1.61,0,0,1,.93-.11.93.93,0,0,1,.42.68,3.1,3.1,0,0,1-1,2.57c-2.41,2.59-4.84,5.16-7.24,7.75a62.12,62.12,0,0,0-4.4,4.94c-2.23,3-4.4,6.08-6.91,8.88a1.82,1.82,0,0,0-.39.83c0,.21,0,.64.12.66a1.06,1.06,0,0,0,.83-.1c1.9-1.68,3.8-3.36,5.63-5.12,2.09-2,4.1-4.08,6.44-6.41-.09.8,0,1.33-.21,1.67a21.2,21.2,0,0,1-5,5.39c-1.18.9-2.15,2-3.27,2.91s-2.33,2-3.51,3a1.21,1.21,0,0,0-.56,1.26c0,.15.09.3.14.44.12,0,.29,0,.35-.14.25-.39.47-.8.71-1.2.36-.6,1.15-.83,1.48-.5.84.82,1.27.31,1.79-.27,2-2.18,4.28-4.05,6.06-6.47a69.59,69.59,0,0,1,5.08-5.66c.28-.31.76-.55.85-.9.38-1.4,1.73-1.93,2.51-3s1.62-2,2.48-3a.93.93,0,0,1,1.52.44,2.18,2.18,0,0,1-.47,2.05,23.4,23.4,0,0,0-3.45,4.07,22.71,22.71,0,0,1-3.29,4.13c-1.79,1.75-3.61,3.47-5.29,5.31a67.3,67.3,0,0,0-4.76,5.78,33.08,33.08,0,0,1-3.39,4.34,6.63,6.63,0,0,0-.53.53,1.14,1.14,0,0,0,.12,1.71c.64.69,1,.17,1.4-.23.64-.65,1.32-1.28,1.93-1.95,1.55-1.69,3.06-3.41,4.62-5.07.21-.23.67-.21,1-.3,0,.39.19.86,0,1.16a5.17,5.17,0,0,1-1,1.08l-6.19,6.19c-.71.71-1,1.67-.51,1.86.85.35,1.13-.51,1.54-.93.94-1,1.59-2.45,2.71-3.05,2-1.06,2.55-3.34,4.35-4.47.48-1.39,1.75-2.11,2.65-3.15s1.91-2.2,2.82-3.34c.59-.75,1.44-1.22,1.85-2.23.29-.7,1.35-1.05,2-1.63s1.42-1.41,2.13-2.11c.23-.24.48-.46.7-.71.52-.57.8.13.85.3a1.86,1.86,0,0,1,0,1.32,18.67,18.67,0,0,1-2.28,2.81c-3.94,3.86-7.81,7.79-10.58,12.62-.82,1.43-2.16,2.52-2.68,4.14a3.76,3.76,0,0,1-.91,1.84,6.58,6.58,0,0,1-2.2.67c-.08,0-.18,0-.25,0-.54.21-.52.56-.18.93s.84.81,1.22,1.25c.62.7,1.09.21,1.37-.26,1.2-2,2.84-3.73,3.74-5.95.41-1,1.62-1.74,1.69-1.46a11.47,11.47,0,0,1,.15,2.35c0,.11-.28.21-.33.35-.93,2.46-2.62,4.44-4.07,6.57-.13.2-.29.59-.21.68a1.33,1.33,0,0,0,2,0c.9-1.73,2.47-2.92,3.57-4.51,1.28-1.83,2.85-3.47,4.12-5.31,1.4-2,3-3.93,4.53-5.86s3-3.6,4.49-5.39a3.6,3.6,0,0,1,2.8-.81c.43.19,0,1.27-.84,2.23-1.41,1.58-2.84,3.15-4.24,4.75a34.41,34.41,0,0,0-2.63,3.16,47.11,47.11,0,0,1-5.68,7.14c-.3.3-.73.54-.86.9-.67,1.81-2.09,3-3.38,4.35a2.37,2.37,0,0,0-.52.53c-.1.19-.19.54-.09.66a3.29,3.29,0,0,0,2.23,1.22c.7.06.93-.45,1.22-1,1-1.69,2.06-3.31,2.95-5,.27-.53.56-.48.92-.47s.59.17.59.26a5.23,5.23,0,0,1-.21,2.15,28.91,28.91,0,0,1-2.08,3.14c-1.09,1.63-1,1.74,1,2.49.54.21.75.38,1.09-.1.24-.32.49-.63.71-1,1.89-2.8,3.79-5.59,5.65-8.41,1.51-2.28,3-4.56,4.4-6.93a25.67,25.67,0,0,1,4.42-5.37.8.8,0,0,1,1.36.32,1.8,1.8,0,0,1-.2,2q-1.74,1.88-3.36,3.86c-.8,1-1.55,2-2.26,3.06q-1.65,2.43-3.22,4.91-2.42,3.75-4.78,7.52c-.3.48-.66.91.35,1.2.55.17,1.37.52,1.48.14.35-1.3,1.67-1.72,2.2-2.85.68-1.47,2-2.58,2.49-4.22,0-.12.63-.24.81-.13a1.72,1.72,0,0,1,.25,2.54c-1,1.5-2,3-3,4.52a1,1,0,0,0,.19.78,4.3,4.3,0,0,0,2-.05c.42-.17.67-.84.9-1.33,2.32-4.86,5.91-8.88,8.86-13.33,1.44-2.17,2.91-4.32,4.51-6.37,1.82-2.33,3.18-5,5.38-7,.29-.28.74-.84.85-.78.43.23,1,.61,1.05,1a13.94,13.94,0,0,1,.17,2.67c0,.08-.25.17-.39.23-1.93.81-2.83,2.69-3.92,4.21-2.62,3.68-5.44,7.2-8.05,10.88-2.09,2.94-4.26,5.8-5.65,9.17-.58,1.4-.63,1.22.75,1.25.46,0,.65-.07.82-.61a25.76,25.76,0,0,1,3.47-6.81c.46-.66.94-.68,1.32,0a1.36,1.36,0,0,1-.14,1.54c-1,1.67-1.81,3.41-2.66,5.15a.68.68,0,0,0,.18.64c.13.1.56.09.64,0,.58-.83,1.08-1.72,1.67-2.55,1-1.42,2.09-2.8,3.12-4.21a28.06,28.06,0,0,0,2.83-4.08c1.57-3.3,4.1-5.86,6.41-8.57a24.42,24.42,0,0,0,3.6-5.53c1.65-3.52,3.78-6.76,5.6-10.17.52-1,1.42-2.11,3-1.78.77.17,1.19-.28,1.46-1a11.44,11.44,0,0,1,.69-1.46,54.26,54.26,0,0,0,3.64-6.74,56.29,56.29,0,0,1,4.46-8.41c.77-1.34,1.91-2.7.48-4.47-.61-.77-.39-1.84.32-2.88,1.11-1.66,2.44-3.22,3-5.27.13-.5.34-.72-.11-1.09s-.7-.2-1,.12a18.14,18.14,0,0,1-3.48,3.05c-.65.36-1.28,1.12-1.85.38s.21-1.32.75-1.85c2.08-2,4.12-4.13,6.2-6.17.52-.51.64-.88.06-1.41a4.08,4.08,0,0,1-.6-1c-.28-.47-.61-.43-1-.1-1.46,1.3-3,2.55-4.37,3.91a8.77,8.77,0,0,0-2.36,2.76c-.33.79-1.13.82-1.84.3s.3-1,.18-1.56c0-.09.25-.22.33-.35,1.75-2.83,4.38-4.76,6.91-6.78.81-.65.86-1.17.13-2.56-.12-.23-.12-.22-1.1.39a13.15,13.15,0,0,1-1.23.66c-2.28,1.15-4.42,2.44-5.75,4.78-.28.49-1,.75-1.54,1.06-.09.06-.38-.1-.5-.23a.69.69,0,0,1-.2-.52,4.88,4.88,0,0,1,2.13-3.08c2.55-1.61,4.3-4.07,6.47-6.07.6-.56.13-1.73-.68-1.94a2.78,2.78,0,0,0-2.45.68,26.51,26.51,0,0,0-4.55,4.62c-.78,1.09-1.8,1.87-2.56,2.91-.33.45-.59.1-.69-.13-.17-.42-.44-1-.28-1.33a8,8,0,0,1,1.37-1.92c1.87-2.08,3.77-4.11,5.65-6.17.41-.45.66-2.23.27-2.51-.82-.6-1.14.61-1.86.66-.31,0-.59.54-.89.83a28.17,28.17,0,0,0-4.62,5.59c-.27.44-.66.36-1,0-.69-.7-.76-1.52.12-2.55a77.47,77.47,0,0,1,5.51-5.94c.6-.57,1.4-1,2-1.64s.22-1.58.32-2.36c0-.06-.4-.2-.62-.24-1.39-.24-2.24.82-3.08,1.55a19.87,19.87,0,0,0-4.82,5.73c-.3.57-1.54,1-1.66.7a5.13,5.13,0,0,1-.16-1.84c0-.18.33-.35.5-.53,2.48-2.64,5-5.27,7.42-7.93.42-.46.62-1.16,1.09-1.53.82-.64-.63-.9-.14-1.41-.38-.08-.85-.35-1.13-.21a7.79,7.79,0,0,0-1.95,1.32c-1.57,1.49-3.11,3-4.6,4.59-1.11,1.18-2.13,2.45-3.19,3.67-.29.33-.61.61-1,.22s-1-.69-.34-1.38.89-1.33,1.44-1.9a60.59,60.59,0,0,0,6-6.52,2.89,2.89,0,0,0,.24-.85c-.29,0-.64-.13-.84,0-1.07.67-2.13,1.35-3.13,2.11-1.72,1.32-3.37,2.72-5.09,4a1.28,1.28,0,0,1-1.14.11c-.46-.25-.24-.65.06-1a10,10,0,0,1,1.27-1.7c2.3-1.72,4.51-3.58,6.83-5.26,1.64-1.18,2.82-2.84,4.63-3.84a6,6,0,0,0,2.35-2.73c.32-.66-.13-.88-.45-1.21s-.71-.16-1,.16a22.11,22.11,0,0,1-3.85,3.37c-1.4.87-2.73,1.86-4.11,2.78-.52.34-1.19.86-1.72.4s-.25-1.17.27-1.69c.2-.21.22-.59.4-.83.53-.72-.58-1.95.6-2.33.8-.26,1.77.11,2.53-.54.05,0,.17,0,.25,0,1.32.3,1.55-.79,2.07-1.57.31-.47.14-.73-.19-1s-.54-.51-1-.28a13.69,13.69,0,0,0-3.8,2.3,35.83,35.83,0,0,1-3.34,2.82,2.81,2.81,0,0,1-2.17.75c-.28-.05-.67-.15-.76-.35a1,1,0,0,1,0-.93c.58-.54,1.28-.94,1.89-1.45,3-2.49,6.33-4.5,9.4-6.88.43-.33,1-.55,1.36-.91a.86.86,0,0,0,.12-.82,4.85,4.85,0,0,0-.86-.9c-1-1-1.11-1-2.47-.23a19,19,0,0,0-2.53,1.75,20.28,20.28,0,0,1-7,3.72c-.27.08-.82,0-.89-.15a1.36,1.36,0,0,1,0-1.13c.25-.35.77-.48,1.17-.74,1.44-.93,2.89-1.87,4.32-2.82a1.94,1.94,0,0,0,.9-2.13c-.07-.36.24-.92-.38-1a1.64,1.64,0,0,0-1.12.26c-.8.69-1.51,1.47-2.5,2.47,0-1,0-1.61,0-2.25,0-1.07-.4-1.46-1.43-1.5-2.93-.12-5.88.24-8.8-.46a22.16,22.16,0,0,0-3.74-.06,2.68,2.68,0,0,0-3,2,3.18,3.18,0,0,1-2,2,13.48,13.48,0,0,0-3.93,2.59,25.07,25.07,0,0,1-3.7,3.15c-1.72,1.08-3,2.6-4.66,3.79-2.2,1.63-4.22,3.5-6.33,5.26a6.79,6.79,0,0,1-.85.54c.31.05.62.12.93.16.62.08.65.59.34.84a11.42,11.42,0,0,1-2,1.16,6.52,6.52,0,0,0-2.62,2.07,14.36,14.36,0,0,1-1.72,2.79c-.06.06,0,.32.07.45a.38.38,0,0,0,.33,0c1.3-1.11,2.58-2.24,3.87-3.35,1-.9,2.09-1.78,3.15-2.65a21.44,21.44,0,0,1,2.1-1.59c1.68-1.05,2.85-2.71,4.41-3.86a74,74,0,0,0,7.81-6.42,2.09,2.09,0,0,1,1.83-.42c.14,0,.42.47.39.68a2,2,0,0,1-.49,1c-2,1.85-4,3.67-6,5.49a1.4,1.4,0,0,1-.39.26c-2.82,1.18-5,3.29-7.37,5.1-1.65,1.26-3,2.84-4.91,3.88a20.06,20.06,0,0,0-4,3,14.91,14.91,0,0,0-3.72,4.19c-.1.21.08.56.14.84.22-.06.51,0,.66-.19,1.2-1.16,2.37-2.35,3.55-3.52a1.74,1.74,0,0,1,.35-.22l.18.68c.16.63-.37.89-.71,1.2-1.82,1.64-3.26,3.69-5.43,5-.68.41-1.31,1.08.14,15.82l-.07-.39c-1,.45-1.93.87-2.88,1.35-1.44.73-1.7,1.46-1.23,3.22C109.1,256.67,110.5,255.27,111.2,240.23ZM178.39,105.6c0-1,0-1.57,0-2.15a6.71,6.71,0,0,0-1-3.81,51.62,51.62,0,0,0-4.77-7.52c-1.46-1.8-3.17-3.3-5.75-3a1.25,1.25,0,0,1-1.4-.77c-.5-1.54-1.7-2-3.06-2.26a2.66,2.66,0,0,1-1.26-.54c-1.66-1.7-3.93-1.58-6-1.87a55.94,55.94,0,0,0-7-.09,1.74,1.74,0,0,0-1.72.7,2,2,0,0,1-2.16.82c-.67,0-1.34,0-2,0-1.17,0-2.46-.31-3.47.09s-1.71,1.5-2.55,2.28c-1.16,1.08-1.93.89-2.35-.67-.13-.48-.2-.66-.72-.71-2.61-.25-5,.78-7.57,1.1-.45.06-1,.64-1.47,1.26a68.52,68.52,0,0,1-4.51,5.16A39.67,39.67,0,0,0,117,96.8a3.37,3.37,0,0,0-.6,1.73,3.91,3.91,0,0,1-1.37,2.7c-.48.46-1.13.86-1.38,1.43-.6,1.33-1.79,2.09-2.69,3.13s-1.84,2.26-2.84,3.32c-1.37,1.45-2.8,2.85-4.23,4.25a26.83,26.83,0,0,0-3.57,4.51,28.65,28.65,0,0,1-3.89,4.88,64.37,64.37,0,0,0-5,6.21,75.65,75.65,0,0,1-5.55,6.94,26.77,26.77,0,0,0-3.85,4.41,40.27,40.27,0,0,1-5.89,7.29,4,4,0,0,0-1.26,3.48c0,.19.19.49.34.52a.76.76,0,0,0,.63-.22c1.38-1.51,2.7-3.06,4.08-4.55,2-2.14,4.3-4,5.69-6.64a11.11,11.11,0,0,1,2.46-3,78.52,78.52,0,0,0,8.41-9.55,24.89,24.89,0,0,0,3.62-5,8.47,8.47,0,0,1,1.75-2.27,59.46,59.46,0,0,0,7.24-8.75,3.36,3.36,0,0,1,1.08-1,1.06,1.06,0,0,1,1,0,.92.92,0,0,1,.21.86,4,4,0,0,1-.83,1.64c-2.12,2.14-3.81,4.65-5.86,6.81-2.34,2.47-3.79,5.6-6.28,7.92-.32,1.31-1.64,1.79-2.32,2.79a47,47,0,0,1-4.95,6,44.1,44.1,0,0,0-3.6,4c-2.16,2.83-4.66,5.42-7,8.11-1.23,1.4-2.47,2.8-3.7,4.21a2.53,2.53,0,0,0-.1,2.7c.32.42.73.74,1.2.19.66-.8,1.25-1.67,1.95-2.43,2.28-2.49,4.6-4.93,6.89-7.41,1.78-1.92,3.53-3.86,5.3-5.8a1.53,1.53,0,0,0,.18-.18c1.44-2.37,3.58-4.15,5.33-6.27,2.15-2.58,4.57-4.95,6.86-7.42.2-.23.28-.57.49-.8,1.64-1.87,2.83-4.09,4.63-5.84.52-.5,1.1-.9,1.69-.45.76.56-.51.87-.34,1.45,0,.11-.13.28-.23.4q-3,3.51-6,7c-.38.44-.93.76-1.21,1.25a37,37,0,0,1-4.17,5.48c-2.86,3.24-5.8,6.41-8.62,9.7-2.94,3.44-6.24,6.58-9.31,9.92-1,1.1-1.76,2.43-2.67,3.62a1.17,1.17,0,0,0,.16,1.73c1.15,1.25,3,1,4.08-.52a39.56,39.56,0,0,1,2.9-3.79,19.55,19.55,0,0,0,2.59-3.43,17.53,17.53,0,0,1,4.86-5.41,22.49,22.49,0,0,0,5-4.75,64.62,64.62,0,0,1,7-8.36,13.35,13.35,0,0,0,1.86-2.2,9.59,9.59,0,0,1,3.61-3.21.71.71,0,0,1,.65.16.66.66,0,0,1,0,.64c-2,2-3.31,4.6-5.44,6.53a24.22,24.22,0,0,0-3.7,4.2,41.48,41.48,0,0,1-5.7,6.63c-1.18,1.11-2.66,2-3.62,3.22a28.34,28.34,0,0,0-3.95,6.1,12.86,12.86,0,0,1-2.63,3.92,5.56,5.56,0,0,0-1,1.56c-.18.39-.37,1-.18,1.31.44.62.8-.24,1.18-.26.82,0,1.09-.71,1.53-1.14,3.09-3,6.17-6.09,9.19-9.19a33.58,33.58,0,0,0,3.7-4.22,64.6,64.6,0,0,1,8.16-9.61c.88-.87,1.82-1.19,2-.68.37.82-.19,1.34-.73,1.88a69.16,69.16,0,0,0-7.66,8.55A61.82,61.82,0,0,1,96.81,154c-1.55,1.63-3.19,3.17-4.75,4.79a2,2,0,0,0-.63,1.22,2.48,2.48,0,0,1-1,2.38c-.1.07,0,.43,0,.66.12,0,.27,0,.35-.09,1.94-1.76,3.92-3.49,5.8-5.31A121.92,121.92,0,0,0,110.81,142a21.32,21.32,0,0,0,1.83-2.23c.31-.57,1.28-.79,2-1.1a.71.71,0,0,1,.65.17.69.69,0,0,1,0,.64,17.88,17.88,0,0,1-1.41,1.92c-1.69,1.89-3.41,3.76-5.12,5.63-.28.31-.72.55-.85.9-.5,1.41-2,2-2.65,3.16a15,15,0,0,1-2.7,3.12c-.57.54-1.55.82-1.83,1.45-.4.91-1.25,1.11-1.83,1.69a23.37,23.37,0,0,1-2.18,1.88,36,36,0,0,0-4.63,4.53,1.44,1.44,0,0,0,0,1.31c.43.76,1.48.73,2.57.64a2.55,2.55,0,0,0,2.22-1.57A11.65,11.65,0,0,1,98.33,162c2.62-2.9,5.15-5.89,7.81-8.75,4.25-4.57,8.78-8.89,13.22-13.28a12.55,12.55,0,0,1,2.28-1.75,1.18,1.18,0,0,1,1.11.13,1.22,1.22,0,0,1,0,1.12,4.77,4.77,0,0,1-1,1.08c-2.94,2.95-5.9,5.88-8.82,8.85-.55.56-1.35,1.26-1.35,1.9,0,1.29-1,1.44-1.65,2-.38.37-1,.53-1.36.91-3,3.06-6.27,5.87-8.83,9.34a3.11,3.11,0,0,0-.86,2.39c.16,1,1.14,1.58,1.93,1,1.22-.94,2.67-1.79,3.45-3a77.82,77.82,0,0,1,4.88-6.2c1.71-2.19,3.73-4.14,5.62-6.19.17-.18.47-.33.51-.53.2-1.08,1.2-1.51,1.79-2.26a20.83,20.83,0,0,1,1.78-2.26c3.08-3,6.21-5.91,9.33-8.84a2.09,2.09,0,0,1,.8-.47c.22-.07.61-.07.69,0a1.56,1.56,0,0,1,.21.9,1.14,1.14,0,0,1-.32.61c-1.58,1.77-3.12,3.57-4.77,5.27a112.88,112.88,0,0,0-8.81,9.36c-1.79,2.3-3.65,4.54-5.62,6.69-.86.94-1.65,2-2.52,2.93-.2.22-.26.57-.45.81-1,1.26-.28,2.71-.45,4a1.16,1.16,0,0,0,.76.23,4.26,4.26,0,0,0,2.17-2.29,70.38,70.38,0,0,1,10.36-13.2c2.65-2.82,5.49-5.49,7.89-8.5a92.17,92.17,0,0,1,7.12-8c.41-.41.75-.6,1.22-.1s.67.69.19,1.23-.91,1.3-1.43,1.89a71.61,71.61,0,0,0-5.42,6c-1.76,2.47-4.16,4.31-5.95,6.75a85.14,85.14,0,0,1-5.94,6.56c-.3.34-.42.85-.73,1.18s-1,.54-1.25,1c-1.15,1.85-2.25,3.73-3.28,5.64-.6,1.11-.36,1.43.82,1.48a2.67,2.67,0,0,0,2.64-.92c.34-.47,1-.67,1.47-1.1s.79-1.18,1.28-1.67c.72-.73.84-1.43,0-2.06-.63-.47-.25-.75,0-1.1a7.24,7.24,0,0,1,1.35-1.63,25.23,25.23,0,0,0,4-3.09,16.85,16.85,0,0,1,2.68-2.6,23.18,23.18,0,0,0,3-2.52c1-.85,2-1.62,3-2.48,3-2.67,4.82-6.27,7.59-9.1.14-1.12,1.35-1.43,1.74-2.28a9.76,9.76,0,0,1,2-2.43,4.05,4.05,0,0,1,.9-.86,1.38,1.38,0,0,1,1.13-.09,1.27,1.27,0,0,1,.22,1.11,4.85,4.85,0,0,1-.82,1.4,21.52,21.52,0,0,0-2.08,2.64,31.82,31.82,0,0,1-6.22,7.68c-.47.45-1.15.89-1.29,1.45-.22.87-1.19,1.2-1.15,2.32s-1.54.53-2.1,1.26a3.85,3.85,0,0,1-.35.35q-3.61,3.63-7.25,7.24a4.06,4.06,0,0,0-1.23,2.5c-.13,1.09-.37,2.13-1.72,2.53-.56.17-1,.87-1.42,1.38a2.62,2.62,0,0,0-.31.84c.3.07.64.28.9.2,1.85-.53,3.68-1.16,5.54-1.69a4.72,4.72,0,0,0,3.17-2.6,16.68,16.68,0,0,1,2.8-3.83c2.36-2.48,4.47-5.16,6.72-7.72a85.82,85.82,0,0,0,6.53-8.55c1.34-2,2.79-3.86,4.24-5.74.31-.39.71-1.2,1.33-.74.31.23.34,1.1.2,1.6a5.42,5.42,0,0,1-1,1.57,14,14,0,0,0-.95,1.11,70.45,70.45,0,0,1-9,12.25c-2.92,3.16-5.51,6.57-8.26,9.85a2,2,0,0,0-.17.36c.15.05.33.19.43.14,1.79-.78,3.7-1.25,5.1-2.82,2.4-2.7,5-5.22,7.36-8a21.5,21.5,0,0,0,2.47-3c1.31-2.32,2.91-4.44,4.32-6.69s3.21-4.33,4.7-6.57c.53-.81,1.15-.27,1.69-.47a3.33,3.33,0,0,1,.32,1.05,4.26,4.26,0,0,1-1.06,2.32,60,60,0,0,0-3.89,5.63,43.7,43.7,0,0,1-6.38,8.6c-1.74,1.79-3.54,3.53-5.29,5.31-.12.12-.12.35-.18.52.16,0,.35.12.47.06,1.56-.84,3.09-1.78,4.69-2.55,1.33-.63,2.53-1.46,3.89-2.06,2.34-1,4.63-2.31,6-4.79a35.91,35.91,0,0,1,3.66-4.74c.81-1,1.73-1.93,2.45-3,1.94-2.85,3.74-5.79,5.7-8.63a30.14,30.14,0,0,1,3-3.5c.46-.49,1.14-.3,1.69.26s.16.85-.2,1.22c-1.52,1.55-2.36,3.63-4,5.1-.67.6-.95,1.62-1.55,2.33-1.58,1.89-2.52,4.24-4.32,6-.56.54-1,1.17-1.54,1.76,1.09.38,1.26-.79,1.91-1.15a1.78,1.78,0,0,0,.41-.22l7.51-7.21s0-.15,0-.22c1.88-3.78,4.83-6.74,7.56-9.87a6.63,6.63,0,0,0,.52-.54c.34-.52,1.38.41,1.46-.82s-1.17-.49-1.51-1.06c-.16-.27-.84-.4-.19-.89.4-.29.7-.72,1.08-1a4.18,4.18,0,0,0,1.59-3.84,4,4,0,0,1,0-1.25,3.9,3.9,0,0,0-1-3.95,7.27,7.27,0,0,1-1-1.31C179.13,110.32,177.92,108,178.39,105.6Zm-9.95-43c1,0,2.11.33,2.65-.07a3.35,3.35,0,0,1,3.07-.35c2,.62,3.88.3,5.81.42.33,0,.76-.13,1,0,1.2.83,2.54.32,3.8.47s2.7.33,4,.51c2.47.32,4.85-.52,7.29-.52,7.91,0,15.83,0,23.74,0,.65,0,1.46.14,1.91-.18.81-.57,1.6-.22,2.38-.3s1.42-.61,2.29-.55a23.86,23.86,0,0,0,9.89-1.44,6.3,6.3,0,0,1,3.26-.45,8,8,0,0,0,3.61,0,52.33,52.33,0,0,1,6.28-.57c.17,0,.36.06.5,0,1.62-.71,3.4-.61,5.08-1,.61-.14,1.19-.37,1.8-.49s1.41-.21,2.12-.31c.11,0,.31-.07.33,0s.16.35.1.44c-.23.34-.63.59-.75.95a4.54,4.54,0,0,0-.09,1.34c.39,0,.9.19,1.15,0,1.55-1.12,3.32-2.11,4.47-3.57a29.25,29.25,0,0,0,2.95-3.74,34.71,34.71,0,0,1,3-4c1.11-1.44.82-2.62-.76-3.58-1.88-1.15-4.06-1.46-6-2.33a15.55,15.55,0,0,1-2.18-.75c-.75-.46-1.49-1.17-2.36-.86s-1.4-1-2.1,0c-1.07-.73-2.37-.7-3.56-1.06s-2.49-.81-3.73-1.23c-2.12-.73-4.21-1.53-6.34-2.18-1.06-.32-2.44,0-3.23-.61-1-.77-2.16-.07-3.21-.82-.76-.54-2.21.12-3.22-.6-2.29.22-4.48-.85-6.79-.51-2.71.41-5.35-.5-8-.51-.27,0-.53-.32-.82-.41a14.41,14.41,0,0,0-3.81-1c-2.17,0-4.36-.41-6.56.36-1.11.4-2.47.07-3.72.07s-2.29.76-3.55.52a2,2,0,0,0-2.19.73c-.3.43-.62.16-1,0a7.52,7.52,0,0,0-3.94-.74c-1.43.19-2.86.42-4.29.48a5.55,5.55,0,0,0-4.27,1.8c-.42.48-1,1.11-1.49,1.17-2.37.3-4.63,1.29-7.08,1.07-1.6-.14-3.08.49-4.62.85-1.17.27-2.06,1.08-3.29,1.18-1.05.09-2,.75-3.1.92s-2.37.3-3.54.44a49.6,49.6,0,0,0-8.18,2c-2.15.65-4.2,1.94-6.6,1.58-.89,1.07-2.26.26-3.39.91s-2.64.43-4,.59a3.86,3.86,0,0,0-1,.07c-2.08.87-4.32,1.18-6.46,1.89s-4.32,1.25-6.38,2.09a25.18,25.18,0,0,0-5.06,2.88,10.79,10.79,0,0,1-2.06,1c-.17.08-.44-.1-.67-.15.07-.12.15-.24.21-.36.18-.34.36-.68.53-1,.34-.71.24-1-.44-.92a4.68,4.68,0,0,0-1.38.26,20,20,0,0,1-3.5,1.17A34.56,34.56,0,0,0,108,55.1,24.34,24.34,0,0,0,103.27,57a7,7,0,0,1-3.26,1.1c-2-.11-3.51.95-5,1.81-2.7,1.53-6.86,5.46-8.79,7.68-.43.5-.43.88.08,1.2a4.64,4.64,0,0,0,2.13.91,32.17,32.17,0,0,0,8-.63c2.9-.43,5.67-1.73,8.68-1.9.71-1.12,2-.19,2.94-.78.81-.47,2.08-.15,3.14-.22a45.53,45.53,0,0,0,6.52-.58c1.29-.27,2.69,0,3.77-.51,1.25-.55,2.4-.23,3.58-.4a28.88,28.88,0,0,1,3.79-.48,26,26,0,0,1,7.3.45c1.7.45,3.33-.5,5-.48s3.67,0,5.5,0c.08,0,.19,0,.24,0,1.16-.9,2.63-.08,3.75-.62,1.3-.62,2.57-.22,3.84-.37,1.1-.13,2.22.17,3.32-.45a2.52,2.52,0,0,1,2.18,0c.95.63,1.9.28,2.83.45C164.83,63.51,166.66,62.27,168.44,62.63ZM208.39,285v-4.5c0-1.34,0-2.67,0-4a1.25,1.25,0,0,0-.89-1.3,1.21,1.21,0,0,0-1.48.59,9,9,0,0,0-.65,1.23c-.67,1.55-1.32,3.12-2,4.66-.09.21-.42.33-.64.49-.11-.18-.3-.36-.33-.55a4.49,4.49,0,0,1,.56-2.76c1-2.07,2.13-4.12,3.16-6.19.08-.17-.07-.5-.2-.69a.56.56,0,0,0-.51-.06,9.24,9.24,0,0,0-1.73,1.24c-1.63,1.71-3.57,3.15-4.81,5.24-.09.17-.54.12-.82.18.07-.18.15-.35.21-.53a17.75,17.75,0,0,1,3.36-4.86c1.11-1.37,2.19-2.75,3.26-4.15.24-.31.8-.87,0-1-.57-.12-.91-1.23-1.74-.39-3.24,3.31-6.7,6.42-9,10.51-.1.19-.45.25-.69.37-.1-.29-.7-.28-.29-.91a17.36,17.36,0,0,1,2.5-3.45,51.68,51.68,0,0,0,4.8-5.75c.62-.78.36-1.56.37-2.34,0-.18-.57-.39-.89-.56-.65-.36-1.16.12-1.54.46-1.17,1-2.25,2.22-3.38,3.33a16.81,16.81,0,0,0-2.2,2.82,25.86,25.86,0,0,1-3.32,3.56c-.06.06-.31,0-.44-.08s0-.27,0-.34c1.35-1.59,2.26-3.5,3.86-4.92a22.54,22.54,0,0,0,2.84-3.31c.5-.67.78-1.52,1.27-2.21s-.31-1-.36-1.58c-.34.15-.78.2-1,.45a44.84,44.84,0,0,0-3.53,4c-1.71,2.38-3.83,4.39-5.7,6.62-.23.28-.42,1-1,.58-.1-.08.23-.84.45-1.23a13.35,13.35,0,0,1,.88-1.14c.42-.57.78-1.19,1.24-1.73,1.77-2.06,2.84-4.64,4.91-6.49a7.12,7.12,0,0,0,1.42-2.39c.09-.19-.16-.57-.31-.83-.31-.55-.58,0-.88,0-.79.08-1.12.67-1.54,1.12-2,2.08-4,4.17-5.82,6.34a12.46,12.46,0,0,0-1.4,2.66c-.21.41-.34.86-.51,1.29-1,2.65-2.14,5.27-3.37,7.85a10.24,10.24,0,0,0-1.14,6c.07.4,0,.84,0,1.24.12.82-.32,1.72.32,2.47a11.05,11.05,0,0,0,.13-2.42,2.41,2.41,0,0,1,1.1-2.32c.43-.38.68-.17,1,.43.4.82.07,1.56,0,2.35-.19,2.09.39,4.24-.49,6.29-.12.28-.16.83,0,1,.82.67.39,1.54.46,2.32a38.77,38.77,0,0,1-.42,5.29,32.07,32.07,0,0,0,.33,7.56,29.62,29.62,0,0,1,.06,7.47c-.17,2.48.55,4.85.54,7.29,0,3.75-.08,7.5,0,11.25s-.37,7.54.42,11.3a16.62,16.62,0,0,1,0,5c-.17,1.67.61,3.16.55,4.8-.08,2.24-.08,4.5,0,6.74s.31,4.53.48,6.79c0,.17-.06.37,0,.5a6.5,6.5,0,0,1,0,5.1c-.17.55.17,1.25.2,1.88a33.05,33.05,0,0,1,.1,5.35c-.19,1.54-.9,3-.82,4.63s-1,2.8-1.11,4.31c0,.32-.53.73-1.16.75a3.66,3.66,0,0,0-2.42,1.37c-1.58,1.6-3.09,3.28-4.79,4.74a7.77,7.77,0,0,0-2,3.71,3.38,3.38,0,0,0,.76,2.58c.22.31,1.38.24,2-.42.19-.22.61-.21.81-.42,2.11-2.14,4.34-4.15,5.9-6.79,1.43-2.41,3.63-4.22,5.63-6.16.13-.12.68.12,1,.27s.13.4,0,.71c-.73,2-2,3.79-1.7,6.06a2.93,2.93,0,0,1-1.16,2.26q-3.1,3.32-6.18,6.68a11.09,11.09,0,0,0-.63,1,2.49,2.49,0,0,0,0,2.86c.4.86.9.51,1.36.42.27,0,.51-.41.68-.69q2.75-4.45,5.16-9.11c.89-1.71,1.73-3.44,2.66-5.14s1.34-3.65,2.64-5.15c.08-2,1.59-3.49,2.14-5.37a49.71,49.71,0,0,1,2.12-5.36c1.43-3.42,2.7-6.89,3.78-10.43.71-2.3,1.27-4.64,2-6.91.57-1.69.63-3.52,1.47-5.13,0-3.12,1.67-6,1.5-9.13.9-1.43,0-3.15.58-4.51.63-1.56.27-3.05.41-4.57.17-1.93.81-3.82.51-5.79a.53.53,0,0,1,0-.25c.72-1.44.68-3.06,1.05-4.57.25-1,.31-2.05.55-3a4.83,4.83,0,0,0,.39-1.57,3.3,3.3,0,0,1,.47-1.56c.21-.58-.17-1.51.16-1.91,1-1.2-.71-.45-.57-.92a6.22,6.22,0,0,0,.43-1.28c.2-2.67.35-5.35.52-8,0-.25-.08-.54,0-.74,1-2,.21-4.21.47-6.3-.91-1.26-.36-2.7-.5-4.05s-.7-2.8-.51-4.29c.22-1.75.42-3.52.49-5.29C208.45,289.29,208.39,287.12,208.39,285Zm72-206.33c0-1.53.3-3-.1-4.16a14.27,14.27,0,0,1-.41-2.33,10.54,10.54,0,0,1-.45-2.29,11.64,11.64,0,0,0-.56-3.29.62.62,0,0,0-.46-.4.68.68,0,0,0-.5.35,15.54,15.54,0,0,0-.9,4.84c-.1,2.28-.59,4.51-.64,6.78,0,1.52.24,3-.41,4.58a3.61,3.61,0,0,0,.21,2.84,6.78,6.78,0,0,1,.72,3.71c0,1.84,0,3.67,0,5.5,0,3.09-.06,6.17,0,9.25s.31,6,.48,9c0,.25-.11.6,0,.74.9,1,.28,2.21.49,3.3a12.23,12.23,0,0,1,.52,3.3,5.68,5.68,0,0,0,.43,3.31c.26.49.14,1.17.4,1.78.17.39-.45,1.09-.62,1.68a5.16,5.16,0,0,0,.05,3.53,20.89,20.89,0,0,1,.71,2.2c.6,2.26,1.18,4.51,1.78,6.77.45,1.73,1,3.44,1.31,5.22.23,1.28,0,2.71.5,3.77.66,1.35.21,2.68.59,4a18.66,18.66,0,0,1,.31,4.38c0,1.08,0,2.16,0,3.25a10.79,10.79,0,0,0,.46,4.05,11.47,11.47,0,0,1,.56,4.53c-.07,2.33,0,4.67,0,7,0,1.33.09,2.67,0,4s-.69,2.65-.48,4a1,1,0,0,1,0,.49,13,13,0,0,0-1,6.1,8.38,8.38,0,0,1-1.48,5.64,12.77,12.77,0,0,0-1.9,5.2c-.46,2.32-1.31,4.6-1.14,7a3.09,3.09,0,0,1-.8,2.44,5,5,0,0,0-1.2,4c.07.49.21,1.16,0,1.47-.7.9-.43,1.88-.44,2.82s-.7,1.93-.56,3a28.57,28.57,0,0,1,0,4.24c0,1.11,0,2,1.37,2.44.82.27.82.88.38,1.83-.17.35-.27.82-.55,1-.85.59-.69,1.42-.69,2.23,0,1.57.44,1.86,2.27,1.78.34,0,.71.31,1,.55.06,0-.25.44-.26.68,0,1.08-1.1,1.37-1.61,2.08a1.87,1.87,0,0,0-.1,2.21,1.16,1.16,0,0,0,1.72.22,1,1,0,0,1,1.46.58,4.71,4.71,0,0,1-.11,2c-.09.25-.84.24-1.29.38a1.35,1.35,0,0,0-.6.33,4.4,4.4,0,0,0-.91,1.25c0,.11.52.52.85.74,1.4.9,1.38,1,.49,2.36-.66,1-1.17,2.18-1.79,3.26-.28.48,0,.71.27,1,.49.65.61,0,.9-.19a3.67,3.67,0,0,1,1.05-.44,3.88,3.88,0,0,1,1.15.21c-.11.45-.09,1-.36,1.34-.81.94-1.74,1.78-2.63,2.67a24.83,24.83,0,0,1-3.75,3.65,32.89,32.89,0,0,0-4.49,4.16c-.52.5-1.12,1.44-.7,2.12a6,6,0,0,1,.47,1.83,3.73,3.73,0,0,0,1.09,1.75c.21.16,1-.43,1.51-.63a4.72,4.72,0,0,0,2.4-2.22,8.69,8.69,0,0,1,2.22-2.78,15.86,15.86,0,0,0,1.85-1.49,34.51,34.51,0,0,0,4.83-6.52,4.94,4.94,0,0,1,2.69-2.08c.47-.17,1,0,.88-.79,1.37-1.28,1.61-3.24,2.71-4.61,1.24-1.57,1.78-3.46,2.89-5.09a25.18,25.18,0,0,0,2.76-5.09c1.08-2.8,2.29-5.54,3.33-8.37a23.36,23.36,0,0,0,1.81-9c0-.42-.17-1,0-1.23.74-.88.17-2,.52-2.79a7.6,7.6,0,0,0,.45-3.07c0-.25-.11-.62,0-.73.93-.82.09-2,.53-2.79a6,6,0,0,0,.44-3.06c0-1.34-.32-2.79.1-4s.1-2.45.46-3.56a11.5,11.5,0,0,0,.44-3.81,19.19,19.19,0,0,0-.41-4.31c-.39-1.69-.09-3.51-.51-5.29-.37-1.53,0-3.18-.5-4.8-.36-1.22,0-2.65-.09-4a39.26,39.26,0,0,0-.49-4c-.31-1.82.61-3.49.52-5.29a20.12,20.12,0,0,0-.46-4.81c-.41-1.44-.1-3.12-.64-4.49-.41-1-.25-2-.56-3-.53-1.62-.91-3.29-1.35-4.94-.35-1.31-.43-2.67-.66-4a24.29,24.29,0,0,1-.84-4.64c0-1.08-.08-2.18,0-3.25a3.05,3.05,0,0,0-.54-1.79.85.85,0,0,0-1.48-.11,2.25,2.25,0,0,0-.25.64c-.24-.23-.6-.42-.68-.69a7.18,7.18,0,0,1-.08-1.47,10,10,0,0,0-1.2-4.25c-.73-1.37-1.66-2.64-2.45-4a8.07,8.07,0,0,1-1.29-2.7,32.22,32.22,0,0,0-1.88-6,44.49,44.49,0,0,1-2.68-11.89,3.64,3.64,0,0,0-.17-.93,14.13,14.13,0,0,1-.8-2.16,20.79,20.79,0,0,1,0-2.5,4.26,4.26,0,0,0-.25-1.88c-1.31-2.19-1.14-4.71-1.69-7.05s-.53-5-1.52-7.38a3.82,3.82,0,0,1-.46-2.5C280.66,81.64,280.22,80,280.39,78.63ZM80.85,198.77l.08.36c.72,0,1.77-.3,2.11.06,1,1.11,1.67-.05,2.28-.33A14,14,0,0,0,87.8,197a1.52,1.52,0,0,1,.52-.17c0,.22.06.5,0,.66a14.27,14.27,0,0,1-1.6,2.09c-.94.92-2.47,1.25-2.79,2.81a.51.51,0,0,1-.38.24c-1.18-.32-2.17.45-3.29.53-1.35.09-2.89,0-4,.59-.88.49-1.89,0-2.69.84-.59.62-1.81.61-2.45,1.2a17.46,17.46,0,0,1-2.82,1.7c-.7.43-1.06.14-1.39-.8a1.19,1.19,0,0,0-.57-.52c-1.3,1-3.07,1-4.4,2.12-.92.74-2.12,1.7-3.39,1.28a3.15,3.15,0,0,0-2.33.14c-3.7,1.92-7.7,3.17-11.29,5.37-2.78,1.7-5.65,3.26-8.41,5a97.57,97.57,0,0,0-14.91,11.63c-2.41,2.3-4.73,4.7-7.08,7.06a11,11,0,0,0-1.4,1.42c-1.61,2.29-3.52,4.34-5.14,6.61A54.42,54.42,0,0,0,3.9,252.9a4.85,4.85,0,0,0-.48,1.54c0,.21.28.67.42.66,1.9-.13,3.76.24,5.69-.72a23.43,23.43,0,0,1,6.53-1.69,7.93,7.93,0,0,0,2.4-.89c.69-.35,1.35-.76,2-1.17,4.42-2.75,9.42-4.21,14.12-6.34,3-1.37,6-2.91,9-4.1,1.28-.49,2.19-1.52,3.43-2,2.55-.91,4.44-2.73,6.41-4.45,1.78-1.56,3.49-3.21,5.29-4.75,1.2-1,2.59-1.86,3.77-2.92a26,26,0,0,1,4.89-3.29c1.75-.95,3-2.52,4.41-3.87a2.9,2.9,0,0,1,1.16-.79c1-.25,2-.36,3-.53.46-.07,4.67-1.69,5-1.86,2.92-1.6,5.86-3.16,8.76-4.79,1-.58,1.89-.58,2.55.37.54.78,1.09.55,1.73.29s1.19-.37,1.73-.66c2-1.09,4.06-2.26,6.12-3.34,4.17-2.19,8.41-4.25,12.53-6.54,2.07-1.16,4.49-2,5.66-4.38a5.93,5.93,0,0,1,1.41-1.91,35.7,35.7,0,0,0,6-7.53c.6-.91,1.2-1.83,1.75-2.78a1.45,1.45,0,0,0-.07-.8c-1.18,0-2.53-.52-3.38.79a29.42,29.42,0,0,1-4.07,4.56,2.3,2.3,0,0,0-.33.37c-1.23,2.27-3.18,4.08-4.11,6.54-.13.36-.59.58-.86.9s-.53,0-.7-.16a1.61,1.61,0,0,1-.1-2,22.61,22.61,0,0,1,1.57-2.11c.53-.69,1.33-1.32,1.53-2.1a25.91,25.91,0,0,1,1.46-3.41,1.25,1.25,0,0,0,0-.83c0-.11-.49-.18-.67-.09a16.7,16.7,0,0,0-3.88,2.06,32.47,32.47,0,0,0-6.42,7.3,21,21,0,0,1-2.11,2.63c-.31.37-.63.76-1.21.29s-.46-.64,0-1.11c.28-.32.18-.95.43-1.3.71-1,1.6-1.83,2.26-2.83a20.41,20.41,0,0,1,2.82-3.84,1,1,0,0,0,0-.95.91.91,0,0,0-.85-.24,7.54,7.54,0,0,0-2,1.16c-1.24,1.12-2.41,2.31-3.55,3.53a38.94,38.94,0,0,0-3.43,3.8,21.75,21.75,0,0,1-3.8,3.39c-.13.11-.44,0-.67,0,0-.29-.08-.66.07-.84,1.86-2.41,3.76-4.78,5.63-7.18a9.48,9.48,0,0,0,.88-1.38c.44-.82.33-1-.51-1a3.63,3.63,0,0,0-2.72,1.26A36.66,36.66,0,0,1,97.18,194,54.55,54.55,0,0,0,89.26,202a26.9,26.9,0,0,1-2.82,2.83,2,2,0,0,1-.86.31,1.31,1.31,0,0,1-.48,0,3.13,3.13,0,0,1,.12-.53c.16-.35.33-.69.52-1a25.62,25.62,0,0,1,3.7-4.22A40.81,40.81,0,0,0,92.26,196a1.16,1.16,0,0,0-.27-1.53c-.53-.57-.62.15-.93.19a36,36,0,0,0-7.2,2.52A28.21,28.21,0,0,0,80.85,198.77ZM261.39,77.94a6.62,6.62,0,0,0,0-.92c-.06-.46-.16-.92-.24-1.38a8.47,8.47,0,0,0-1.2.72c-.39.3-.94.66-1,1.06-.14.87-.82,1.23-1.33,1.7a6.55,6.55,0,0,0-1.89,3c-.53,1.83-1.87,2.94-3.26,4-.17.13-.44.17-.56.33-2.1,2.86-4.66,5.34-6.8,8.17-1.7,2.25-3.77,4.23-5.39,6.53-.85,1.21-2,2.1-2.81,3.32-1.43,2.21-2.54,4.62-3.91,6.88-1.55,2.56-2.76,5.34-4.09,8a3.12,3.12,0,0,0-.48,1.54,7.27,7.27,0,0,1-1,3.84c-.22.48-.32,1-.51,1.53a44.55,44.55,0,0,0-1.27,5.46c-.64,2.49-1.36,5-1.8,7.52-.27,1.65-.32,3.47-1.44,4.88-.63.79-.44,1.68-.49,2.55a1.35,1.35,0,0,0,1,1.44,16.78,16.78,0,0,0,4.34.95c2,.31,4,.36,6,.54a3.44,3.44,0,0,1,.64.26,52.08,52.08,0,0,1,7.52,3.54c1.83.91,3.84.82,5.76,1.18a1,1,0,0,0,1.16-1c-.26-2.55.61-5,.58-7.54,0-.81-.75-1.1-.87-1.64s.65-1.1.08-1.88c-1.27-1.72-.59-3.77-.75-5.68,1-1.06,0-2.5.57-3.5a6,6,0,0,0,.38-3.57,26.55,26.55,0,0,1,.72-6c.28-1.8.77-3.64,1.23-5.44a20.18,20.18,0,0,0,.64-2.76,15.25,15.25,0,0,1,.84-2.64,26,26,0,0,0,1.54-5.33c.15-1.93.92-3.81.58-5.78,0-.16,0-.33,0-.5a1.05,1.05,0,0,1,.93-1.22c1.68,0,1.94-1.32,2-2.45a16.76,16.76,0,0,1,.83-3.66,4.71,4.71,0,0,0,0-2.33c-.15-.61-.88-.53-1.46-.63-.74-.14-.8-.74-.22-1.33,1.52-1.53,3.27-2.89,3.72-5.2a7.67,7.67,0,0,1,.52-1.53A11.37,11.37,0,0,0,261.39,77.94ZM181,335.91h-.11c0-1,0-2,0-3a1.24,1.24,0,0,0-1.86-1.14,5,5,0,0,0-1.2.71c-2.47,2.11-4.91,4.24-7.38,6.35-.12.09-.34.06-.52.09,0-.22,0-.52.13-.67,1.4-1.59,2.78-3.2,4.24-4.74s3.13-3.23,4.77-4.77a4,4,0,0,0,1.17-4.39,13.6,13.6,0,0,1-.34-2.11c-.17-1.09-.29-2.2-.52-3.28a1,1,0,0,0-1.49-.54c-2.28,1.75-4.58,3.48-6.8,5.31-1.76,1.45-3.39,3.07-5.11,4.57a10.61,10.61,0,0,1-2.5,1.81,18.62,18.62,0,0,0-5.85,4.56,6.26,6.26,0,0,0-1.7,3.29c-.39,2.19.21,4.36.63,6.49.15.78.27,1.95,1.32,2.44.52.24.36.87.56,1.25.66,1.23.42,2.62.91,3.88.29.72-.18,1.8.19,2.41.51.82.21,1.59.36,2.36s.4,1.52.48,2.3a1.51,1.51,0,0,0,.76,1.2c.76.6,1-.23,1.44-.21s1.1-1.34,1.49-.86c.52.63-.58,1.12-1,1.48a4.12,4.12,0,0,0-1.65,4.1c.24,1.81.83,2.18,2.41,1.34a4.33,4.33,0,0,0,.81-.46c1.93-1.58,3.9-3.12,5.76-4.78,1.49-1.33,2.67-3.07,4.3-4.16a36.09,36.09,0,0,0,5-4.7,5.41,5.41,0,0,0,1.17-2.73c.1-.49-.4-1.13-.71-1.66-.18-.33-.36-.49-.89-.16A66.44,66.44,0,0,0,173,352.3c-1.26,1-2.45,2.13-3.7,3.16a5.31,5.31,0,0,1-1.22.66c-.13.06-.32,0-.48,0a2.93,2.93,0,0,1,.13-.53,7.7,7.7,0,0,1,.53-1,7.57,7.57,0,0,1,2.77-2.85c1.2-.62,1.95-1.87,3.13-2.68a40.68,40.68,0,0,0,5.29-4.72,3.4,3.4,0,0,0,.92-1.85C180.65,340.27,180.8,338.09,181,335.91Zm72.48-189.46a14.16,14.16,0,0,0-1.78,1.67c-.47.6-.68,1.39-1.1,2-.29.44-.29.76.1,1s.67,1.33,1.55.82c.35-.21.62-.6,1-.19a3.59,3.59,0,0,1-.64.85,10.26,10.26,0,0,0-1.22,1.25,6.35,6.35,0,0,0-.95,2.09c-.08.45.3,1,.57,1.48s.63.53,1.26.11a27.73,27.73,0,0,0,3.65-2.67c1-1,2.41-1.55,3.4-2.54s2.19-1.31,3.14-2.11c3.17-2.66,6.53-5.13,9.3-8.25a3.49,3.49,0,0,1,.89-.87c2.06-1,3.24-3,4.89-4.45a1.7,1.7,0,0,0,0-2.19c-.53-.55-.93-.46-1.9.12a20,20,0,0,0-3.33,2.83,19.16,19.16,0,0,1-1.9,1.42c-.51.37-1.06.68-1.56,1.07-1.69,1.34-3.37,2.71-5.07,4.05-.16.11-.45.06-.67.08,0-.18,0-.41.14-.52q1.49-1.53,3-3c1-1,1.88-2.24,3.08-2.84,1.39-.69,1.55-2.25,2.72-3a9.06,9.06,0,0,0,1-.61c1.13-.9,2.29-1.79,3.35-2.76a1.7,1.7,0,0,0,0-2.54c-.73-.89-1,.75-1.71.34,0,0-.23.21-.35.33a108.21,108.21,0,0,1-9.09,7.6c-2.06,1.69-4.07,3.44-6.14,5.12-1.23,1-2.54,1.9-3.83,2.82-.15.1-.44,0-.67,0a2,2,0,0,1,.23-.53,12.25,12.25,0,0,1,1.78-1.75,49.84,49.84,0,0,0,5.23-4.26c1.38-1.26,2.65-2.62,4.16-3.77,2.34-1.79,4.38-4,6.56-5.95a13,13,0,0,1,2.23-1.83,3.58,3.58,0,0,0,1.65-3.76,1.21,1.21,0,0,0-2-.77,7.78,7.78,0,0,0-1.4,1.41c-1.68,2.29-4.5,3.18-6.33,5.28-.18.21-.55.26-.84.36-.11,0-.31,0-.34,0s-.13-.37-.06-.46a6.48,6.48,0,0,1,.82-.91c3-2.73,5.41-6.17,9.12-8.16.73-.39.78-2.22.21-2.86s-1.09-.54-1.67.15a14.09,14.09,0,0,1-2.54,2.68c-2.87,2-5.29,4.44-8,6.62a33.11,33.11,0,0,1-6.1,4,2.09,2.09,0,0,1-.67.08c0-.18,0-.42.14-.52A35.65,35.65,0,0,1,261,126.4c1.13-.74,1.91-1.77,2.95-2.52a47.05,47.05,0,0,0,6.12-5.14c1.39-1.41,2.32-3.25,4.18-4.25.84-.45,1-2.5.42-3.34-.26-.38-.61-.81-1.2-.33-.42.34-1,.54-1.37.9-2.48,2.28-4.94,4.59-7.4,6.89a7.3,7.3,0,0,1-.89.87,33.87,33.87,0,0,0-5.42,4.42,12.61,12.61,0,0,1-3,2.52,4.68,4.68,0,0,0-2,2.91c-.29.92,0,1.46,1.05,1.79a5.15,5.15,0,0,0,.95.14c-1,1.31-2.39,2.05-2.8,3.75a18.16,18.16,0,0,0-.25,2.38,19.49,19.49,0,0,1-.22,2.67,13,13,0,0,0-.83,3.42c0,.75-.84,1.51-.42,2.27C251.44,146.69,252.62,145.72,253.48,146.45Zm-70.59,24.39c0,1.6,0,2.76,0,3.93,0,.29.14.8.28.82a2,2,0,0,0,1.15-.18c.25-.13.37-.49.56-.75a79.14,79.14,0,0,0,4-6.82,10.25,10.25,0,0,1,3.3-3.9c1.6-1,3.4-1.86,4.57-3.46a20.53,20.53,0,0,1,1.63-2.55,13.81,13.81,0,0,1,2.55-1.62c.07-.05.12-.13.18-.18a13.32,13.32,0,0,1,2.69-1.95,5.16,5.16,0,0,0,3.07-3,2.22,2.22,0,0,1,1.7-1.53,2.31,2.31,0,0,0,2.29-2.18c.47-2.13,1-4.26,1.44-6.39a127.47,127.47,0,0,1,3.79-13.43,3.9,3.9,0,0,0,.12-1.83c0-.24-.41-.94-1-.26a18.25,18.25,0,0,1-1.7,1.26c-1.79,1.56-3.23,3.46-5.25,4.81a13.55,13.55,0,0,0-3.32,3.35,52.93,52.93,0,0,1-5.54,6.93,11.7,11.7,0,0,0-2.24,2.33c-.73,1.35-1.94,2.19-2.88,3.29s-1.93,2.41-3,3.49a27.17,27.17,0,0,0-5.1,7.64c-.7,1.46-1.3,3-2,4.44-.12.28-.2.58-.31.87A15.64,15.64,0,0,0,182.89,170.84ZM91.78,216.13a3.64,3.64,0,0,0-.74,0c-2,.44-3.93.7-4.71,3.15a21,21,0,0,1-2.57,5.17c-2.49,3.77-4.54,7.79-6.82,11.68-1.72,3-3.88,5.64-5.17,8.84a7,7,0,0,1-1,1.57c-3,3.83-5.85,7.73-7.44,12.41-.35,1-1,2-.85,3.13,0,.34.64,1,.8.89a13.92,13.92,0,0,0,6-3.5,30.52,30.52,0,0,0,2.15-3.1c1.49-2.14,3-4.26,4.49-6.39,2.39-3.39,4.62-6.9,6.87-10.39,1.86-2.88,3.63-5.81,5.22-8.84,1.69-3.21,3.23-6.49,4.78-9.77a24.42,24.42,0,0,0,1.06-3.05,1.29,1.29,0,0,0,0-.67C93.46,216.28,93.2,216.14,91.78,216.13Zm-1.5,34a4.09,4.09,0,0,0,1,0c1.51-.36,3-.7,4.52-1.15,3-.93,4.39-2,5.08-4.2s1.78-4.42,2.55-6.68a19.17,19.17,0,0,0,1-3.59,5.39,5.39,0,0,1,1.23-3,17.1,17.1,0,0,0,3-4.46,1.35,1.35,0,0,0-.54-1.88,1.55,1.55,0,0,0-1.7.63c-1.38,2.43-2.77,4.84-4.07,7.31-.76,1.42-1.34,2.93-2,4.4-.56,1.19-1.61,2.12-1.69,3.55a9,9,0,0,1-.31,1.61,1.36,1.36,0,0,1-1.48,1c-.84-.12-.87-1.11-.83-1.36a9.75,9.75,0,0,1,1-3.06q3.28-6,6.73-11.95c2.06-3.56,4.21-7.08,6.38-10.56S114,209.6,115.74,206a2.71,2.71,0,0,0,.12-1.42c0-.18-.44-.41-.68-.42a1.78,1.78,0,0,0-.86.3c-1.67,1-3.29,2.09-5,3a6,6,0,0,0-2.81,2.57c-.38.79-.64,1.73-1.11,2.53a26.79,26.79,0,0,0-1.46,2.39,12.11,12.11,0,0,0-.9,2.87c-.33,2-1.53,3.53-2.34,5.27-1.8,3.92-3.84,7.73-5.57,11.68a34.67,34.67,0,0,1-3.17,6.18,21.05,21.05,0,0,0-2.46,5,6.92,6.92,0,0,0-.61,3.51c.08.46.07.81.66.76C89.78,250.12,90,250.13,90.28,250.13Zm110.41-185c-1.75,0-3.5,0-5.25,0a2.44,2.44,0,0,0-2.18,1.33c-.75,1.13-1.76,2.1-2.61,3.18s-1.51,2-2.26,3.06c-2.62,3.59-4.9,7.43-8,10.7A32.31,32.31,0,0,0,177.75,87a1.41,1.41,0,0,0,.67,2.37c.43.17.91.22,1.35.37,2.23.76,3.12.41,4.13-1.59A25.7,25.7,0,0,1,186,84.32c1.48-2,3.29-3.77,4.7-5.82,2.1-3,4.49-5.87,6.25-9.14a6.73,6.73,0,0,1,1.94-1.93c.31-.24.87-.15,1.33-.21a5.4,5.4,0,0,1,0,1.34,3.65,3.65,0,0,1-.69,1.21c-2,2.51-3.88,5.12-6,7.48A74.93,74.93,0,0,0,187,85.82a5.49,5.49,0,0,0-1,3.56,1.07,1.07,0,0,0,.38.74,4.92,4.92,0,0,0,3.76.42c.55-.1,1.16-1.13,1.29-1.83.46-2.43,2-4.32,3.42-6.06,2.44-2.93,5.08-5.71,7.53-8.65,1.09-1.31,2.27-2.54,3.33-3.88a13.17,13.17,0,0,0,1.59-2.58c.66-1.47.06-2.38-1.53-2.4S202.35,65.13,200.69,65.13Zm-13.3,131.66c2.68-2.33,4.85-4.78,7.36-6.9a45.85,45.85,0,0,0,6.89-7.37,37.52,37.52,0,0,1,5.78-6c1.71-1.43,3.23-3,4.84-4.52.63-.59.93-1.63,1.63-2,2.47-1.4,3.78-4.25,6.6-5.17,3.11-2.94,6.23-5.88,9.32-8.84a3.16,3.16,0,0,0,.86-1.39,1.71,1.71,0,0,0-.34-1.17c-.09-.15-.54-.15-.82-.11a13.22,13.22,0,0,1-1.34.35c-1,0-2,0-3,0a3,3,0,0,0-2.85,1.66,14.45,14.45,0,0,1-3.3,3.85,7.12,7.12,0,0,0-1.82,2c-1,1.89-3,2.93-4,4.84a2.89,2.89,0,0,1-1.54,1c-.64.23-1.14.41-1.34,1.18-.11.42-.64.72-.9,1.12-1.22,1.82-3.26,2.61-4.94,3.83-2.14,1.57-4.07,3.49-6.62,4.48a1.75,1.75,0,0,0-.94.71,10.28,10.28,0,0,1-3.49,3.54,38.81,38.81,0,0,1-4.1,2.22c-.51.3-1.07.53-1,1.22.35,2.15-.59,4.17-.53,6.29,0,1.19.25,2.42-.45,3.56C187.21,195.54,187.39,196.12,187.39,196.79Zm18-100.16h0c1.08,0,2.4.39,3.19-.09,1.52-.94,3.27-.94,4.82-1.65a6.18,6.18,0,0,1,3.68-.74c1.18.22,2.17-.4,3.21-.71,1.87-.56,3.63-1.39,5.7-1.37a6.16,6.16,0,0,0,3.44-1.26,54.26,54.26,0,0,0,6.51-6c.39-.38.66-.72.14-1.21-.36-.34-.63-.69-1.22-.25-.87.65-1.9,1-2.78,1.74-1.9,1.58-4,2.77-6.67,2.55a9.22,9.22,0,0,0-2.05.43c-3,.43-5.85,1.62-8.84,2.24-2.63.54-5.16,1.52-7.92,1.33a22.77,22.77,0,0,0-2.74,0c-1.36.09-2.69-.14-4.07.42a11.35,11.35,0,0,1-4,.54,5.18,5.18,0,0,0-2.92.79,2,2,0,0,1-2.79-.25,4.25,4.25,0,0,0-2.08-1c-2.08-.27-4.18-.37-6.27-.54-.24,0-.57,0-.69-.11-.7-.75-1,.36-1.58.27.12.34.21.7.35,1a2.93,2.93,0,0,0,.54,1,29.06,29.06,0,0,1,4.41,5.41,2.06,2.06,0,0,0,1.87.92,17.66,17.66,0,0,0,4.89-.89c2-.56,4.14-.85,6.22-1.26.57-.89,1.67,0,2.44-.82.5-.49,1.62.08,2.52-.49C203.38,96.3,204.5,96.63,205.42,96.63Zm-133,46.84a5.57,5.57,0,0,0,0,1.09,14.47,14.47,0,0,0,.49,1.54c.41,1.16,1.27,1.36,2.22.57a21.34,21.34,0,0,0,4.25-5.49,55.66,55.66,0,0,1,3.91-5.11,29.3,29.3,0,0,1,2.39-2c2.18-2.24,3.81-4.92,5.72-7.37.58-.74,1-1.64,1.56-2.35,1.42-1.68,2.94-3.28,4.39-4.93.69-.78,1.31-1.62,2-2.45.08-.11,0-.31.11-.44,1.39-3,3.74-5.13,6.13-7.18a24.41,24.41,0,0,0,3.36-3.85c2.19-2.83,3.89-6,6.42-8.61a17.89,17.89,0,0,0,2.47-4c.12-.21-.13-.72-.34-1-.47-.63-.67.08-.86.28-1,1.14-2,2.34-3,3.48-1.5,1.67-3.39,2.94-4.73,4.75-.48.64-1,1.19-1.5,1.86-1.65,2.39-3.23,4.93-5.6,6.67a67.54,67.54,0,0,0-6.12,5.7A14.07,14.07,0,0,0,93,117.36c-2.47,4-5.94,7.19-8.9,10.79-1.65,2-3.53,3.87-5.27,5.83a14.68,14.68,0,0,0-2.37,3,19.07,19.07,0,0,1-3.32,4.61A2.2,2.2,0,0,0,72.39,143.47ZM48,266.63c1.21-.17,2.4-.3,3.57-.52a1.31,1.31,0,0,0,.71-.65c.73-1.27,1.42-2.57,2.1-3.87a20.33,20.33,0,0,1,1.65-3.3,30.92,30.92,0,0,0,3.5-6.05,64.76,64.76,0,0,1,3.52-6c1.8-3,3.65-6,5.46-9,1.25-2.06,2.63-4.06,3.66-6.22s1.88-4.39,3-6.49a2.67,2.67,0,0,0,.16-1.41c0-.19-.52-.52-.61-.47-1.47.87-3.25,1-4.69,2s-3.15,1.61-2.68,3.86a1.64,1.64,0,0,1-.06,1c-.73,1.45-1.45,2.91-2.29,4.29-1.66,2.74-3.4,5.42-5.1,8.12-1,1.58-1.77,3.27-2.79,4.85-2,3.13-3.81,6.4-5.76,9.58s-2.73,6.54-4.46,9.64c-.08.13.19.55.39.7S47.79,266.63,48,266.63Zm25.76-10.19c.16.48.27,1.13.42,1.14a2.24,2.24,0,0,0,1.32-.35c.59-.45,1.06-1.05,1.61-1.56.23-.22.56-.56.77-.51,1.47.37,2.35-.78,3.49-1.26.71-.3,1.31-.85,2.18-.78s1.33-.42,1.34-1.34a4.28,4.28,0,0,1,.26-1.64c.87-2,1.79-3.92,2.74-5.86s2-4,3.06-6c.83-1.65,1.74-3.28,2.4-5,.59-1.55,1.69-2.79,2.34-4.28,1.09-2.46,2.46-4.78,3.44-7.31,1.2-3.08,2.52-6.12,3.64-9.23.39-1.09,0-1.43-1.14-1.39a1.58,1.58,0,0,0-1.19.74,27.49,27.49,0,0,0-4.55,6.61c-.56,1.18-1,2.42-1.52,3.61q-1,2.22-2.07,4.39c-.71,1.45-1.82,2.73-1.93,4.45-1.66,2.18-2.92,4.62-4.43,6.9-3.54,5.29-7.18,10.51-10.74,15.79A23.78,23.78,0,0,0,73.77,256.44ZM323,6.56c-.25-.26-.55-.87-.87-.87-.77,0-1.6-.38-2.36.31-.43.38-1.15.4-1.72.64-1.7.72-3.65,1.15-5,2.28-2,1.65-4.24,2.74-6.27,4.22-2.37,1.74-4.9,3.38-5.33,6.69-1.76,2.57-2.33,5.87-4.88,8-.4.33-.57.93-.91,1.35s-.24.71.09,1.05.63.54,1.23.2a31.81,31.81,0,0,1,3.95-1.9,15,15,0,0,0,4-2.37,11.82,11.82,0,0,1,1.32-1c2.09-1.23,4.19-2.44,5.57-4.55.14-.22.56-.24.81-.41.72-.5,1.66-.88,2.06-1.57,1.47-2.49,4-4,5.59-6.4.7-1,1.41-2.09,2-3.18A12.14,12.14,0,0,0,323,6.56ZM273.36,213.47c-1.83,1.63-3.37,3.19-5.11,4.5a63.5,63.5,0,0,0-5.38,4.45c-1.39,1.31-2.71,2.7-4.07,4.05-.41.4-.72.11-1-.2s-.62-.62-.23-1a39.44,39.44,0,0,1,3.91-3.85,58.6,58.6,0,0,0,5.74-4.8c.29-.3.53-.71.89-.86,1.74-.75,2.69-2.37,4-3.59a5.07,5.07,0,0,0,1.29-2.19,31,31,0,0,1,2.67-6.62c.43-.74,0-1-.3-1.05a1.62,1.62,0,0,0-1.32.13c-1.68,1.42-3.34,2.87-4.92,4.4a57.18,57.18,0,0,1-6.24,4.84,19.7,19.7,0,0,0-3.65,3.14c-.55.66-1,1.59-1.68,2-1.3.74-1.51,1.78-1.55,3.1-.09,2.52-.3,5-.49,7.54,0,.29-.34.56-.35.84-.06,1.39-.11,2.78-.06,4.17,0,.5,1,.83,1.35.51a22.61,22.61,0,0,0,3.95-3.58,12.73,12.73,0,0,1,2.6-2.85,25.31,25.31,0,0,0,2.92-2.54q2.85-2.81,5.65-5.64a4.54,4.54,0,0,0,1.66-2.58C273.72,214.92,273.13,214.4,273.36,213.47Zm-56.21-59.34a11.7,11.7,0,0,0-4.63.9c-1,.32-1.6.69-1.79,1.55a2.7,2.7,0,0,1-2.15,2c-3.36.79-5.68,3.05-8.08,5.24a13.58,13.58,0,0,0-1.95,2.43c-1.38,2-2.72,4-4.06,6.06-.1.16,0,.45,0,.67a1.89,1.89,0,0,0,.52-.21c1.18-1,2.34-2,3.52-3a.69.69,0,0,1,.65-.06.77.77,0,0,1,.2.64,1.33,1.33,0,0,1-.32.84c-1.77,1.33-3.54,2.68-5.41,3.86-.46.29-1,.46-1.25,1-1.1,2-2.19,4.09-3.27,6.15a2.52,2.52,0,0,0-.1.84,4.69,4.69,0,0,0,.74-.38c.56-.44,1.1-.89,1.63-1.36.2-.18.29-.54.51-.62a8.38,8.38,0,0,0,3.21-2.5c2.7-2.89,6.06-4.87,9.4-6.87,1.78-1.07,3.6-2,4.56-4,.22-.47.82-.76,1.26-1.11a26,26,0,0,0,5.13-5.18c.49-.67.64-2.16,2.14-1.84.07,0,.2-.21.29-.34.67-1,1.32-1.95,2-2.9.24-.32.58-.47.11-.92-.29-.27-.09-1-.88-.85A12.78,12.78,0,0,1,217.15,154.13Zm-44.26,46.53c0,1.27,0,2.36,0,3.44a4,4,0,0,0,.5,1.52c.21.39.59.93.92.94a1.4,1.4,0,0,0,1-.82,5.64,5.64,0,0,0,.51-2.27,18.12,18.12,0,0,1,1.33-6.94,5.45,5.45,0,0,0,0-2.34c0-.14-.47-.23-.73-.35.29-.12.74-.16.83-.36.79-1.76,2.49-3.15,2.15-5.36,0-.18.3-.39.33-.6.31-2,1.58-3.5,2.34-5.27a2,2,0,0,0,0-2.23c-.18-.23-.18-.63-.38-.83-1.52-1.54-1.66-3.54-1.74-5.51a5.29,5.29,0,0,0-.74-2.45,1.25,1.25,0,0,0-2.29.26,18.29,18.29,0,0,0-.51,1.79c-.5,1.87-.66,3.94-1.59,5.56-1.31,2.31-1.46,4.81-1.81,7.22a54,54,0,0,0-.08,8.72c0,.6.63,1.35.42,1.76C172.61,198,173,199.42,172.89,200.66Zm-101-63a12,12,0,0,0,0,1.34,3.2,3.2,0,0,0,.22.66c.28-.1.65-.12.84-.32a62.8,62.8,0,0,0,5.24-5.84c.78-1.07,2-1.82,2.5-2.95.79-1.65,2.39-2.55,3.29-4.12a28.87,28.87,0,0,1,3.47-4.07A33,33,0,0,0,90.27,119a49.51,49.51,0,0,1,6.56-8c2-1.93,3.89-3.89,5.84-5.83a5.18,5.18,0,0,0,1-1.07c.76-1.54,2.09-2.62,3.06-4s2.23-2.58,3.32-3.88a11.65,11.65,0,0,0,1.23-1.74c.22-.4.13-.84-.48-.8a4.33,4.33,0,0,0-1.61.33,37.09,37.09,0,0,0-5,3.09,3.16,3.16,0,0,0-1.38,2.91,1.83,1.83,0,0,1-.25,1.13,26.19,26.19,0,0,1-3.74,4.17,33.5,33.5,0,0,0-3.26,2.91A20.44,20.44,0,0,0,94,110.25c-1.37,1.77-2.78,3.51-4.12,5.3a15.89,15.89,0,0,1-3.77,3.68c-2.71,1.85-5.23,4-6.4,7.27a5.41,5.41,0,0,1-2.32,2.66,10.73,10.73,0,0,0-4.32,5C72.57,135.49,72.16,136.83,71.89,137.61Zm209,52.64a9.34,9.34,0,0,0,0-1c-.08-.38-.18-.75-.27-1.13a3.57,3.57,0,0,0-1.33.39c-1.67,1.42-3.29,2.91-4.92,4.39a4.33,4.33,0,0,1-.53.52c-2.51,1.44-4.43,3.64-6.77,5.31-1.95,1.4-3.73,3-5.6,4.55a3,3,0,0,1-.86.34c-.4.14-1-.33-1.23.42-.13.44-.49.88-.45,1.29.07.71-.36,1.2-.51,1.79a17.08,17.08,0,0,1-.45,1.81,16.1,16.1,0,0,0-.56,4c-.06.7.27.89.87.53,2.15-1.3,4.47-2.43,6.19-4.25,2.34-2.47,5.49-4.11,7.25-7.16a1.81,1.81,0,0,1,.7-.7c1.8-.89,2.89-2.47,4-4a6.56,6.56,0,0,1,1.51-1.61,7.28,7.28,0,0,0,2.36-2.49A9.64,9.64,0,0,0,280.89,190.25ZM81.77,220.13c-.43,0-1-.11-.88.71-1.67,1.42-2.45,3.48-3.65,5.24s-2.23,3.73-3.35,5.6-2.25,3.74-3.39,5.59c-1.53,2.46-3.13,4.86-4.6,7.35-2.07,3.5-4.36,6.85-6.56,10.27a57.51,57.51,0,0,0-3.16,5.69c-.4.8-.61,1.55.13,2.2a1.55,1.55,0,0,0,2.2,0c.31-.26,1.09,0,.88-.84,1.65-1.74,2.31-4.05,3.44-6.08A8.17,8.17,0,0,0,64,251.32a11.54,11.54,0,0,0,3.81-3.39c1.74-2.52,3.67-4.91,5.18-7.59a33,33,0,0,0,2.74-4.86c.49-1.39,1.17-2.69,1.75-4,1-2.19,2.15-4.28,3.29-6.39.66-1.23,1.45-2.39,2.09-3.63C83.25,220.58,82.85,220.11,81.77,220.13ZM188,65.13a3,3,0,0,0-3.34,2,3.92,3.92,0,0,1-.88,1.38,95.76,95.76,0,0,0-7.43,8.42c-1.93,2.4-4,4.69-6,7a1.74,1.74,0,0,0,.05,2.38,4.11,4.11,0,0,0,2.71,1.34c.38,0,.81.64,1.29.42a3.66,3.66,0,0,0,1.31-1c1.57-2,2.93-4.19,4.65-6a59.25,59.25,0,0,0,5.09-6.66c1.47-2.15,3-4.26,4.41-6.43,1.15-1.76.59-2.72-1.57-2.81Zm57.92-1.19c.1-2-1-2.71-2.57-2a4,4,0,0,0-1,.53,15.51,15.51,0,0,0-3.89,5.12c-.39.84-.82,1.65-1.23,2.48-1.69.29-2,2-2.91,3a14.72,14.72,0,0,0-2.77,4.31,4.13,4.13,0,0,1-1,1.83c-1.66,1.29-2.24,3.2-3,5-.11.26.11.71.29,1s.57.45,1,.16A15.74,15.74,0,0,0,232,83.36a7.31,7.31,0,0,1,3.1-2.08c1.88-.47,2.77-1.77,3.61-3.22a13.16,13.16,0,0,1,1.56-2.61,11.64,11.64,0,0,0,1.61-2.56c1-2,2-4,3-6A27,27,0,0,0,245.87,63.94ZM204.32,89.63c1.86,0,3.48-.52,4-1.72.9-2.13,2.4-3.83,3.59-5.75,1.63-2.66,3.34-5.27,5-7.92s3.54-5.12,4.7-8c.31-.78.07-1.48-.68-1.56a3.57,3.57,0,0,0-3.3,1,47.35,47.35,0,0,0-3.18,3.92c-.88,1.27-1.39,2.8-2.32,4-2.63,3.43-5.42,6.73-8.07,10.15a8.08,8.08,0,0,0-1.71,3C201.68,89.47,201.66,89.63,204.32,89.63ZM112,84.17c.74,0,1.61.15,2.17-.18s.94-1.24,1.46-1.83a6.6,6.6,0,0,1,1.77-1.73,11,11,0,0,0,2.76-2.34,98.13,98.13,0,0,0,7.6-8.06,4.88,4.88,0,0,0,1.16-2.78c.09-.89-.35-1.07-1-1.32a6.29,6.29,0,0,0-4-.07,2.38,2.38,0,0,0-1.76,1.71c-.6,2-2.25,3.3-3.68,4.69-.63.61-1.44,1-2.06,1.61a45.36,45.36,0,0,1-4.87,3.89,50.63,50.63,0,0,0-4.21,3.68c-.67.62-.63,1.16.16,1.53A8.72,8.72,0,0,0,112,84.17Zm46.87-1.54c1.78,0,1.94,0,2.26-.52a31.2,31.2,0,0,1,2.73-3.85c1.51-1.84,2.85-3.81,4.33-5.67,1.6-2,3.28-4,4.91-5.93.48-.59.48-1.44-.16-1.65-1.08-.36-2.24-1.26-3.32-.75a3.86,3.86,0,0,1-2.09.34,2.45,2.45,0,0,0-2.67,1.59,39.93,39.93,0,0,1-4.45,6.62c-1.76,2.3-3.73,4.44-5.6,6.65-.29.34-.81.79-.73,1a1.8,1.8,0,0,0,1,1C156.48,82,157.92,82.36,158.88,82.63Zm54.19,7c1.41-.1,3.36-.32,4.08-2.54a20.05,20.05,0,0,1,2.24-4.55c1.73-2.77,3.57-5.49,5.14-8.35a39.94,39.94,0,0,0,3.84-8.12c.1-.34.9-.68.1-1.11-.47-.25-1.22-.83-1.33-.72-.66.62-2,.17-2.21,1.2s-1,1.28-1.49,1.88a54.75,54.75,0,0,0-4.55,6.35c-1.78,2.83-3.57,5.65-5.29,8.52-1.07,1.79-2,3.64-3,5.5-.56,1.09-.05,1.86,1.17,1.94C212,89.65,212.28,89.63,213.07,89.63Zm47.65,99.91.67,2c.42,1.29.68,1.42,1.62.74,1.86-1.34,3.77-2.61,5.54-4.07,2.85-2.35,5.53-4.91,8.58-7,1.43-1,2.54-2.28,3.87-3.33.68-.55,1.25-.83,1.51-1.87.22-.87.63-1.89.29-2.52a4.26,4.26,0,0,1-.4-2.09c0-.49-.09-.79-.66-.74-.39,0-.91-.11-.84.55s-.28,1.37-1,1.42c-1.45.1-2.29,1.05-3.19,2a49.81,49.81,0,0,1-5,4.87,43.49,43.49,0,0,0-4.84,3.93,7.44,7.44,0,0,1-1.17.78c-1.22.85-2.46,1.7-3.66,2.59A2.78,2.78,0,0,0,260.72,189.54Zm-46.57-123c-.41-.53-.65-1.12-1.08-1.32a1.46,1.46,0,0,0-1.29.35A17.78,17.78,0,0,0,210,67.79c-1,1.42-2.68,2.29-3.64,3.71a40.8,40.8,0,0,1-3.94,4.35c-.28.31-.68.54-.87.89a25.46,25.46,0,0,1-3.77,4.67,30.44,30.44,0,0,0-4.7,7.32,1.64,1.64,0,0,0,0,1.32,2.7,2.7,0,0,0,3.2.88c.87-.47,1.85-.8,2.15-2.05a6.69,6.69,0,0,1,1.38-2.42c2.2-2.77,4.47-5.48,6.7-8.23.8-1,1.61-2,2.34-3,1.26-1.8,2.49-3.62,3.65-5.49C213.14,68.74,213.58,67.66,214.15,66.51Zm-34.83-1.38a3.09,3.09,0,0,0-3.25,1.17,12.19,12.19,0,0,1-2.2,2.57,59.47,59.47,0,0,0-9.37,11.37c-.86,1.43-1.22,2.88,1,3.76a4,4,0,0,0,2.18.47,4.23,4.23,0,0,0,2.08-1.54c1.55-2.23,3.38-4.23,5-6.41,1.43-1.93,3.07-3.72,4.56-5.62A21.34,21.34,0,0,0,181.29,68C182.46,65.78,182,65.14,179.32,65.13Zm103.53,116.8c0-.9-1.55-1.8-2.26-1.17-1.1,1-2.61,1.2-3.62,2.12-2.38,2.17-5,4-7.56,5.93a73.26,73.26,0,0,1-5.86,4.49,5.45,5.45,0,0,0-2.62,3.36c-.24,1.24-.57,2.43-.89,3.63-.13.49.29,1.13.45,1.7a5.49,5.49,0,0,1,1-.35,5.41,5.41,0,0,0,2.79-1.68c3.58-3.29,7.08-6.67,10.59-10,1.2-1.15,2.39-2.32,3.52-3.54a2.87,2.87,0,0,1,2.74-1.26,1.09,1.09,0,0,0,1.26-.89C282.59,183.48,282.05,182.57,282.85,181.93ZM237.93,63.5c-.16-.09-.37-.34-.6-.35A6.79,6.79,0,0,0,231,66.39c-1.17,1.9-2.31,3.85-3.43,5.79-1.48,2.55-2.93,5.14-4.61,7.56a46.39,46.39,0,0,0-3.3,5.87c-.45.91-.21,1.74.5,2,.47-.92.88.22,1.34,0a26.34,26.34,0,0,0,2.56-1c.37-.19.59-.7.81-1.1.53-1,1-1.91,1.51-2.87A29,29,0,0,1,228.91,78c1.28-1.63,2.1-3.62,3.81-4.93a2.48,2.48,0,0,0,.53-1A12.2,12.2,0,0,1,235,69.22a44.13,44.13,0,0,0,2.85-4.79A3.08,3.08,0,0,0,237.93,63.5ZM178.39,312c0-.25,0-.5,0-.75a1.16,1.16,0,0,0-1-1.16c-.73-.17-.9.28-1.12.86a13.8,13.8,0,0,1-1.22,2.23c-.21.34,0,1.12-.82.91-3,2.66-6.53,4.71-9.27,7.7a3.26,3.26,0,0,1-.92.79,26.69,26.69,0,0,0-7.8,5.88c-.86.87-.93,2-1.31,3a1.2,1.2,0,0,0,.56,1.49,1.25,1.25,0,0,0,1.54-.15c1.39-1,2.92-1.81,4.28-2.86q2.86-2.19,5.65-4.49a66.48,66.48,0,0,0,6.76-5.89c1.1-1.18,2.06-2.49,3.19-3.65A5,5,0,0,0,178.39,312ZM153.16,64.63a4.56,4.56,0,0,0-.74,0c-2.22.36-4.2.62-5.75,2.42-2.64,3.06-5.83,5.57-8.34,8.77a17.27,17.27,0,0,0-2.76,4.88c-.47,1.31.13,2.17,1.49,1.88,1-.22,2.21-.3,2.95-1.31a9.26,9.26,0,0,1,2.15-2.57,28.62,28.62,0,0,0,4.44-3.64c2.76-2.58,5.23-5.46,7.82-8.22.06-.06.16-.11.17-.17a11.73,11.73,0,0,0,.19-1.85,4.27,4.27,0,0,0-1.12-.19A2.77,2.77,0,0,0,153.16,64.63Zm-115.6,202h.5a7.81,7.81,0,0,0,2.67-.19c.58-.24-.09-1.3.5-2,.46-.52.43-1.46.67-2.2a21.89,21.89,0,0,1,3.28-7.12,41.83,41.83,0,0,0,5.55-7.94,91.77,91.77,0,0,1,4.65-8.32,3.29,3.29,0,0,0,.49-1.29c.07-.64.2-1.43-.57-1.71-.23-.09-.66.55-1,.63A5.69,5.69,0,0,0,51,238.83a29.93,29.93,0,0,0-1.81,3.24,40.92,40.92,0,0,0-3.29,6.63A25.83,25.83,0,0,1,42,255.83a15.82,15.82,0,0,0-2.86,4.3,3.47,3.47,0,0,1-.71,1.2A19.88,19.88,0,0,0,35.25,265c-.27.47-1.15.76-.78,1.35.19.3,1,.22,1.59.26S37.06,266.63,37.56,266.63Zm109.8-185a6.49,6.49,0,0,0,4.85-2,22.39,22.39,0,0,0,3.3-3.37c1.29-1.83,3-3.38,4.12-5.31.79-1.39,2-2.58,2.28-4.29.14-1-.18-2-1-2.06s-1.78-.31-2.49.62a22.3,22.3,0,0,1-2.1,2.14c-.7.71-1.41,1.41-2.12,2.12l-1.94,1.94a13.6,13.6,0,0,1-2.15,2.08c-.82.52-1.22,1.34-1.88,2s-1.3,1.69-2.15,2c-1.32.55-1.9,1.78-2.94,2.54-.47.34,0,.52.16.7C144.36,81.88,145.71,81.59,147.36,81.65Zm-20,118.65c0-1.82-.24-2-1.55-1.37-.2.1-.49.07-.65.21-1.7,1.48-3.87,2.37-5.25,4.22a32.61,32.61,0,0,0-2.52,3.7c-1.9,3.54-3.67,7.14-5.53,10.7-.5,1-1.14,1.86-1.66,2.81a12.35,12.35,0,0,0-.82,1.91,1.28,1.28,0,0,0,.79,1.62c.66.28,1.06-.06,1.37-.83a19.16,19.16,0,0,1,1.92-3.45A43.72,43.72,0,0,1,116.3,216c1.36-1.63,2.85-3.14,4.21-4.76.86-1,1.5-2.26,2.4-3.24,1.68-1.82,2.36-4.26,3.94-6.14A3.66,3.66,0,0,0,127.38,200.3ZM45.57,243.77l-.18-.05v-.5c0-.72.24-1.77-.65-1.89-.57-.07-1.27.69-1.89,1.11a1,1,0,0,0-.44.55c-.48,2.49-1.82,4.59-3,6.72a51.11,51.11,0,0,1-4,6.08c-1.29,1.66-2.83,3.14-4.25,4.7s-2,3.71-3.25,5.42c-.09.12.11.63.17.63,1.32-.06,2.73.63,3.89-.7,1.82-2.11,3.76-4.09,5.61-6.17a4.15,4.15,0,0,0,1.25-1.95c.14-1.55,1.18-2.39,2.1-3.39.37-.4.61-.92,1-1.34a15.35,15.35,0,0,0,3-6.73C45.09,245.42,45.34,244.6,45.57,243.77ZM44,266.63c.47.05,1.67.16,1.75-.74.11-1.19.93-2,1.14-3.06a18,18,0,0,1,1.29-4.21,50,50,0,0,1,3.34-5.86,72,72,0,0,0,5.27-8.32A16.17,16.17,0,0,1,58.74,241a16.52,16.52,0,0,0,1.65-3.05c.53-1,1-2.07,1.57-3.1s1-1.74,1.4-2.67c.15-.4-.07-.94-.13-1.42a6.55,6.55,0,0,0-1.34.17c-1.88.64-2.61,2.31-2.93,4a9.31,9.31,0,0,1-1.33,3.21c-2.06,3.3-4,6.64-5.75,10.12A19.42,19.42,0,0,1,49,252.77c-1,1.14-2,2.3-3,3.51a10.08,10.08,0,0,0-1.41,2.41q-1.2,3.13-2.2,6.34C42,266.24,42.4,266.63,44,266.63Zm90.8-200,0-.15c-.68.18-1.54.16-2,.58a26.34,26.34,0,0,0-4.55,4.59c-2,3-5.29,4.85-7.13,8-2.45.75-2,3.14-2.69,4.85-.07.15.08.49.23.63a2.37,2.37,0,0,0,3,0A77.71,77.71,0,0,1,128,79.23,22,22,0,0,0,130.82,76a27.26,27.26,0,0,0,3.28-3.89c.81-1.39,2.27-2.46,2.35-4.25.89-.72-.09-1-.4-1.15S135.24,66.63,134.83,66.63Zm22.06,255.59c0,1.54.47,1.91,1.89,1.23a17,17,0,0,0,3.78-2.29c2.71-2.37,5.32-4.87,7.91-7.38.91-.89,1.63-2,2.48-2.95,1.51-1.71,3.05-3.39,4.57-5.09a1.05,1.05,0,0,0,.35-.59c0-.48.09-1.14-.18-1.39-.49-.46-.81.2-1.17.49s-.94.63-1.33.94c-2.3,1.84-5.12,3-7,5.39a3.89,3.89,0,0,1-.76.55c-1.65,1.23-3.38,2.36-4.94,3.71s-2.94,2.92-4.42,4.37A3.58,3.58,0,0,0,156.89,322.22ZM74.64,129.16c.29-.06.49,0,.59-.13a11.37,11.37,0,0,0,2.09-2.13,37.71,37.71,0,0,1,6-7.47,57.59,57.59,0,0,0,5.59-5.68,100.42,100.42,0,0,1,9.21-10.12,5,5,0,0,0,1-1.07,3.69,3.69,0,0,0,.06-1.34c-.39,0-.89-.16-1.15,0a29.4,29.4,0,0,0-2.63,2.09C94,104.55,92.8,106.07,91.2,107c-1.88,1.05-2.79,3.17-4.81,4-.3,1.32-1.58,1.82-2.32,2.77s-1.4,1.75-2.11,2.62-1.5,1.88-2.29,2.79a31.42,31.42,0,0,0-5.09,9.6A1.24,1.24,0,0,0,74.64,129.16ZM23.84,266.72c2.23.85,2.84-.92,3.47-2.31a18.78,18.78,0,0,1,2.86-4.8c1.26-1.39,2.56-2.72,3.76-4.17a39.34,39.34,0,0,0,6-9.53c.84-2,1-2.8.78-2.72A11.23,11.23,0,0,0,38,244.38a8,8,0,0,0-1.57,1.82q-1,1.32-2,2.67c-1.24,1.68-2.56,3.29-3.83,4.93-1.39,1.81-2.91,3.54-4.15,5.49C25.36,261,24,262.42,22.77,264a20.7,20.7,0,0,0-1.33,2.4Zm249.05-36.41c0-.57,0-1,0-1.4.07-.71,0-1.37-.7-1.7s-1.4.14-1.87.74a99.11,99.11,0,0,1-7.76,8.25c-1.17,1.18-2.36,2.34-3.52,3.53-.94,1-.89,2.18.09,3.4.56.7,1.26.75,2.56,0a17.8,17.8,0,0,0,2.91-2c2.33-2.06,4.58-4.21,6.86-6.33.53-.5,1.19-1,.92-1.86C273.3,232.15,272.7,231.08,272.89,230.31Zm-110.5-31.6c0,1.93,0,1.9,1.56,2.43s3.35,1.15,5,1.83a.8.8,0,0,0,1.05-.17c.4-.39.54-.69.13-1.23a17.74,17.74,0,0,1-1.77-2.76,7.8,7.8,0,0,1-1-3.85c1-.59.24-1.78.92-2.64.56-.71.23-2,.65-2.95,1.52-3.33,1.89-7,3.29-10.38a1.64,1.64,0,0,0-.46-2.18c-.19-.12-.75-.09-.81,0-1.35,2.6-3,5.09-3.58,8-.42,2-1.09,3.9-1.6,5.85-.56,2.13-1.86,4.05-2.78,6.08A14,14,0,0,0,162.39,198.71ZM255.58,61.08c-.31-.18-.52-.4-.76-.43-1.48-.23-2.72.58-4.07,1a3.71,3.71,0,0,0-2.81,3.45,4.76,4.76,0,0,1-1.58,3.35,3.86,3.86,0,0,0-.87.89Q243.4,73,241.4,76.83c-.44.82-.15,1.41.65,1.27a5,5,0,0,0,1.9-.81,31.84,31.84,0,0,1,2.64-2.06c3.09-1.66,4.43-4.65,5.74-7.57a25.67,25.67,0,0,1,2.29-4.53A13.71,13.71,0,0,0,255.58,61.08ZM274.83,99.8c0,.11,0-.57-.18-.59a2.24,2.24,0,0,0-1.33.27c-1.5.83-2.71,2.06-4.28,2.87a18.17,18.17,0,0,0-3.87,3.28,40.17,40.17,0,0,1-5.05,4.05,10.55,10.55,0,0,0-3.7,5.42,15.89,15.89,0,0,0-.52,3c0,.13.07.39.16.41s.53.11.66,0c1.3-1.09,2.61-2.18,3.85-3.34s2.47-2.46,3.7-3.69a31.3,31.3,0,0,1,3.92-3.81,15.09,15.09,0,0,0,3.46-3.54,7.5,7.5,0,0,1,1.31-1C273.89,102.39,275.08,101.81,274.83,99.8ZM181.89,368.13a3.64,3.64,0,0,1,0-.74,1,1,0,0,0-.73-1.16,2.06,2.06,0,0,0-1.32.22c-.28.12-.48.45-.71.69l-11.79,11.78c-.29.3-.69.54-.86.89-.5,1.06-.91,2.06-.16,3.31a.89.89,0,0,0,1.36.4c.49-.23.83-.78,1.25-1.18.77-.74,1.54-1.49,2.32-2.2,1.2-1.1,2.68-2,3.55-3.31a7.85,7.85,0,0,1,2.23-2.49c1.53-.9,2.53-2.28,3.79-3.42A3.15,3.15,0,0,0,181.89,368.13ZM165,371.64a6.64,6.64,0,0,0,1.86-.77,33.43,33.43,0,0,0,3.68-3.15c3-3,6-6,9-9,.38-.38.86-.67.93-1.36,0-.38.75-.64.25-1.21a1.21,1.21,0,0,0-1.7-.38,14.13,14.13,0,0,0-3,1.89c-2.38,2.36-4.87,4.61-7.34,6.88a11.75,11.75,0,0,1-1.19.72c-.65.45-1.3.9-1.91,1.41s-.92,1.29-1.42,1.32c-1,.05-.9.89-1.14,1.31C162.48,370.3,163.39,371.63,165,371.64Zm109.4-265.18c-.1-.57-1.1-1-1.5-.57a10.72,10.72,0,0,1-4,3c-.22.07-.36.35-.54.51-1.58,1.42-3.13,2.87-4.75,4.23-1.34,1.13-2.84,2.07-4.16,3.21a23.15,23.15,0,0,0-4.55,5.36c-.41.68-1,1.37-.06,2.11.63.52,1.17.43,2.06-.45a45.3,45.3,0,0,1,3.56-3.51,55.18,55.18,0,0,0,6.28-5.34c2.44-2.55,4.84-5.16,7.25-7.74a1.64,1.64,0,0,0,.34-.36A1.41,1.41,0,0,0,274.39,106.46ZM119.11,69.15c-.42-.39-.73-.93-1.09-1a3.39,3.39,0,0,0-2.77.46c-1.58,1.35-3.55,2.17-4.93,3.79a14.71,14.71,0,0,1-2.66,2.63c-2.06,1.43-3.82,3.2-5.73,4.79-.19.16-.49.34-.51.53a2,2,0,0,0,.16,1.16,2.34,2.34,0,0,0,3.06.58,12.13,12.13,0,0,0,.89-.87,41.86,41.86,0,0,1,4.4-3.84A58.81,58.81,0,0,0,118.31,70Zm36.54,245a7.68,7.68,0,0,0,1.86-.91,23.53,23.53,0,0,0,3.89-4.6c1.87-2.51,3.22-5.35,5-7.91a15,15,0,0,0,2.81-5.59,2.9,2.9,0,0,0-.57-2.32c-.55-.67-1,.44-1.45.81a3.89,3.89,0,0,0-.8,1.15,85.42,85.42,0,0,1-5,8.19c-1.83,2.55-3.26,5.37-5.34,7.77a13,13,0,0,0-1.42,2.39C154.21,314,154.32,314.13,155.65,314.13ZM142.74,65.63c-.1,0-.53.22-1,.37a6.37,6.37,0,0,0-3.25,2.87,62.66,62.66,0,0,1-4.18,5.47c-2.1,2.62-4.54,5-6.84,7.43-.39.42-.83.81-1.23,1.24a1.23,1.23,0,0,0-.36.59,1.82,1.82,0,0,0,.16.92c0,.09.44.08.64,0,1.05-.29,2.07-.69,3.12-.9,2-.41,2.8-1,3-3a3.9,3.9,0,0,1,.91-2.12c.9-1,1.78-2.07,2.65-3.14,1.71-2.09,3.63-4,5.43-6A23.86,23.86,0,0,0,143.79,67C144.23,66.32,143.84,65.63,142.74,65.63Zm28.15,330.62a8.9,8.9,0,0,0,0,1.56,1.4,1.4,0,0,0,1.8.73,5.23,5.23,0,0,0,.89-.87c1.52-1.68,3-3.39,4.58-5.06.51-.55,1.16-1,1.71-1.49,1.76-1.68,1.4-4.06,2-6.13.21-.7-.34-1.1-.83-1.31-.22-.09-.72.27-1,.54-2.42,2.55-4.91,5-7.17,7.74C171.89,393.16,170.58,394.42,170.89,396.25ZM10.43,265c1.44.54,2.82,1.3,4.48,1.2a1.56,1.56,0,0,0,1.49-1c1.14-2.28,2.21-4.61,3.53-6.78A18.34,18.34,0,0,1,24.36,253a55.21,55.21,0,0,0,4.15-3.78c.13-.11.15-.34.22-.52-.23,0-.49-.08-.67,0a29.94,29.94,0,0,0-8,5.48c-1,1-1.87,2.23-2.84,3.31C15,260,12.72,262.47,10.43,265Zm7.94,1.67c.85,0,1.3.07,1.67-.79a22.43,22.43,0,0,1,2.39-3.51c1.18-1.71,2.62-3.25,3.81-4.93,1.38-1.94,3-3.71,4.33-5.66,1.14-1.64,2.45-3.14,3.67-4.73.12-.16.08-.44.11-.66-.28,0-.62-.17-.84-.06a7.84,7.84,0,0,0-3.15,2.87,7.27,7.27,0,0,1-1.8,2,27.3,27.3,0,0,0-7.15,7.54c-1.4,2.3-2.61,4.73-3.89,7.11-.32.59-.13.84.59.87Zm248.52-3.52a3.31,3.31,0,0,0,2.82-1.06c1.55-1.5,3.07-3.05,4.59-4.58a2,2,0,0,0,.56-.76,1.27,1.27,0,0,0-.12-.92c-.07-.11-.59-.06-.81.08a17.32,17.32,0,0,0-1.91,1.4c-1.42,1.21-2.8,2.48-4.22,3.69a1.26,1.26,0,0,1-1.7-.36c-.5-.57-.08-.89.29-1.2.86-.73,1.74-1.42,2.61-2.13s1.42-1.27,2.21-1.83a8.07,8.07,0,0,0,2.9-3.24c.28-.65.49-1.17-.12-1.72a1.94,1.94,0,0,0-2-.16c-1.93,1.57-3.93,3.08-5.73,4.79-.77.74-2.22,1.13-2.25,2.21s.8,1.95,1.26,2.92c.37.77.74,1.53,1.15,2.27A3.26,3.26,0,0,0,266.89,263.11Zm6.58-41.38c-.12-.36-.21-1-.35-1a2,2,0,0,0-1.33.33c-1.62,1.37-3.22,2.75-4.74,4.23-2.86,2.78-5.66,5.63-8.49,8.46-.35.35-.83.65-1,1.07a3.62,3.62,0,0,0-.64,2.48c.15.55.93,1.08,1.29.82a9.17,9.17,0,0,0,2.55-2.16,11.81,11.81,0,0,1,1.67-2c1.86-1.91,3.92-3.64,5.59-5.7a18,18,0,0,1,4.42-4.36A1.94,1.94,0,0,0,273.47,221.73Zm-93,139.71a8,8,0,0,0-1.37.79c-.87.76-1.6,1.71-2.52,2.38A54,54,0,0,0,170,369.8c-.41.41-.75,1-1.24,1.2-1.9.61-2.3,2.62-3.65,3.73-.43.36-.24,1.58.16,2s1,.58,1.88-.1a10.75,10.75,0,0,0,2.56-2.15,14.86,14.86,0,0,1,1.65-2c1.1-1.13,2.2-2.27,3.35-3.35,1.61-1.5,2.94-3.29,4.89-4.44a7.35,7.35,0,0,0,1.76-1.76,1.1,1.1,0,0,0,0-.94C181.26,361.75,180.87,361.67,180.44,361.44ZM262.8,249.17a3.44,3.44,0,0,0,1.1-.33,15.64,15.64,0,0,0,2.27-1.76c1.92-1.85,3.79-3.75,5.66-5.64a2.85,2.85,0,0,0,.41-2.7.85.85,0,0,0-1.37-.32c-.89.68-1.74,1.42-2.63,2.1-1.26,1-2.57,1.87-3.81,2.84A28.62,28.62,0,0,0,261.3,246c-.66.69-.35,1.47,0,2.39S262,249.07,262.8,249.17Zm2.59-167.29a15.25,15.25,0,0,0,1.72-1.74,17.6,17.6,0,0,1,5.25-5.24c1.27-.8,1.8-2.21,2.41-3.47a3.88,3.88,0,0,0,0-2.14.87.87,0,0,0-1.35-.43c-1.29,1.1-2.55,2.23-3.84,3.33-.42.35-.92.6-1.35,1-1.72,1.42-3.43,2.81-2.87,5.48A18.22,18.22,0,0,1,265.39,81.88ZM137.14,181.13a3,3,0,0,0-3.23,1.24,47.69,47.69,0,0,1-4.38,5.9,9,9,0,0,0-1.12,2c-.09.17,0,.59.1.66a1.56,1.56,0,0,0,.91.16,1,1,0,0,0,.59-.36c1.69-2.08,4.34-2.85,6.32-4.58,1.37-1.21,3-2.09,4.25-3.49.1-.11.15-.43.07-.51-.5-.49-.88-1.2-1.8-1A11.86,11.86,0,0,1,137.14,181.13Zm28.77,128.51a1.85,1.85,0,0,0,.9-.21c2-1.61,4-3.26,5.94-4.92,1.05-.88,1.83-2.05,3.14-2.67a3.41,3.41,0,0,0,1.39-1.4,3.25,3.25,0,0,0,.61-2.48,1,1,0,0,0-1.51-.57c-1.74,1.41-3.59,2.71-5.2,4.26-2,1.93-3.8,4.06-5.66,6.12a4,4,0,0,0-.53,1C164.72,309.36,164.93,309.63,165.91,309.64ZM137.4,198c0,1.66.32,2,1.46,1.65a4.16,4.16,0,0,0,2.5-1.74,25.82,25.82,0,0,1,1.95-2.94c1.3-1.62,1.55-3.69,2.05-5.62.28-1.1-.35-1.53-1.36-1a8.33,8.33,0,0,0-3.6,3.45c-.88,1.62-1.69,3.29-2.5,4.95A11.4,11.4,0,0,0,137.4,198Zm100,58.22a7.05,7.05,0,0,0,.65-.51,44.16,44.16,0,0,0,6-6.51c.62-.93,1.73-1.77,1.34-3.17.7-.76.6-1.87,1.47-2.66,1.63-1.5,2-3.78,3-5.69a.85.85,0,0,0,0-.5,2.07,2.07,0,0,0-.16-.43c-.11.07-.27.1-.34.2-.67.88-1.38,1.74-2,2.67a35.17,35.17,0,0,1-2.82,4.53,60.35,60.35,0,0,0-5.58,7.68c-.75,1.17-1.42,2.39-2.09,3.62-.08.14.09.44.17.65C237.1,256.11,237.22,256.11,237.45,256.18ZM109.29,69.09a7.61,7.61,0,0,0-2,.9c-1.75,1.44-3.45,3-5.07,4.56-1,1-1.87,2.22-2.85,3.29a4.16,4.16,0,0,1-1.88,1.46,1.28,1.28,0,0,0-.5,1.13,1.6,1.6,0,0,0,1.15.67,3.3,3.3,0,0,0,2.71-1.22q4.76-4.75,9.5-9.5c.18-.18.42-.34.48-.55s-.06-.57-.2-.63A6.32,6.32,0,0,0,109.29,69.09Zm-7.77,1.54a2.66,2.66,0,0,0-1.12.29A18.24,18.24,0,0,0,98,72.85c-.81.72-1.42,1.75-2.34,2.23-1.67.87-2.61,2.46-4,3.59-.42.34-.3.74.08,1a4.75,4.75,0,0,0,3,.76,2.75,2.75,0,0,0,1.86-1.36,15.63,15.63,0,0,1,2.53-3c1.17-1.34,2.37-2.67,3.52-4a3.44,3.44,0,0,0,.52-1,.5.5,0,0,0-.17-.42A12.18,12.18,0,0,0,101.52,70.63ZM8.78,264.22a3.51,3.51,0,0,0,.57-.31c.31-.28.6-.57.89-.88q4.42-4.66,8.83-9.34c.1-.11.07-.35.1-.52-.16,0-.35-.09-.48,0-2.12.92-4.24,1.83-6.33,2.8a4.22,4.22,0,0,0-1.72,1.24,26.32,26.32,0,0,1-3.92,4.87c-.11.11-.2.24-.31.35ZM180,376.33c-.19-.49-.23-1-.47-1.15s-.76.05-1.13.18c-.21.08-.35.34-.53.51-3.05,3.05-6.11,6.09-9.14,9.16a14.18,14.18,0,0,0-1.24,1.72c-.32.45,0,.73.26,1s.58.53,1,.19a39.34,39.34,0,0,0,3.78-2.85c2-2,3.93-4.14,5.81-6.29A18.75,18.75,0,0,0,180,376.33Zm91.35-131.71a2.39,2.39,0,0,0-.51.3c-2.64,2.29-5.45,4.37-7.88,6.88-.27.28-.63.73-.56,1a11,11,0,0,0,1,2.08c0,.07.38.06.5,0,1-.68,2.12-1.35,3.12-2.12s1.74-1.64,2.76-2.34a7.78,7.78,0,0,0,2.87-3.26C272.93,246.46,272.13,244.71,271.38,244.62Zm-6.87-156c.39-1.52,1.58-2.39,2.56-3.41,1.77,0,2.59-1.43,3.37-2.51a6.55,6.55,0,0,1,2.39-2.07A2.93,2.93,0,0,0,274.39,77a1.3,1.3,0,0,0-2-.61,5.14,5.14,0,0,0-.7.7c-1.42,1.56-3.13,2.84-4.25,4.69a8.22,8.22,0,0,1-2.09,2.11c-1.05.8,0,2-.81,2.94C264.25,87.14,264.51,88,264.51,88.61ZM88.08,78.71A5.68,5.68,0,0,0,90.22,78a54.1,54.1,0,0,0,4.42-4.41,1.36,1.36,0,0,0,.07-1.29c-.2-.34-.95-.73-1.17-.6-1,.61-2.36.17-3.27,1.24-.51.61-1.49.79-2.18,1.29A26.52,26.52,0,0,0,85.3,76.5c-.75.73-.47,1.08.36,1.74S87.07,78.5,88.08,78.71ZM179.89,105c0,.83,0,1.65,0,2.48a13.21,13.21,0,0,0,1.29,4.19c.2.22.58.51.78.44a1.6,1.6,0,0,0,.9-.73,3.36,3.36,0,0,0,0-1.23c0-1.5-.45-3.19.11-4.43.83-1.87-.12-3.42-.13-5.11,0-.15-.25-.4-.42-.44-1.57-.34-2.49.42-2.55,2.09C179.86,103.15,179.89,104.06,179.89,105ZM122.34,47.86c-.78-.12-1.3-.35-1.47-.2-1.05,1-2.61,0-3.61,1-3.71.13-6.81,2-10,3.53A4.19,4.19,0,0,0,106,53.33c-.11.12,0,.45,0,.65a.47.47,0,0,0,.42.14c.82-.22,1.65-.44,2.44-.73,2.68-1,5.34-2,8-3a25.25,25.25,0,0,0,4.51-1.76C121.61,48.49,121.8,48.3,122.34,47.86Zm74,81.48s0-.09-.07-.1c-.22,0-.53-.12-.66,0-2,1.63-4,3.23-5.93,4.94a40.22,40.22,0,0,0-4.22,4.24c-1.31,1.56-2.37,3.32-3.53,5-.07.11,0,.32,0,.49.18,0,.43,0,.52-.07q6.2-6.15,12.34-12.35A15.63,15.63,0,0,0,196.31,129.34Zm-39.42,55.49v-1c0-1.16-.46-.36-.77-.16s-.57.22-.72.42q-2.79,3.91-5.54,7.88a8.33,8.33,0,0,0-.94,1.83,1,1,0,0,0,.25.85c.11.12.49.07.72,0a1.34,1.34,0,0,0,.6-.34,32.61,32.61,0,0,0,5.23-6.76A21.1,21.1,0,0,0,156.89,184.83Zm29.5,75.93c0,.37-.07.58,0,.69a6,6,0,0,0,1.31,1.64c.44.28,1-.07,1.5-.47a9.41,9.41,0,0,0,2-3.16,2.07,2.07,0,0,0-.12-1.78,9.38,9.38,0,0,0-1.89-1.94c-.42-.37-.87,0-1.35.62C186.77,257.73,187.2,259.54,186.39,260.76Zm-50-66.08c-.08-.14-.14-.45-.3-.52a.85.85,0,0,0-.65.16c-.26.19-.44.5-.71.68-3.69,2.51-3.7,2.51-5.36,5.88a5.3,5.3,0,0,0-.49,1.27,1.52,1.52,0,0,0,.19.9c0,.08.43,0,.64,0a7,7,0,0,0,1.08-.39c1-.49,2.38-.68,2.1-2.38,0-.24.35-.52.39-.81.18-1.08,1.15-1.53,1.78-2.23A4,4,0,0,0,136.42,194.68Zm-10.53,18.13v.52c0,.7.47,1.08,1.08.78a13.19,13.19,0,0,0,2-1.28,15.77,15.77,0,0,0,1.5-1.2c1.5-1.41,3-2.83,4.44-4.29,0-.05-.24-.66-.39-.67a2.2,2.2,0,0,0-1.12.26q-2.43,1.37-4.82,2.82a23.35,23.35,0,0,0-1.91,1.4A1.5,1.5,0,0,0,125.89,212.81Zm45.58,77.06c.77-.8,1.6-1.29,1.87-2,1-2.62,2.8-4.8,3.87-7.35a11.63,11.63,0,0,1,1.06-2.56c.11-.16-.08-.54-.13-.83-.28.12-.58.22-.85.36a1,1,0,0,0-.35.35c-1.67,3.21-3.69,6.22-5.15,9.55A5.05,5.05,0,0,0,171.47,289.87ZM274.07,65.14c-.21-.46-.28-.91-.47-1a1.07,1.07,0,0,0-.82.33c-1.54,1.51-3.11,3-4.55,4.58-.71.8-.86,2-1.76,2.75-.1.08-.07.51,0,.63a.67.67,0,0,0,.64.11,11.87,11.87,0,0,0,2.74-2.3,39.63,39.63,0,0,1,3.38-3.81A7.77,7.77,0,0,0,274.07,65.14ZM177.39,291.71a8.21,8.21,0,0,0,0-1.44.93.93,0,0,0-.49-.61c-.28-.06-.79,0-.89.16-1.23,2.21-2.42,4.45-3.57,6.7,0,.09.31.58.48.58a1.67,1.67,0,0,0,1.07-.34c.75-.64,1.38-1.43,2.13-2.07C177.12,293.84,177.71,292.87,177.39,291.71ZM6.33,257.13c-.75,0-1.51.05-2.25,0s-.84.57-.66,1c.53,1.12.85,2.39,1.89,3.21a1.66,1.66,0,0,0,.52.15c.35-1.38,1.72-1.93,2.46-3a5.78,5.78,0,0,0,.48-1.2c-.4,0-.8-.1-1.2-.12S6.74,257.13,6.33,257.13ZM85.08,74.41c-.24-.39-.4-.65-.57-.9a1,1,0,0,0-.17-.18c-.06-.06-.11-.15-.18-.17-.44-.13-.9-.23-1.34-.35s-.91.48-1.27-.17c0-.07-.32,0-.48,0a1,1,0,0,0-.25,0,1.29,1.29,0,0,0-.75,1.91,7.88,7.88,0,0,0,1.23,1.22c.42.33.91.79,1.37.77s1-.47,1.36-.82A11.14,11.14,0,0,0,85.08,74.41Zm65.67,246.44c.32-1.29-.11-1.51-.7-1.91-.77-.51-.88.16-1.07.39a49.67,49.67,0,0,1-3.07,4.17c-.07.07.14.41.22.62.53-1,1.72,0,2.38-.83s1.4-1.39,2.07-2.12C150.78,321,150.85,320.64,150.75,320.85Zm30.72,59.33a3.7,3.7,0,0,0-.67-.83c-.09-.08-.49.14-.67.31q-2.3,2.25-4.55,4.56c-.14.14-.13.44-.19.66.28.05.65.25.83.14a22.92,22.92,0,0,0,5-4C181.39,380.85,181.38,380.56,181.47,380.18Zm16.35-255.51c.68-.35,1.28-.47,1.57-.83,1.21-1.47,3-2.29,4.06-4a19.28,19.28,0,0,1,2.39-2.49c.09-.1-.05-.43-.09-.66a1.28,1.28,0,0,0-.34.14c-1,.86-2.13,1.69-3.12,2.62-1.44,1.36-2.82,2.78-4.19,4.2C197.93,123.88,197.94,124.23,197.82,124.67Zm-26-87.54A3,3,0,0,0,173.2,37a8,8,0,0,1,3.37-.91c.11,0,.31-.37.29-.55a.63.63,0,0,0-.44-.41,11.71,11.71,0,0,0-5.13.83c-.51.18-1,.34-1.52.54-.15.06-.24.23-.36.34.12.09.23.25.35.26C170.26,37.15,170.76,37.13,171.78,37.13ZM274.29,273.71l.43-.15c.51-.31,1.85-3,1.64-3.48-.13-.33-.64-.79-.88-.74a3,3,0,0,0-2.06,3.23C273.53,273,274,273.37,274.29,273.71ZM161,38.13a4.59,4.59,0,0,0-1.23,0c-.88.26-1.71.66-2.59.9-.6.17-1.31,0-1.7.71-.13.25-.54.63-.5.68.37.42.64,0,1-.12a10.64,10.64,0,0,1,1.65-.2c1.5-.31,3.1-.35,4.37-1.38a2.89,2.89,0,0,0,.35-.35c-.12-.08-.24-.23-.37-.25C161.68,38.11,161.35,38.13,161,38.13Zm94.16,29.46c.29-.29.55-.78.87-.83,1.47-.21,1.37-1.82,2.31-2.5.13-.09,0-.79-.23-1.07s-.68-.18-.92,0c-1.54.94-1.76,2.65-2.3,4.16C254.89,67.36,255.09,67.49,255.18,67.59ZM177.07,93.07c-.3.12-.57.16-.57.23,0,.38-.18.89,0,1.15a32,32,0,0,0,2.28,2.8c.18.21.55.26.83.38.09-.37.38-.88.24-1.1-.66-1-1.43-1.91-2.18-2.85A7,7,0,0,0,177.07,93.07Zm-.18,314.56c0-.9-.37-1.3-1.13-1a6,6,0,0,0-1.58,1,1,1,0,0,0-.05,1.52,1.17,1.17,0,0,0,1.29.48A2.43,2.43,0,0,0,176.89,407.63Z"/>
          <path d="M218.71,238.73c.47.12.85,1.15.75,1.61a6.1,6.1,0,0,1-1.77,2.77c-1,1.06-1.9,2.21-2.84,3.31s-1.84,2-2.71,3.09a88.71,88.71,0,0,1-6.31,6.41c-.2.2-.6.19-.83.37s-.64.59-1.12.11-.78-1.11-.27-1.71a14.23,14.23,0,0,1,2.3-2.29,26.07,26.07,0,0,0,6.32-6.34,8,8,0,0,1,1.23-1.24,17.73,17.73,0,0,0,3-3.76,15.06,15.06,0,0,1,2-2.18A1.1,1.1,0,0,1,218.71,238.73Z"/>
          <path d="M216.57,218.37a8.47,8.47,0,0,1-.73,2c-1.11,1.55-2.32,3-3.49,4.54-.59.75-1.23,1.47-1.75,2.26-1.31,2-3.21,3.48-4.73,5.28a12.77,12.77,0,0,1-2.37,2.66c-1,.67-1.39,1.89-2.4,2.53a5.72,5.72,0,0,1-1,.41c0-.45-.2-1,0-1.32a21.16,21.16,0,0,1,2.09-2.63c.72-.8,1.54-1.51,2.28-2.3,2-2.15,4.06-4.27,6-6.5a32.29,32.29,0,0,0,3.47-5.28,3.47,3.47,0,0,1,2-1.62A3,3,0,0,1,216.57,218.37Z"/>
          <path d="M210.86,208.34a3.17,3.17,0,0,0-.28.36,9.26,9.26,0,0,1-.9,1.37c-2.8,3-5.65,6-8.46,9-1.16,1.24-2.24,2.56-3.37,3.84a.46.46,0,0,1-.33.08c-.07-.13-.17-.38-.12-.43,1.11-1.16,1.47-2.79,2.68-3.91,2.08-1.92,4.06-4,6-6,1.24-1.29,2.36-2.68,3.55-4a2.15,2.15,0,0,1,.79-.49C210.54,208.11,210.71,208.27,210.86,208.34Z"/>
          <path d="M215.44,187.52a1.91,1.91,0,0,1-.29.59c-2.13,1.89-3.78,4.29-6.27,5.82-.86.54-1.37,1.59-2.44,1.9a4.51,4.51,0,0,1-.53.08c.05-.23,0-.54.14-.66,2.13-1.89,3.78-4.29,6.26-5.84a16.7,16.7,0,0,0,2.31-2.23.52.52,0,0,1,.46,0C215.21,187.19,215.29,187.36,215.44,187.52Z"/>
          <path d="M180.05,336.71c-.25.26-.46.49-.69.7-1.7,1.52-3,3.45-5.07,4.6a5.47,5.47,0,0,0-1.06,1,41.21,41.21,0,0,1-3.2,3.14c-1.11.89-1.93,2-2.95,3-.16.15-.61.26-.66.19-.22-.29-.51-.69-.46-1a2.77,2.77,0,0,1,.67-1.2c1-1.19,2-2.34,3-3.5.67-.79,1.34-1.61,2-2.39a22.5,22.5,0,0,1,7.2-5.36c.41-.21.52-.12.72.12Z"/>
          <path d="M177.49,324.38a3.56,3.56,0,0,1-.58,1c-2.38,2.13-4.23,4.83-7,6.55a10.18,10.18,0,0,0-1.24,1.22c-1.45,1.3-2.91,2.6-4.39,3.87a.51.51,0,0,1-.86-.53,2.13,2.13,0,0,1,.48-1,36.49,36.49,0,0,1,4.22-3.67,14.08,14.08,0,0,0,3.35-3.32,39.59,39.59,0,0,1,4.55-4.61c.23-.21.76-.16,1.15-.13C177.27,323.69,177.35,324.07,177.49,324.38Z"/>
          <path d="M260.42,146.45a2.3,2.3,0,0,1-.15.54,2.38,2.38,0,0,1-.52.53,12.25,12.25,0,0,1-4.62,2.56c-.53.12,1.64-2.27,3.76-3.44a4.19,4.19,0,0,1,1-.48C260.06,146.12,260.27,146.35,260.42,146.45Z"/>
          <path d="M217.62,156.56a10.43,10.43,0,0,1-1.69,2.23,69.39,69.39,0,0,0-8.05,7.07c-1.14,1.14-2.42,2.14-3.67,3.17-.13.11-.43,0-.66,0,.07-.17.15-.35.21-.53a6.1,6.1,0,0,1,2.69-3.07,23,23,0,0,0,2.91-2.55c2-2,4-4,6-6,.39-.39.71-1,1.42-.77A5,5,0,0,1,217.62,156.56Z"/>
        </g>
      </g>
    </g>
  </g>
</svg>
