<svg xmlns="http://www.w3.org/2000/svg" xmlns:xlink="http://www.w3.org/1999/xlink" viewBox="0 0 50.4 50.25">
  <defs>
    <style>
      .cls-1 {
        fill: none;
      }

      .cls-2 {
        clip-path: url(#clip-path);
      }

      .cls-3 {
        clip-path: url(#clip-path-2);
      }

      .cls-4 {
        clip-path: url(#clip-path-4);
      }

      .cls-5 {
        fill: #151a18;
      }

      .cls-6 {
        clip-path: url(#clip-path-5);
      }

      .cls-7 {
        clip-path: url(#clip-path-9);
      }

      .cls-8 {
        clip-path: url(#clip-path-13);
      }

      .cls-9 {
        clip-path: url(#clip-path-17);
      }

      .cls-10 {
        clip-path: url(#clip-path-21);
      }

      .cls-11 {
        clip-path: url(#clip-path-25);
      }

      .cls-12 {
        clip-path: url(#clip-path-29);
      }

      .cls-13 {
        clip-path: url(#clip-path-33);
      }

      .cls-14 {
        clip-path: url(#clip-path-37);
      }

      .cls-15 {
        clip-path: url(#clip-path-41);
      }

      .cls-16 {
        clip-path: url(#clip-path-45);
      }

      .cls-17 {
        clip-path: url(#clip-path-49);
      }

      .cls-18 {
        clip-path: url(#clip-path-53);
      }

      .cls-19 {
        clip-path: url(#clip-path-57);
      }

      .cls-20 {
        clip-path: url(#clip-path-61);
      }

      .cls-21 {
        clip-path: url(#clip-path-65);
      }

      .cls-22 {
        clip-path: url(#clip-path-69);
      }

      .cls-23 {
        clip-path: url(#clip-path-73);
      }

      .cls-24 {
        clip-path: url(#clip-path-77);
      }

      .cls-25 {
        clip-path: url(#clip-path-81);
      }

      .cls-26 {
        clip-path: url(#clip-path-85);
      }

      .cls-27 {
        clip-path: url(#clip-path-89);
      }

      .cls-28 {
        clip-path: url(#clip-path-93);
      }
    </style>
    <clipPath id="clip-path" transform="translate(-2.85 -8.46)">
      <rect class="cls-1" x="2.55" y="8.39" width="50.27" height="50.82"/>
    </clipPath>
    <clipPath id="clip-path-2" transform="translate(-2.85 -8.46)">
      <rect class="cls-1" x="2.51" y="17.84" width="63.4" height="36.46" transform="translate(-15.38 39.62) rotate(-50.61)"/>
    </clipPath>
    <clipPath id="clip-path-4" transform="translate(-2.85 -8.46)">
      <rect class="cls-1" x="2.53" y="17.88" width="63.32" height="36.45" transform="translate(-15.41 39.61) rotate(-50.61)"/>
    </clipPath>
    <clipPath id="clip-path-5" transform="translate(-2.85 -8.46)">
      <rect class="cls-1" x="52.82" y="18.34" width="0.55" height="0.55"/>
    </clipPath>
    <clipPath id="clip-path-9" transform="translate(-2.85 -8.46)">
      <rect class="cls-1" x="31.27" y="18.34" width="11.6" height="3.32"/>
    </clipPath>
    <clipPath id="clip-path-13" transform="translate(-2.85 -8.46)">
      <rect class="cls-1" x="43.43" y="17.79" width="1.66" height="1.1"/>
    </clipPath>
    <clipPath id="clip-path-17" transform="translate(-2.85 -8.46)">
      <rect class="cls-1" x="4.76" y="44.31" width="8.84" height="1.1"/>
    </clipPath>
    <clipPath id="clip-path-21" transform="translate(-2.85 -8.46)">
      <rect class="cls-1" x="13.59" y="44.3" width="1.66" height="0.55"/>
    </clipPath>
    <clipPath id="clip-path-25" transform="translate(-2.85 -8.46)">
      <rect class="cls-1" x="33.48" y="30.5" width="1.66" height="1.1"/>
    </clipPath>
    <clipPath id="clip-path-29" transform="translate(-2.85 -8.46)">
      <rect class="cls-1" x="16.36" y="48.17" width="3.87" height="3.87"/>
    </clipPath>
    <clipPath id="clip-path-33" transform="translate(-2.85 -8.46)">
      <rect class="cls-1" x="8.62" y="52.59" width="2.76" height="1.66"/>
    </clipPath>
    <clipPath id="clip-path-37" transform="translate(-2.85 -8.46)">
      <rect class="cls-1" x="24.64" y="38.78" width="4.97" height="1.66"/>
    </clipPath>
    <clipPath id="clip-path-41" transform="translate(-2.85 -8.46)">
      <rect class="cls-1" x="26.85" y="39.89" width="2.21" height="1.1"/>
    </clipPath>
    <clipPath id="clip-path-45" transform="translate(-2.85 -8.46)">
      <rect class="cls-1" x="38.45" y="23.86" width="7.18" height="3.87"/>
    </clipPath>
    <clipPath id="clip-path-49" transform="translate(-2.85 -8.46)">
      <rect class="cls-1" x="35.14" y="28.84" width="0.55" height="1.1"/>
    </clipPath>
    <clipPath id="clip-path-53" transform="translate(-2.85 -8.46)">
      <rect class="cls-1" x="24.64" y="56.46" width="3.87" height="1.66"/>
    </clipPath>
    <clipPath id="clip-path-57" transform="translate(-2.85 -8.46)">
      <rect class="cls-1" x="25.2" y="56.46" width="1.66" height="1.1"/>
    </clipPath>
    <clipPath id="clip-path-61" transform="translate(-2.85 -8.46)">
      <rect class="cls-1" x="37.91" y="51.48" width="1.1" height="5.52"/>
    </clipPath>
    <clipPath id="clip-path-65" transform="translate(-2.85 -8.46)">
      <rect class="cls-1" x="37.9" y="50.38" width="0.55" height="0.55"/>
    </clipPath>
    <clipPath id="clip-path-69" transform="translate(-2.85 -8.46)">
      <rect class="cls-1" x="18.57" y="53.69" width="3.87" height="1.66"/>
    </clipPath>
    <clipPath id="clip-path-73" transform="translate(-2.85 -8.46)">
      <rect class="cls-1" x="18.57" y="53.7" width="2.76" height="1.1"/>
    </clipPath>
    <clipPath id="clip-path-77" transform="translate(-2.85 -8.46)">
      <rect class="cls-1" x="50.61" y="33.81" width="1.1" height="1.1"/>
    </clipPath>
    <clipPath id="clip-path-81" transform="translate(-2.85 -8.46)">
      <rect class="cls-1" x="48.96" y="28.29" width="1.1" height="1.1"/>
    </clipPath>
    <clipPath id="clip-path-85" transform="translate(-2.85 -8.46)">
      <rect class="cls-1" x="51.16" y="34.36" width="0.55" height="1.1"/>
    </clipPath>
    <clipPath id="clip-path-89" transform="translate(-2.85 -8.46)">
      <rect class="cls-1" x="51.16" y="34.91" width="0.55" height="0.55"/>
    </clipPath>
    <clipPath id="clip-path-93" transform="translate(-2.85 -8.46)">
      <rect class="cls-1" x="50.61" y="36.57" width="0.55" height="0.55"/>
    </clipPath>
  </defs>
  <title>LetsTalk-4</title>
  <g id="Layer_2" data-name="Layer 2">
    <g id="Layer_1-2" data-name="Layer 1">
      <g id="Group_657" data-name="Group 657">
        <g class="cls-2">
          <g id="Group_564" data-name="Group 564">
            <g class="cls-3">
              <g id="Group_563" data-name="Group 563">
                <g class="cls-3">
                  <g id="Group_562" data-name="Group 562">
                    <g class="cls-4">
                      <g id="Group_561" data-name="Group 561">
                        <path id="Path_567" data-name="Path 567" class="cls-5" d="M36.56,40.85l-.07,0-.55.47a1.37,1.37,0,0,0-.22.2,11.06,11.06,0,0,1-.95.85,2.8,2.8,0,0,0-.31.28c-.2.23-.44.4-.66.61s-.42.38-.64.56l-.49.41-.16.13c-.29.3-.6.57-.89.86a1.09,1.09,0,0,0-.13.17.74.74,0,0,1-.16.19l-.21.21a6.12,6.12,0,0,1-.45.56.39.39,0,0,0-.08.1,4.2,4.2,0,0,1-.33.49c-.37.54-.73,1.08-1.06,1.65-.12.21-.25.41-.36.62s-.22.46-.33.7a.45.45,0,0,0,0,.16.14.14,0,0,0,.06.15l.07,0a1.92,1.92,0,0,1,.87.72l.23.31a4.43,4.43,0,0,1,.66,1.47,3.75,3.75,0,0,1,0,1.94l-.06.2a1.36,1.36,0,0,1-.16.48c-.13.24-.24.48-.35.73a2.21,2.21,0,0,1-.23.36,5.16,5.16,0,0,1-.63.69c-.2.17-.38.38-.59.55a5,5,0,0,1-.92.6l-.42.21a1.82,1.82,0,0,1-.83.17,11,11,0,0,1-1.14-.13.42.42,0,0,1-.16,0,3.84,3.84,0,0,1-1.17-.69,2.84,2.84,0,0,1-.37-.47,6.34,6.34,0,0,1-.37-.62,2.71,2.71,0,0,1-.27-1.28v-.3s-.07-.07-.1-.06c-.29.15-.62.21-.92.34a4.64,4.64,0,0,1-1.15.3.76.76,0,0,1-.26,0q-.36,0-.72,0a.76.76,0,0,1-.21,0,5.18,5.18,0,0,0-.66-.14.68.68,0,0,1-.31-.14,4.1,4.1,0,0,1-.75-.69l-.13-.12a1.54,1.54,0,0,1-.35-.52,1,1,0,0,1-.09-.33,3,3,0,0,1,0-.89,1.55,1.55,0,0,0,0-.21.13.13,0,0,0,0-.07h0c-.38.22-.78.41-1.17.59l-.58.28a3.32,3.32,0,0,1-.59.24.94.94,0,0,0-.23.1,7.49,7.49,0,0,1-1.11.43c-.37.11-.73.23-1.1.36a2.4,2.4,0,0,1-.53.12,3.81,3.81,0,0,0-.47.07,5.52,5.52,0,0,1-.71.1c-.44,0-.88.08-1.32.1s-.73,0-1.1,0a2.72,2.72,0,0,1-.8-.12l-.23-.11A.29.29,0,0,1,7,54.47a.82.82,0,0,1,.09-.19,1.69,1.69,0,0,1,.31-.35c.33-.26.68-.51,1-.74s.6-.38.9-.55.33-.22.5-.33c.46-.28.92-.56,1.37-.85.1-.07.2-.12.29-.19.27-.22.57-.41.85-.63s.62-.5.9-.77A14,14,0,0,1,15,48.42l.75-.49.23-.11.54-.25a.16.16,0,0,0,0-.07s0-.07-.09-.07a21.06,21.06,0,0,1-2.24-.27c-.49-.08-1-.16-1.46-.28-.24-.05-.47-.09-.71-.16l-.42-.06a17.45,17.45,0,0,1-1.76-.29,8.42,8.42,0,0,0-1.74-.18,2.19,2.19,0,0,1-.51,0c-.25,0-.51,0-.76,0a4.4,4.4,0,0,0-.89,0,5.2,5.2,0,0,1-.68,0c-.33,0-.66,0-1,0a4.44,4.44,0,0,1-1-.12A.68.68,0,0,1,3,45.92a.29.29,0,0,1-.11-.4l0-.05a.7.7,0,0,1,.21-.21,6.46,6.46,0,0,1,1.29-.64,7.77,7.77,0,0,1,1.1-.32l.78-.19c.61-.14,1.22-.29,1.84-.37l.21,0a9.15,9.15,0,0,1,.91-.18l.17,0c.43-.12.86-.19,1.29-.27l1-.13c.44-.06.88-.11,1.31-.18s.93-.13,1.4-.15h.21a9.67,9.67,0,0,1,1.7,0h.13a5.84,5.84,0,0,1,1.18.13l.21.06.7.19a13.68,13.68,0,0,1,1.54.47,2.18,2.18,0,0,1,.47.21,5.17,5.17,0,0,1,.84.5c.14.11.32.18.47.28a4.53,4.53,0,0,0,.46.3c.15.06.28.14.42.21l.53.28a4.79,4.79,0,0,0,.91.36,1,1,0,0,0,.42,0l.4-.13.8-.29,1.1-.36c.63-.2,1.27-.4,1.89-.64.36-.14.7-.3,1.06-.45a2.17,2.17,0,0,1,.35-.15,3.42,3.42,0,0,0,.62-.27,2.36,2.36,0,0,1,.28-.12l.27-.11c.4-.19.8-.37,1.19-.57s.57-.32.85-.48a3.29,3.29,0,0,0,.52-.29,3.77,3.77,0,0,1,.48-.28,8.11,8.11,0,0,0,1-.7c.21-.19.45-.35.67-.52l.67-.52.2-.17a2.45,2.45,0,0,1,.55-.46,3.63,3.63,0,0,0,.83-.78,5.57,5.57,0,0,1,.52-.57,2.37,2.37,0,0,0,.35-.42c.16-.25.35-.49.53-.72a10.64,10.64,0,0,0,.66-1s0-.06,0-.06,0,0,0,0a.13.13,0,0,0-.07,0l-.67.59a10.09,10.09,0,0,1-1.28,1,9.49,9.49,0,0,1-1.54.83c-.36.15-.72.32-1.08.48a1.83,1.83,0,0,1-.45.15l-.49.15a5.84,5.84,0,0,1-1.24.27h0a6.74,6.74,0,0,1-.88.15.2.2,0,0,0-.17.12l0,.12-.33.69a1,1,0,0,1-.16.2c-.2.17-.41.35-.63.51a3.57,3.57,0,0,1-.74.41,5.25,5.25,0,0,1-2,.4,7.32,7.32,0,0,1-.81,0,2.84,2.84,0,0,1-.9-.27,3.18,3.18,0,0,0-.67-.25,1.93,1.93,0,0,1-.52-.2,4.3,4.3,0,0,1-.8-.47,3.68,3.68,0,0,1-.4-.39.64.64,0,0,0-.1-.13,2.3,2.3,0,0,1-.51-.83,1.09,1.09,0,0,0-.08-.15,2,2,0,0,1,0-1.77,2.73,2.73,0,0,1,.26-.43,6,6,0,0,1,.85-.89,2.29,2.29,0,0,1,.64-.42l.9-.4.2-.06c.41-.06.81-.14,1.22-.17A4.18,4.18,0,0,1,28.8,35a5.56,5.56,0,0,1,.7.19,4.45,4.45,0,0,1,.54.25c.19.1.37.22.56.31a6.09,6.09,0,0,1,.95.72,2,2,0,0,1,.33.44c.13.25.25.51.39.76a1.2,1.2,0,0,1,.14.49,4.77,4.77,0,0,1,.07.76.11.11,0,0,0,.11.11,1.53,1.53,0,0,0,.3,0c.37-.09.75-.16,1.12-.28s.84-.23,1.26-.37a14.73,14.73,0,0,0,1.94-.76,6.47,6.47,0,0,0,.91-.55c.27-.18.53-.38.8-.57l.4-.32c.16-.15.35-.29.52-.44a6.59,6.59,0,0,0,.85-.82,2.83,2.83,0,0,1,.24-.25.92.92,0,0,0,.22-.26,3.28,3.28,0,0,1,.27-.38,3.52,3.52,0,0,0,.3-.45,7.74,7.74,0,0,1,.52-.83c.11-.15.19-.32.29-.47l.7-1.31v0h0a1.5,1.5,0,0,0-.44.26,15.75,15.75,0,0,1-1.4.89l-.29.18a5.42,5.42,0,0,1-1.08.6c-.2.08-.42.15-.64.22l-.48.17a3.78,3.78,0,0,1-1,.2l-.34,0a1.59,1.59,0,0,1-.38,0A7.23,7.23,0,0,1,36,33.32l-.38-.07-1-.15-.17,0c-.45-.17-.93-.23-1.4-.39l-.69-.21-.16-.05-.46-.11a1.21,1.21,0,0,0-.46.05,7.63,7.63,0,0,0-1.25.23l-.18,0c-.53.26-1.09.4-1.63.64-.21.08-.42.14-.64.2a.56.56,0,0,1-.34,0,.37.37,0,0,1-.24-.16A.29.29,0,0,1,26.9,33a1.34,1.34,0,0,1,.18-.28c.19-.24.39-.46.58-.69l.12-.12a3.88,3.88,0,0,0,.55-.52c0-.05,0-.09,0-.11l-1-.35-.89-.29-.29-.07c-.52-.12-1.05-.22-1.58-.35l-1.15-.3a.81.81,0,0,0-.38,0l-.3,0-1.1.3a.72.72,0,0,0-.2.09l-1.13.58-.2.09a1.35,1.35,0,0,0-.42.2,3.19,3.19,0,0,1-.64.32l-.85.3c-.24.08-.48.17-.73.23a7.8,7.8,0,0,1-1,.13,1.5,1.5,0,0,1-.63-.08.19.19,0,0,1-.1-.17.77.77,0,0,1,.17-.38,2.85,2.85,0,0,1,.23-.26,7.25,7.25,0,0,1,1.26-.94l.66-.38a3.2,3.2,0,0,1,1.14-.45l.42-.08.13,0c.32,0,.65-.07,1,0a1.66,1.66,0,0,0,.54-.06,9.24,9.24,0,0,0,1.84-.68l.88-.42.75-.3.24-.07.58-.16c.28-.09.58-.13.87-.2a1.53,1.53,0,0,1,.3,0,6.61,6.61,0,0,1,.89,0l.59.06.3.05,2,.46c.18,0,.35.1.53.15a5.29,5.29,0,0,0,.54.13.29.29,0,0,0,.16,0l.4-.25c.2-.13.39-.28.59-.42l.11-.06a1.46,1.46,0,0,0,.52-.28.43.43,0,0,1,.12-.05,3.2,3.2,0,0,0,.72-.35l.31-.14a.66.66,0,0,0,.19-.09,2,2,0,0,1,.45-.24l.77-.36a5.08,5.08,0,0,1,.92-.34.52.52,0,0,0,.16-.06c.49-.21,1-.38,1.5-.6a.44.44,0,0,1,.16-.06c.22,0,.44-.11.65-.18a5.47,5.47,0,0,1,.58-.15,5.36,5.36,0,0,0,.54-.14,3.12,3.12,0,0,1,.91-.17,4.08,4.08,0,0,0,.59-.11,5.07,5.07,0,0,1,.54-.09,2.07,2.07,0,0,0,.42-.08c.26-.07.53-.1.78-.19s.52-.15.78-.23a5,5,0,0,0,.86-.35c.19-.1.39-.18.58-.27a4.3,4.3,0,0,0,1-.6l.51-.38.44-.34a.36.36,0,0,0,.07-.1,3.73,3.73,0,0,0,.16-.35,23.76,23.76,0,0,0,.81-2.33,2.25,2.25,0,0,1,.08-.24,10.19,10.19,0,0,0,.35-1.23c0-.11.06-.22.09-.33s.05-.19.07-.28l.21-1.14,0,0-.07,0a2.15,2.15,0,0,0-.18.24l-.41.7a2.61,2.61,0,0,1-.19.27,3,3,0,0,0-.29.43,1.24,1.24,0,0,1-.29.36,2.57,2.57,0,0,0-.33.33,5.93,5.93,0,0,1-.69.63c-.34.29-.73.53-1.09.81a11.84,11.84,0,0,1-2.25,1.2c-.37.14-.75.25-1.13.36s-.69.17-1,.24c-.15,0-.3.06-.46.09-.43.09-.87.13-1.3.22l-.5.08-.72.09c-.22,0-.45.05-.68.06a10.92,10.92,0,0,0-1.14.08,5.49,5.49,0,0,1-.81,0l-.6,0L34,22.09l-.38,0a8.56,8.56,0,0,0-1.88.36c-.3.08-.6.15-.91.21a3.43,3.43,0,0,1-1.06,0,.47.47,0,0,1-.17,0,.14.14,0,0,1-.1-.1.15.15,0,0,1,0-.14,3.39,3.39,0,0,1,.57-.63,5.15,5.15,0,0,1,.5-.4l.73-.58a9,9,0,0,1,.85-.64,16.9,16.9,0,0,1,1.61-1L34,19c.54-.33,1.09-.61,1.65-.9a9.79,9.79,0,0,1,1.3-.52l.72-.26.69-.22.53-.16c.31-.1.63-.16,1-.23s.78-.14,1.17-.21l.17,0c.52,0,1,0,1.58-.06h.12a1.28,1.28,0,0,0,.55,0c.59-.12,1.19-.14,1.77-.23l.42-.08a4,4,0,0,1,.83-.17,1.36,1.36,0,0,0,.29-.06c.11,0,.22-.06.33-.09l.13,0c.28-.13.58-.22.86-.35l.66-.31a8.68,8.68,0,0,0,.84-.48l.17-.14a.29.29,0,0,0,.1-.18,6.78,6.78,0,0,0,.11-1,2.28,2.28,0,0,1,0-.26c.05-.5.08-1,.08-1.52,0-.1,0-.2,0-.3,0-.57,0-1.14.07-1.7a6,6,0,0,0,0-.73V8.59a.2.2,0,0,1,.2-.13.51.51,0,0,1,.3.22.11.11,0,0,1,0,.08v.12a11.64,11.64,0,0,0,0,1.32,7.27,7.27,0,0,1-.07,1.14c-.09.62-.14,1.24-.17,1.87a9.11,9.11,0,0,1-.19,1.56c-.1.49-.17,1-.24,1.47s-.17.89-.28,1.33-.28.9-.43,1.34-.3.92-.46,1.37-.37,1.07-.6,1.59c-.17.36-.3.74-.48,1.09a.24.24,0,0,0,0,.28c.08.1.15.21.23.3.21.25.43.49.65.74l.16.19a1.07,1.07,0,0,0,.14.16,11.28,11.28,0,0,1,.8.89l0,0a4.13,4.13,0,0,0,.41.59c.14.18.27.37.39.56a2.14,2.14,0,0,1,.17.3l.53,1.2a1.23,1.23,0,0,1,.12.37.66.66,0,0,0,.06.2,3.46,3.46,0,0,1,.19.7c0,.22.11.44.16.66a1,1,0,0,1,0,.17c0,.26.1.53.14.8,0,.1,0,.2,0,.3a3,3,0,0,0,0,.67.76.76,0,0,1,0,.3,3.66,3.66,0,0,0,0,.81,1.6,1.6,0,0,1,0,.38,5,5,0,0,0,0,.77c0,.16,0,.31,0,.47s0,.5,0,.76,0,.6,0,.89a1.81,1.81,0,0,0,.17.79c.08.21.18.41.27.62a8.41,8.41,0,0,1,.33,1.19,5.9,5.9,0,0,1,0,1.57c-.07.38-.15.75-.25,1.12a9.69,9.69,0,0,1-.59,1.55,2.66,2.66,0,0,1-.55.7.37.37,0,0,1-.36.08.19.19,0,0,1-.14-.09,1.42,1.42,0,0,1-.3-.74,3.21,3.21,0,0,1-.06-.76v-.13a7.82,7.82,0,0,1,0-1.53c0-.32,0-.65.07-1s0-.68.08-1c0-.17,0-.34.05-.51a6.38,6.38,0,0,0,0-1V37c0-.26,0-.51,0-.77a5.43,5.43,0,0,0-.18-1.13,1.09,1.09,0,0,0-.08-.15c-.11-.2-.22-.4-.34-.59L49.83,34a6.67,6.67,0,0,1-.7-1.21l-.45-1,0-.12c-.18-.61-.42-1.2-.61-1.81-.13-.44-.27-.87-.44-1.29a.44.44,0,0,1-.06-.16c-.05-.29-.14-.58-.17-.88s-.07-.47-.1-.71a.74.74,0,0,1,0-.21,5.07,5.07,0,0,0,0-.68,5.38,5.38,0,0,1-.06-1,1.84,1.84,0,0,0,0-.33.07.07,0,0,0,0,0l-.07,0s0,0,0,0a5.13,5.13,0,0,1-.45.91c-.14.27-.26.53-.39.8l-.6,1.22c-.29.59-.62,1.15-.95,1.71,0,.06-.06.13-.1.19a3.59,3.59,0,0,1-.17.34,12.33,12.33,0,0,0-.72,1.4,4.88,4.88,0,0,1-.42.74,2.63,2.63,0,0,0-.3.66.76.76,0,0,0,0,.21,1.43,1.43,0,0,1-.06.5,9.57,9.57,0,0,0-.14,2.07c0,.69.09,1.36.15,2,0,.27,0,.54,0,.81a7.23,7.23,0,0,1,0,.93.29.29,0,0,0,0,.13c0,.52,0,1.05,0,1.57a5.25,5.25,0,0,1-.12,1c0,.27-.1.53-.12.8a7.4,7.4,0,0,1-.22,1,1.66,1.66,0,0,0-.06.21A8.85,8.85,0,0,1,42,45.1c-.11.37-.26.73-.38,1.09s-.3.73-.46,1.1a3.51,3.51,0,0,1-.33.6c-.17.29-.36.57-.56.85a.42.42,0,0,0-.09.14.21.21,0,0,0,0,.24s0,0,0,0a6,6,0,0,1,.44,1.73,6.3,6.3,0,0,1,0,1.44c0,.33,0,.65-.09,1a4.11,4.11,0,0,1-.17.79c0,.12-.07.25-.1.37a8.84,8.84,0,0,1-.78,2.06l0,.12a5.55,5.55,0,0,1-.48.94,2.27,2.27,0,0,1-.39.61l-.15.15a.35.35,0,0,1-.35.09.74.74,0,0,1-.52-.35,1.14,1.14,0,0,1-.1-.19,4.92,4.92,0,0,1-.26-.85c-.08-.36-.11-.73-.2-1.09a2.17,2.17,0,0,1,0-.25c0-.28-.08-.56-.13-.84s-.11-.85-.15-1.27a6.51,6.51,0,0,0-.17-.88s0,0,0,0a.12.12,0,0,0-.08,0l-.73.93-.91,1.13a1.87,1.87,0,0,1-.43.41l-.17.18a4.21,4.21,0,0,1-.65.55.34.34,0,0,1-.36,0l-.11-.07a.37.37,0,0,1-.15-.25c0-.17,0-.34,0-.51A5.1,5.1,0,0,1,33,54l.18-.79a7.59,7.59,0,0,1,.22-.78c.12-.33.19-.68.3-1a7.47,7.47,0,0,1,.39-1.09c.1-.2.16-.42.24-.63.32-.8.69-1.58,1.06-2.36a5.09,5.09,0,0,1,.32-.56.55.55,0,0,0,.07-.28,2.43,2.43,0,0,0,0-.47,3.31,3.31,0,0,1,0-.77c0-.55.09-1.1.1-1.65a1.52,1.52,0,0,1,0-.21c.08-.38.15-.75.23-1.13a.94.94,0,0,1,0-.16l.35-1A.37.37,0,0,0,36.56,40.85Zm5.16-3.8a.42.42,0,0,0-.09.37,1.85,1.85,0,0,0-.17.83l0,0h0c-.14,0-.18,0-.16-.1s.07-.39.11-.58l.09-.42s0-.05,0-.05h0a.34.34,0,0,0-.11.18,2.7,2.7,0,0,1-.37.81,2.65,2.65,0,0,0-.25.54,1.7,1.7,0,0,1-.24.44,2.27,2.27,0,0,0-.3.46,6.16,6.16,0,0,1-.33.55c-.23.36-.45.72-.65,1.09-.06.1-.1.21-.16.3a8.23,8.23,0,0,0-.53,1c-.1.19-.18.38-.29.57a3.39,3.39,0,0,0-.28.75.33.33,0,0,0,0,.17l0,0H38a.18.18,0,0,0,0-.07c.17-.34.38-.66.57-1a.12.12,0,0,1,.06-.06.25.25,0,0,1,.12,0,.09.09,0,0,1,0,.11.16.16,0,0,1,0,.07,5.54,5.54,0,0,0-.68,1.27.32.32,0,0,0,0,.16.29.29,0,0,0,0,.13.72.72,0,0,0,.17.29.09.09,0,0,0,.07,0s0,0,.06,0l.07,0s.09,0,.1.08-.07.15-.1.23a.43.43,0,0,0,0,.25.1.1,0,0,0,.07.08.09.09,0,0,0,.1,0l.07,0a.06.06,0,0,1,.07,0,.09.09,0,0,1,0,.07.75.75,0,0,1,0,.16.46.46,0,0,0,0,.41c.05.13.1.27.16.4a.23.23,0,0,0,.07.1H39a.44.44,0,0,0,.17-.23l.24-.64a4.88,4.88,0,0,1,.23-.64,2.41,2.41,0,0,1,.29-.66,2.07,2.07,0,0,0,.18-.47c0-.12.06-.25.1-.37s0,0,.07,0a.08.08,0,0,1,.08.07h0v0a6,6,0,0,1-.3.84A6.46,6.46,0,0,0,39.57,46a1.19,1.19,0,0,1-.08.2c-.1.23-.21.46-.31.7a.27.27,0,0,0,.06.32.08.08,0,0,0,.11,0h0l.08-.1a4,4,0,0,0,.38-.85,1.19,1.19,0,0,1,.08-.2A.11.11,0,0,1,40,46a.1.1,0,0,1,.06,0,.12.12,0,0,1,0,.08,6.69,6.69,0,0,1-.27.67c-.11.22-.2.44-.29.67a.23.23,0,0,0,0,.2.11.11,0,0,0,.12.09l0,0,.06-.06a.11.11,0,0,1,.11,0s0,.06,0,.11l-.09.28s0,.06,0,.07h.08a.12.12,0,0,0,.06-.06,7,7,0,0,0,.47-.85s0,0,0,0h0s.09.07.08.09a1.75,1.75,0,0,1-.12.32c-.15.27-.31.54-.49.8a.15.15,0,0,0,0,.16.1.1,0,0,0,.13.05h0a1.48,1.48,0,0,0,.29-.36c0-.09.1-.18.14-.26a5.58,5.58,0,0,1,.35-.58A9.24,9.24,0,0,0,41.47,46c0-.07.05-.13.07-.2l.3-.84c.08-.22.14-.43.2-.65s.11-.44.16-.67.15-.63.2-1,.11-.64.16-1,.08-.47.11-.71,0-.23,0-.34a.62.62,0,0,1,0-.13c.05-.49,0-1,.05-1.48a1.58,1.58,0,0,0,0-.38,1.94,1.94,0,0,1,0-.34,2.26,2.26,0,0,0,0-.26c0-.5-.09-1-.14-1.52,0-.19,0-.37-.07-.55l0-.06s-.07,0-.07.09a1.48,1.48,0,0,0,0,.21c0,.31.07.62.1.93,0,.13,0,.26,0,.38s0,.37,0,.56,0,.37,0,.55,0,.37,0,.55c0,0,0,0,0,0a0,0,0,0,1,0,0,1.32,1.32,0,0,1,0-.34c0-.37,0-.74,0-1.1,0-.14,0-.28,0-.43s0-.45-.05-.68a.53.53,0,0,0,0-.12s0-.05-.06,0l0,0c-.05.26-.11.53-.16.79s-.09.53-.15.8-.11.67-.16,1-.16.86-.25,1.29a4.66,4.66,0,0,1-.16.49c0,.12-.07.24-.11.36l-.27,1.08a1.57,1.57,0,0,1-.18.42.08.08,0,0,1-.07,0s0,0,0,0a.74.74,0,0,1,0-.21c.09-.34.21-.68.3-1s.2-.74.3-1.1a2.21,2.21,0,0,0,0-.25c.06-.25.1-.5.17-.75a5.69,5.69,0,0,0,.12-1,.36.36,0,0,0,0-.11.46.46,0,0,0,.13-.21c0-.18,0-.36.07-.55a.34.34,0,0,0,0-.11.27.27,0,0,0,.08-.1.22.22,0,0,0,0-.27l0-.06s0,0,0,0,0,0,0,0S41.71,37,41.72,37.05ZM51,36.87h0a1.13,1.13,0,0,0-.08-.24s0,0-.06,0l0,0a.34.34,0,0,0,0,.2,2.44,2.44,0,0,1,0,.38c0,.16,0,.31,0,.47a3.21,3.21,0,0,1-.06.76,1,1,0,0,0,0,.17,8.68,8.68,0,0,0-.06,1,.88.88,0,0,1,0,.17c0,.38-.09.76-.09,1.15a12.34,12.34,0,0,0,0,1.36c0,.3,0,.59.08.89a1.29,1.29,0,0,0,.06.25,1.05,1.05,0,0,0,.15.3.2.2,0,0,0,.23,0,1.07,1.07,0,0,0,.31-.29,4.6,4.6,0,0,0,.44-.82c.08-.23.17-.45.27-.67a1,1,0,0,0,0-.16c.07-.33.13-.67.22-1a3.34,3.34,0,0,0,.11-.84,4.26,4.26,0,0,0-.07-1c0-.2-.1-.39-.13-.58a.2.2,0,0,0,0-.08.15.15,0,0,0-.06,0,0,0,0,0,0-.06,0l0,.21A1.7,1.7,0,0,1,52,39l0,0s0,0,0,0c0-.25,0-.51,0-.76a2.13,2.13,0,0,0-.14-.83c-.08-.2-.17-.39-.26-.59l0,0h0l0,0c0,.3.08.59.12.88a5.76,5.76,0,0,1,.07,1.1,1.61,1.61,0,0,0,0,.38,2.94,2.94,0,0,1,0,.42c0,.1,0,.2,0,.3a6.38,6.38,0,0,1-.1,1,5.55,5.55,0,0,0-.13.71l-.06,0s-.09,0-.09-.07a3,3,0,0,1,.11-.67.85.85,0,0,0,0-.17,1.83,1.83,0,0,1,.07-.46,1.19,1.19,0,0,0,0-.46.74.74,0,0,1,0-.21,1.21,1.21,0,0,0,0-.38v-.3a2.08,2.08,0,0,0,0-.25,4.26,4.26,0,0,0-.08-.8c0-.11,0-.23,0-.34a5.46,5.46,0,0,0-.22-1s0,0,0,0l-.07,0a.1.1,0,0,0,0,.07,1.52,1.52,0,0,0,0,.21.2.2,0,0,1-.06.15Zm.35-1.61h0a.88.88,0,0,1,.19.34,2.17,2.17,0,0,0,.07.24.1.1,0,0,0,.06,0s.06,0,.07-.09v-.17c-.07-.3-.1-.61-.19-.91h0l.08,0a.08.08,0,0,0,.11,0,.06.06,0,0,0,0,0,1.2,1.2,0,0,0,0-.5,3.63,3.63,0,0,0-.25-.81.52.52,0,0,1-.06-.16,1.21,1.21,0,0,0-.11-.32c-.13-.3-.26-.6-.36-.91a3.73,3.73,0,0,0-.16-.35,1.74,1.74,0,0,1-.11-.18L50,30.19s0-.08,0-.12A0,0,0,0,1,50,30l0,0a1.33,1.33,0,0,1,.29.41c.1.16.18.32.26.48.19.37.41.72.57,1.1a10.06,10.06,0,0,1,.44,1.15l0,0a.11.11,0,0,0,.08,0,.07.07,0,0,0,0-.06,2.77,2.77,0,0,0-.1-.5c0-.14-.07-.27-.1-.41a2.91,2.91,0,0,0-.15-.58c-.12-.3-.27-.59-.41-.89-.06-.14-.14-.27-.2-.42a.19.19,0,0,1,0-.08l0,0h0a.13.13,0,0,1,.13.1,3.27,3.27,0,0,0,.28.67c.08.17.15.34.22.5s.17.39.25.59l0,0,0,0a1.5,1.5,0,0,0,0-.47c0-.22-.11-.44-.17-.65s-.06-.16,0-.22,0-.08,0-.12c0-.36-.15-.7-.22-1a2.65,2.65,0,0,0-.21-.78.56.56,0,0,1,0-.12,5,5,0,0,0-.31-.84c-.09-.18-.16-.36-.24-.54a1.4,1.4,0,0,0-.15-.3l-.51-.74c-.13-.19-.27-.37-.4-.55a2.47,2.47,0,0,0-.21-.27c-.19-.19-.34-.41-.55-.59a1.07,1.07,0,0,1-.14-.16l-.23-.25-.23-.25c-.12-.15-.27-.29-.4-.44h0a0,0,0,0,0,0,0s0,0,0,0a.19.19,0,0,0,0,.08c.11.46.21.94.32,1.41a.52.52,0,0,0,.06.16c.14.32.27.65.38,1a4,4,0,0,0,.36.95c0,.11.09.21.13.32a.88.88,0,0,1,0,.17.06.06,0,0,1,0,0s-.06,0-.07,0a2.43,2.43,0,0,0-.36-.72.61.61,0,0,1-.05-.12,7.64,7.64,0,0,1-.29-.8,4.84,4.84,0,0,0-.22-.6,2.7,2.7,0,0,1-.14-.4,9.05,9.05,0,0,1-.24-1,.5.5,0,0,0-.09-.24h0l0,0,0,.08c0,.21,0,.42,0,.64a9.9,9.9,0,0,0,0,1.44c0,.21,0,.42,0,.64a8.71,8.71,0,0,0,.22,1.34c.1.25.16.51.25.77s.19.5.25.76c.16.56.38,1.1.55,1.66a1.2,1.2,0,0,0,.13.31c.1.21.18.42.26.63a3.79,3.79,0,0,0,.26.58c.21.37.42.74.65,1.1s.41.61.6.93.41.71.66,1l.11.12s0,0,.07,0,0,0,0,0a.49.49,0,0,0,0-.17c0-.14-.08-.27-.12-.41v-.16Zm-14.2,7.2a.57.57,0,0,0,0,.26,1.88,1.88,0,0,1,0,.34,7.68,7.68,0,0,0,0,1.27,2.57,2.57,0,0,0,.06.55,5.3,5.3,0,0,1,.1.8,6.59,6.59,0,0,0,.1.88,2.46,2.46,0,0,0,.07.29,6.17,6.17,0,0,1,.24,1.21c.06.4.15.81.23,1.21a2,2,0,0,1,.07.54c-.06,0,0,.06,0,0a.23.23,0,0,1-.07-.1c-.06-.19-.1-.38-.16-.57a5.17,5.17,0,0,1-.25-1.29,2.56,2.56,0,0,0-.13-.67,2.24,2.24,0,0,1-.1-.37c-.09-.46-.15-.92-.2-1.39,0-.28,0-.56-.08-.84a7.3,7.3,0,0,1-.06-1.4,1.93,1.93,0,0,0,0-.34,2.92,2.92,0,0,1,0-.59.36.36,0,0,0-.06-.25l0-.06s0,0,0,0a0,0,0,0,0,0,0V42a.55.55,0,0,0-.07.24c0,.33-.1.65-.16,1a4.37,4.37,0,0,0-.06.72.27.27,0,0,0,0,.12v.08s0,0,0,0H36.5a.21.21,0,0,1,0-.12,1.94,1.94,0,0,1,0-.76c0-.25.06-.5.1-.76s.05-.31.08-.46,0-.14,0-.21a.24.24,0,0,0,0-.12s0,0,0,0-.07,0-.07,0a4.26,4.26,0,0,0-.26.76c0,.14,0,.28-.09.42a3.85,3.85,0,0,0-.14,1,5.46,5.46,0,0,1-.05.8,4.73,4.73,0,0,0,0,1.19,9.28,9.28,0,0,1,.06,1.06.5.5,0,0,0,0,.12c.11.82.25,1.63.35,2.44,0,.13,0,.25.06.38s0,.31.07.46,0,.46.07.68,0,.42.07.64c0,.5.1,1,.16,1.52,0,.21.07.42.09.63.06.51.13,1,.22,1.52s.19,1.14.3,1.72a3.22,3.22,0,0,0,.22.73.74.74,0,0,0,.19.27.39.39,0,0,0,.63-.07.16.16,0,0,0,0-.07,1.73,1.73,0,0,1,.27-.43.87.87,0,0,0,.16-.3.68.68,0,0,1,.07-.2c.17-.25.22-.55.4-.79.16-.42.34-.84.5-1.26s.16-.58.24-.87a9.32,9.32,0,0,0,.25-2c0-.22,0-.43,0-.64,0-.46-.13-.9-.19-1.35a.27.27,0,0,0,0-.12,10.13,10.13,0,0,0-.45-1.15c-.16-.31-.3-.64-.47-.95a7,7,0,0,1-.37-.72,1,1,0,0,0-.12-.23,2.84,2.84,0,0,1-.29-.61c-.09-.24-.18-.48-.29-.71-.18-.4-.35-.8-.5-1.22a10.74,10.74,0,0,1-.38-1.22c0-.18-.06-.36-.1-.54a.18.18,0,0,0-.11-.17l.05-.07s0,0,0,0,0,0,0,0a.22.22,0,0,0,0,.08ZM48.42,16a.14.14,0,0,0,.14-.07s0-.05,0-.06,0,0,0,0l-.11.12a.11.11,0,0,0-.11,0,2.87,2.87,0,0,1-.48.28H47.7l0,0a0,0,0,0,1,0,0,1.16,1.16,0,0,1,.44-.32,5.39,5.39,0,0,0,.5-.33.6.6,0,0,0,.16-.19c.14,0,.15,0,.1,0l-.06,0s0,0,0,0h-.13l-.51.22a9.22,9.22,0,0,1-1.27.48,1.41,1.41,0,0,1-.41.07,2.13,2.13,0,0,0-.79.15,1.23,1.23,0,0,1-.46.07,1,1,0,0,0-.25,0,4.43,4.43,0,0,1-.89.12,3.42,3.42,0,0,0-.63.09.77.77,0,0,1-.3,0c-.48,0-1,0-1.45,0a8.27,8.27,0,0,0-1.22.13l-.13,0c-.34,0-.67.12-1,.19s-.64.22-1,.27c-.51.18-1,.34-1.53.53-.26.1-.52.22-.79.3l-.19.08-1.2.65c-.27.14-.52.3-.78.44a7.92,7.92,0,0,0-.69.42c-.33.22-.66.44-1,.67s-.46.33-.68.51a7.25,7.25,0,0,1-.77.6,4.6,4.6,0,0,0-.71.6,2.85,2.85,0,0,0-.23.26s0,0,0,0,0,.09.05.1a2.36,2.36,0,0,0,.46,0,1.94,1.94,0,0,0,.76-.09l.16,0c.42-.1.83-.19,1.24-.32L32.8,22a4.46,4.46,0,0,0,.51-.07,1.93,1.93,0,0,1,.42-.05l.25,0a2.89,2.89,0,0,1,.29,0c.43,0,.85-.07,1.27-.13a2,2,0,0,1,.43,0c.44,0,.87,0,1.31-.05l.21,0a2.49,2.49,0,0,1,.47,0,1.06,1.06,0,0,0,.25,0l1.27-.13.34-.06c.23-.05.47-.11.71-.14A12.87,12.87,0,0,0,41.91,21c.23,0,.47-.1.7-.16s.68-.22,1-.34a7.06,7.06,0,0,0,.71-.29,6.36,6.36,0,0,0,.64-.32,9.37,9.37,0,0,0,1.09-.67c.37-.25.71-.55,1.08-.82a2.4,2.4,0,0,0,.4-.38,2.13,2.13,0,0,1,.34-.33,1.44,1.44,0,0,0,.4-.51,1.86,1.86,0,0,0-.25.14l-.19.16a2,2,0,0,1-.71.45s0,0,0,0v0a.92.92,0,0,1,.25-.23,4.87,4.87,0,0,0,.78-.66c.27-.27.51-.57.75-.86a.67.67,0,0,0,.11-.18s0,0,0,0,0,0,0,0L48.8,16c-.13.11-.26.23-.39.33l-.44.26a1.07,1.07,0,0,0-.16.14l-.21.14-.73.44a7.76,7.76,0,0,1-1.31.6L45.2,18s0,0,0,0,0-.06,0-.07a1.07,1.07,0,0,1,.41-.21,4.59,4.59,0,0,0,1.21-.61l.26-.14c.22-.14.44-.26.64-.41a2.83,2.83,0,0,1,.45-.32A1.18,1.18,0,0,0,48.42,16ZM22.09,45a2.87,2.87,0,0,0-.43-.28,3,3,0,0,1-.52-.3,6,6,0,0,0-.53-.34,4.55,4.55,0,0,0-1.1-.45l-.24-.08c-.36-.11-.7-.22-1.07-.3a5.36,5.36,0,0,1-.54-.14,2.78,2.78,0,0,0-.5-.11,12.22,12.22,0,0,0-1.48-.07H15c-.54,0-1.07.08-1.61.15-.24,0-.48.06-.71.11l-.17,0a16.73,16.73,0,0,0-1.73.24c-.57.11-1.14.21-1.71.34-.37.08-.75.16-1.13.22a14.32,14.32,0,0,0-1.7.37l-.2,0A8.73,8.73,0,0,0,5,44.66l-.4.14a8,8,0,0,0-1.15.54.71.71,0,0,0-.14.1l-.13.18a.14.14,0,0,0,.06.18,1.17,1.17,0,0,0,.41.1c.2,0,.4.05.59.05a14.6,14.6,0,0,0,1.62,0,9.69,9.69,0,0,1,1.32,0c.27,0,.54.06.81.06s.62,0,.93.05a9.35,9.35,0,0,1,1.39.22,6.6,6.6,0,0,0,1.26.18,3.9,3.9,0,0,1,.67.11l.61.16.25.06.76.14a2.65,2.65,0,0,0,.42.06l.46.07a7,7,0,0,0,.93.11,5.31,5.31,0,0,1,1,.09,1.2,1.2,0,0,0,.38,0c.23,0,.45,0,.68,0s.65,0,1,0A12.42,12.42,0,0,0,20.12,47c.46-.09.9-.23,1.36-.34a.13.13,0,0,0,.07,0,.08.08,0,0,0,0-.06.1.1,0,0,0-.05-.06,3.71,3.71,0,0,0-.47,0,3.41,3.41,0,0,1-1-.15.1.1,0,0,1-.06-.05s0,0,0,0h.12a5.15,5.15,0,0,0,1.57.08H22l.46,0a.43.43,0,0,0,.12-.05l0,0a0,0,0,0,0,0-.06h0a6.64,6.64,0,0,0-.88-.12,9,9,0,0,1-1.79-.36l-.25-.07c-.56-.14-1.13-.29-1.7-.39A9.15,9.15,0,0,0,17,45a2,2,0,0,1-.43-.07,4.21,4.21,0,0,0-1-.19l-.2,0a.05.05,0,0,1,0,0s0-.05,0-.05h.25l.39,0a3.12,3.12,0,0,1,.67.11,3.22,3.22,0,0,0,.54.1,1.69,1.69,0,0,1,.62.14l.16,0,.5.08a3.15,3.15,0,0,1,.42.09c.54.19,1.11.25,1.64.44.1,0,1.49.23,1.6.24a.49.49,0,0,0,.17,0c.08,0,.14-.14.24-.15a0,0,0,0,0,0,0,0,0,0,0,0,0,0,.32.32,0,0,0-.12-.11c-.44-.2-.88-.39-1.31-.6a3.79,3.79,0,0,0-1-.34.2.2,0,0,1-.11-.06s0,0,0,0l0,0a2.14,2.14,0,0,1,.71.14,8.1,8.1,0,0,1,1.14.48.84.84,0,0,0,.24.07l0,0a0,0,0,0,0,0,0L22.08,45ZM41.21,31.32l.28-.11s0,0,0-.06l-.07,0a1.07,1.07,0,0,0-.25,0l-.49.12h0l-.06,0a.08.08,0,0,1,0-.07,6.24,6.24,0,0,1,.94-.26l.11-.05s0,0,0,0a1,1,0,0,0-.38,0c-.29.05-.59.12-.88.16a7.87,7.87,0,0,1-1,0h-.09l-1.22-.16c-.34,0-.67-.14-1-.2l-.12,0a5.39,5.39,0,0,0-1.09-.37l-.28-.09-.76-.28c-.31-.11-.62-.21-.92-.34l-.55-.23c-.18-.07-.35-.13-.51-.21s-.17-.11-.26-.15a8.59,8.59,0,0,0-1.22-.48c-.44-.13-.89-.23-1.31-.38l-.13,0-1-.22-.29-.07a3.76,3.76,0,0,0-.67-.12l-.42,0a4.31,4.31,0,0,0-1.52.11c-.33.07-.66.17-1,.26q-.06,0,0,.06l0,0,.51,0a2.22,2.22,0,0,1,.67.1,1.91,1.91,0,0,0,.33.06,8,8,0,0,1,1.09.19c.36.09.7.23,1.06.31l.2.07.32.12a10,10,0,0,1,1,.31A15.3,15.3,0,0,1,32,30l.08,0c.37.14.72.33,1.09.48a.18.18,0,0,1,.07.05s0,0,0,0,0,0-.05,0a.51.51,0,0,1-.17,0l-.93-.4c-.16-.07-.31-.15-.47-.21l-.84-.3c-.22-.08-.42-.17-.64-.23-.42-.13-.82-.32-1.25-.43a7.63,7.63,0,0,1-.81-.26,2.37,2.37,0,0,0-.54-.13l-.2,0a2.07,2.07,0,0,0-.42-.08l-.3,0-1.35-.21c-.25,0-.5,0-.76,0a1.39,1.39,0,0,0-.6.17c-.38.2-.77.38-1.16.54l-.79.32a.05.05,0,0,0,0,0,0,0,0,0,0,0,.06h0s0,0,0,0c.32.06.64.1,1,.13a1.23,1.23,0,0,1,.37.08,1.18,1.18,0,0,0,.49.12,2.36,2.36,0,0,1,.46.1c.16.05.32.11.49.15l1.66.37a1.21,1.21,0,0,1,.44.15l.2.07a9.32,9.32,0,0,1,.9.27,6.66,6.66,0,0,0,.9.26l.08,0c.29.13.6.19.88.32a.43.43,0,0,0,.16.05c.33.07.66.18,1,.28a6.82,6.82,0,0,1,.77.23,2.88,2.88,0,0,0,.65.2c.22.06.44.12.65.2a5.83,5.83,0,0,0,.81.25l.33.08A6.91,6.91,0,0,0,35.3,33a7.83,7.83,0,0,1,1,.15,2.73,2.73,0,0,0,.5.05A6.72,6.72,0,0,0,38,33.12a4.12,4.12,0,0,0,.79-.18l1-.38.2-.08.81-.46a1.09,1.09,0,0,0,.17-.13s0,0,0,0,0,0,0,0a.29.29,0,0,0-.13,0l-.77.35a3.49,3.49,0,0,1-.57.2.13.13,0,0,1-.12,0c0-.06,0-.1,0-.15a.06.06,0,0,0,0-.06,0,0,0,0,0,0,0c-.41,0-.83.06-1.24.06s-.73,0-1.1,0H37c-.31-.1-.64-.14-1-.25s-.35-.12-.52-.18a0,0,0,0,1,0,0,0,0,0,0,1,0,0,0,0,0,0,1,0,0,3,3,0,0,1,.66.11,4.87,4.87,0,0,0,1.51.24l.08,0a1.85,1.85,0,0,0,.47,0l.38,0a5.27,5.27,0,0,0,.89-.1A17.56,17.56,0,0,0,41.21,31.32Zm-19.52,16L22,47l.08-.09s0-.07,0-.08a.11.11,0,0,0-.08,0,.77.77,0,0,0-.55.29,1.23,1.23,0,0,1-.33.26h0v0l.13-.22s0-.05,0-.07a0,0,0,0,0,0,0H21l-.66.18c-.11,0-.23,0-.33.06s-.19.12-.3.17a2.15,2.15,0,0,0-.54.34l-.46.37c-.3.26-.6.51-.9.78a2.87,2.87,0,0,1-.44.34,3.56,3.56,0,0,0-.53.41.2.2,0,0,1-.07.06c-.26.15-.48.35-.72.52a4.73,4.73,0,0,0-.46.32,2.78,2.78,0,0,1-.72.44,1.34,1.34,0,0,0-.4.23c-.25.21-.53.37-.8.56l-.15.07a7.44,7.44,0,0,0-.78.44c-.13.08-.26.16-.4.23l-.41.21a.08.08,0,0,1-.11,0,.09.09,0,0,1,0-.11,1.64,1.64,0,0,1,.22-.14,4.32,4.32,0,0,0,.56-.3,4.38,4.38,0,0,1,.67-.37,3.08,3.08,0,0,0,.55-.33c.2-.15.43-.26.62-.43l.12-.05a5,5,0,0,0,.84-.5c.39-.28.75-.61,1.15-.87l.07-.06a3.09,3.09,0,0,1,.57-.44l.24-.17c.35-.34.74-.62,1.1-.94.17-.15.35-.28.53-.42l.1-.08a.08.08,0,0,0,0-.11.09.09,0,0,0-.12,0l-.24.17a3.06,3.06,0,0,0-.86.61c-.16.16-.34.3-.5.47a1.25,1.25,0,0,1-.24.16s0,0,0,0,0,0,0,0a1.71,1.71,0,0,1,.42-.47l.24-.24a3.19,3.19,0,0,1,.46-.44s0,0,.06-.06v-.08l0,0a.65.65,0,0,0-.45.07l-.3.17c-.05,0-.09,0-.11-.08s-.08-.16-.17-.13l-.23.1c-.25.11-.48.25-.73.34a5.22,5.22,0,0,0-1.16.63c-.2.13-.39.27-.59.42s-.47.36-.69.55-.62.59-.95.85c-.54.44-1.09.86-1.67,1.25-.31.22-.64.42-1,.62L8.3,53.52a4.81,4.81,0,0,0-.6.4,2.19,2.19,0,0,0-.46.5.2.2,0,0,0,0,.26.34.34,0,0,0,.15.07,4,4,0,0,0,1,.07,2,2,0,0,1,.42,0,4.39,4.39,0,0,0,.89,0,1.07,1.07,0,0,1,.25,0,5.19,5.19,0,0,0,1.18-.11,2.32,2.32,0,0,0,.38,0c.37-.1.75-.14,1.12-.27s.83-.28,1.25-.41a2.3,2.3,0,0,0,.39-.17,4,4,0,0,1,.42-.2,16.62,16.62,0,0,0,1.54-.72l.2-.1a1.9,1.9,0,0,0,.71-.51c0-.07.15-.1.18-.18s.25-.34.35-.53a3.9,3.9,0,0,1,.73-.89,4.49,4.49,0,0,1,.78-.65l.16-.14a2.13,2.13,0,0,1,.34-.25,5.49,5.49,0,0,1,.63-.34,1,1,0,0,0,.32-.21,6.25,6.25,0,0,0,.64-.62.39.39,0,0,1,.1-.08,2.13,2.13,0,0,0,.3-.3,5.66,5.66,0,0,1,.4-.44,3.63,3.63,0,0,0,.47-.49A2.75,2.75,0,0,1,23,46.6s0,0,0,0a.11.11,0,0,0-.06,0,1.43,1.43,0,0,0-.3.16,4.73,4.73,0,0,0-.92.81l-.12.12a2,2,0,0,0-.36.36c0,.05-.1.05-.1,0s0-.07,0-.08A5.45,5.45,0,0,0,21.69,47.35ZM24.27,36.8a3.86,3.86,0,0,0-.42.66,2.62,2.62,0,0,0-.13.83.79.79,0,0,0,0,.13,2.9,2.9,0,0,0,.4,1,3,3,0,0,0,.8.93.66.66,0,0,0,.17.12l.6.32a2,2,0,0,0,.48.18,2.88,2.88,0,0,1,.56.2,2.73,2.73,0,0,0,1,.29l.38,0a4.34,4.34,0,0,0,1.64-.17,2.86,2.86,0,0,0,.8-.3l.3-.16a.6.6,0,0,0,.15-.09l.55-.46a1.08,1.08,0,0,0,.35-.47,2.35,2.35,0,0,0,.17-.44.1.1,0,0,0-.1-.1h0a.13.13,0,0,0-.14.07l-.06.11a.12.12,0,0,1-.16.06.1.1,0,0,1,0,0l-.05-.07a.16.16,0,0,0-.2-.07l-.05,0-.16.14-.08,0-.08,0a.11.11,0,0,1,0-.08l.09-.19a.12.12,0,0,0,0-.08l-.12-.12s-.08-.08-.06-.14.09-.09.18-.08l.12,0h.09s.07-.05.08-.09a1.42,1.42,0,0,0-.08-.41.09.09,0,0,1,.06-.1l.07,0a.1.1,0,0,1,.14,0h0l0,.08a.65.65,0,0,0,.24.43.14.14,0,0,1,0,.12.07.07,0,0,0,.08.08l.17,0a.09.09,0,0,0,.09-.08l0-.12a2.48,2.48,0,0,0-.17-1c-.1-.24-.22-.46-.34-.69a1.22,1.22,0,0,0-.26-.38c-.07-.07-.13-.15-.2-.21a1.14,1.14,0,0,0-.16-.15c-.15-.1-.31-.2-.45-.31a4.27,4.27,0,0,0-.51-.3,4.25,4.25,0,0,0-1.38-.55,3.87,3.87,0,0,0-1.18-.06l-.51.06a2.42,2.42,0,0,0-.45.1,6.07,6.07,0,0,0-1,.42,3.53,3.53,0,0,0-.57.38C24.71,36.32,24.48,36.59,24.27,36.8ZM47.5,22.26a.54.54,0,0,0-.23.11l-.62.44a4.08,4.08,0,0,1-.89.5c-.12,0-.23.1-.35.15a5.77,5.77,0,0,1-1.07.41l-.45.14a3.91,3.91,0,0,1-.61.17,9.28,9.28,0,0,1-1.17.22l-.21,0-.42.07a9.4,9.4,0,0,0-1.28.27l-.62.16a5.8,5.8,0,0,0-1.1.32l-.95.37-.4.16c-.37.14-.75.27-1.11.43-.6.27-1.2.57-1.8.86-.23.11-.45.24-.68.36a7.4,7.4,0,0,0-1.35.87c-.1.08-.09.15,0,.22a.32.32,0,0,0,.42,0l.18-.12.78-.44a.27.27,0,0,1,.12,0s0,0,.06.06v0a.38.38,0,0,1-.09.09l-.42.2a1.83,1.83,0,0,0-.49.33.1.1,0,0,0,0,.12.09.09,0,0,0,.11.05l.16,0s.1-.07.15,0,0,.1,0,.15v0s0,.06,0,.06h0s0,0,0,0a8.66,8.66,0,0,1,1.14-.57.27.27,0,0,1,.12,0,.05.05,0,0,1,.06,0,.08.08,0,0,1,0,.08.18.18,0,0,1-.1.07,5.49,5.49,0,0,0-.84.42.1.1,0,0,0-.05.06s0,0,0,0,0,0,0,0,0,0,0,0a4.85,4.85,0,0,1,.61-.29c.3-.11.6-.25.89-.39a4.78,4.78,0,0,1,.48-.19c.3-.11.62-.21.91-.34a11.57,11.57,0,0,1,1.12-.41s.12,0,.1,0,0,0-.05.06c-.51.22-1,.45-1.53.63A13.06,13.06,0,0,0,35,28.7a6.53,6.53,0,0,1-.85.39.3.3,0,0,0-.11.06.08.08,0,0,0,0,.11.32.32,0,0,0,.34.12l.2-.07,1-.37a.49.49,0,0,1,.17,0l0,0a.22.22,0,0,1,0,.08l-.07,0a7.84,7.84,0,0,0-1,.38s0,0,0,.07,0,0,0,0l.39.16a1.07,1.07,0,0,0,.5,0,3,3,0,0,0,.74-.21l.31-.14A11.06,11.06,0,0,0,38,28.79h0a0,0,0,0,1,.06,0h0a.11.11,0,0,1,0,.08A.1.1,0,0,1,38,29l-1,.44-1.14.47s0,0,0,0a.06.06,0,0,0,0,0h0l.3,0a.11.11,0,0,1,.11.06.26.26,0,0,0,.31.15,3.1,3.1,0,0,0,.42-.08,4.23,4.23,0,0,0,.7-.18,1.87,1.87,0,0,0,.61-.18.66.66,0,0,1,.2-.06,2.26,2.26,0,0,0,.37-.11c.43-.18.85-.38,1.28-.57l.11-.07a5.12,5.12,0,0,1,.52-.27,7.3,7.3,0,0,0,.68-.36c.27-.17.54-.31.82-.45a2.9,2.9,0,0,0,.33-.2l1-.69A10,10,0,0,0,45,25.77a1.54,1.54,0,0,1,.19-.17,2.79,2.79,0,0,0,.4-.44.19.19,0,0,0,0-.08h-.07a6.15,6.15,0,0,1-.93.68,2.68,2.68,0,0,0-.52.36s-.11,0-.11,0a.14.14,0,0,1,0-.07,4,4,0,0,1,.57-.44,2.83,2.83,0,0,0,.28-.2c.25-.17.47-.37.7-.56a8.18,8.18,0,0,1,.68-.63l.12-.12.27-.33.42-.53a.08.08,0,0,0,0,0s0,0-.06,0-.19.21-.3.3-.4.3-.61.45c0,0-.05,0-.07,0s0,0,0,0a.19.19,0,0,1,0-.08.11.11,0,0,0,0-.08.08.08,0,0,0-.08,0,2.1,2.1,0,0,0-.3.15c-.23.15-.46.28-.69.41a.53.53,0,0,1-.17,0,.09.09,0,0,1-.05,0,0,0,0,0,1,0,0,1.59,1.59,0,0,1,.37-.27c.3-.14.57-.32.86-.47s.63-.39.94-.58a.92.92,0,0,0,.26-.22,1.56,1.56,0,0,1,.39-.38s0,0,0-.07ZM28.86,50.73l-.22-.18-.15-.06a.18.18,0,0,0-.21.1c0,.12-.06.25-.1.37a.33.33,0,0,0,.05.32l.17.25a.42.42,0,0,1,0,.12.1.1,0,0,1-.07.09h-.08l-.08,0c-.1,0-.1,0-.16.06s-.05.1-.12.09a.14.14,0,0,1-.13-.14v-.05c0-.07,0-.1-.11-.09a.33.33,0,0,1-.17,0,.13.13,0,0,1-.07-.16.08.08,0,0,1,0,0l.13-.11a.06.06,0,0,0,0-.1h0s-.07-.05-.09-.09a.13.13,0,0,1,0-.12s0-.06.09-.08l.16,0a.08.08,0,0,0,.1-.06c0-.1.09-.21.12-.31a.15.15,0,0,0-.08-.18.67.67,0,0,0-.37-.07l-.42,0-.21,0a2,2,0,0,0-.33.09,1.13,1.13,0,0,0-.24.08,3.41,3.41,0,0,0-.57.36.73.73,0,0,0-.3.59,2.1,2.1,0,0,1-.2.82c0,.09-.07.19-.11.28a.52.52,0,0,1-.06.16,7,7,0,0,1-.43.68l-.23.3a3.51,3.51,0,0,1-.74.7,1.3,1.3,0,0,0-.23.18,1.37,1.37,0,0,1-.23.19.18.18,0,0,0-.07.1,2.22,2.22,0,0,0-.09.37,1.27,1.27,0,0,0,0,.34,2.36,2.36,0,0,0,.32,1.21l.29.47a2.19,2.19,0,0,0,.46.5,2.16,2.16,0,0,0,.38.27l.34.17a1.65,1.65,0,0,0,.61.18,3,3,0,0,1,.42,0,2.42,2.42,0,0,0,.76,0,1.67,1.67,0,0,0,.57-.19l.52-.28a.66.66,0,0,0,.17-.12,3.69,3.69,0,0,1,.53-.43.92.92,0,0,0,.25-.23c.23-.28.48-.55.74-.81a.39.39,0,0,0,.08-.1c0-.07.07-.15.11-.23a4.26,4.26,0,0,0,.53-1.24s0-.08,0-.12a2.67,2.67,0,0,0,.12-1,3.08,3.08,0,0,0-.18-1c-.05-.1-.08-.22-.12-.32a2.25,2.25,0,0,0-.08-.24c-.13-.24-.26-.47-.41-.7A1.94,1.94,0,0,0,28.86,50.73Zm-4.36-1-.06-.1a.68.68,0,0,0-.27-.2,1.11,1.11,0,0,1-.3-.17.85.85,0,0,0-.5-.2L23,49a1.67,1.67,0,0,0-.59,0,3.92,3.92,0,0,1-.59,0,.7.7,0,0,0-.25.05,6.1,6.1,0,0,0-1.08.4,3.74,3.74,0,0,0-.52.28c-.21.14-.41.3-.61.46a8,8,0,0,0-.92.81,3.36,3.36,0,0,0-.92,1.56,1.93,1.93,0,0,0-.12,1.21v.08a1.18,1.18,0,0,0,.26.58c.13.13.24.28.37.4a1.79,1.79,0,0,0,.28.2c.09.07.17.16.25.23a.2.2,0,0,0,.08,0l.32.11a5.66,5.66,0,0,0,.84.14,4,4,0,0,0,1.67-.18,13,13,0,0,0,1.33-.58l.58-.42.14-.1a2.11,2.11,0,0,0,.47-.42l.18-.18a3.71,3.71,0,0,0,.56-.8,1.25,1.25,0,0,0,.22-.41l.15-.44a2.38,2.38,0,0,0,.15-.75A2.84,2.84,0,0,0,25,50.13a.16.16,0,0,0-.18-.07l-.22.14a.16.16,0,0,0-.08.17c0,.12,0,.16-.14.15s-.14-.05-.21,0-.1.13-.13.21a.37.37,0,0,1-.05.11.1.1,0,0,1-.07,0,.08.08,0,0,1-.09,0v0c0-.06,0-.12,0-.17s0-.08-.09-.07l-.16,0a.1.1,0,0,1-.09-.12c0-.1.13-.14.19-.23a.33.33,0,0,0-.06-.1c-.07-.06-.14-.09-.21-.15a.06.06,0,0,1,0-.07.16.16,0,0,1,.18-.07l.15.07a.62.62,0,0,0,.75-.1Zm10.92-8.42c-.46.21-.82.49-1.22.7s-.93.55-1.39.83l-.37.2c-.36.16-.73.32-1.09.5a11.26,11.26,0,0,1-1.28.56c-.17.06-.34.15-.51.22-.38.15-.76.32-1.14.45-.74.26-1.48.5-2.23.72l-.25.07a3.56,3.56,0,0,0-.53.16,8.67,8.67,0,0,1-1.25.4l-.12,0a1.19,1.19,0,0,0-.52.28,6,6,0,0,0-.87.88,2.26,2.26,0,0,1-.25.28c-.11.12-.23.22-.33.34a8,8,0,0,1-.7.73.05.05,0,0,0,0,0,.09.09,0,0,0,0,.07,0,0,0,0,0,0,0c.31,0,.62-.1.93-.12a1.46,1.46,0,0,1,.59,0l.79.17a2.43,2.43,0,0,1,.72.36c.1.15.28.18.42.28a.15.15,0,0,0,.16,0l.11-.06a10.29,10.29,0,0,0,1.14-.82c.24-.18.46-.38.69-.56s.49-.35.72-.53.37-.27.56-.4.35-.23.52-.36l.53-.43c.2-.15.42-.29.63-.44l.68-.51c.24-.19.48-.39.74-.56a8.8,8.8,0,0,0,.91-.7,4.16,4.16,0,0,1,.42-.42c.15-.12.33-.22.48-.35l.62-.51c.44-.39.87-.77,1.33-1.14A1.53,1.53,0,0,0,35.42,41.32ZM43.74,29.9l.09-.13c0-.08.08-.18.13-.26.31-.57.59-1.16.93-1.72.22-.36.41-.74.63-1.1a7,7,0,0,0,.49-.94c0-.09.08-.18.13-.27l.45-.86s0-.06,0-.06h0l-.19.16-1,1.05-.12.12c-.19.14-.35.33-.55.46a1.69,1.69,0,0,0-.32.27,4.82,4.82,0,0,1-.83.66l-.36.23a5,5,0,0,1-.79.5c-.27.15-.54.3-.8.48l-.22.13c-.29.15-.58.28-.87.44a9.76,9.76,0,0,1-1.27.59,12.45,12.45,0,0,1-1.49.51l-.37.1-.16,0a.07.07,0,0,0,0,.06.06.06,0,0,0,0,.06c.33.08.66.17,1,.22s.84.11,1.26.15a4.12,4.12,0,0,0,.93-.05c.37-.07.73-.13,1.1-.18a5,5,0,0,0,1.15-.26.53.53,0,0,1,.17,0,3.5,3.5,0,0,0,.62-.15.57.57,0,0,0,.33-.22ZM36.26,50.22l-.08,0h-.09a.08.08,0,0,1-.08-.09v0a1.42,1.42,0,0,0,.17-.35l0-.12s0-.1-.07-.09-.06,0-.07,0l-.38.9c0,.12-.09.24-.14.36a.94.94,0,0,1-.12.18l-.06,0a.11.11,0,0,1,0-.08c.12-.24.2-.5.3-.75a5.82,5.82,0,0,1,.3-.79c.06-.1.11-.2.16-.3a.3.3,0,0,0,0-.16c0-.14,0-.28-.08-.42l0,0a.11.11,0,0,0-.07,0c-.06.09-.1.18-.15.26a.09.09,0,0,1-.07,0,.07.07,0,0,1,0-.06,1.18,1.18,0,0,1,.2-.55.46.46,0,0,0,.09-.36c0-.2,0-.39-.08-.59a.12.12,0,0,0,0-.07.11.11,0,0,0-.07,0,2.83,2.83,0,0,0-.2.28c-.14.26-.27.53-.4.8-.22.43-.39.88-.59,1.32l-.12.31-.24.64a7,7,0,0,0-.3.88c-.07.28-.14.56-.23.82a4.79,4.79,0,0,0-.21.74,14.64,14.64,0,0,0-.35,1.75,2.38,2.38,0,0,0,0,.8.19.19,0,0,0,.26.12h0l.11-.07a6.19,6.19,0,0,0,.55-.47,4.59,4.59,0,0,0,.53-.55,1,1,0,0,1,.17-.19,1.81,1.81,0,0,0,.4-.43,2.78,2.78,0,0,0,.26-.34c.07-.12.2-.2.24-.34a4.34,4.34,0,0,0,.58-.84.41.41,0,0,1,.1-.13.33.33,0,0,0,.12-.38.88.88,0,0,0,0-.16.15.15,0,0,0-.14-.14.09.09,0,0,1-.07-.1,0,0,0,0,1,0,0,.94.94,0,0,0,.12-.22.7.7,0,0,0,0-.38.1.1,0,0,0-.07,0,.09.09,0,0,0-.07,0,.16.16,0,0,0,0,.07,5.45,5.45,0,0,1-.39.66c-.21.29-.4.58-.6.87l-.11.19-.24.4a.11.11,0,0,1-.12,0s0-.05,0-.07.1-.17.15-.26a8.89,8.89,0,0,1,.64-1,7.52,7.52,0,0,0,.54-.91c.08-.15.14-.31.21-.46A.2.2,0,0,0,36.26,50.22Zm6.21-17a1.38,1.38,0,0,0-.24.3,2.25,2.25,0,0,1-.24.36c-.23.29-.38.63-.6.92s-.47.75-.67,1.14a2.75,2.75,0,0,1-.19.28l-.14.21a3.07,3.07,0,0,1-.28.42,4.56,4.56,0,0,0-.27.39c-.19.3-.44.55-.65.83a.46.46,0,0,1-.12.12.86.86,0,0,0-.21.26,1.65,1.65,0,0,1-.35.43,4.6,4.6,0,0,0-.52.56,1.15,1.15,0,0,1-.27.27.32.32,0,0,0-.13.21,2.52,2.52,0,0,0-.1.46c0,.42-.05.85-.05,1.27s.05.65.08,1a4.25,4.25,0,0,0,.14.71s0,.05.05.06.06,0,.07,0a7.46,7.46,0,0,0,.53-1c.12-.24.24-.48.38-.71s.22-.43.35-.63.28-.46.42-.69.17-.26.25-.4.27-.46.41-.69a3.45,3.45,0,0,0,.2-.32l.53-1a2.49,2.49,0,0,0,.21-.51,3.25,3.25,0,0,1,.18-.43,4.29,4.29,0,0,0,.24-.59c.09-.32.2-.62.3-.93a8.51,8.51,0,0,1,.29-.85,8.4,8.4,0,0,0,.34-1A1.08,1.08,0,0,0,42.47,33.21ZM30.69,45.84l-.08,0-.9.57a2,2,0,0,0-.39.26,5.44,5.44,0,0,1-.55.39c-.15.1-.3.22-.44.33-.66.5-1.32,1-2,1.51l-.18.12a8.34,8.34,0,0,1-.94.72.14.14,0,0,0-.06.18h0c.09.22.18.45.25.68l0,0a.11.11,0,0,0,.11,0l.29-.19a3.18,3.18,0,0,1,.4-.23,2.85,2.85,0,0,1,1.41-.21h.3a.2.2,0,0,0,.2-.14,6.2,6.2,0,0,1,.62-1.2c.2-.33.43-.63.63-.95.09-.14.17-.27.26-.39a2.13,2.13,0,0,1,.16-.25c.28-.39.54-.8.85-1.17a.37.37,0,0,0,.05-.11ZM21.48,29.72s.05,0,0-.06,0,0,0,0a1,1,0,0,0-.34-.06c-.25,0-.51,0-.76,0a3.09,3.09,0,0,0-1.09.14l-.25.07a3.65,3.65,0,0,0-.82.34,17,17,0,0,0-1.67,1.08,1.88,1.88,0,0,0-.26.22,2.09,2.09,0,0,1-.22.2.27.27,0,0,0-.08.19.09.09,0,0,0,0,.11.51.51,0,0,0,.32.07l.17,0,.8-.14.12,0,.65-.22A8,8,0,0,0,19.37,31c.26-.14.54-.25.81-.38a2.27,2.27,0,0,0,.48-.27s0,0,0-.07l0,0a.73.73,0,0,0-.33,0,8.41,8.41,0,0,1-.83.21,2.49,2.49,0,0,0-.6.2,1,1,0,0,1-.44.13.05.05,0,0,1,0,0s0-.05,0-.08l0,0c.18-.08.36-.17.55-.24a2.31,2.31,0,0,1,.53-.15,2.79,2.79,0,0,0,.57-.14c.25-.09.5-.08.75-.15a.75.75,0,0,1,.21,0,1.42,1.42,0,0,0,.54-.12,0,0,0,0,0,0,0s0,0-.05,0H21s-.06,0-.05-.06l0,0Zm7,1.9a7.23,7.23,0,0,0-.78.67,4.15,4.15,0,0,0-.46.56,1.08,1.08,0,0,0-.08.19.16.16,0,0,0,.11.19h0a.45.45,0,0,0,.16,0,1.45,1.45,0,0,0,.46-.09c.46-.19.92-.37,1.39-.54a1.15,1.15,0,0,0,.23-.1l.36-.13a3.75,3.75,0,0,1,.82-.18l.17,0,.07,0,0,0a.06.06,0,0,0,0,0,2.7,2.7,0,0,0-.57-.18.45.45,0,0,0-.16,0l-.3.16s-.05,0-.06,0a0,0,0,0,1,0,0,.11.11,0,0,1,0-.08l.07-.15a0,0,0,0,0,0,0,.13.13,0,0,0-.07,0,2.17,2.17,0,0,0-.35.15,5,5,0,0,0-1,.62l-.06.06h0l-.07,0s0,0,0,0a.68.68,0,0,1,.34-.37,6.11,6.11,0,0,0,.65-.38l.09-.09a.07.07,0,0,0,0-.1h0l-.08,0a.17.17,0,0,0-.23,0l-.32.21a.34.34,0,0,1-.12,0,.11.11,0,0,1-.07,0A1,1,0,0,1,28.44,31.62ZM49.32,15.14a0,0,0,0,0,.07,0s0-.05,0-.07a.08.08,0,0,0-.07,0A0,0,0,0,0,49.32,15.14Zm-6.9,20.35h-.05a.11.11,0,0,0,0,.11s0,0,0,0,0,0,0,0A.4.4,0,0,0,42.42,35.49Zm-13.74-4h0l0,0s0,0,0,0,0,0,0,0Zm11.1.6h0l0,0s0,0,.05,0,0,0,0,0Z" transform="translate(-2.85 -8.46)"/>
                      </g>
                    </g>
                  </g>
                </g>
              </g>
            </g>
          </g>
        </g>
        <g class="cls-6">
          <g id="Group_568" data-name="Group 568">
            <g class="cls-3">
              <g id="Group_567" data-name="Group 567">
                <g class="cls-3">
                  <g id="Group_566" data-name="Group 566">
                    <g class="cls-4">
                      <g id="Group_565" data-name="Group 565">
                        <path id="Path_572" data-name="Path 572" class="cls-5" d="M53,18.55s0,0,0,0l.21,0h0s0,.06,0,.06l-.21,0Z" transform="translate(-2.85 -8.46)"/>
                      </g>
                    </g>
                  </g>
                </g>
              </g>
            </g>
          </g>
        </g>
        <g class="cls-7">
          <g id="Group_572" data-name="Group 572">
            <g class="cls-3">
              <g id="Group_571" data-name="Group 571">
                <g class="cls-3">
                  <g id="Group_570" data-name="Group 570">
                    <g class="cls-4">
                      <g id="Group_569" data-name="Group 569">
                        <path id="Path_577" data-name="Path 577" class="cls-5" d="M31.74,21.58l.05-.06a12.9,12.9,0,0,1,1.17-.6l.35-.16a1.94,1.94,0,0,1,.48-.16,1.58,1.58,0,0,0,.59-.23,1.2,1.2,0,0,1,.31-.13,5.44,5.44,0,0,0,.79-.32,3,3,0,0,1,.6-.21c.18-.05.35-.11.53-.15s.66-.17,1-.24.8-.18,1.21-.23c.1,0,.19-.05.29-.06l.55-.08c.27,0,.53-.06.8-.1l.17,0,.89-.06a3.93,3.93,0,0,0,.75-.13l.25,0a.08.08,0,0,1,.1.07s0,.1-.06.1c-.24,0-.47.1-.71.12l-.68.05q-.42,0-.84.09l-.25,0a11.52,11.52,0,0,0-1.56.25l-1.13.2c-.27.06-.55.13-.82.21a8.57,8.57,0,0,0-1.39.51,1.62,1.62,0,0,1-.28.11l-.32.13a3.78,3.78,0,0,1-.87.32,2.08,2.08,0,0,0-.32.12l-1.2.54c-.12.06-.26.11-.39.16h0S31.71,21.6,31.74,21.58Z" transform="translate(-2.85 -8.46)"/>
                      </g>
                    </g>
                  </g>
                </g>
              </g>
            </g>
          </g>
        </g>
        <g class="cls-8">
          <g id="Group_576" data-name="Group 576">
            <g class="cls-3">
              <g id="Group_575" data-name="Group 575">
                <g class="cls-3">
                  <g id="Group_574" data-name="Group 574">
                    <g class="cls-4">
                      <g id="Group_573" data-name="Group 573">
                        <path id="Path_582" data-name="Path 582" class="cls-5" d="M43.54,18.47v0a5.38,5.38,0,0,1,1-.31.06.06,0,0,1,.05.05.09.09,0,0,1,0,.07,1.11,1.11,0,0,1-.27.12,4.62,4.62,0,0,0-.6.19h-.08l0,0A.19.19,0,0,1,43.54,18.47Z" transform="translate(-2.85 -8.46)"/>
                      </g>
                    </g>
                  </g>
                </g>
              </g>
            </g>
          </g>
        </g>
        <g class="cls-9">
          <g id="Group_580" data-name="Group 580">
            <g class="cls-3">
              <g id="Group_579" data-name="Group 579">
                <g class="cls-3">
                  <g id="Group_578" data-name="Group 578">
                    <g class="cls-4">
                      <g id="Group_577" data-name="Group 577">
                        <path id="Path_587" data-name="Path 587" class="cls-5" d="M13.11,44.46s0,0,0,.07a.08.08,0,0,1-.07,0c-.42,0-.85,0-1.27,0H11.6a6,6,0,0,1-.85.06c-.26,0-.53.07-.8.09l-1.06.1a3.33,3.33,0,0,1-.55,0,2.19,2.19,0,0,0-.51,0c-.22.05-.45.07-.67.1-.44.06-.87.15-1.3.24a3.92,3.92,0,0,1-.76.08s0,0,0,0a.08.08,0,0,1,0,0l.07,0c.25,0,.49-.13.74-.17s.59-.1.88-.17a11.44,11.44,0,0,1,1.31-.17,4.34,4.34,0,0,1,.72,0,.71.71,0,0,0,.25,0,4.87,4.87,0,0,1,.76-.06c.22,0,.43,0,.64,0s.45-.05.68-.06a3.54,3.54,0,0,1,.46,0,9.55,9.55,0,0,0,1.07,0l.42,0A.05.05,0,0,1,13.11,44.46Z" transform="translate(-2.85 -8.46)"/>
                      </g>
                    </g>
                  </g>
                </g>
              </g>
            </g>
          </g>
        </g>
        <g class="cls-10">
          <g id="Group_584" data-name="Group 584">
            <g class="cls-3">
              <g id="Group_583" data-name="Group 583">
                <g class="cls-3">
                  <g id="Group_582" data-name="Group 582">
                    <g class="cls-4">
                      <g id="Group_581" data-name="Group 581">
                        <path id="Path_592" data-name="Path 592" class="cls-5" d="M14,44.56a.13.13,0,0,1,.07,0l.66.06s0,.05,0,.07a.06.06,0,0,1,0,.06.3.3,0,0,1-.16,0L14,44.65s0,0,0-.06S14,44.57,14,44.56Z" transform="translate(-2.85 -8.46)"/>
                      </g>
                    </g>
                  </g>
                </g>
              </g>
            </g>
          </g>
        </g>
        <g class="cls-11">
          <g id="Group_588" data-name="Group 588">
            <g class="cls-3">
              <g id="Group_587" data-name="Group 587">
                <g class="cls-3">
                  <g id="Group_586" data-name="Group 586">
                    <g class="cls-4">
                      <g id="Group_585" data-name="Group 585">
                        <path id="Path_597" data-name="Path 597" class="cls-5" d="M34.06,31c.18.06.36.12.54.2l.06.06s0,0,0,0,0,.05,0,.05l-.54-.2S34,31.08,34.06,31Z" transform="translate(-2.85 -8.46)"/>
                      </g>
                    </g>
                  </g>
                </g>
              </g>
            </g>
          </g>
        </g>
        <g class="cls-12">
          <g id="Group_592" data-name="Group 592">
            <g class="cls-3">
              <g id="Group_591" data-name="Group 591">
                <g class="cls-3">
                  <g id="Group_590" data-name="Group 590">
                    <g class="cls-4">
                      <g id="Group_589" data-name="Group 589">
                        <path id="Path_602" data-name="Path 602" class="cls-5" d="M17.17,51.37c.23-.26.41-.47.62-.67s.31-.33.45-.5a7.81,7.81,0,0,1,.56-.59l.79-.7c.12-.1.22-.22.33-.33a.71.71,0,0,1,.14-.1h.08a.09.09,0,0,1,.06.09h0a1.24,1.24,0,0,1-.28.32l-1,.93A14.43,14.43,0,0,0,17.81,51l-.42.42a3.37,3.37,0,0,0-.31.46L17,52a.1.1,0,0,1-.07,0s-.07-.06-.06-.1a.56.56,0,0,1,0-.12Z" transform="translate(-2.85 -8.46)"/>
                      </g>
                    </g>
                  </g>
                </g>
              </g>
            </g>
          </g>
        </g>
        <g class="cls-13">
          <g id="Group_596" data-name="Group 596">
            <g class="cls-3">
              <g id="Group_595" data-name="Group 595">
                <g class="cls-3">
                  <g id="Group_594" data-name="Group 594">
                    <g class="cls-4">
                      <g id="Group_593" data-name="Group 593">
                        <path id="Path_607" data-name="Path 607" class="cls-5" d="M11.2,53s0,.06,0,.07a1.27,1.27,0,0,1-.23.12,9.19,9.19,0,0,0-1.12.59l-.11.06c-.26.12-.53.19-.79.32a.14.14,0,0,1-.11,0c-.05,0-.06,0,0-.07a.23.23,0,0,1,.07-.1,1.73,1.73,0,0,1,.31-.14,4.28,4.28,0,0,0,.84-.39l.46-.23c.15-.07.27-.14.42-.2a.39.39,0,0,1,.24-.06Z" transform="translate(-2.85 -8.46)"/>
                      </g>
                    </g>
                  </g>
                </g>
              </g>
            </g>
          </g>
        </g>
        <g class="cls-14">
          <g id="Group_600" data-name="Group 600">
            <g class="cls-3">
              <g id="Group_599" data-name="Group 599">
                <g class="cls-3">
                  <g id="Group_598" data-name="Group 598">
                    <g class="cls-4">
                      <g id="Group_597" data-name="Group 597">
                        <path id="Path_612" data-name="Path 612" class="cls-5" d="M24.91,39.06,25,39a.1.1,0,0,1,.07,0,1,1,0,0,0,.55.45l.15.08a2.46,2.46,0,0,0,.86.34L27,40a.78.78,0,0,1,.21,0,1.9,1.9,0,0,0,.63.11,4.78,4.78,0,0,0,.76,0l.38-.05a.21.21,0,0,1,.1.06.11.11,0,0,1,0,.12.1.1,0,0,1-.1.07h-.51a1.48,1.48,0,0,0-.21,0,4.74,4.74,0,0,1-1.3-.18L26.23,40a1.85,1.85,0,0,1-.44-.18l-.52-.28a.73.73,0,0,1-.37-.44A.11.11,0,0,1,24.91,39.06Z" transform="translate(-2.85 -8.46)"/>
                      </g>
                    </g>
                  </g>
                </g>
              </g>
            </g>
          </g>
        </g>
        <g class="cls-15">
          <g id="Group_604" data-name="Group 604">
            <g class="cls-3">
              <g id="Group_603" data-name="Group 603">
                <g class="cls-3">
                  <g id="Group_602" data-name="Group 602">
                    <g class="cls-4">
                      <g id="Group_601" data-name="Group 601">
                        <path id="Path_617" data-name="Path 617" class="cls-5" d="M28.55,40.69s0,.07,0,.08a.31.31,0,0,1-.12,0,1.9,1.9,0,0,1-.71,0L27,40.59s-.07-.05-.1-.07,0-.1,0-.11h.12a3.78,3.78,0,0,0,1.33.21l.08,0Z" transform="translate(-2.85 -8.46)"/>
                      </g>
                    </g>
                  </g>
                </g>
              </g>
            </g>
          </g>
        </g>
        <g class="cls-16">
          <g id="Group_608" data-name="Group 608">
            <g class="cls-3">
              <g id="Group_607" data-name="Group 607">
                <g class="cls-3">
                  <g id="Group_606" data-name="Group 606">
                    <g class="cls-4">
                      <g id="Group_605" data-name="Group 605">
                        <path id="Path_622" data-name="Path 622" class="cls-5" d="M45.3,24.41s0,0,0,0,0,.06,0,.07c-.33.19-.62.45-1,.62a4,4,0,0,1-.42.2.82.82,0,0,0-.26.14,2.19,2.19,0,0,1-.72.35,1.69,1.69,0,0,0-.27.11,2.41,2.41,0,0,1-.56.22l-.77.24a1,1,0,0,0-.27.11,1.12,1.12,0,0,1-.47.18c-.39.09-.76.25-1.13.37l-.68.23h-.09s0,0-.05-.05a.07.07,0,0,1,0-.07l.23-.11,1-.32.61-.17a1.31,1.31,0,0,0,.28-.09A7,7,0,0,1,41.88,26a15.67,15.67,0,0,0,1.68-.71c.33-.16.64-.37,1-.54a1.28,1.28,0,0,0,.21-.14,1.47,1.47,0,0,1,.48-.25S45.27,24.4,45.3,24.41Z" transform="translate(-2.85 -8.46)"/>
                      </g>
                    </g>
                  </g>
                </g>
              </g>
            </g>
          </g>
        </g>
        <g class="cls-17">
          <g id="Group_612" data-name="Group 612">
            <g class="cls-3">
              <g id="Group_611" data-name="Group 611">
                <g class="cls-3">
                  <g id="Group_610" data-name="Group 610">
                    <g class="cls-4">
                      <g id="Group_609" data-name="Group 609">
                        <path id="Path_627" data-name="Path 627" class="cls-5" d="M35.39,29.47l0-.06.16-.05s0,0,.07,0h0a.11.11,0,0,1,0,.11.22.22,0,0,1-.23.05l0,0S35.39,29.49,35.39,29.47Z" transform="translate(-2.85 -8.46)"/>
                      </g>
                    </g>
                  </g>
                </g>
              </g>
            </g>
          </g>
        </g>
        <g class="cls-18">
          <g id="Group_616" data-name="Group 616">
            <g class="cls-3">
              <g id="Group_615" data-name="Group 615">
                <g class="cls-3">
                  <g id="Group_614" data-name="Group 614">
                    <g class="cls-4">
                      <g id="Group_613" data-name="Group 613">
                        <path id="Path_632" data-name="Path 632" class="cls-5" d="M28,57l0,0a2.18,2.18,0,0,1-.94.7l-.16.05-.17,0a2.66,2.66,0,0,1-1.09.08,1.05,1.05,0,0,1-.69-.29.09.09,0,0,1,0-.11.13.13,0,0,1,.14-.06l.08,0a1.22,1.22,0,0,0,.72.21,2.8,2.8,0,0,0,1.54-.4,1.58,1.58,0,0,0,.32-.27l.3-.35a.39.39,0,0,1,.1-.08c.05,0,.13,0,.14,0a.09.09,0,0,1,0,.12l-.07.1L28,57Z" transform="translate(-2.85 -8.46)"/>
                      </g>
                    </g>
                  </g>
                </g>
              </g>
            </g>
          </g>
        </g>
        <g class="cls-19">
          <g id="Group_620" data-name="Group 620">
            <g class="cls-3">
              <g id="Group_619" data-name="Group 619">
                <g class="cls-3">
                  <g id="Group_618" data-name="Group 618">
                    <g class="cls-4">
                      <g id="Group_617" data-name="Group 617">
                        <path id="Path_637" data-name="Path 637" class="cls-5" d="M26.78,56.89a.09.09,0,0,1,0,.07.18.18,0,0,1-.05.07,1.52,1.52,0,0,1-.8.23,1,1,0,0,1-.25,0,.17.17,0,0,1-.1-.13.08.08,0,0,1,.06-.09h.09a1.28,1.28,0,0,0,.86-.1.42.42,0,0,1,.16,0S26.77,56.88,26.78,56.89Z" transform="translate(-2.85 -8.46)"/>
                      </g>
                    </g>
                  </g>
                </g>
              </g>
            </g>
          </g>
        </g>
        <g class="cls-20">
          <g id="Group_624" data-name="Group 624">
            <g class="cls-3">
              <g id="Group_623" data-name="Group 623">
                <g class="cls-3">
                  <g id="Group_622" data-name="Group 622">
                    <g class="cls-4">
                      <g id="Group_621" data-name="Group 621">
                        <path id="Path_642" data-name="Path 642" class="cls-5" d="M38.3,51.84s.05,0,.05.06a6.22,6.22,0,0,1,.1,1.05c0,.06,0,.12,0,.17,0,.2,0,.4,0,.59s0,.4,0,.6,0,.7,0,1a2.25,2.25,0,0,0,0,.26,4,4,0,0,1-.06,1l0,0a0,0,0,0,1-.07,0s0,0,0-.08V55.32c0-.22,0-.43,0-.64,0-.38,0-.76,0-1.14v-.26a4.51,4.51,0,0,0-.05-1c0-.14,0-.28,0-.42S38.27,51.82,38.3,51.84Z" transform="translate(-2.85 -8.46)"/>
                      </g>
                    </g>
                  </g>
                </g>
              </g>
            </g>
          </g>
        </g>
        <g class="cls-21">
          <g id="Group_628" data-name="Group 628">
            <g class="cls-3">
              <g id="Group_627" data-name="Group 627">
                <g class="cls-3">
                  <g id="Group_626" data-name="Group 626">
                    <g class="cls-4">
                      <g id="Group_625" data-name="Group 625">
                        <path id="Path_647" data-name="Path 647" class="cls-5" d="M38.21,50.91s-.1,0-.11,0L38,50.51a.09.09,0,0,1,.06-.09h0a.11.11,0,0,1,.07,0s0,0,0,0a.51.51,0,0,1,.05.4S38.23,50.9,38.21,50.91Z" transform="translate(-2.85 -8.46)"/>
                      </g>
                    </g>
                  </g>
                </g>
              </g>
            </g>
          </g>
        </g>
        <g class="cls-22">
          <g id="Group_632" data-name="Group 632">
            <g class="cls-3">
              <g id="Group_631" data-name="Group 631">
                <g class="cls-3">
                  <g id="Group_630" data-name="Group 630">
                    <g class="cls-4">
                      <g id="Group_629" data-name="Group 629">
                        <path id="Path_652" data-name="Path 652" class="cls-5" d="M18.72,54.52l-.07-.06a.1.1,0,0,1,0-.1s.06-.06.1,0l.31.14a1.08,1.08,0,0,0,.49.15h.13a2.37,2.37,0,0,0,.84,0,1.63,1.63,0,0,0,.54-.12l.2-.06a1.56,1.56,0,0,0,.83-.41l.1-.07c.05,0,.14,0,.14,0s0,.09,0,.11a2,2,0,0,1-.85.54,2.29,2.29,0,0,0-.37.12,1.17,1.17,0,0,1-.45.09,6,6,0,0,1-.85,0,2.57,2.57,0,0,1-.86-.24Z" transform="translate(-2.85 -8.46)"/>
                      </g>
                    </g>
                  </g>
                </g>
              </g>
            </g>
          </g>
        </g>
        <g class="cls-23">
          <g id="Group_636" data-name="Group 636">
            <g class="cls-3">
              <g id="Group_635" data-name="Group 635">
                <g class="cls-3">
                  <g id="Group_634" data-name="Group 634">
                    <g class="cls-4">
                      <g id="Group_633" data-name="Group 633">
                        <path id="Path_657" data-name="Path 657" class="cls-5" d="M18.7,53.85l0,0a.21.21,0,0,1,.11,0,1.35,1.35,0,0,0,.74.3l.33,0a1.9,1.9,0,0,0,.63,0l.34,0s.05,0,.06.05a0,0,0,0,1,0,.07h0l-.08,0a1.76,1.76,0,0,1-.79.09,4.15,4.15,0,0,1-1.1-.29A.6.6,0,0,1,18.7,54,.08.08,0,0,1,18.7,53.85Z" transform="translate(-2.85 -8.46)"/>
                      </g>
                    </g>
                  </g>
                </g>
              </g>
            </g>
          </g>
        </g>
        <g class="cls-24">
          <g id="Group_640" data-name="Group 640">
            <g class="cls-3">
              <g id="Group_639" data-name="Group 639">
                <g class="cls-3">
                  <g id="Group_638" data-name="Group 638">
                    <g class="cls-4">
                      <g id="Group_637" data-name="Group 637">
                        <path id="Path_662" data-name="Path 662" class="cls-5" d="M51.19,34.79l-.06,0a2.65,2.65,0,0,1-.29-.52v0a0,0,0,0,1,.06,0h0a2,2,0,0,1,.26.58v0Z" transform="translate(-2.85 -8.46)"/>
                      </g>
                    </g>
                  </g>
                </g>
              </g>
            </g>
          </g>
        </g>
        <g class="cls-25">
          <g id="Group_644" data-name="Group 644">
            <g class="cls-3">
              <g id="Group_643" data-name="Group 643">
                <g class="cls-3">
                  <g id="Group_642" data-name="Group 642">
                    <g class="cls-4">
                      <g id="Group_641" data-name="Group 641">
                        <path id="Path_667" data-name="Path 667" class="cls-5" d="M49.41,28.88c.05.1.1.17.13.24s0,.05,0,.06l0,0a1.35,1.35,0,0,1-.24-.48v0a0,0,0,0,1,.07,0v0A1.85,1.85,0,0,1,49.41,28.88Z" transform="translate(-2.85 -8.46)"/>
                      </g>
                    </g>
                  </g>
                </g>
              </g>
            </g>
          </g>
        </g>
        <g class="cls-26">
          <g id="Group_648" data-name="Group 648">
            <g class="cls-3">
              <g id="Group_647" data-name="Group 647">
                <g class="cls-3">
                  <g id="Group_646" data-name="Group 646">
                    <g class="cls-4">
                      <g id="Group_645" data-name="Group 645">
                        <path id="Path_672" data-name="Path 672" class="cls-5" d="M51.27,35.09a.27.27,0,0,1-.08-.3h0a.26.26,0,0,1,.08.3Z" transform="translate(-2.85 -8.46)"/>
                      </g>
                    </g>
                  </g>
                </g>
              </g>
            </g>
          </g>
        </g>
        <g class="cls-27">
          <g id="Group_652" data-name="Group 652">
            <g class="cls-3">
              <g id="Group_651" data-name="Group 651">
                <g class="cls-3">
                  <g id="Group_650" data-name="Group 650">
                    <g class="cls-4">
                      <g id="Group_649" data-name="Group 649">
                        <path id="Path_677" data-name="Path 677" class="cls-5" d="M51.26,35.09a.16.16,0,0,1,.09.18h0a.26.26,0,0,1-.09-.18Z" transform="translate(-2.85 -8.46)"/>
                      </g>
                    </g>
                  </g>
                </g>
              </g>
            </g>
          </g>
        </g>
        <g class="cls-28">
          <g id="Group_656" data-name="Group 656">
            <g class="cls-3">
              <g id="Group_655" data-name="Group 655">
                <g class="cls-3">
                  <g id="Group_654" data-name="Group 654">
                    <g class="cls-4">
                      <g id="Group_653" data-name="Group 653">
                        <path id="Path_682" data-name="Path 682" class="cls-5" d="M51,36.87l.07.09s0,0,0,.07h0a.05.05,0,0,1,0,0,.37.37,0,0,1,0-.11Z" transform="translate(-2.85 -8.46)"/>
                      </g>
                    </g>
                  </g>
                </g>
              </g>
            </g>
          </g>
        </g>
      </g>
    </g>
  </g>
</svg>
