<svg xmlns="http://www.w3.org/2000/svg" xmlns:xlink="http://www.w3.org/1999/xlink" viewBox="0 0 128.96 50.25">
  <defs>
    <style>
      .cls-1 {
        fill: none;
      }

      .cls-2 {
        clip-path: url(#clip-path);
      }

      .cls-3 {
        clip-path: url(#clip-path-2);
      }

      .cls-4 {
        clip-path: url(#clip-path-4);
      }

      .cls-5 {
        fill: #151a18;
      }

      .cls-6 {
        clip-path: url(#clip-path-5);
      }

      .cls-7 {
        clip-path: url(#clip-path-9);
      }

      .cls-8 {
        clip-path: url(#clip-path-13);
      }

      .cls-9 {
        clip-path: url(#clip-path-17);
      }

      .cls-10 {
        clip-path: url(#clip-path-21);
      }

      .cls-11 {
        clip-path: url(#clip-path-25);
      }

      .cls-12 {
        clip-path: url(#clip-path-29);
      }

      .cls-13 {
        clip-path: url(#clip-path-33);
      }

      .cls-14 {
        clip-path: url(#clip-path-37);
      }

      .cls-15 {
        clip-path: url(#clip-path-41);
      }

      .cls-16 {
        clip-path: url(#clip-path-45);
      }

      .cls-17 {
        clip-path: url(#clip-path-49);
      }

      .cls-18 {
        clip-path: url(#clip-path-53);
      }

      .cls-19 {
        clip-path: url(#clip-path-57);
      }

      .cls-20 {
        clip-path: url(#clip-path-61);
      }

      .cls-21 {
        clip-path: url(#clip-path-65);
      }

      .cls-22 {
        clip-path: url(#clip-path-69);
      }

      .cls-23 {
        clip-path: url(#clip-path-73);
      }

      .cls-24 {
        clip-path: url(#clip-path-77);
      }

      .cls-25 {
        clip-path: url(#clip-path-81);
      }

      .cls-26 {
        clip-path: url(#clip-path-85);
      }

      .cls-27 {
        clip-path: url(#clip-path-89);
      }

      .cls-28 {
        clip-path: url(#clip-path-93);
      }
    </style>
    <clipPath id="clip-path" transform="translate(-15.15 -13.42)">
      <rect class="cls-1" x="15.59" y="12.92" width="50.27" height="50.82"/>
    </clipPath>
    <clipPath id="clip-path-2" transform="translate(-15.15 -13.42)">
      <rect class="cls-1" x="2.51" y="17.84" width="63.4" height="36.46" transform="translate(-15.38 39.61) rotate(-50.61)"/>
    </clipPath>
    <clipPath id="clip-path-4" transform="translate(-15.15 -13.42)">
      <rect class="cls-1" x="2.56" y="17.81" width="63.32" height="36.45" transform="translate(-15.35 39.61) rotate(-50.61)"/>
    </clipPath>
    <clipPath id="clip-path-5" transform="translate(-15.15 -13.42)">
      <rect class="cls-1" x="15.04" y="53.25" width="0.55" height="0.55"/>
    </clipPath>
    <clipPath id="clip-path-9" transform="translate(-15.15 -13.42)">
      <rect class="cls-1" x="25.53" y="50.49" width="11.6" height="3.32"/>
    </clipPath>
    <clipPath id="clip-path-13" transform="translate(-15.15 -13.42)">
      <rect class="cls-1" x="23.32" y="53.25" width="1.66" height="1.1"/>
    </clipPath>
    <clipPath id="clip-path-17" transform="translate(-15.15 -13.42)">
      <rect class="cls-1" x="54.81" y="26.73" width="8.84" height="1.1"/>
    </clipPath>
    <clipPath id="clip-path-21" transform="translate(-15.15 -13.42)">
      <rect class="cls-1" x="53.16" y="27.28" width="1.66" height="0.55"/>
    </clipPath>
    <clipPath id="clip-path-25" transform="translate(-15.15 -13.42)">
      <rect class="cls-1" x="33.27" y="40.54" width="1.66" height="1.1"/>
    </clipPath>
    <clipPath id="clip-path-29" transform="translate(-15.15 -13.42)">
      <rect class="cls-1" x="48.18" y="20.1" width="3.87" height="3.87"/>
    </clipPath>
    <clipPath id="clip-path-33" transform="translate(-15.15 -13.42)">
      <rect class="cls-1" x="57.02" y="17.89" width="2.76" height="1.66"/>
    </clipPath>
    <clipPath id="clip-path-37" transform="translate(-15.15 -13.42)">
      <rect class="cls-1" x="38.79" y="31.7" width="4.97" height="1.66"/>
    </clipPath>
    <clipPath id="clip-path-41" transform="translate(-15.15 -13.42)">
      <rect class="cls-1" x="39.35" y="31.15" width="2.21" height="1.1"/>
    </clipPath>
    <clipPath id="clip-path-45" transform="translate(-15.15 -13.42)">
      <rect class="cls-1" x="22.77" y="44.41" width="7.18" height="3.87"/>
    </clipPath>
    <clipPath id="clip-path-49" transform="translate(-15.15 -13.42)">
      <rect class="cls-1" x="32.72" y="42.2" width="0.55" height="1.1"/>
    </clipPath>
    <clipPath id="clip-path-53" transform="translate(-15.15 -13.42)">
      <rect class="cls-1" x="39.9" y="14.03" width="3.87" height="1.66"/>
    </clipPath>
    <clipPath id="clip-path-57" transform="translate(-15.15 -13.42)">
      <rect class="cls-1" x="41.55" y="14.58" width="1.66" height="1.1"/>
    </clipPath>
    <clipPath id="clip-path-61" transform="translate(-15.15 -13.42)">
      <rect class="cls-1" x="29.4" y="15.13" width="1.1" height="5.52"/>
    </clipPath>
    <clipPath id="clip-path-65" transform="translate(-15.15 -13.42)">
      <rect class="cls-1" x="29.95" y="21.21" width="0.55" height="0.55"/>
    </clipPath>
    <clipPath id="clip-path-69" transform="translate(-15.15 -13.42)">
      <rect class="cls-1" x="45.97" y="16.79" width="3.87" height="1.66"/>
    </clipPath>
    <clipPath id="clip-path-73" transform="translate(-15.15 -13.42)">
      <rect class="cls-1" x="47.08" y="17.34" width="2.76" height="1.1"/>
    </clipPath>
    <clipPath id="clip-path-77" transform="translate(-15.15 -13.42)">
      <rect class="cls-1" x="16.69" y="37.23" width="1.1" height="1.1"/>
    </clipPath>
    <clipPath id="clip-path-81" transform="translate(-15.15 -13.42)">
      <rect class="cls-1" x="18.35" y="42.75" width="1.1" height="1.1"/>
    </clipPath>
    <clipPath id="clip-path-85" transform="translate(-15.15 -13.42)">
      <rect class="cls-1" x="16.69" y="36.68" width="0.55" height="1.1"/>
    </clipPath>
    <clipPath id="clip-path-89" transform="translate(-15.15 -13.42)">
      <rect class="cls-1" x="16.69" y="36.68" width="0.55" height="0.55"/>
    </clipPath>
    <clipPath id="clip-path-93" transform="translate(-15.15 -13.42)">
      <rect class="cls-1" x="17.25" y="35.02" width="0.55" height="0.55"/>
    </clipPath>
  </defs>
  <title>LetsTalk-3</title>
  <g id="Layer_2" data-name="Layer 2">
    <g id="Layer_1-2" data-name="Layer 1">
      <g id="Group_657" data-name="Group 657">
        <g class="cls-2">
          <g id="Group_564" data-name="Group 564">
            <g class="cls-3">
              <g id="Group_563" data-name="Group 563">
                <g class="cls-3">
                  <g id="Group_562" data-name="Group 562">
                    <g class="cls-4">
                      <g id="Group_561" data-name="Group 561">
                        <path id="Path_567" data-name="Path 567" class="cls-5" d="M31.85,31.29l.07,0,.55-.47a2.09,2.09,0,0,0,.22-.2,10.76,10.76,0,0,1,.94-.85,2.92,2.92,0,0,0,.32-.28,7.57,7.57,0,0,1,.66-.61,8.27,8.27,0,0,1,.64-.56l.49-.41.16-.13c.28-.3.59-.57.89-.86a.66.66,0,0,0,.12-.17.77.77,0,0,1,.17-.19l.21-.21a4.09,4.09,0,0,1,.45-.56l.08-.1a2.7,2.7,0,0,1,.33-.5c.37-.53.73-1.07,1.06-1.64.12-.21.25-.41.36-.62s.22-.46.33-.7a.86.86,0,0,0,0-.17.15.15,0,0,0-.06-.14l-.07,0a2.07,2.07,0,0,1-.88-.72l-.22-.31A4.32,4.32,0,0,1,38,19.35a3.65,3.65,0,0,1,0-1.94,1.6,1.6,0,0,0,0-.21,1.56,1.56,0,0,1,.17-.47c.13-.24.24-.49.35-.73a1.69,1.69,0,0,1,.23-.36,5.16,5.16,0,0,1,.63-.69c.2-.17.37-.38.59-.55a5.25,5.25,0,0,1,.92-.61l.42-.2a1.8,1.8,0,0,1,.82-.17,10.92,10.92,0,0,1,1.15.12.49.49,0,0,1,.16.05,3.68,3.68,0,0,1,1.16.69,2.4,2.4,0,0,1,.37.47,4.23,4.23,0,0,1,.37.62,2.56,2.56,0,0,1,.28,1.28V17s.07.07.1.06c.29-.15.62-.22.92-.34a4.53,4.53,0,0,1,1.15-.3.7.7,0,0,1,.25,0l.73,0,.21,0a3.71,3.71,0,0,0,.66.15.73.73,0,0,1,.31.14,4.1,4.1,0,0,1,.75.69l.12.12a1.35,1.35,0,0,1,.36.52,2,2,0,0,1,.09.33,3,3,0,0,1,0,.89,1.52,1.52,0,0,0,0,.21.13.13,0,0,0,0,.07h0a12.81,12.81,0,0,1,1.17-.59l.58-.28a2.81,2.81,0,0,1,.59-.24l.23-.1A7.49,7.49,0,0,1,55,17.89l1.09-.36a2.62,2.62,0,0,1,.54-.12l.46-.07a4.45,4.45,0,0,1,.72-.1c.44,0,.88-.08,1.31-.1s.74,0,1.11,0a2.72,2.72,0,0,1,.8.12,1,1,0,0,1,.23.11.26.26,0,0,1,.12.33.7.7,0,0,1-.08.2,1.67,1.67,0,0,1-.31.34A11,11,0,0,1,60,19c-.3.19-.6.38-.91.55s-.32.22-.5.33c-.45.28-.92.55-1.37.85l-.28.19c-.28.22-.58.41-.85.63s-.62.5-.9.77a14,14,0,0,1-1.73,1.45l-.75.49-.23.1-.54.26a.16.16,0,0,0,0,.07s0,.07.09.07a18.76,18.76,0,0,1,2.24.27c.49.08,1,.16,1.46.28l.71.15a1.85,1.85,0,0,0,.41.07,17.18,17.18,0,0,1,1.77.29,7.75,7.75,0,0,0,1.73.17,4.36,4.36,0,0,1,.51,0c.25,0,.51,0,.77.05a4.42,4.42,0,0,0,.89,0c.23,0,.45,0,.68,0s.65,0,1,0a4.29,4.29,0,0,1,1,.12.66.66,0,0,1,.27.12.29.29,0,0,1,.1.4l0,.05a.84.84,0,0,1-.21.21,6.74,6.74,0,0,1-1.29.64,8.17,8.17,0,0,1-1.1.32L62.1,28c-.61.14-1.22.28-1.84.37l-.21,0a9.35,9.35,0,0,1-.92.18l-.16,0c-.43.12-.86.18-1.3.27l-1,.13c-.43.06-.87.11-1.3.18s-.93.13-1.4.15h-.22a9.54,9.54,0,0,1-1.69,0H52a5.15,5.15,0,0,1-1.18-.14l-.21-.05-.7-.19c-.52-.13-1-.29-1.55-.47a3.82,3.82,0,0,1-.46-.21,4.44,4.44,0,0,1-.84-.5c-.15-.11-.32-.18-.47-.28a4.66,4.66,0,0,0-.47-.3c-.14-.06-.27-.14-.41-.21l-.53-.28a4.21,4.21,0,0,0-.91-.36.75.75,0,0,0-.42,0l-.41.13-.8.29-1.09.36c-.63.2-1.27.4-1.89.64-.36.13-.7.3-1.06.45-.12.05-.23.11-.35.15a3.52,3.52,0,0,0-.63.27l-.27.12a1.62,1.62,0,0,0-.28.11c-.4.19-.8.37-1.18.57s-.57.32-.86.48a4.51,4.51,0,0,0-.52.29,4.48,4.48,0,0,1-.47.28,8.22,8.22,0,0,0-1,.7c-.21.18-.44.35-.66.52l-.68.52a1,1,0,0,0-.19.17,2.69,2.69,0,0,1-.55.46,3.66,3.66,0,0,0-.84.78,5.47,5.47,0,0,1-.51.57,2.06,2.06,0,0,0-.35.42c-.16.25-.35.48-.53.72a9.46,9.46,0,0,0-.66,1s0,.06,0,.06h0a.2.2,0,0,0,.08,0l.66-.59a9.52,9.52,0,0,1,1.29-1A9.83,9.83,0,0,1,31.68,34c.37-.15.73-.32,1.09-.48a2.32,2.32,0,0,1,.44-.16c.17,0,.33-.1.49-.14A5.37,5.37,0,0,1,35,33h0a6.47,6.47,0,0,1,.88-.15.24.24,0,0,0,.17-.12.61.61,0,0,1,.05-.12c.11-.23.21-.46.33-.69a.74.74,0,0,1,.16-.2c.2-.17.41-.35.62-.51a3.4,3.4,0,0,1,.75-.41,5,5,0,0,1,2-.4,5.49,5.49,0,0,1,.81,0,3,3,0,0,1,.89.26,2.54,2.54,0,0,0,.68.25,2.57,2.57,0,0,1,.52.21,3.81,3.81,0,0,1,.8.47,4.89,4.89,0,0,1,.4.39,1.13,1.13,0,0,0,.1.13,2.51,2.51,0,0,1,.51.82,1.19,1.19,0,0,0,.08.16,2,2,0,0,1,0,1.76,2.47,2.47,0,0,1-.27.44,6.42,6.42,0,0,1-.84.89,2.72,2.72,0,0,1-.64.42l-.9.4-.2,0c-.41.07-.81.15-1.22.18a4.18,4.18,0,0,1-1.06-.08,4.29,4.29,0,0,1-.7-.2,4.41,4.41,0,0,1-.54-.24c-.19-.1-.37-.22-.56-.31a6.09,6.09,0,0,1-1-.72,2,2,0,0,1-.33-.44l-.39-.76A1.2,1.2,0,0,1,36,34a4.9,4.9,0,0,1-.08-.76.11.11,0,0,0-.11-.11l-.3,0c-.37.1-.74.16-1.11.29s-.85.23-1.26.37a16.36,16.36,0,0,0-1.95.75,7.18,7.18,0,0,0-.91.56l-.79.57a4,4,0,0,0-.4.32c-.16.15-.35.29-.52.43a6.67,6.67,0,0,0-.85.83l-.24.24a1.32,1.32,0,0,0-.22.26,2.6,2.6,0,0,1-.27.38c-.11.15-.21.3-.31.46a7.11,7.11,0,0,1-.51.83c-.11.15-.19.32-.29.47s-.65,1.19-.7,1.31a0,0,0,0,0,0,0h0a1.5,1.5,0,0,0,.44-.26,12.74,12.74,0,0,1,1.4-.89l.28-.19a6.28,6.28,0,0,1,1.08-.59c.21-.09.43-.15.64-.23l.49-.16a3.78,3.78,0,0,1,1-.2l.33,0,.39,0a8.84,8.84,0,0,1,1.14.13c.12,0,.25,0,.38.06l1.05.16.16,0c.46.17.94.23,1.4.38l.7.22.16,0,.45.11a1.48,1.48,0,0,0,.47-.05,6.73,6.73,0,0,0,1.25-.24l.18,0c.52-.26,1.09-.4,1.62-.64a5.38,5.38,0,0,1,.65-.2.65.65,0,0,1,.34,0,.41.41,0,0,1,.24.17.31.31,0,0,1,0,.32,1.34,1.34,0,0,1-.18.28l-.58.69a.69.69,0,0,1-.13.11,5.49,5.49,0,0,0-.55.53s0,.08,0,.11l1,.35.89.29.29.07c.53.12,1.06.21,1.58.35l1.16.3a.81.81,0,0,0,.38,0l.3,0,1.1-.3.19-.09,1.14-.58.2-.09a2.22,2.22,0,0,0,.41-.2,3.31,3.31,0,0,1,.65-.33l.84-.3c.25-.08.48-.16.74-.22a7.81,7.81,0,0,1,1-.14,1.64,1.64,0,0,1,.62.09.16.16,0,0,1,.1.17.77.77,0,0,1-.17.38,2.75,2.75,0,0,1-.22.26,7.06,7.06,0,0,1-1.26.93c-.23.13-.45.25-.66.39a3.37,3.37,0,0,1-1.15.45l-.42.08-.12,0c-.33,0-.65.07-1,0a1.63,1.63,0,0,0-.54.06,9.87,9.87,0,0,0-1.84.67l-.88.42-.75.3-.25.08-.57.16c-.29.09-.58.13-.87.2a1.53,1.53,0,0,1-.3,0,6.58,6.58,0,0,1-.89,0l-.6-.06-.29,0-2-.46c-.18,0-.36-.1-.54-.15a5.11,5.11,0,0,0-.53-.13.25.25,0,0,0-.17,0l-.4.24-.58.42a.3.3,0,0,1-.11.06,1.86,1.86,0,0,0-.52.28.34.34,0,0,1-.12.06,3.49,3.49,0,0,0-.73.35l-.3.14a.42.42,0,0,0-.19.09,2,2,0,0,1-.45.24l-.78.35a4.38,4.38,0,0,1-.91.35l-.16,0c-.5.22-1,.39-1.5.61a.52.52,0,0,1-.16.06q-.33.07-.66.18l-.57.15a4.75,4.75,0,0,0-.54.14,3.56,3.56,0,0,1-.92.17,3,3,0,0,0-.58.11A5.07,5.07,0,0,1,26,48a2.63,2.63,0,0,0-.42.07c-.26.07-.53.11-.79.2l-.77.23a5.45,5.45,0,0,0-.87.35,5.86,5.86,0,0,1-.57.26,4.68,4.68,0,0,0-1,.6l-.51.39-.44.34a.27.27,0,0,0-.08.1l-.15.35a21.3,21.3,0,0,0-.82,2.32,1.82,1.82,0,0,1-.07.25,10.19,10.19,0,0,0-.35,1.23L19,55a2,2,0,0,0-.07.29c-.08.38-.14.76-.21,1.13a.05.05,0,0,0,0,0l.06,0,.19-.24c.14-.23.27-.46.4-.7a2.83,2.83,0,0,1,.2-.28,2.36,2.36,0,0,0,.28-.42,1.31,1.31,0,0,1,.3-.36l.33-.33a5.77,5.77,0,0,1,.68-.63c.35-.29.74-.53,1.1-.81a11.76,11.76,0,0,1,2.24-1.2c.38-.14.76-.25,1.14-.36s.69-.17,1-.25l.46-.08c.43-.09.87-.13,1.3-.22l.5-.08c.24,0,.47-.07.71-.09s.45,0,.68-.06c.39,0,.77,0,1.15-.08a5.49,5.49,0,0,1,.81,0l.6,0,1.44-.15.38,0a9.91,9.91,0,0,0,1.88-.36c.3-.08.6-.16.91-.22a4.19,4.19,0,0,1,1.06,0,.43.43,0,0,1,.16,0,.13.13,0,0,1,.1.1.14.14,0,0,1,0,.14,4.27,4.27,0,0,1-.57.63c-.16.14-.33.27-.5.4l-.73.58a9,9,0,0,1-.85.64,18.27,18.27,0,0,1-1.61,1l-.22.14c-.53.32-1.08.61-1.64.9a12.14,12.14,0,0,1-1.3.52l-.72.26L30,55l-.53.16c-.31.1-.63.16-.95.23s-.78.14-1.17.21l-.17,0c-.53,0-1.05,0-1.58.06h-.12a1.27,1.27,0,0,0-.55,0c-.59.13-1.19.15-1.78.24a2.7,2.7,0,0,0-.41.08,3.91,3.91,0,0,1-.84.17,1,1,0,0,0-.29.06,3,3,0,0,1-.32.09l-.13,0c-.28.13-.58.22-.87.35l-.65.31c-.29.14-.57.31-.85.48l-.16.13a.3.3,0,0,0-.1.19,5.68,5.68,0,0,0-.11,1,2.11,2.11,0,0,1,0,.25,13.07,13.07,0,0,0-.08,1.53c0,.1,0,.2,0,.3,0,.57,0,1.14-.07,1.7a6.06,6.06,0,0,0,0,.73v.21a.21.21,0,0,1-.2.13.51.51,0,0,1-.3-.22.11.11,0,0,1,0-.08.28.28,0,0,1,0-.13c0-.43,0-.87,0-1.31a7.41,7.41,0,0,1,.08-1.15c.08-.61.14-1.24.17-1.86a9,9,0,0,1,.19-1.56c.1-.49.17-1,.24-1.47a11.62,11.62,0,0,1,.28-1.33c.12-.46.27-.9.43-1.34s.3-.92.46-1.37a16.79,16.79,0,0,1,.6-1.59c.17-.36.3-.74.48-1.09a.24.24,0,0,0,0-.28c-.08-.1-.15-.21-.23-.3l-.65-.74-.17-.19a1,1,0,0,0-.13-.16,9.59,9.59,0,0,1-.8-.89l0,0a3.51,3.51,0,0,0-.42-.59c-.13-.18-.26-.37-.38-.56a2.28,2.28,0,0,1-.17-.3c-.18-.4-.36-.8-.53-1.21a1.4,1.4,0,0,1-.13-.36.46.46,0,0,0,0-.2,3.46,3.46,0,0,1-.19-.7c0-.23-.11-.44-.17-.66l0-.17c-.05-.26-.1-.53-.14-.8,0-.1,0-.2,0-.3a3.91,3.91,0,0,0-.06-.68,1.5,1.5,0,0,1,0-.3,3.56,3.56,0,0,0,0-.8,1.28,1.28,0,0,1,0-.39,4.78,4.78,0,0,0,0-.76c0-.16,0-.31,0-.47s0-.51,0-.76,0-.6,0-.89a1.8,1.8,0,0,0-.16-.79l-.27-.62a8.41,8.41,0,0,1-.33-1.19,5.89,5.89,0,0,1,0-1.57c.08-.38.16-.75.26-1.12a8.53,8.53,0,0,1,.59-1.55,2.34,2.34,0,0,1,.55-.7.36.36,0,0,1,.36-.08.24.24,0,0,1,.14.09,1.42,1.42,0,0,1,.3.74,3.21,3.21,0,0,1,.06.76.28.28,0,0,0,0,.13,9.77,9.77,0,0,1,0,1.53c0,.32,0,.65-.07,1s-.05.68-.08,1c0,.17,0,.34-.05.51a6.38,6.38,0,0,0,0,1v.38c0,.26,0,.51,0,.77A5.43,5.43,0,0,0,18,37.08a.55.55,0,0,0,.08.15c.11.2.22.4.34.59a2.92,2.92,0,0,0,.21.32,6.93,6.93,0,0,1,.7,1.21l.45,1s0,.07,0,.11c.19.62.43,1.2.62,1.82.13.44.27.87.44,1.29l.06.16c0,.29.14.58.17.87s.07.48.1.72a1.48,1.48,0,0,1,0,.21,5.07,5.07,0,0,0,0,.68,4.57,4.57,0,0,1,.05,1,1.84,1.84,0,0,0,0,.33s0,0,0,0a.11.11,0,0,0,.07,0s0,0,0,0a6,6,0,0,1,.46-.91l.39-.8c.19-.41.4-.82.6-1.22.29-.59.61-1.15.95-1.71a1.63,1.63,0,0,0,.09-.19,1.83,1.83,0,0,1,.18-.34,12.33,12.33,0,0,0,.72-1.4,5.86,5.86,0,0,1,.41-.74,2.17,2.17,0,0,0,.3-.66.39.39,0,0,0,0-.21,2.07,2.07,0,0,1,.06-.5,9,9,0,0,0,.15-2.08c0-.68-.09-1.35-.15-2,0-.27,0-.54-.05-.81a4.82,4.82,0,0,1,0-.93.28.28,0,0,0,0-.13c0-.52,0-1.05,0-1.57a5.15,5.15,0,0,1,.11-1c.05-.27.1-.54.13-.8a7.11,7.11,0,0,1,.22-1c0-.07.05-.14.06-.21A8.61,8.61,0,0,1,26.38,27c.11-.36.26-.72.38-1.08s.3-.74.46-1.1a3.46,3.46,0,0,1,.32-.6c.18-.29.37-.58.57-.85l.09-.14a.26.26,0,0,0,0-.24.05.05,0,0,0,0,0,7,7,0,0,1-.44-1.73,6.31,6.31,0,0,1,0-1.44c0-.33,0-.65.09-1a5.14,5.14,0,0,1,.16-.78c0-.13.08-.25.11-.37a8.64,8.64,0,0,1,.78-2.07.76.76,0,0,1,0-.11,6,6,0,0,1,.49-.94,2,2,0,0,1,.39-.61.54.54,0,0,1,.15-.15.35.35,0,0,1,.35-.09.76.76,0,0,1,.52.35,1.14,1.14,0,0,1,.1.19,4.92,4.92,0,0,1,.26.85c.08.36.11.73.2,1.09a1.87,1.87,0,0,1,0,.25c0,.28.08.56.13.84s.11.85.15,1.27.09.59.16.88l0,0s.07,0,.08,0c.25-.31.49-.63.73-.94s.62-.74.92-1.12A1.81,1.81,0,0,1,34,17a1.07,1.07,0,0,0,.18-.19,3.39,3.39,0,0,1,.65-.54.32.32,0,0,1,.36,0l.11.07a.37.37,0,0,1,.15.25,4.36,4.36,0,0,1,0,.51,4.53,4.53,0,0,1-.13,1.1l-.18.78a6.39,6.39,0,0,1-.22.78c-.12.34-.19.69-.3,1a9.9,9.9,0,0,1-.39,1.08c-.1.2-.16.43-.24.64-.32.8-.7,1.58-1.07,2.36a6.12,6.12,0,0,1-.31.56.57.57,0,0,0-.08.28,3.59,3.59,0,0,0,0,.47,3.86,3.86,0,0,1,0,.76c-.05.55-.09,1.1-.11,1.66a1.49,1.49,0,0,1,0,.21c-.08.38-.15.75-.23,1.13l0,.16c-.12.33-.24.67-.35,1A.37.37,0,0,0,31.85,31.29Zm-5.16,3.8a.44.44,0,0,0,.09-.38,1.78,1.78,0,0,0,.17-.82.08.08,0,0,0,0,0h0c.13,0,.18,0,.16.1s-.07.39-.12.58-.05.28-.08.42A0,0,0,0,0,27,35h0a.45.45,0,0,0,.11-.19,2.43,2.43,0,0,1,.37-.8,2.65,2.65,0,0,0,.25-.54A1.7,1.7,0,0,1,28,33a2.59,2.59,0,0,0,.3-.46c.1-.19.21-.38.32-.55a12.31,12.31,0,0,0,.66-1.1l.15-.3a8.86,8.86,0,0,0,.54-1,6,6,0,0,1,.28-.57,3,3,0,0,0,.29-.75.32.32,0,0,0,0-.17s0,0,0,0h-.08a.18.18,0,0,0-.05.07c-.17.34-.38.66-.58,1a.1.1,0,0,1-.05.06h-.12s-.05-.09,0-.11L29.6,29a5.76,5.76,0,0,0,.68-1.27.47.47,0,0,0,0-.16.28.28,0,0,0,0-.13.66.66,0,0,0-.17-.29.08.08,0,0,0-.08,0s0,0-.06.05l-.06,0s-.1,0-.1-.07.07-.15.09-.23a.54.54,0,0,0,0-.25.1.1,0,0,0-.07-.08.09.09,0,0,0-.1,0l-.07,0a.06.06,0,0,1-.07,0,.11.11,0,0,1,0-.07.75.75,0,0,1,.05-.16.46.46,0,0,0,0-.41c-.05-.14-.1-.27-.16-.4a.25.25,0,0,0-.08-.1.09.09,0,0,0-.07,0,.51.51,0,0,0-.17.24l-.24.64a3.41,3.41,0,0,1-.24.63,2.15,2.15,0,0,1-.28.66,2,2,0,0,0-.18.48c0,.12-.06.24-.1.37l-.07,0a.07.07,0,0,1-.08-.07h0v0a6,6,0,0,1,.3-.84,6.85,6.85,0,0,0,.53-1.43,1.19,1.19,0,0,1,.08-.2c.1-.24.21-.47.3-.7a.26.26,0,0,0-.06-.32.08.08,0,0,0-.1,0h0L29,25a5.38,5.38,0,0,0-.38.85.5.5,0,0,1-.08.2.08.08,0,0,1-.07,0,.1.1,0,0,1-.05-.06.08.08,0,0,1,0-.08,6.16,6.16,0,0,1,.26-.67c.11-.21.2-.43.3-.66a.37.37,0,0,0,0-.21.12.12,0,0,0-.13-.08l0,0-.06.05a.11.11,0,0,1-.12,0,.08.08,0,0,1,0-.11c0-.1.07-.19.1-.28s0-.06,0-.07a.11.11,0,0,0-.08,0,.1.1,0,0,0-.06,0,6,6,0,0,0-.47.86,0,0,0,0,1,0,0h0s-.08-.07-.07-.09a1,1,0,0,1,.12-.32c.15-.27.31-.54.49-.8a.18.18,0,0,0,0-.16.1.1,0,0,0-.13-.05h0a1.28,1.28,0,0,0-.29.36c0,.09-.1.17-.15.26s-.22.39-.34.58a10.33,10.33,0,0,0-.64,1.44.8.8,0,0,1-.07.2l-.3.84c-.07.22-.13.43-.19.65s-.11.44-.16.66-.15.64-.2,1-.12.64-.17,1-.08.48-.1.72a2,2,0,0,0,0,.34s0,.08,0,.12c-.05.5,0,1-.05,1.49a2.34,2.34,0,0,0,0,.38,2,2,0,0,1,0,.34,2.09,2.09,0,0,0,0,.25c.05.51.09,1,.14,1.53,0,.18,0,.37.06.55l.05.06s.07,0,.07-.09a1.48,1.48,0,0,0,0-.21c0-.32-.07-.63-.1-.93a2.55,2.55,0,0,1,0-.39c0-.18,0-.37,0-.55s0-.37,0-.55,0-.37,0-.55c0,0,0,0,.06,0l0,0a1.86,1.86,0,0,1,0,.34c0,.37,0,.74,0,1.1v.42l.06.68a.59.59,0,0,0,0,.13s0,0,.07,0l0,0c.05-.27.11-.53.16-.79s.09-.54.15-.8.11-.67.16-1,.16-.86.25-1.29a4,4,0,0,1,.16-.49c0-.12.07-.24.1-.36.1-.36.19-.72.28-1.08a1.43,1.43,0,0,1,.17-.43l.07,0a0,0,0,0,1,0,0,1.48,1.48,0,0,1,0,.21c-.1.34-.21.67-.3,1s-.2.74-.3,1.1l-.06.25c-.05.25-.1.5-.16.75a6.8,6.8,0,0,0-.13,1s0,.07.05.11a.36.36,0,0,0-.13.21c0,.18-.05.36-.07.54a.22.22,0,0,0,.05.11l-.08.1a.24.24,0,0,0,0,.28l-.05.06s0,0,0,0l0,0Zm-9.29.18h0a1.13,1.13,0,0,0,.08.24s0,0,.06,0l0,0a.34.34,0,0,0,0-.2,2.44,2.44,0,0,1,0-.38c0-.16,0-.32,0-.47a3.21,3.21,0,0,1,.06-.76,1,1,0,0,0,0-.17,8.72,8.72,0,0,0,.06-1,1.11,1.11,0,0,1,0-.17c0-.38.08-.76.09-1.14a12.34,12.34,0,0,0,0-1.36L17.76,29a2.21,2.21,0,0,0-.05-.25.85.85,0,0,0-.15-.3.2.2,0,0,0-.23,0,1,1,0,0,0-.31.28,5.11,5.11,0,0,0-.45.83,4.27,4.27,0,0,1-.27.67.75.75,0,0,0,0,.16c-.08.33-.13.67-.22,1a4.05,4.05,0,0,0-.12.85,4.26,4.26,0,0,0,.08,1c0,.19.1.38.13.58a.19.19,0,0,0,0,.08.1.1,0,0,0,.07,0s.05,0,.06,0l0-.21a1.83,1.83,0,0,1,.07-.46h.06c0,.26,0,.51,0,.77a2.13,2.13,0,0,0,.14.83c.08.2.17.39.25.59l0,0h0l0,0c0-.3-.08-.59-.12-.88a5.81,5.81,0,0,1-.07-1.1,1.6,1.6,0,0,0,0-.38,1.55,1.55,0,0,1,0-.43c0-.1,0-.2,0-.3a6.38,6.38,0,0,1,.1-1,5.55,5.55,0,0,0,.13-.71s0,0,.06,0,.09,0,.08.07a3,3,0,0,1-.1.67.47.47,0,0,0,0,.16,2.32,2.32,0,0,1-.07.46,1.25,1.25,0,0,0,0,.47.37.37,0,0,1,0,.21,2.41,2.41,0,0,0,0,.38c0,.1,0,.2,0,.3v.25a7,7,0,0,0,.08.8,2,2,0,0,1,0,.34,4.73,4.73,0,0,0,.22,1,.05.05,0,0,0,0,0s.06,0,.08,0a.06.06,0,0,0,0-.06,1.49,1.49,0,0,0,0-.21.2.2,0,0,1,.06-.15Zm-.35,1.6h0a.76.76,0,0,1-.18-.33,2.17,2.17,0,0,0-.07-.24l-.06,0s-.07,0-.07.09v.17c.07.3.1.61.19.91h-.05l-.07,0a.08.08,0,0,0-.11,0s0,0,0,0a1.2,1.2,0,0,0,0,.5,3.3,3.3,0,0,0,.25.81.49.49,0,0,1,0,.16,1.73,1.73,0,0,0,.11.32c.14.3.26.6.37.91a2.21,2.21,0,0,0,.16.35c0,.06.08.12.11.18.22.41.43.83.64,1.25a.37.37,0,0,1,.05.11s0,.06,0,.06h0a1.73,1.73,0,0,1-.3-.41l-.26-.49a10.32,10.32,0,0,1-.56-1.1A9.31,9.31,0,0,1,16.78,39a.05.05,0,0,0,0,0l-.08,0a.07.07,0,0,0,0,.06,4,4,0,0,0,.1.5,1.89,1.89,0,0,1,.1.41,2.91,2.91,0,0,0,.15.58c.12.3.28.59.42.88.06.14.13.28.2.43a.19.19,0,0,1,0,.08l0,0,0,0a.14.14,0,0,1-.12-.1,3.06,3.06,0,0,0-.28-.67c-.08-.17-.15-.34-.22-.5s-.17-.39-.25-.59l0,0,0,0a1.44,1.44,0,0,0,0,.46c.05.22.1.44.16.66s.06.16,0,.22,0,.08,0,.12c0,.35.15.7.21,1a3,3,0,0,0,.22.78.56.56,0,0,1,0,.12,4.24,4.24,0,0,0,.31.84c.09.17.16.36.24.54a1.68,1.68,0,0,0,.15.3c.16.25.33.49.51.74l.4.55a2.47,2.47,0,0,0,.21.27,7.54,7.54,0,0,0,.55.58,1.15,1.15,0,0,1,.14.17l.23.25a1.79,1.79,0,0,1,.22.25c.13.15.27.29.41.43a.05.05,0,0,0,0,0h0l0,0a.19.19,0,0,0,0-.08c-.11-.47-.21-.94-.32-1.41a.44.44,0,0,0-.06-.16,9,9,0,0,1-.38-1,5.56,5.56,0,0,0-.36-1,1.69,1.69,0,0,1-.13-.31,1,1,0,0,1,0-.17s0,0,0,0,.06,0,.07,0a2.43,2.43,0,0,0,.36.72.61.61,0,0,1,0,.12,6.9,6.9,0,0,1,.29.8,4.84,4.84,0,0,0,.22.6,2.7,2.7,0,0,1,.14.4c.09.34.17.68.24,1a.5.5,0,0,0,.09.24h0l0,0,0-.08c0-.21,0-.42,0-.64A9.9,9.9,0,0,0,21,46c0-.21,0-.42-.05-.64A8.71,8.71,0,0,0,20.75,44c-.1-.25-.17-.51-.25-.77s-.19-.5-.26-.76c-.15-.57-.38-1.1-.54-1.66a2.88,2.88,0,0,0-.13-.31c-.1-.21-.18-.42-.26-.63a3.79,3.79,0,0,0-.26-.58c-.21-.37-.42-.74-.66-1.1l-.6-.93a12.32,12.32,0,0,0-.65-1.05.63.63,0,0,0-.11-.12s-.05,0-.08,0,0,0,0,0a.49.49,0,0,0,0,.17c0,.14.08.27.11.41a.76.76,0,0,1,0,.15Zm14.19-7.2a.52.52,0,0,0,0-.25,1.27,1.27,0,0,1,0-.34,9,9,0,0,0,0-1.27,3.43,3.43,0,0,0-.06-.55,4.27,4.27,0,0,1-.1-.8,8.78,8.78,0,0,0-.1-.88,2.46,2.46,0,0,0-.07-.29,6.32,6.32,0,0,1-.24-1.21c-.06-.4-.15-.81-.24-1.21a2.48,2.48,0,0,1-.06-.54c.06,0,0-.06,0,0a.31.31,0,0,1,.07.09c.06.19.1.39.16.58a5.66,5.66,0,0,1,.25,1.29A2.42,2.42,0,0,0,31,25a2.93,2.93,0,0,1,.1.37c.09.46.15.93.2,1.39,0,.28.05.57.08.85a7.26,7.26,0,0,1,0,1.4,1.93,1.93,0,0,0,0,.34,2.91,2.91,0,0,1,0,.59.37.37,0,0,0,.06.25l-.05.06s0,.05,0,.05a.05.05,0,0,0,0,0,.17.17,0,0,0,0-.07.57.57,0,0,0,.08-.24c.05-.33.1-.65.16-1a5.83,5.83,0,0,0,.06-.72.53.53,0,0,0,0-.12V28l0,0h.08a.54.54,0,0,1,.05.11,2,2,0,0,1,0,.77c0,.25-.07.5-.1.76s-.05.3-.08.46a1.94,1.94,0,0,1-.05.2v.13s0,0,0,0,.06,0,.07,0a4.26,4.26,0,0,0,.26-.76c0-.14.05-.29.09-.42a3.83,3.83,0,0,0,.13-1,5.39,5.39,0,0,1,.06-.8,5.25,5.25,0,0,0,0-1.19,9.28,9.28,0,0,1-.07-1.06.49.49,0,0,0,0-.12c-.11-.82-.26-1.63-.35-2.45,0-.12,0-.25-.07-.37l-.06-.47c0-.22-.05-.45-.07-.67s-.05-.43-.07-.64c-.05-.51-.1-1-.16-1.52,0-.21-.07-.42-.1-.63-.06-.51-.12-1-.21-1.52s-.19-1.15-.3-1.72a3.62,3.62,0,0,0-.22-.73.8.8,0,0,0-.2-.28.39.39,0,0,0-.62.08.18.18,0,0,0-.05.07,1.41,1.41,0,0,1-.27.43.85.85,0,0,0-.15.3,1.59,1.59,0,0,1-.07.2c-.17.24-.22.55-.4.79-.17.42-.35.84-.5,1.26a8.42,8.42,0,0,0-.24.86,8.87,8.87,0,0,0-.25,2c0,.21,0,.43,0,.64,0,.45.13.9.18,1.35l0,.12c.16.38.26.78.45,1.15s.3.64.48,1a6.1,6.1,0,0,1,.37.72,1.63,1.63,0,0,0,.11.23,2.88,2.88,0,0,1,.3.61c.09.24.18.48.28.71a10.77,10.77,0,0,1,.5,1.22A7.49,7.49,0,0,1,31,29c0,.18.07.36.1.54a.23.23,0,0,0,.11.17l0,.06s0,.06,0,.05,0,0,0,0,0-.06,0-.08ZM20,56.15a.15.15,0,0,0-.14.06s0,0,0,.07,0,0,0,0l.1-.12a.13.13,0,0,0,.12,0,2.87,2.87,0,0,1,.48-.28.25.25,0,0,1,.12,0l0,0v0a1.42,1.42,0,0,1-.45.32,5.25,5.25,0,0,0-.49.33,1,1,0,0,0-.17.18c-.13,0-.14,0-.09.05l.06,0,0,0h.12c.18-.06.34-.14.51-.21A9.73,9.73,0,0,1,21.53,56,1.54,1.54,0,0,1,22,56a2.13,2.13,0,0,0,.79-.15,1,1,0,0,1,.46-.07,1.07,1.07,0,0,0,.25,0,5.31,5.31,0,0,1,.89-.13,2.72,2.72,0,0,0,.63-.08.75.75,0,0,1,.3,0c.48,0,1,0,1.44,0a8.56,8.56,0,0,0,1.23-.13l.12,0c.34-.05.67-.12,1-.19s.65-.22,1-.28c.5-.17,1-.33,1.52-.52a7.71,7.71,0,0,1,.8-.3l.19-.08,1.2-.65c.26-.14.51-.3.78-.44l.69-.42,1-.67c.23-.17.46-.33.68-.51a6.36,6.36,0,0,1,.77-.6,5.78,5.78,0,0,0,.71-.6,1.78,1.78,0,0,0,.22-.26.08.08,0,0,0,0,0s0-.09,0-.1a2.44,2.44,0,0,0-.47,0,1.74,1.74,0,0,0-.75.09l-.16,0c-.42.1-.84.19-1.24.31a1.3,1.3,0,0,1-.33.07,3,3,0,0,0-.51.07,2,2,0,0,1-.42.05,1,1,0,0,0-.25,0l-.3,0c-.42,0-.84.06-1.27.13a1.94,1.94,0,0,1-.42,0c-.44,0-.88,0-1.31,0a.82.82,0,0,0-.22,0,2.32,2.32,0,0,1-.46,0h-.26l-1.27.14c-.11,0-.22,0-.33.06s-.47.11-.71.14a12.87,12.87,0,0,0-1.38.25,5.47,5.47,0,0,0-.7.16c-.34.1-.68.21-1,.33l-.71.29-.65.32c-.37.21-.73.43-1.08.67s-.72.56-1.08.83a2.4,2.4,0,0,0-.4.38,1.72,1.72,0,0,1-.34.32,1.45,1.45,0,0,0-.4.52,1.27,1.27,0,0,0,.24-.14,1.56,1.56,0,0,0,.2-.16,2,2,0,0,1,.71-.45,0,0,0,0,1,0,0s0,0,0,0a.76.76,0,0,1-.24.23,4.89,4.89,0,0,0-.78.65c-.27.27-.51.58-.76.87a.78.78,0,0,0-.11.18v0s0,0,0,0a.6.6,0,0,0,.15-.09c.13-.1.25-.22.39-.32s.29-.17.44-.27a.65.65,0,0,0,.16-.13l.21-.14.73-.44a6.76,6.76,0,0,1,1.31-.6l.36-.13,0,0s0,.06,0,.07a1.07,1.07,0,0,1-.41.21,4.88,4.88,0,0,0-1.21.6l-.26.15c-.22.13-.44.26-.65.41a4.48,4.48,0,0,1-.44.32A.75.75,0,0,0,20,56.15Zm26.33-29a2.44,2.44,0,0,0,.43.28,3.2,3.2,0,0,1,.51.29,5,5,0,0,0,.54.35,4.24,4.24,0,0,0,1.1.45l.24.08c.36.1.7.22,1.07.3a4.58,4.58,0,0,1,.53.14,3,3,0,0,0,.5.11,12.39,12.39,0,0,0,1.49.07h.64c.53,0,1.07-.08,1.61-.16a5.52,5.52,0,0,0,.71-.11l.17,0a14.37,14.37,0,0,0,1.73-.23l1.71-.34c.37-.08.75-.16,1.12-.22a13.51,13.51,0,0,0,1.7-.37l.21,0a8.73,8.73,0,0,0,1.12-.28l.4-.14A7.56,7.56,0,0,0,65,26.79a.61.61,0,0,0,.14-.1,1.09,1.09,0,0,0,.13-.17.16.16,0,0,0-.06-.19,1.45,1.45,0,0,0-.41-.1c-.2,0-.4,0-.6,0a12.33,12.33,0,0,0-1.61,0,9.69,9.69,0,0,1-1.32,0c-.27,0-.54-.06-.81-.06s-.62,0-.93-.05a9.35,9.35,0,0,1-1.39-.22,7.51,7.51,0,0,0-1.26-.19,3.87,3.87,0,0,1-.67-.1l-.62-.17-.24-.05-.76-.14-.42-.07a3.62,3.62,0,0,1-.46-.06,5.9,5.9,0,0,0-.93-.11,6.36,6.36,0,0,1-1-.09,1.64,1.64,0,0,0-.38,0l-.69,0c-.32,0-.65,0-1,0a10.48,10.48,0,0,0-1.48.17c-.46.09-.9.23-1.36.34,0,0,0,0-.08,0a.11.11,0,0,0,0,.07.1.1,0,0,0,0,.06,3.71,3.71,0,0,0,.47,0,3.41,3.41,0,0,1,1,.15.15.15,0,0,1,.06.05s0,0,0,0h-.12a5.19,5.19,0,0,0-1.57-.08h-.3l-.47,0-.11.05s0,0,0,0a0,0,0,0,0,0,.06h0a8.47,8.47,0,0,0,.88.12,9,9,0,0,1,1.79.36l.24.07c.57.14,1.13.29,1.7.39.31.05.61.15.92.18a1.94,1.94,0,0,1,.42.07,4.9,4.9,0,0,0,1,.19l.21,0s0,0,0,0,0,.06,0,.06a2.26,2.26,0,0,1-.26,0c-.12,0-.25,0-.38,0a3,3,0,0,1-.67-.11,3.41,3.41,0,0,0-.54-.1,1.92,1.92,0,0,1-.62-.14.47.47,0,0,0-.17,0l-.5-.08a2.71,2.71,0,0,1-.41-.09c-.54-.19-1.11-.25-1.64-.44-.1,0-1.5-.24-1.6-.24a.32.32,0,0,0-.17,0c-.08,0-.14.14-.25.15l0,0v0a.69.69,0,0,0,.13.11c.43.2.88.39,1.31.6a3.79,3.79,0,0,0,1,.34.24.24,0,0,1,.11.06s0,0,0,0l0,0a2.08,2.08,0,0,1-.7-.14A8.1,8.1,0,0,1,46.41,27a.73.73,0,0,0-.24-.07.05.05,0,0,0,0,0,0,0,0,0,0,0,0l.19.18ZM27.2,40.82l-.28.11s0,0-.05.06l.07,0,.26,0,.49-.12h0s.06,0,.07,0a.09.09,0,0,1,0,.07,7.7,7.7,0,0,1-.94.26l-.11.05s0,0,0,0a1,1,0,0,0,.38,0c.29,0,.58-.12.88-.16s.64,0,1,0l.08,0,1.23.16c.34,0,.67.14,1,.2a.28.28,0,0,1,.12,0,5.19,5.19,0,0,0,1.09.37l.28.09.76.27c.31.12.62.22.92.35l.55.22.51.21c.09,0,.17.12.25.16a9.21,9.21,0,0,0,1.23.48c.44.13.88.23,1.31.38l.12,0,1.05.22.28.07a3.93,3.93,0,0,0,.67.12l.43,0a4.58,4.58,0,0,0,1.52-.11l1-.26s0,0,0-.06,0,0,0,0l-.51,0a2.53,2.53,0,0,1-.67-.1,1.91,1.91,0,0,0-.33-.06,8,8,0,0,1-1.09-.19c-.36-.09-.7-.23-1.06-.31l-.2-.07-.32-.12a10,10,0,0,1-1-.31,15.3,15.3,0,0,1-1.77-.73l-.08,0c-.37-.14-.73-.33-1.09-.48a.18.18,0,0,1-.07,0s0,0,0,0,0,0,0,0a.45.45,0,0,1,.16,0l.94.4c.16.07.31.15.47.21l.84.3c.21.07.42.17.64.23.42.13.82.31,1.25.43a8.45,8.45,0,0,1,.81.26,2.42,2.42,0,0,0,.53.13l.21,0a2.07,2.07,0,0,0,.42.08l.3,0,1.35.21c.25,0,.5,0,.76,0a1.79,1.79,0,0,0,.6-.17,12.22,12.22,0,0,1,1.16-.54l.79-.32,0,0a.07.07,0,0,0,0-.06h0s0,0,0,0a7.8,7.8,0,0,0-1-.13,1.53,1.53,0,0,1-.37-.08,1,1,0,0,0-.49-.12,2.36,2.36,0,0,1-.46-.1l-.49-.15L42,41.76a1.1,1.1,0,0,1-.44-.15l-.2-.07a9.32,9.32,0,0,1-.9-.27,6.1,6.1,0,0,0-.9-.26l-.08,0c-.29-.13-.6-.19-.88-.33l-.16,0a8.52,8.52,0,0,1-1-.27,6.82,6.82,0,0,1-.77-.23,3,3,0,0,0-.65-.2c-.22-.06-.44-.12-.65-.2a4.84,4.84,0,0,0-.82-.25l-.33-.08a7.71,7.71,0,0,0-1.16-.24,6.3,6.3,0,0,1-1-.14,2.92,2.92,0,0,0-.5-.05,6.08,6.08,0,0,0-1.28.08,3.53,3.53,0,0,0-.78.18l-1,.38-.2.08-.81.46a1.09,1.09,0,0,0-.17.13s0,0,0,0h0a.25.25,0,0,0,.12,0l.78-.34a3.73,3.73,0,0,1,.56-.2s.09,0,.12,0,0,.1,0,.15a.06.06,0,0,0,0,.06,0,0,0,0,0,0,0,10.13,10.13,0,0,1,1.23-.06c.37,0,.74,0,1.1,0h.13c.31.1.64.13.95.25s.35.12.52.18l0,0v0l0,0a3.12,3.12,0,0,1-.67-.11,5.07,5.07,0,0,0-1.5-.25h-.09a1.42,1.42,0,0,0-.46,0c-.13,0-.26,0-.39,0a6.61,6.61,0,0,0-.88.11A14.63,14.63,0,0,0,27.2,40.82Zm19.51-16c-.1.12-.2.25-.3.36l-.07.1s0,.07,0,.08a.12.12,0,0,0,.08,0,.77.77,0,0,0,.55-.29,1.35,1.35,0,0,1,.33-.26h0a0,0,0,0,1,0,0c0,.08-.09.14-.13.22a.19.19,0,0,0,0,.07l0,0h.12c.22-.06.44-.13.66-.18a3.2,3.2,0,0,0,.33-.07,3,3,0,0,0,.3-.16,2.66,2.66,0,0,0,.53-.34c.16-.13.32-.24.47-.37s.6-.51.9-.78a3.37,3.37,0,0,1,.43-.34,2.79,2.79,0,0,0,.54-.42.18.18,0,0,1,.07-.05c.26-.15.48-.35.72-.52a3.65,3.65,0,0,0,.45-.32,2.84,2.84,0,0,1,.73-.44,2.3,2.3,0,0,0,.4-.23,7.62,7.62,0,0,1,.8-.56.53.53,0,0,1,.15-.08,5.93,5.93,0,0,0,.78-.43,2.65,2.65,0,0,1,.4-.24l.41-.2a.08.08,0,0,1,.11,0,.1.1,0,0,1,0,.11l-.21.14a3,3,0,0,0-.56.3,5.44,5.44,0,0,1-.67.37,2.33,2.33,0,0,0-.55.32c-.2.16-.44.27-.63.44l-.11.05a5,5,0,0,0-.84.5c-.4.28-.75.61-1.15.87l-.07.06a2.67,2.67,0,0,1-.57.43l-.24.18c-.35.33-.74.62-1.1.93-.17.15-.35.29-.53.43l-.1.08a.08.08,0,0,0,0,.11.09.09,0,0,0,.12,0,1.46,1.46,0,0,1,.24-.17A3.06,3.06,0,0,0,50.4,24c.16-.16.34-.3.5-.47a1.46,1.46,0,0,1,.24-.17h0s0,0,0,0a1.71,1.71,0,0,1-.42.47,2.72,2.72,0,0,0-.24.24,3.27,3.27,0,0,1-.47.44.1.1,0,0,0,0,.06.11.11,0,0,0,0,.08l0,0a.61.61,0,0,0,.46-.06l.3-.17c.05,0,.08,0,.1.08s.09.16.17.13l.24-.1c.24-.11.48-.25.73-.34a5.22,5.22,0,0,0,1.16-.63c.2-.13.39-.27.58-.42s.47-.36.7-.56.62-.58,1-.85c.54-.43,1.09-.85,1.66-1.24.32-.22.64-.42,1-.62l2.06-1.29a7,7,0,0,0,.6-.4,2.44,2.44,0,0,0,.46-.5.19.19,0,0,0-.06-.26.36.36,0,0,0-.15-.08,5.28,5.28,0,0,0-1-.07,3,3,0,0,1-.42,0,3.77,3.77,0,0,0-.89.05,2.13,2.13,0,0,1-.25,0,5.28,5.28,0,0,0-1.19.11c-.12,0-.25,0-.38,0-.37.1-.75.15-1.11.28s-.83.28-1.25.41a1.71,1.71,0,0,0-.39.17c-.14.08-.29.13-.43.2a15.35,15.35,0,0,0-1.54.72,1.63,1.63,0,0,1-.19.09,1.85,1.85,0,0,0-.71.52c-.06.07-.15.1-.19.18a6.06,6.06,0,0,1-.35.53,3.61,3.61,0,0,1-.72.89,4.89,4.89,0,0,1-.78.65,1.07,1.07,0,0,0-.16.14l-.34.25a5.62,5.62,0,0,1-.64.34,1,1,0,0,0-.31.21,6.25,6.25,0,0,0-.64.62.39.39,0,0,1-.1.08,1.42,1.42,0,0,0-.3.3,5.62,5.62,0,0,1-.41.44,3.56,3.56,0,0,0-.46.49,3.19,3.19,0,0,1-.44.46s0,0,0,0a.13.13,0,0,0,.07,0l.3-.16a4.78,4.78,0,0,0,.92-.82.43.43,0,0,1,.12-.11,2,2,0,0,0,.36-.36c0-.05.1-.05.1,0a.17.17,0,0,1,0,.08A5.6,5.6,0,0,0,46.71,24.79ZM44.14,35.33a4,4,0,0,0,.42-.65,2.62,2.62,0,0,0,.13-.83.61.61,0,0,0,0-.13,3.24,3.24,0,0,0-.4-1,3.09,3.09,0,0,0-.8-.93l-.17-.11-.6-.32a2,2,0,0,0-.48-.18,2.88,2.88,0,0,1-.56-.2,2.73,2.73,0,0,0-1-.29c-.13,0-.26,0-.38,0a4.75,4.75,0,0,0-1.64.17,3.66,3.66,0,0,0-.8.3l-.3.17a.6.6,0,0,0-.15.09l-.55.46a1.08,1.08,0,0,0-.35.47,2.35,2.35,0,0,0-.17.44.1.1,0,0,0,.09.1h0a.13.13,0,0,0,.14-.07.61.61,0,0,0,.05-.12.13.13,0,0,1,.17,0l0,0,.05.08a.16.16,0,0,0,.2.07l.05,0,.16-.13a.11.11,0,0,1,.08,0l.08,0a.07.07,0,0,1,0,.07,1.67,1.67,0,0,1-.08.2.12.12,0,0,0,0,.08l.12.11s.09.08.07.15-.09.08-.18.07l-.13,0h-.08s-.07.05-.08.09a1.15,1.15,0,0,0,.08.41.09.09,0,0,1-.06.1l-.08,0a.1.1,0,0,1-.13,0h0a.24.24,0,0,1,0-.08.7.7,0,0,0-.25-.44.2.2,0,0,1,0-.11.08.08,0,0,0-.07-.09h-.17a.1.1,0,0,0-.09.07.28.28,0,0,0,0,.13,2.47,2.47,0,0,0,.16,1c.1.23.23.45.34.68a1,1,0,0,0,.26.38l.2.22.16.14c.15.11.31.2.46.32a4.27,4.27,0,0,0,.51.3,4.19,4.19,0,0,0,1.37.55,4,4,0,0,0,1.19.06l.5-.06a3.41,3.41,0,0,0,.46-.1,6.44,6.44,0,0,0,1-.42,3.07,3.07,0,0,0,.56-.38A8.14,8.14,0,0,0,44.14,35.33ZM20.9,49.88a.66.66,0,0,0,.24-.11l.61-.44a4.13,4.13,0,0,1,.89-.5l.35-.15a7.41,7.41,0,0,1,1.07-.42,3,3,0,0,0,.45-.13,3.35,3.35,0,0,1,.62-.17,9,9,0,0,1,1.17-.22l.21,0,.42-.07a11.23,11.23,0,0,0,1.28-.28l.62-.15a6.93,6.93,0,0,0,1.1-.32c.32-.13.64-.24.95-.38l.4-.15c.37-.14.74-.27,1.1-.43.61-.28,1.2-.57,1.8-.86l.68-.36a7.15,7.15,0,0,0,1.36-.87c.1-.08.08-.15,0-.22a.32.32,0,0,0-.43,0,.66.66,0,0,1-.17.12l-.78.44a.25.25,0,0,1-.12,0s0,0-.06,0,0,0,0,0a.24.24,0,0,1,.09-.08c.14-.08.28-.13.42-.2a2.11,2.11,0,0,0,.49-.33.1.1,0,0,0,0-.12.14.14,0,0,0-.11-.06l-.16,0c-.05,0-.1.07-.15,0s0-.1,0-.15v0a.06.06,0,0,0,0-.07h0s0,0,0,0a8.66,8.66,0,0,1-1.14.57l-.12,0a.1.1,0,0,1-.07,0,.08.08,0,0,1,0-.08.18.18,0,0,1,.1-.07,5.87,5.87,0,0,0,.83-.42.17.17,0,0,0,.06-.06s0,0,0,0,0,0,0,0h0c-.2.11-.4.2-.61.29s-.6.25-.9.39l-.47.19a9,9,0,0,0-.91.34c-.37.15-.74.29-1.12.41-.05,0-.12,0-.1,0s0,0,.05-.06c.5-.22,1-.45,1.53-.63s.83-.3,1.23-.48a6,6,0,0,1,.85-.39L34.4,43a.1.1,0,0,0,0-.12.32.32,0,0,0-.34-.11.68.68,0,0,0-.2.07l-1,.36a.44.44,0,0,1-.16,0,0,0,0,0,1,0,0,.09.09,0,0,1,0-.07l.07,0a8.55,8.55,0,0,0,1-.38s0,0,0-.07,0,0,0,0l-.4-.16a.94.94,0,0,0-.5,0,3.06,3.06,0,0,0-.73.21l-.32.13a11.71,11.71,0,0,0-1.35.62h0s-.06,0-.06,0h0v-.08a.12.12,0,0,1,.06-.06l1-.44,1.14-.47s0,0,0,0a.06.06,0,0,0,0,0h0l-.3,0a.09.09,0,0,1-.11-.05A.27.27,0,0,0,31.8,42a2.7,2.7,0,0,0-.41.07,5.13,5.13,0,0,0-.7.19,1.65,1.65,0,0,0-.61.18.76.76,0,0,1-.2.06,2.26,2.26,0,0,0-.37.11c-.43.18-.85.38-1.28.57l-.11.06a3.35,3.35,0,0,1-.53.28,7.12,7.12,0,0,0-.67.36c-.27.16-.54.31-.82.45a1.61,1.61,0,0,0-.33.2q-.48.33-1,.69a9.4,9.4,0,0,0-1.36,1.15,1.54,1.54,0,0,1-.19.17,2.79,2.79,0,0,0-.4.44s0,.05,0,.08a.11.11,0,0,0,.08,0,6.86,6.86,0,0,1,.93-.67,3.08,3.08,0,0,0,.52-.37s.11,0,.11,0a.11.11,0,0,1,0,.07,3.39,3.39,0,0,1-.56.44l-.29.2c-.24.17-.46.36-.69.56s-.45.43-.69.63a.63.63,0,0,0-.11.12l-.27.33c-.14.18-.29.35-.42.53,0,0,0,0,0,0s0,0,.05,0,.2-.21.3-.3.41-.31.62-.45c0,0,.05,0,.07,0s0,0,0,0,0,0,0,.08a.11.11,0,0,0,0,.08.08.08,0,0,0,.08,0,2.1,2.1,0,0,0,.3-.15c.22-.15.46-.28.69-.41a.49.49,0,0,1,.16-.05s.05,0,.06.05a0,0,0,0,1,0,0,1.65,1.65,0,0,1-.38.27c-.3.14-.57.32-.85.47s-.63.38-.95.58a.75.75,0,0,0-.25.22,1.8,1.8,0,0,1-.4.38s0,0,0,.07ZM39.55,21.41a1.4,1.4,0,0,0,.22.17.69.69,0,0,0,.15.07.18.18,0,0,0,.21-.1c0-.13.06-.25.1-.37a.33.33,0,0,0,0-.32,2.2,2.2,0,0,1-.17-.25.56.56,0,0,1,0-.12A.1.1,0,0,1,40,20.4h.09l.08,0c.1,0,.1,0,.15-.06s.06-.1.13-.09a.14.14,0,0,1,.13.14,0,0,0,0,0,0,.05c0,.07,0,.1.11.08a.49.49,0,0,1,.17,0,.14.14,0,0,1,.07.16s0,0,0,.05l-.13.11a.08.08,0,0,0,0,.1h0s.08.05.1.08a.19.19,0,0,1,0,.13.16.16,0,0,1-.09.07h-.16a.08.08,0,0,0-.1.05c0,.11-.09.22-.13.32a.18.18,0,0,0,.08.18.7.7,0,0,0,.37.07l.43,0,.21,0,.33-.09.24-.08a2.92,2.92,0,0,0,.57-.37.78.78,0,0,0,.3-.58,2.06,2.06,0,0,1,.2-.82c0-.09.07-.19.1-.28a1.11,1.11,0,0,1,.07-.16c.13-.23.27-.46.42-.68s.16-.2.24-.3a3.45,3.45,0,0,1,.73-.7,1.43,1.43,0,0,0,.24-.19,1.24,1.24,0,0,1,.22-.18.19.19,0,0,0,.08-.1,2.49,2.49,0,0,0,.09-.37,1.27,1.27,0,0,0,0-.34,2.32,2.32,0,0,0-.33-1.21c-.1-.16-.19-.32-.29-.47a2,2,0,0,0-.45-.5,2.4,2.4,0,0,0-.38-.27l-.34-.17a1.35,1.35,0,0,0-.61-.18l-.42,0a2.49,2.49,0,0,0-.77,0,1.49,1.49,0,0,0-.56.19l-.52.28a.66.66,0,0,0-.17.12,4.33,4.33,0,0,1-.53.43,1.38,1.38,0,0,0-.26.22,8.18,8.18,0,0,1-.74.82.36.36,0,0,0-.07.1,2.39,2.39,0,0,1-.12.22,4.72,4.72,0,0,0-.52,1.25s0,.08,0,.12a2.88,2.88,0,0,0-.13,1,3.09,3.09,0,0,0,.19,1c0,.1.07.21.11.32a2.34,2.34,0,0,0,.09.24c.13.23.26.47.41.7A1.84,1.84,0,0,0,39.55,21.41Zm4.36,1a.27.27,0,0,0,.06.1.79.79,0,0,0,.27.2,1.22,1.22,0,0,1,.29.17,1.07,1.07,0,0,0,.51.2,3.1,3.1,0,0,1,.42.08,1.67,1.67,0,0,0,.59,0,3.88,3.88,0,0,1,.59,0,1,1,0,0,0,.25-.05,6.1,6.1,0,0,0,1.08-.4,5.21,5.21,0,0,0,.52-.28c.21-.14.41-.3.61-.46a8.88,8.88,0,0,0,.92-.81,3.45,3.45,0,0,0,.92-1.56,1.93,1.93,0,0,0,.12-1.21.19.19,0,0,0,0-.08,1.1,1.1,0,0,0-.26-.58c-.12-.14-.24-.28-.37-.41l-.27-.2-.25-.22-.08,0-.32-.11a6.17,6.17,0,0,0-.84-.15A4.17,4.17,0,0,0,47,16.8q-.67.25-1.32.57l-.59.42a.71.71,0,0,1-.14.1,3.2,3.2,0,0,0-.47.43l-.17.18a3.6,3.6,0,0,0-.57.79,1.65,1.65,0,0,0-.21.42,3.26,3.26,0,0,0-.15.44,2.14,2.14,0,0,0-.16.74A2.86,2.86,0,0,0,43.45,22a.16.16,0,0,0,.18.07l.22-.14a.16.16,0,0,0,.08-.17c0-.12,0-.16.14-.15s.13.05.2,0,.1-.14.14-.21a.37.37,0,0,1,.05-.11.07.07,0,0,1,.07,0,.08.08,0,0,1,.09,0v0c0,.06,0,.11,0,.17s0,.08.09.07l.16,0c.06,0,.1.07.09.12s-.13.14-.2.23a.36.36,0,0,0,.07.1l.21.15a.06.06,0,0,1,0,.07.16.16,0,0,1-.18.07.71.71,0,0,1-.15-.08.64.64,0,0,0-.75.11ZM33,30.82c.46-.21.82-.49,1.22-.7s.92-.55,1.39-.83c.12-.07.24-.14.37-.2l1.08-.5A12.26,12.26,0,0,1,38.34,28c.17-.06.34-.15.51-.22.38-.15.75-.32,1.14-.45.74-.26,1.48-.5,2.23-.72l.25-.07a3.13,3.13,0,0,0,.52-.16,9.22,9.22,0,0,1,1.26-.4l.12,0a1.22,1.22,0,0,0,.52-.29,5.06,5.06,0,0,0,.86-.87,3.58,3.58,0,0,1,.26-.29l.33-.33a7,7,0,0,1,.7-.74s0,0,0,0a.09.09,0,0,0,0-.07l0,0a9.26,9.26,0,0,1-.92.13,1.67,1.67,0,0,1-.59,0l-.79-.17A2.32,2.32,0,0,1,44,22.9c-.1-.16-.28-.18-.42-.28a.15.15,0,0,0-.16,0l-.12.06a11.2,11.2,0,0,0-1.13.82c-.24.18-.46.38-.7.56s-.48.34-.72.53-.36.26-.55.4-.35.23-.52.36-.35.29-.54.42-.41.3-.62.45-.45.34-.68.51-.48.39-.74.56a6.87,6.87,0,0,0-.91.7c-.15.13-.27.3-.42.42s-.33.22-.48.34-.42.34-.62.52c-.44.39-.88.77-1.33,1.13A1.57,1.57,0,0,0,33,30.82ZM24.66,42.24l-.08.12c0,.09-.08.18-.13.27-.31.57-.59,1.16-.93,1.72-.22.36-.41.74-.63,1.1a6.45,6.45,0,0,0-.49.94c0,.09-.08.18-.13.27l-.45.86s0,0,0,.06,0,0,0,0l.19-.16,1-1.05.13-.12c.19-.14.35-.33.55-.46a2.08,2.08,0,0,0,.32-.27,4.82,4.82,0,0,1,.83-.66c.11-.08.24-.15.35-.24a8.09,8.09,0,0,1,.79-.5,7,7,0,0,0,.8-.47l.22-.13c.29-.15.59-.28.87-.44a8.71,8.71,0,0,1,1.28-.59A12.93,12.93,0,0,1,30.7,42l.37-.1.16-.05a.08.08,0,0,0,0-.07l-.05,0c-.33-.08-.66-.17-1-.22s-.84-.11-1.27-.15a3.63,3.63,0,0,0-.93,0c-.36.07-.72.13-1.09.18a5,5,0,0,0-1.15.26.53.53,0,0,1-.17,0A3.3,3.3,0,0,0,25,42a.57.57,0,0,0-.33.22Zm7.49-20.32h.08s.06,0,.08,0a.11.11,0,0,1,.09.1v0a1.2,1.2,0,0,0-.17.34l0,.13s0,.1.07.09.06,0,.07-.05l.37-.9c0-.11.09-.24.15-.35a1.74,1.74,0,0,1,.11-.18s.06,0,.07,0a.11.11,0,0,1,0,.07c-.12.25-.2.5-.3.76s-.19.53-.3.79c-.06.1-.11.2-.16.3a.41.41,0,0,0,0,.16c0,.14.06.28.09.42s0,0,0,0,.06,0,.07,0,.09-.17.15-.25a.05.05,0,0,1,.07,0,.07.07,0,0,1,0,.06,1.18,1.18,0,0,1-.2.55.46.46,0,0,0-.09.36c0,.2.05.39.08.59,0,0,0,.06,0,.06a.08.08,0,0,0,.08,0,2.83,2.83,0,0,0,.2-.28c.14-.26.26-.53.4-.8.22-.43.38-.88.58-1.32,0-.1.09-.21.13-.31l.24-.64a7.16,7.16,0,0,0,.3-.89,7.49,7.49,0,0,1,.23-.81c.08-.25.15-.49.21-.74a15.05,15.05,0,0,0,.35-1.75,2.68,2.68,0,0,0,0-.8.21.21,0,0,0-.26-.13h0l-.1.07a4.13,4.13,0,0,0-.55.47,3.45,3.45,0,0,0-.53.55,1.54,1.54,0,0,1-.17.19,1.64,1.64,0,0,0-.4.43,2.18,2.18,0,0,0-.26.34c-.07.12-.2.2-.25.34a4.43,4.43,0,0,0-.57.84.45.45,0,0,1-.11.13.34.34,0,0,0-.12.37l0,.17a.15.15,0,0,0,.13.14.1.1,0,0,1,.08.1v0a.94.94,0,0,0-.12.22.59.59,0,0,0,0,.37s0,0,.07.05a.11.11,0,0,0,.07,0,.25.25,0,0,0,0-.07,4.4,4.4,0,0,1,.39-.66c.21-.29.4-.58.6-.87l.11-.19.23-.4a.11.11,0,0,1,.12,0s0,.06,0,.08l-.15.25a7.39,7.39,0,0,1-.64,1,7.64,7.64,0,0,0-.54.92c-.08.15-.14.31-.21.46A.2.2,0,0,0,32.15,21.92Zm-6.22,17a1.05,1.05,0,0,0,.25-.3,2.71,2.71,0,0,1,.24-.35c.23-.29.38-.63.6-.93s.46-.74.67-1.13a1.73,1.73,0,0,1,.19-.28l.14-.21a2.87,2.87,0,0,1,.28-.43c.09-.12.19-.25.27-.38a10.46,10.46,0,0,1,.65-.84l.12-.12a.75.75,0,0,0,.21-.26,1.57,1.57,0,0,1,.35-.42,5.48,5.48,0,0,0,.52-.56,1,1,0,0,1,.27-.28.3.3,0,0,0,.13-.21,2.39,2.39,0,0,0,.09-.45c0-.43.06-.85.06-1.28s-.06-.65-.08-1a4.25,4.25,0,0,0-.14-.71.1.1,0,0,0-.05-.06s-.07,0-.07,0a8.86,8.86,0,0,0-.54,1,6.85,6.85,0,0,1-.37.71c-.13.2-.23.43-.35.63s-.28.46-.43.69-.17.26-.24.4-.28.46-.42.68l-.19.33c-.18.34-.36.68-.53,1a2.91,2.91,0,0,0-.22.51c-.05.15-.11.29-.17.43a4.35,4.35,0,0,0-.25.59c-.08.31-.2.62-.29.93a7.55,7.55,0,0,1-.29.84,7.49,7.49,0,0,0-.34,1A1.07,1.07,0,0,0,25.93,38.92ZM37.72,26.3l.08,0,.9-.57a2.33,2.33,0,0,0,.38-.26,5.58,5.58,0,0,1,.56-.39c.15-.1.3-.22.44-.33.66-.51,1.31-1,2-1.51l.17-.12a9.36,9.36,0,0,1,.94-.72.14.14,0,0,0,.07-.18h0a5.4,5.4,0,0,1-.25-.67l0,0a.11.11,0,0,0-.11,0l-.29.19a4,4,0,0,1-.41.23,2.81,2.81,0,0,1-1.41.21h-.29a.23.23,0,0,0-.21.13,5.5,5.5,0,0,1-.61,1.21c-.2.33-.44.63-.64.95l-.25.39c-.06.09-.1.17-.16.25-.29.39-.54.8-.85,1.17a.39.39,0,0,0-.06.11Zm9.21,16.12s-.06,0,0,.06a0,0,0,0,0,0,0,.78.78,0,0,0,.33.07c.26,0,.51,0,.77,0a3.33,3.33,0,0,0,1.09-.14l.25-.07a3.65,3.65,0,0,0,.82-.34A18.3,18.3,0,0,0,51.84,41a2.75,2.75,0,0,0,.26-.22l.21-.2a.37.37,0,0,0,.09-.19.09.09,0,0,0,0-.11.54.54,0,0,0-.33-.07l-.16,0-.8.14-.13,0-.64.21A8.08,8.08,0,0,0,49,41.1c-.26.14-.54.25-.81.38a3.29,3.29,0,0,0-.49.26s0,0,0,.08h0a.73.73,0,0,0,.33,0,7.75,7.75,0,0,1,.83-.21,2.64,2.64,0,0,0,.6-.2.84.84,0,0,1,.44-.13l0,0a.22.22,0,0,1,0,.08l0,0-.55.23a2,2,0,0,1-.53.16,2.89,2.89,0,0,0-.58.14c-.24.08-.5.08-.75.15a.74.74,0,0,1-.21,0,1.42,1.42,0,0,0-.53.13s0,0,0,0,0,0,.06,0h.6s0,0,0,0a0,0,0,0,1,0,0Zm-7-1.9a9.85,9.85,0,0,0,.78-.67,3.45,3.45,0,0,0,.45-.56.82.82,0,0,0,.09-.19.15.15,0,0,0-.11-.19h0a.47.47,0,0,0-.17,0,1.17,1.17,0,0,0-.45.09c-.46.18-.92.37-1.39.54a1.57,1.57,0,0,0-.23.09,1.74,1.74,0,0,1-.36.13,3.34,3.34,0,0,1-.83.19l-.16,0a.18.18,0,0,0-.07,0s0,0,0,0a.06.06,0,0,0,0,0,2.81,2.81,0,0,0,.56.18.47.47,0,0,0,.17,0l.3-.16s0,0,.06,0v0a.22.22,0,0,1,0,.08l-.07.15a0,0,0,0,0,0,0,.13.13,0,0,0,.07,0,1.33,1.33,0,0,0,.34-.16,4.94,4.94,0,0,0,1-.61l.07-.06h0a.09.09,0,0,1,.07,0s0,0,0,0a.77.77,0,0,1-.34.37,6.24,6.24,0,0,0-.66.38l-.09.09a.08.08,0,0,0,0,.1h0l.07,0a.2.2,0,0,0,.24,0l.31-.21a.28.28,0,0,1,.12,0,.11.11,0,0,1,.08,0A1,1,0,0,1,40,40.52ZM19.09,57s0,0-.07,0a.06.06,0,0,0,0,.07.1.1,0,0,0,.07,0S19.1,57,19.09,57ZM26,36.65h0s0-.07,0-.11,0,0,0,0,0,0,0,0A.4.4,0,0,0,26,36.65Zm13.74,4h0s0,0,0,0,0,0,0,0a0,0,0,0,0,0,0Zm-11.1-.6h0l0,0s0,0,0,0a0,0,0,0,0,0,0Z" transform="translate(-15.15 -13.42)"/>
                      </g>
                    </g>
                  </g>
                </g>
              </g>
            </g>
          </g>
        </g>
        <g class="cls-6">
          <g id="Group_568" data-name="Group 568">
            <g class="cls-3">
              <g id="Group_567" data-name="Group 567">
                <g class="cls-3">
                  <g id="Group_566" data-name="Group 566">
                    <g class="cls-4">
                      <g id="Group_565" data-name="Group 565">
                        <path id="Path_572" data-name="Path 572" class="cls-5" d="M15.42,53.59s0,0,0,0l-.21,0s0,0,0,0,0,0,0-.06h.2A0,0,0,0,1,15.42,53.59Z" transform="translate(-15.15 -13.42)"/>
                      </g>
                    </g>
                  </g>
                </g>
              </g>
            </g>
          </g>
        </g>
        <g class="cls-7">
          <g id="Group_572" data-name="Group 572">
            <g class="cls-3">
              <g id="Group_571" data-name="Group 571">
                <g class="cls-3">
                  <g id="Group_570" data-name="Group 570">
                    <g class="cls-4">
                      <g id="Group_569" data-name="Group 569">
                        <path id="Path_577" data-name="Path 577" class="cls-5" d="M36.67,50.56l-.06.06c-.38.22-.77.42-1.16.6l-.35.16a2.26,2.26,0,0,1-.48.16,1.89,1.89,0,0,0-.6.22,1.09,1.09,0,0,1-.31.14,4.41,4.41,0,0,0-.78.32,3.57,3.57,0,0,1-.6.21c-.18,0-.35.11-.53.15l-1,.24c-.4.08-.8.18-1.21.23-.1,0-.2.05-.29.06l-.55.08a7,7,0,0,0-.8.1l-.17,0c-.3,0-.6,0-.89.06a3.17,3.17,0,0,0-.75.12,1.07,1.07,0,0,1-.25,0,.09.09,0,0,1-.1-.07s0-.1.06-.1c.24,0,.47-.11.71-.12l.67-.06a7.89,7.89,0,0,0,.85-.08l.25,0a10.52,10.52,0,0,0,1.56-.24c.37-.07.75-.13,1.12-.21a8.34,8.34,0,0,0,.83-.2,9,9,0,0,0,1.39-.52l.28-.1.31-.13a3.86,3.86,0,0,1,.88-.32,1.66,1.66,0,0,0,.31-.12l1.2-.54.4-.16h0S36.69,50.53,36.67,50.56Z" transform="translate(-15.15 -13.42)"/>
                      </g>
                    </g>
                  </g>
                </g>
              </g>
            </g>
          </g>
        </g>
        <g class="cls-8">
          <g id="Group_576" data-name="Group 576">
            <g class="cls-3">
              <g id="Group_575" data-name="Group 575">
                <g class="cls-3">
                  <g id="Group_574" data-name="Group 574">
                    <g class="cls-4">
                      <g id="Group_573" data-name="Group 573">
                        <path id="Path_582" data-name="Path 582" class="cls-5" d="M24.87,53.67s0,0,0,0a5.28,5.28,0,0,1-1,.31.06.06,0,0,1,0,0,.06.06,0,0,1,0-.07,1.59,1.59,0,0,1,.27-.12,3.82,3.82,0,0,0,.6-.19h.08l0,0S24.87,53.64,24.87,53.67Z" transform="translate(-15.15 -13.42)"/>
                      </g>
                    </g>
                  </g>
                </g>
              </g>
            </g>
          </g>
        </g>
        <g class="cls-9">
          <g id="Group_580" data-name="Group 580">
            <g class="cls-3">
              <g id="Group_579" data-name="Group 579">
                <g class="cls-3">
                  <g id="Group_578" data-name="Group 578">
                    <g class="cls-4">
                      <g id="Group_577" data-name="Group 577">
                        <path id="Path_587" data-name="Path 587" class="cls-5" d="M55.3,27.68s0-.06,0-.07,0,0,.07-.05h1.27a.49.49,0,0,0,.17,0,5.93,5.93,0,0,1,.84-.06l.8-.1,1.06-.1a5.23,5.23,0,0,1,.56,0,1.76,1.76,0,0,0,.51,0l.67-.1c.43-.05.86-.14,1.3-.23a3.22,3.22,0,0,1,.76-.09s0,0,0,.06,0,0,0,0l-.07,0c-.25.06-.49.14-.74.18a8.55,8.55,0,0,0-.88.17,11.44,11.44,0,0,1-1.31.17q-.36,0-.72,0a.69.69,0,0,0-.25,0,5,5,0,0,1-.77.06c-.21,0-.42,0-.63,0l-.68.06a3.7,3.7,0,0,1-.47,0,9.37,9.37,0,0,0-1.06,0,3,3,0,0,1-.42,0A.05.05,0,0,1,55.3,27.68Z" transform="translate(-15.15 -13.42)"/>
                      </g>
                    </g>
                  </g>
                </g>
              </g>
            </g>
          </g>
        </g>
        <g class="cls-10">
          <g id="Group_584" data-name="Group 584">
            <g class="cls-3">
              <g id="Group_583" data-name="Group 583">
                <g class="cls-3">
                  <g id="Group_582" data-name="Group 582">
                    <g class="cls-4">
                      <g id="Group_581" data-name="Group 581">
                        <path id="Path_592" data-name="Path 592" class="cls-5" d="M54.44,27.58s0,0-.07,0l-.67-.07s0,0,0-.06a.06.06,0,0,1,0-.06.51.51,0,0,1,.17,0l.54.08s0,0,0,.07S54.44,27.57,54.44,27.58Z" transform="translate(-15.15 -13.42)"/>
                      </g>
                    </g>
                  </g>
                </g>
              </g>
            </g>
          </g>
        </g>
        <g class="cls-11">
          <g id="Group_588" data-name="Group 588">
            <g class="cls-3">
              <g id="Group_587" data-name="Group 587">
                <g class="cls-3">
                  <g id="Group_586" data-name="Group 586">
                    <g class="cls-4">
                      <g id="Group_585" data-name="Group 585">
                        <path id="Path_597" data-name="Path 597" class="cls-5" d="M34.35,41.12a4.33,4.33,0,0,1-.54-.21l-.06,0a.06.06,0,0,1,0,0s0,0,.06,0l.54.2S34.4,41.06,34.35,41.12Z" transform="translate(-15.15 -13.42)"/>
                      </g>
                    </g>
                  </g>
                </g>
              </g>
            </g>
          </g>
        </g>
        <g class="cls-12">
          <g id="Group_592" data-name="Group 592">
            <g class="cls-3">
              <g id="Group_591" data-name="Group 591">
                <g class="cls-3">
                  <g id="Group_590" data-name="Group 590">
                    <g class="cls-4">
                      <g id="Group_589" data-name="Group 589">
                        <path id="Path_602" data-name="Path 602" class="cls-5" d="M51.24,20.77c-.23.26-.41.47-.62.67s-.31.32-.46.5a6.06,6.06,0,0,1-.55.58c-.26.24-.53.48-.8.7s-.21.23-.32.34a.71.71,0,0,1-.14.1h-.08a.08.08,0,0,1-.06-.1h0a1.38,1.38,0,0,1,.28-.31l1-.94a11.65,11.65,0,0,0,1.07-1.15c.13-.14.29-.27.42-.42a4,4,0,0,0,.31-.45.34.34,0,0,1,.12-.12.1.1,0,0,1,.07,0s.06.06,0,.1a.28.28,0,0,1,0,.12C51.43,20.53,51.31,20.67,51.24,20.77Z" transform="translate(-15.15 -13.42)"/>
                      </g>
                    </g>
                  </g>
                </g>
              </g>
            </g>
          </g>
        </g>
        <g class="cls-13">
          <g id="Group_596" data-name="Group 596">
            <g class="cls-3">
              <g id="Group_595" data-name="Group 595">
                <g class="cls-3">
                  <g id="Group_594" data-name="Group 594">
                    <g class="cls-4">
                      <g id="Group_593" data-name="Group 593">
                        <path id="Path_607" data-name="Path 607" class="cls-5" d="M57.21,19.12s0-.06,0-.08l.22-.12a9.25,9.25,0,0,0,1.13-.58l.11-.06c.25-.12.53-.19.78-.32a.17.17,0,0,1,.12,0s0,0,0,.07a.36.36,0,0,1-.07.1l-.31.14a3.84,3.84,0,0,0-.85.39l-.45.23c-.15.07-.27.14-.42.2a.5.5,0,0,1-.24.06Z" transform="translate(-15.15 -13.42)"/>
                      </g>
                    </g>
                  </g>
                </g>
              </g>
            </g>
          </g>
        </g>
        <g class="cls-14">
          <g id="Group_600" data-name="Group 600">
            <g class="cls-3">
              <g id="Group_599" data-name="Group 599">
                <g class="cls-3">
                  <g id="Group_598" data-name="Group 598">
                    <g class="cls-4">
                      <g id="Group_597" data-name="Group 597">
                        <path id="Path_612" data-name="Path 612" class="cls-5" d="M43.5,33.08l-.08,0-.07,0a1.06,1.06,0,0,0-.55-.45l-.15-.08a2.43,2.43,0,0,0-.87-.34l-.42-.08a.65.65,0,0,1-.2,0,1.94,1.94,0,0,0-.63-.11,3.23,3.23,0,0,0-.76,0c-.13,0-.25,0-.38,0a.12.12,0,0,1-.1,0,.11.11,0,0,1,0-.12.1.1,0,0,1,.1-.07h.72a4.74,4.74,0,0,1,1.3.18c.26.06.52.11.78.19a1.63,1.63,0,0,1,.43.18c.17.1.35.18.53.27a.78.78,0,0,1,.37.45S43.5,33.05,43.5,33.08Z" transform="translate(-15.15 -13.42)"/>
                      </g>
                    </g>
                  </g>
                </g>
              </g>
            </g>
          </g>
        </g>
        <g class="cls-15">
          <g id="Group_604" data-name="Group 604">
            <g class="cls-3">
              <g id="Group_603" data-name="Group 603">
                <g class="cls-3">
                  <g id="Group_602" data-name="Group 602">
                    <g class="cls-4">
                      <g id="Group_601" data-name="Group 601">
                        <path id="Path_617" data-name="Path 617" class="cls-5" d="M39.86,31.45s0-.07,0-.08a.24.24,0,0,1,.11-.06,2.5,2.5,0,0,1,.72.05c.23.07.46.12.69.18,0,0,.07.05.1.08s0,.1,0,.11h-.12A3.57,3.57,0,0,0,40,31.52s-.06,0-.08,0Z" transform="translate(-15.15 -13.42)"/>
                      </g>
                    </g>
                  </g>
                </g>
              </g>
            </g>
          </g>
        </g>
        <g class="cls-16">
          <g id="Group_608" data-name="Group 608">
            <g class="cls-3">
              <g id="Group_607" data-name="Group 607">
                <g class="cls-3">
                  <g id="Group_606" data-name="Group 606">
                    <g class="cls-4">
                      <g id="Group_605" data-name="Group 605">
                        <path id="Path_622" data-name="Path 622" class="cls-5" d="M23.11,47.73s0,0,0,0a.11.11,0,0,1,0-.08c.34-.18.63-.44,1-.61a2,2,0,0,1,.42-.2.94.94,0,0,0,.26-.14,2.1,2.1,0,0,1,.72-.35l.27-.12a3.71,3.71,0,0,1,.55-.22l.77-.23a1.36,1.36,0,0,0,.28-.11,1.14,1.14,0,0,1,.47-.19A11.4,11.4,0,0,0,29,45.09c.23-.07.45-.16.68-.24h.08a.09.09,0,0,1,.06.06.11.11,0,0,1,0,.07,1.51,1.51,0,0,1-.22.11l-1,.32-.62.17a1.52,1.52,0,0,0-.28.09,6.66,6.66,0,0,1-1.15.44,15.36,15.36,0,0,0-1.68.71c-.33.16-.63.37-1,.53a1.1,1.1,0,0,0-.21.14,1.54,1.54,0,0,1-.49.26Z" transform="translate(-15.15 -13.42)"/>
                      </g>
                    </g>
                  </g>
                </g>
              </g>
            </g>
          </g>
        </g>
        <g class="cls-17">
          <g id="Group_612" data-name="Group 612">
            <g class="cls-3">
              <g id="Group_611" data-name="Group 611">
                <g class="cls-3">
                  <g id="Group_610" data-name="Group 610">
                    <g class="cls-4">
                      <g id="Group_609" data-name="Group 609">
                        <path id="Path_627" data-name="Path 627" class="cls-5" d="M33,42.67l0,.06-.15.05a0,0,0,0,1-.07,0h0a.11.11,0,0,1,0-.11.22.22,0,0,1,.23,0l0,0Z" transform="translate(-15.15 -13.42)"/>
                      </g>
                    </g>
                  </g>
                </g>
              </g>
            </g>
          </g>
        </g>
        <g class="cls-18">
          <g id="Group_616" data-name="Group 616">
            <g class="cls-3">
              <g id="Group_615" data-name="Group 615">
                <g class="cls-3">
                  <g id="Group_614" data-name="Group 614">
                    <g class="cls-4">
                      <g id="Group_613" data-name="Group 613">
                        <path id="Path_632" data-name="Path 632" class="cls-5" d="M40.43,15.14l0,0a2.05,2.05,0,0,1,.94-.7l.16-.05.17,0a2.63,2.63,0,0,1,1.08-.08,1,1,0,0,1,.7.29.11.11,0,0,1,0,.11.12.12,0,0,1-.15,0l-.07,0a1.17,1.17,0,0,0-.72-.21,2.78,2.78,0,0,0-1.54.4,1.18,1.18,0,0,0-.32.27l-.3.35a.39.39,0,0,1-.1.08c-.05,0-.13,0-.15,0a.13.13,0,0,1,0-.12l.08-.1.16-.2Z" transform="translate(-15.15 -13.42)"/>
                      </g>
                    </g>
                  </g>
                </g>
              </g>
            </g>
          </g>
        </g>
        <g class="cls-19">
          <g id="Group_620" data-name="Group 620">
            <g class="cls-3">
              <g id="Group_619" data-name="Group 619">
                <g class="cls-3">
                  <g id="Group_618" data-name="Group 618">
                    <g class="cls-4">
                      <g id="Group_617" data-name="Group 617">
                        <path id="Path_637" data-name="Path 637" class="cls-5" d="M41.63,15.25a.08.08,0,0,1,0-.07.12.12,0,0,1,0-.07,1.34,1.34,0,0,1,.8-.23,1.09,1.09,0,0,1,.25,0,.17.17,0,0,1,.1.13s0,.09-.06.09h-.09a1.22,1.22,0,0,0-.86.1l-.16,0Z" transform="translate(-15.15 -13.42)"/>
                      </g>
                    </g>
                  </g>
                </g>
              </g>
            </g>
          </g>
        </g>
        <g class="cls-20">
          <g id="Group_624" data-name="Group 624">
            <g class="cls-3">
              <g id="Group_623" data-name="Group 623">
                <g class="cls-3">
                  <g id="Group_622" data-name="Group 622">
                    <g class="cls-4">
                      <g id="Group_621" data-name="Group 621">
                        <path id="Path_642" data-name="Path 642" class="cls-5" d="M30.11,20.3s-.05,0-.06-.06a6.2,6.2,0,0,1-.09-1c0-.06,0-.12,0-.17s0-.4,0-.6,0-.39,0-.59,0-.7,0-1.06a2.09,2.09,0,0,0,0-.25,3.93,3.93,0,0,1,.06-1s0,0,0,0a.05.05,0,0,1,.07,0,.19.19,0,0,1,0,.08v1.82l.06,1.14v.26a4.51,4.51,0,0,0,.05,1,3,3,0,0,1,0,.42S30.14,20.32,30.11,20.3Z" transform="translate(-15.15 -13.42)"/>
                      </g>
                    </g>
                  </g>
                </g>
              </g>
            </g>
          </g>
        </g>
        <g class="cls-21">
          <g id="Group_628" data-name="Group 628">
            <g class="cls-3">
              <g id="Group_627" data-name="Group 627">
                <g class="cls-3">
                  <g id="Group_626" data-name="Group 626">
                    <g class="cls-4">
                      <g id="Group_625" data-name="Group 625">
                        <path id="Path_647" data-name="Path 647" class="cls-5" d="M30.2,21.23s.1,0,.11,0,.06.24.08.36a.07.07,0,0,1-.05.09h0s-.05,0-.07,0l0,0a.56.56,0,0,1-.06-.4S30.18,21.24,30.2,21.23Z" transform="translate(-15.15 -13.42)"/>
                      </g>
                    </g>
                  </g>
                </g>
              </g>
            </g>
          </g>
        </g>
        <g class="cls-22">
          <g id="Group_632" data-name="Group 632">
            <g class="cls-3">
              <g id="Group_631" data-name="Group 631">
                <g class="cls-3">
                  <g id="Group_630" data-name="Group 630">
                    <g class="cls-4">
                      <g id="Group_629" data-name="Group 629">
                        <path id="Path_652" data-name="Path 652" class="cls-5" d="M49.69,17.62l.07.05a.12.12,0,0,1,0,.11s-.06.06-.11,0l-.31-.14a1,1,0,0,0-.48-.15h-.13a2.38,2.38,0,0,0-.84,0,1.92,1.92,0,0,0-.54.11.66.66,0,0,1-.2.06,1.65,1.65,0,0,0-.83.42l-.1.07s-.15,0-.15,0,0-.1,0-.12a2,2,0,0,1,.85-.53,2.17,2.17,0,0,0,.36-.12,1.22,1.22,0,0,1,.46-.09,6,6,0,0,1,.85,0,2.35,2.35,0,0,1,.86.24A.62.62,0,0,1,49.69,17.62Z" transform="translate(-15.15 -13.42)"/>
                      </g>
                    </g>
                  </g>
                </g>
              </g>
            </g>
          </g>
        </g>
        <g class="cls-23">
          <g id="Group_636" data-name="Group 636">
            <g class="cls-3">
              <g id="Group_635" data-name="Group 635">
                <g class="cls-3">
                  <g id="Group_634" data-name="Group 634">
                    <g class="cls-4">
                      <g id="Group_633" data-name="Group 633">
                        <path id="Path_657" data-name="Path 657" class="cls-5" d="M49.71,18.29l0,0-.11,0a1.28,1.28,0,0,0-.74-.3l-.34,0a1.91,1.91,0,0,0-.63,0l-.33,0s-.05,0-.06,0a0,0,0,0,1,0-.07h0l.07,0a1.53,1.53,0,0,1,.79-.09,3.87,3.87,0,0,1,1.11.29.67.67,0,0,1,.25.16A.08.08,0,0,1,49.71,18.29Z" transform="translate(-15.15 -13.42)"/>
                      </g>
                    </g>
                  </g>
                </g>
              </g>
            </g>
          </g>
        </g>
        <g class="cls-24">
          <g id="Group_640" data-name="Group 640">
            <g class="cls-3">
              <g id="Group_639" data-name="Group 639">
                <g class="cls-3">
                  <g id="Group_638" data-name="Group 638">
                    <g class="cls-4">
                      <g id="Group_637" data-name="Group 637">
                        <path id="Path_662" data-name="Path 662" class="cls-5" d="M17.22,37.35l.06,0a3.29,3.29,0,0,1,.29.52l0,0a0,0,0,0,1-.06,0h0a2.27,2.27,0,0,1-.26-.57.06.06,0,0,1,0,0Z" transform="translate(-15.15 -13.42)"/>
                      </g>
                    </g>
                  </g>
                </g>
              </g>
            </g>
          </g>
        </g>
        <g class="cls-25">
          <g id="Group_644" data-name="Group 644">
            <g class="cls-3">
              <g id="Group_643" data-name="Group 643">
                <g class="cls-3">
                  <g id="Group_642" data-name="Group 642">
                    <g class="cls-4">
                      <g id="Group_641" data-name="Group 641">
                        <path id="Path_667" data-name="Path 667" class="cls-5" d="M19,43.26c-.05-.1-.1-.17-.13-.24s0-.05,0-.06,0,0,0,0a1.21,1.21,0,0,1,.23.47s0,0,0,0-.05,0-.06,0h0C19.06,43.38,19,43.31,19,43.26Z" transform="translate(-15.15 -13.42)"/>
                      </g>
                    </g>
                  </g>
                </g>
              </g>
            </g>
          </g>
        </g>
        <g class="cls-26">
          <g id="Group_648" data-name="Group 648">
            <g class="cls-3">
              <g id="Group_647" data-name="Group 647">
                <g class="cls-3">
                  <g id="Group_646" data-name="Group 646">
                    <g class="cls-4">
                      <g id="Group_645" data-name="Group 645">
                        <path id="Path_672" data-name="Path 672" class="cls-5" d="M17.13,37.05a.27.27,0,0,1,.09.3h0a.25.25,0,0,1-.08-.3Z" transform="translate(-15.15 -13.42)"/>
                      </g>
                    </g>
                  </g>
                </g>
              </g>
            </g>
          </g>
        </g>
        <g class="cls-27">
          <g id="Group_652" data-name="Group 652">
            <g class="cls-3">
              <g id="Group_651" data-name="Group 651">
                <g class="cls-3">
                  <g id="Group_650" data-name="Group 650">
                    <g class="cls-4">
                      <g id="Group_649" data-name="Group 649">
                        <path id="Path_677" data-name="Path 677" class="cls-5" d="M17.15,37.05a.17.17,0,0,1-.09-.18h0a.23.23,0,0,1,.08.18Z" transform="translate(-15.15 -13.42)"/>
                      </g>
                    </g>
                  </g>
                </g>
              </g>
            </g>
          </g>
        </g>
        <g class="cls-28">
          <g id="Group_656" data-name="Group 656">
            <g class="cls-3">
              <g id="Group_655" data-name="Group 655">
                <g class="cls-3">
                  <g id="Group_654" data-name="Group 654">
                    <g class="cls-4">
                      <g id="Group_653" data-name="Group 653">
                        <path id="Path_682" data-name="Path 682" class="cls-5" d="M17.39,35.27l-.06-.09s0,0,0-.07h0a0,0,0,0,1,0,0v.12Z" transform="translate(-15.15 -13.42)"/>
                      </g>
                    </g>
                  </g>
                </g>
              </g>
            </g>
          </g>
        </g>
      </g>
      <g id="Group_761" data-name="Group 761">
        <g id="Group_760" data-name="Group 760">
          <path id="Path_823" data-name="Path 823" class="cls-5" d="M68.93,55.92s-.06-.07-.1-.07.07.07.1.13a.83.83,0,0,0,.52.19A2.09,2.09,0,0,0,70.1,56a6.26,6.26,0,0,1,1.29-.25h.23a.71.71,0,0,0,.32-.07c.07,0,.13,0,.16-.07s.07-.12.1-.12a.19.19,0,0,1,.13,0,4.71,4.71,0,0,0,.75,0c.19,0,.32,0,.32-.36,0-.16.07-.16.2-.16l.1,0c.06.17,0,.26-.07.29s0,.1-.06.2h.87a.42.42,0,0,0,.36-.16h.61a.48.48,0,0,0,.36.16.88.88,0,0,0,.35-.1.52.52,0,0,1,.36-.1h1.06a4.61,4.61,0,0,0,.64-.16.44.44,0,0,0,.23-.33c0-.1-.06-.16-.23-.26a3.52,3.52,0,0,0-1-.16.24.24,0,0,1-.16.07.24.24,0,0,1-.13-.07,1.09,1.09,0,0,0-.61-.16H72.69c-.36,0-.72.16-1,.16a5.45,5.45,0,0,1-1.07.07.42.42,0,0,0-.19.06,5.21,5.21,0,0,1-1.17.26h-.1c-.39,0-.78.19-1.2.19h-.06a.52.52,0,0,1-.48.17,1.43,1.43,0,0,0-.65.13l-.74.19a11.4,11.4,0,0,0-4.24,1.88.3.3,0,0,1-.2.1.13.13,0,0,1-.1,0,.89.89,0,0,1,.07-.42,2.79,2.79,0,0,0,.22-.71c.07-.26.33-.32.26-.65a7.58,7.58,0,0,1,.52-1.52c.19-.45.26-1,.49-1.45a2.91,2.91,0,0,0,.19-.59c-.13-.19,0-.32.07-.48.1-.36.35-.62.45-1a5.71,5.71,0,0,1,.42-1.06.69.69,0,0,0,0-.49.2.2,0,0,1,0-.28h0a.36.36,0,0,0,.23-.29,3.08,3.08,0,0,1,.39-1.1,1.2,1.2,0,0,0,.13-.62.3.3,0,0,1,.1-.25c.19-.07.1-.49.26-.65s.13-.55.26-.78a2.13,2.13,0,0,1,.1-.42,3.36,3.36,0,0,0,.42-1.52c0-.1.06-.13.06-.23a6.6,6.6,0,0,1,.55-1.48.45.45,0,0,0,0-.36.51.51,0,0,1,0-.29c.1-.2.23-.45.36-.68a.86.86,0,0,0,.06-.23c-.13-.23,0-.26.1-.39a1.67,1.67,0,0,0,.16-.58,2.66,2.66,0,0,1,.17-.74c.1-.3.19-.52.29-.78a5,5,0,0,0,.22-1c.07-.33.29-.55.39-.88.13-.58.29-1.1.42-1.68a12.88,12.88,0,0,1,.52-1.84,12.54,12.54,0,0,0,.49-1.72,2.44,2.44,0,0,0-.39-2.3.18.18,0,0,1-.1-.06.48.48,0,0,0-.33-.2.45.45,0,0,0-.35.26,1.4,1.4,0,0,0-.1.39c-.1.49-.2,1-.33,1.52-.19.94-.45,1.84-.64,2.75a33.5,33.5,0,0,1-.81,3.43c-.19.55-.36,1.14-.52,1.75a24,24,0,0,1-.9,3.11c-.07.16-.1.35-.17.58-.26,1-.51,1.91-.84,2.91-.35,1.17-.78,2.27-1.13,3.5-.13.42-.26.78-.42,1.2a7.44,7.44,0,0,1-.36,1.1,5.86,5.86,0,0,0-.39,1.16c-.32.85-.64,1.65-.94,2.5a8.87,8.87,0,0,1-.51,1.29,2,2,0,0,0-.1.32,2.14,2.14,0,0,1-.39,1.07,1.18,1.18,0,0,0-.07.2c-.1.45-.22.94-.35,1.36a1,1,0,0,0,.1.9,5.29,5.29,0,0,1,.29.52c.16.26.29.35.42.35a.5.5,0,0,0,.29-.12c.07,0,.13-.1.23-.17A26.34,26.34,0,0,1,63.72,58c.22-.1.45-.36.71-.39A11.85,11.85,0,0,0,66,57.05a5.49,5.49,0,0,1,1.26-.42h.13a.43.43,0,0,1,.36-.13s.1,0,.12,0a.46.46,0,0,0,.23-.06,2.11,2.11,0,0,1,.75-.13C68.93,56.27,68.93,56.12,68.93,55.92ZM65.31,44.27a.82.82,0,0,1,0,.26s-.06-.1,0-.1a.27.27,0,0,1,.1-.17c0-.16,0-.29.13-.32s0-.32.1-.36,0-.35.13-.38a.56.56,0,0,1,.16-.46s0,0,0,0,0,.1,0,.1a.43.43,0,0,1-.23.36c0,.13,0,.29-.13.39,0,.1,0,.22-.13.32C65.44,44,65.47,44.2,65.31,44.27Zm2-6.54c0-.13,0-.16,0-.26s.06.06.06.06,0,.2-.1.2a.32.32,0,0,1,0,.19.06.06,0,0,1-.06-.06c0-.07,0-.1.1-.13Zm-1.87,4.59s0,.07,0,.13c-.07-.13,0-.1.06-.13s0-.35.1-.38,0-.29.13-.33a1.14,1.14,0,0,0,.07-.32c0,.06.06.13,0,.16s-.07.07-.1.13,0,.32-.13.36S65.6,42.26,65.44,42.32Zm-.23.68s0,0,0-.1c.07.1,0,.1,0,.1a1,1,0,0,1-.06.33.5.5,0,0,0,0-.13,1.24,1.24,0,0,0,.1-.2Zm-.74,2.66c0,.12-.07.16-.13.19s0,.29-.13.36c0,.06,0,.16,0,.19a.22.22,0,0,1,0,.13.41.41,0,0,0,0-.16c0-.07.07-.1.1-.17s0-.29.13-.35.07-.2.13-.2a.32.32,0,0,1,0-.19c0-.07,0-.07,0-.07l0,.1A.48.48,0,0,1,64.47,45.66Zm.22-.9v.29a.11.11,0,0,1-.1-.07v0c0-.07.1-.1.13-.13s0-.33.1-.39a1.44,1.44,0,0,1,.23-.81.89.89,0,0,1-.23.81c0,.13,0,.29-.13.32Zm7,10.64c0-.06,0-.13.1-.13s.06.07.1.07,0,0-.07,0a.21.21,0,0,1-.16,0,.2.2,0,0,1-.1.2h-.16a.18.18,0,0,1-.19-.1.38.38,0,0,1,.32-.1ZM67.09,38.57v-.23a.09.09,0,0,1,.1.07v0a.52.52,0,0,1-.13.13c0,.33,0,.62-.23.71a1.29,1.29,0,0,1-.22.85.88.88,0,0,1,.22-.81A1.12,1.12,0,0,1,67.09,38.57ZM61.62,54.33v.26a.08.08,0,0,1-.1-.07,0,0,0,0,1,0,0,1.13,1.13,0,0,1,.13-.16v-.39c0-.1.1-.1.16-.06a.18.18,0,0,1,0,.22A.32.32,0,0,1,61.62,54.33Zm1.84-5.63c0-.1.07-.49.2-.49s.06.17,0,.23-.13.26-.23.26c0,.16,0,.32,0,.49a11.16,11.16,0,0,0-.29,1.1c0,.32-.33.51-.42.77-.07,0-.07,0-.07-.06a.77.77,0,0,1,.07-.26c.19-.62.38-1.23.61-1.88a.34.34,0,0,1,.13-.16ZM67.6,36.63c0-.13,0-.23,0-.29.07-.26.1-.49.16-.72a1,1,0,0,1,.13-.16c.07.1,0,.16,0,.26C67.76,36,67.8,36.34,67.6,36.63Zm-1.45,5a.64.64,0,0,1-.07.61s0,0-.06,0-.07-.13,0-.13A3,3,0,0,1,66.15,41.62Zm-2.33,5.91h-.07l0-.06a2.69,2.69,0,0,0,.16-.45c.07,0,.07,0,.07.1A.55.55,0,0,1,63.82,47.53ZM66.41,41a.47.47,0,0,1,0-.55s0-.06.06-.06.07.1,0,.13-.1.32-.13.48ZM62.33,52.55c-.07,0-.1,0-.13-.1a.15.15,0,0,1,.13,0s.1,0,.1,0S62.36,52.55,62.33,52.55Zm.19-.55h-.1s0-.23,0-.23.07,0,.1,0,0,.12.07.16,0,0-.07,0Zm-1.29,3.85a1.37,1.37,0,0,0-.13.2S61,56,61,56s0-.19.1-.19S61.16,55.82,61.23,55.85ZM62,53.17a.47.47,0,0,1-.07.22s-.06,0-.06,0v-.13C61.94,53.17,62,53.1,62,53.17Zm12.1,2.1a.27.27,0,0,1,.06-.17c0,.1,0,.26,0,.26s0,0,0-.09Zm-4.44.42s0-.1.07,0,0,0,0,.07a.14.14,0,0,1-.09,0Zm-7-4.3c0,.06,0,.1-.06.1a.16.16,0,0,1,0-.13S62.65,51.39,62.68,51.39ZM68,35.11A.12.12,0,0,1,68,35s0,.19,0,.19Zm.32-1c0,.06,0,.1,0,.19,0-.07,0-.07,0-.1a.41.41,0,0,1,0-.16ZM66.38,39v0l0,0ZM66,40.42h0v.06Zm.29-.85v0l0,0Zm.48-1.81v0h0Zm2.72,17.93h0v0Zm-3.2-14.34h0l0-.07ZM62.2,52.87h0l0-.06Zm10.87,2.5,0,0,0-.06Zm-11.78,0,0-.1,0,.06ZM75.79,55l0,.06,0-.06Z" transform="translate(-15.15 -13.42)"/>
        </g>
      </g>
      <g id="Group_763" data-name="Group 763">
        <g id="Group_762" data-name="Group 762">
          <path id="Path_824" data-name="Path 824" class="cls-5" d="M70.52,43.81c-.1.29-.43.39-.52.68,0,0-.07,0-.1.07a.09.09,0,0,0-.07,0c-.16,0-.19.1-.19.23a.36.36,0,0,1-.23.38.59.59,0,0,0-.32.26c0,.07,0,.16-.06.23a.18.18,0,0,1-.1.06s.06,0,.1.07c-.1.23-.16.45-.26.68-.29.52-.39,1.13-.71,1.65v0c-.07.23-.1.42-.16.62a2.89,2.89,0,0,1-.14.58,2.14,2.14,0,0,0-.06.62,1.5,1.5,0,0,0,0,.84A2.47,2.47,0,0,0,68.12,52a2.26,2.26,0,0,0,1.52,1.29c.2,0,.39,0,.59,0a1.55,1.55,0,0,0,.86-.23,1.2,1.2,0,0,1,.36-.13,4.17,4.17,0,0,0,1.13-.58c.39-.29.81-.55,1.2-.84a4.44,4.44,0,0,0,.94-.78,5.66,5.66,0,0,1,.49-.49l.38-.39a.46.46,0,0,0,.2-.42c0-.22.32-.19.32-.38v0c.13-.1.23-.22.36-.32a11.91,11.91,0,0,1,.94-.94c.06-.06.06-.16.13-.23a4.4,4.4,0,0,0,1-2s0,0,0,0v0l-.11.1h0v0l-.23.32a.86.86,0,0,1-.1.16v.1a3,3,0,0,0-.32.39c-.33.42-.62.78-.94,1.2a2,2,0,0,0-.65.65,1.21,1.21,0,0,1-.39.39c-.35.25-.64.61-1,.9a8.56,8.56,0,0,1-2.2,1.52s0,0-.06,0a.06.06,0,0,1,0-.08l0,0a.61.61,0,0,0,.13-.22s0,0,.06,0,.1,0,.16,0l.49-.32s0-.1.06-.16c.23,0,.33-.13.46-.26v-.07s-.1,0-.1,0-.29.17-.36.33a.93.93,0,0,0-.71.48l-.26.07-1.2.61a2.52,2.52,0,0,1-.71.26,3.82,3.82,0,0,1-1.07.19,1.3,1.3,0,0,1-.9-1.32,1.19,1.19,0,0,0,0-.46,4.3,4.3,0,0,1,.58-2,.94.94,0,0,0,.85.59,9.66,9.66,0,0,0,1.74-.68A12.94,12.94,0,0,1,73,47.37,1.17,1.17,0,0,0,73.5,47a1.12,1.12,0,0,1,.39-.39,3.19,3.19,0,0,0,1.22-1.78c.07-.39.07-.81.13-1.2a3.44,3.44,0,0,0-.13-1.39L75,41.9a1.46,1.46,0,0,0-1.23-.62,1.55,1.55,0,0,0-.48.07,4.27,4.27,0,0,0-1.2.71c-.23.16-.42.36-.62.52s-.39.36-.58.55a1.07,1.07,0,0,0-.16.32.31.31,0,0,1-.23.26Zm4.14-1.61a1,1,0,0,1,.19.61v.32c0,2.43-2.81,4.08-4.92,4.73a2.78,2.78,0,0,1-.58.06c-.16,0-.23-.06-.1-.32s.19-.58.42-.78.1-.26.16-.35a2.3,2.3,0,0,0,.26-.52c.26-.36.55-.71.81-1a.8.8,0,0,1,.23-.22,9.55,9.55,0,0,0,1-.91A8.07,8.07,0,0,1,73,43c.42-.26.81-.64,1.23-.9a.48.48,0,0,1,.2-.07C74.53,42,74.59,42.07,74.66,42.2Zm-5.5,3.49a.13.13,0,0,1-.11.13h0v-.13Zm.16-.13s0-.06.07-.1a.17.17,0,0,0,.1,0s0,0,0,.07Zm8.67.78,0,0s0,0,0,0ZM69.8,44.4l0,0v0Zm0,.48h0v0ZM78,46.24a.09.09,0,0,1,.07,0S78.06,46.24,78,46.24Zm-8.7-.68a0,0,0,0,0,0,0v0Z" transform="translate(-15.15 -13.42)"/>
        </g>
      </g>
      <g id="Group_765" data-name="Group 765">
        <g id="Group_764" data-name="Group 764">
          <path id="Path_825" data-name="Path 825" class="cls-5" d="M85,29.93a.08.08,0,0,0-.09,0A.09.09,0,0,0,85,30,.07.07,0,0,0,85,29.93Zm-1.26,3.91c0,.13,0,.2-.1.2a.19.19,0,0,1-.1,0s-.06,0-.1,0a29,29,0,0,1,1.46-3.33,1.77,1.77,0,0,0,.23-.48c.07-.22.14-.43.19-.65a.73.73,0,0,0,0-.36,4.27,4.27,0,0,0-.29-.61.93.93,0,0,0-.61-.23s0,0-.07,0a2.46,2.46,0,0,0-.84,1.39c-.33.94-.58,1.33-.88,2.3,0,.13-.12.26-.16.39l-.35,1.23v.07a.15.15,0,0,0,.13-.13.62.62,0,0,1,.16-.39.17.17,0,0,1,.13-.1.3.3,0,0,1,.19.1l-.19.52a2,2,0,0,1-.42,0v0s0,0-.07,0a4.71,4.71,0,0,1-.74.06,1.47,1.47,0,0,0-.36,0,1.91,1.91,0,0,1-.58.06c-.52,0-1.07.13-1.56.16-.22,0-.42,0-.61,0h-.15l-.29.06c-.17,0-.23.16-.29.39a1.33,1.33,0,0,0,0,.74c0,.2.13.36.26.33s.1,0,.16,0a6.36,6.36,0,0,1,1.23-.23h.12a4,4,0,0,1,.68-.06,2.63,2.63,0,0,0,.49-.07c.07,0,.1,0,.13,0a.46.46,0,0,0-.13-.2.26.26,0,0,1,.19-.06,2.6,2.6,0,0,0,.68-.1,2.1,2.1,0,0,0,.36,0V35a.1.1,0,0,1,0,.1c0,.06-.06.1,0,.13a32.1,32.1,0,0,0-1.3,3.72,34.75,34.75,0,0,0,1.43-3.53v-.13c.16,0,.19-.1.06-.23a.49.49,0,0,1,.07-.19.45.45,0,0,0,.16,0,.45.45,0,0,1,.23,0c0,.06-.07.1-.07.13a.15.15,0,0,0,0,.1v0H82.1c-.1,0-.19.1,0,.16-.23.81-1.36,3.69-1.43,4-.16.52-.26,1-.45,1.52a35.68,35.68,0,0,1-1.17,3.63c0,.06,0,.19-.06.29-.07.42-.26.81-.29,1.23a.17.17,0,0,1-.07.13l-.13.45a4.14,4.14,0,0,0-.25,1.2s0,0,0,.07A3.36,3.36,0,0,0,78,48.84a4.18,4.18,0,0,0-.16,1.06.4.4,0,0,1-.07.19.09.09,0,0,0,0-.06,13.52,13.52,0,0,1,.13-1.91v0a2,2,0,0,0,.26-1c0-.29.58-2.4.68-2.72a14.18,14.18,0,0,0,.58-2.5c-.1.45-.84,2.91-1,3.3a21.78,21.78,0,0,0-1,4.21v.23a4.58,4.58,0,0,0-.1,1.61c0,.33.19,1,.52,1.2a5.38,5.38,0,0,1,.78.65.39.39,0,0,0,.29.13.84.84,0,0,0,.26-.07l.9-.38a4.85,4.85,0,0,0,1.07-.65s-.07,0-.07-.1l.1-.07v0c0-.07,0-.1.1-.13a2.1,2.1,0,0,1,.52-.55.17.17,0,0,1,.16-.07.47.47,0,0,1,.17,0s.06,0,.13,0,.06,0,.1-.07,0-.1-.07-.13a.15.15,0,0,1-.06-.1c0-.1.16-.13.22-.13h.07a.12.12,0,0,0,.1,0,.07.07,0,0,0,0-.08,0,0,0,0,0,0,0c-.07-.16,0-.22.1-.32a2.56,2.56,0,0,0,.68-.71.27.27,0,0,0,.06-.23c0-.1,0-.13.13-.16a.46.46,0,0,1,.23,0,.35.35,0,0,0,.33-.36v0a.17.17,0,0,0,.13-.19v-.42h-.14c0-.07.07-.1.13-.13v.13c.16,0,.2,0,.23-.23h-.13c0,.06,0,.1-.1.1s0-.1.1-.13.06-.07.13-.1l.06-.23a1.51,1.51,0,0,1,.45-.42c0-.06.07-.1.13-.13a.21.21,0,0,1-.13.16.9.9,0,0,1-.12.36.56.56,0,0,0,.45-.32s0-.13-.1-.17h-.1a.66.66,0,0,1,.35-.38s0,.13.1.06l-.1-.06a.47.47,0,0,1,.17-.33l.61-.64a10.59,10.59,0,0,1,1.13-1.36c.1-.16.1-.23,0-.23s-.1,0-.2.13L86,45.78a18.14,18.14,0,0,1-1.57,1.82l-.52.55a3.79,3.79,0,0,1-.55.65l-.94.94a4,4,0,0,1-.29.29,3,3,0,0,0-.71.61A12.33,12.33,0,0,1,79.64,52a3,3,0,0,1-.58.33s-.06,0-.13,0-.19-.1-.26-.23a1.72,1.72,0,0,1-.13-.68v-.74a3.31,3.31,0,0,1,0-.55,1.91,1.91,0,0,0,.1-.71,1.65,1.65,0,0,1,.1-.62,1.36,1.36,0,0,0,.12-.48l.13-.72a2.71,2.71,0,0,1,.26-.74c.07-.2.07-.36.13-.55a2.13,2.13,0,0,1,.13-.45c0-.1.26-.9.26-1a.75.75,0,0,1,.1-.36c.06-.13.78-2.33.81-2.49.1-.42.23-.84.35-1.23.23-.78,1.69-4.7,2-5.47l.29-.85a.57.57,0,0,0,.22,0,.33.33,0,0,0,.17,0c.06,0,.16-.06.22,0s.07.07.1.07.1,0,.13,0,.07-.13.1-.13,0,0,.07.06.06.13.13.07l-.13-.07c0-.1.1-.06.13-.06v.06c0-.1,0-.1,0,0l.16-.13a.26.26,0,0,1,.19-.06h.1a2.18,2.18,0,0,0,.62-.16c.1,0,.16-.1.23-.07.29,0,.58-.19.87-.19s.45-.2.61-.23a2.51,2.51,0,0,0,1-.35.36.36,0,0,1,.26-.07,1.3,1.3,0,0,1,.33.07,9.33,9.33,0,0,1-.84.55.41.41,0,0,0,.16,0,.45.45,0,0,0,.16,0c.13-.13.26-.1.32-.23h.07c.06,0,.48-.23.48-.33a4.57,4.57,0,0,0,0-.74.19.19,0,0,0-.1-.23.27.27,0,0,0-.12-.06s-.07,0-.1.13a.43.43,0,0,1-.33.22c-.16,0-.26.13-.39.2a.33.33,0,0,1-.26.16.09.09,0,0,0-.1,0c-.1,0-.16.06-.25.06a.2.2,0,0,1-.23.1h-.11c-.1,0-.16,0-.19.07a.94.94,0,0,1-.23.1s-.06,0-.1,0-.1,0-.16,0a.54.54,0,0,1-.39.13.12.12,0,0,0-.1,0,.24.24,0,0,0-.13.07c0,.1-.22.13-.32.13a.4.4,0,0,1-.19-.07s-.13,0-.2.13a.49.49,0,0,1-.39.13c0,.07-.09.1-.16,0s-.13,0-.16,0,0,0-.06,0h-.19c0,.06-.1.06-.16.06a1.36,1.36,0,0,1-.29-.06c0-.07,0-.16.1-.16s.1-.07.12-.13a.12.12,0,0,0-.1,0,.44.44,0,0,0-.19.07s0,0,0,.06,0,.1,0,.13ZM80.23,39l-.52,1.68a1.09,1.09,0,0,0,0,.36c.06,0,.1-.07.1-.13.16-.45.26-.94.42-1.39a2,2,0,0,0,.1-.59ZM83.4,49.12a1.86,1.86,0,0,1,.48-.49v.26l-.22.17A.4.4,0,0,1,83.4,49.12Zm3.85-15.73a.15.15,0,0,1,.1-.06c.06,0,.13.06.23.1-.07.06-.17.06-.23.1s-.33.06-.49.06H86.8A.63.63,0,0,1,87.25,33.39Zm-3.17,1.33c-.45,0,.35.13.35.13h.07v-.1l0-.07A1.72,1.72,0,0,0,84.08,34.72Zm-2.72.45a.87.87,0,0,0-.39-.1.46.46,0,0,0-.23,0,.17.17,0,0,1,0,.1l0,0A3.18,3.18,0,0,0,81.36,35.17Zm3.11-1.65a.58.58,0,0,0,.19,0c.06,0,.1,0,.13-.13a.45.45,0,0,0-.16,0,2.63,2.63,0,0,0-.39.06.11.11,0,0,0,0,.07l0,0s.07.07.1.07S84.43,33.55,84.47,33.52ZM79.71,41a1,1,0,0,0-.23.62s0,0,0,.06A.89.89,0,0,0,79.71,41Zm6.15-7.19a.23.23,0,0,1-.2.13.17.17,0,0,1-.13-.1.14.14,0,0,1,.13-.06.22.22,0,0,1,.16,0,.17.17,0,0,1,.17-.13.26.26,0,0,1,.19.07l-.26.1s0,0-.06,0Zm.51-.81a.31.31,0,0,0,.2.07.61.61,0,0,0,.32-.13v0A1,1,0,0,0,86.37,33Zm.07.75c-.07,0-.1,0-.2,0h-.06a.19.19,0,0,1,.07-.13.46.46,0,0,1,.16-.07c.07,0,.13,0,.13,0a.27.27,0,0,1-.1.17Zm-4,.42c-.07,0-.1,0-.16,0s-.07,0-.07-.1,0-.1,0-.1a.28.28,0,0,0,.13,0h.16Zm.84-2.63c0,.1,0,.13-.13.2h0l0-.16c0-.1,0-.13.1-.13a.07.07,0,0,1,.09,0,.09.09,0,0,1,0,.07Zm1.84,1.82a.22.22,0,0,0-.16,0,.27.27,0,0,0-.16.1c.06.06.13.13.16.1a.21.21,0,0,0,.13-.17s.07,0,.07-.06S85.15,33.34,85.14,33.36Zm1.94.84c.1,0,.17,0,.23,0s.07-.1.07-.1,0,0-.07,0-.1,0-.19,0S87.12,34.1,87.08,34.2Zm-1.39-1c0,.07,0,.07,0,.1s.17,0,.2-.1a.17.17,0,0,1,0-.1c-.07,0-.13,0-.17.07Zm1.78.71V34l0,0s.07,0,.13,0a.09.09,0,0,0,.07,0v-.1Zm-1.39.48.07,0,.32-.1s0-.07,0,0-.19,0-.29.07Zm-1.3-.29c0-.1.07-.16.1-.16A.36.36,0,0,1,85,34s0,0,0,.06S84.85,34.13,84.78,34.1ZM84.14,49H84c-.06,0-.13,0-.16-.13S84.11,48.86,84.14,49ZM81.07,34.23a.86.86,0,0,1-.13,0c-.07,0-.1,0-.1,0s.06-.1.1-.1A.15.15,0,0,1,81.07,34.23Zm4.66.26c-.07,0-.16,0-.2-.06s-.1,0,0,.06,0,.1.07.07.09.06.16-.07Zm1.84-1.07c0-.06.07-.13.13-.13s0,0,.07,0-.07.13-.1.13-.07,0-.1,0Zm-5.85.75a.37.37,0,0,1,.22-.1l-.06.1s-.1,0-.16.06Zm3.1.45c-.06,0-.13,0-.16.07v0c0,.06.06.1.06,0s.07,0,.1-.07Zm.36-.74s0,.13,0,.13v0h-.1v-.13s0,0,0,0Zm-5,1.2c0-.07,0-.07.07-.07s.06,0,.13.07-.07.06-.1.06-.07,0-.1-.07Zm5.24-1.2c0-.07.1,0,.13,0s0,.13-.06.13l-.07-.09Zm-1.1.32s-.06,0-.1.07l0,0v-.06c.07-.07.1,0,.13,0ZM77.67,50.64l-.07.07s0-.07,0-.1l.1-.1ZM84,48.5a.15.15,0,0,1,.13-.13A.13.13,0,0,1,84,48.5ZM80,35s.06,0,.16,0h0s-.07,0-.13,0Zm3.27,14.21c0-.07.06-.1.13-.13A.15.15,0,0,1,83.27,49.25Zm-2.1,2.85c.06,0,.09,0,.09-.1h-.09Zm4.69-17.61,0-.1s0,0,0,0S85.86,34.49,85.86,34.49Zm-1.1,13.4c-.07,0-.1.07-.13.13s.13-.07.13-.13Zm-.88.75c0-.07.07-.13.13-.13s-.06.09-.13.12Zm.65-.52a.09.09,0,0,0,.1-.07v0Zm3.24-14.79q.09-.15.12,0v0c0,.07-.06,0-.12,0ZM87,32.9s-.1-.06-.13,0S87,33,87,32.9Zm-1.16,1.59c-.07,0-.13-.1-.13,0S85.79,34.56,85.86,34.49Zm-2.3-.13s.06-.1.1-.06,0,0,0,0l0,0s-.07,0-.1,0Zm1.32,13.4c-.06,0-.1.07-.13.13A.24.24,0,0,0,84.88,47.76ZM80.36,35.07c0-.1.06-.06.1,0S80.38,35.07,80.36,35.07Zm-.55,0s0,.07,0,.07h-.07s0-.1,0-.07ZM88,33.23a.53.53,0,0,1-.06.1C87.93,33.23,87.93,33.23,88,33.23Zm-1-.33.1,0v0a0,0,0,0,0,0,0h0A.09.09,0,0,0,87,32.9ZM85.37,34c0-.13,0-.1,0-.13A.16.16,0,0,1,85.37,34Zm2.14-1.33s.06.1.1,0S87.57,32.71,87.51,32.71ZM82.59,50c-.07-.06,0-.06,0-.06S82.62,49.93,82.59,50Zm.61-.61c-.06-.07,0-.07,0-.07S83.24,49.31,83.2,49.35Zm-1.84,2.59-.07,0V52S81.33,51.94,81.36,51.94Zm7.51-18.65s0-.06,0,0Zm-9,1.75c0,.07,0,.07-.07.07s0-.07.07-.07ZM77.73,50.41c.07.07,0,.07-.06.07S77.7,50.45,77.73,50.41Zm6.32-16.89a.09.09,0,0,0-.07,0h.1S84.05,33.49,84.05,33.52Zm.55.65-.07,0s.07,0,.07,0Zm2.48,0s0,0-.06,0h0a0,0,0,0,1,0,0h0ZM86,46.53c-.07,0,0,0,0,0h0Zm-1.55-12a0,0,0,0,1,0,0h0v.06S84.47,34.52,84.47,34.49Zm.64.16s0,0,0,0l0,.07ZM82.68,49.8c.07.07,0,.07,0,.07S82.68,49.83,82.68,49.8ZM80.62,35.17s0,0,0,.07S80.62,35.24,80.62,35.17Zm6.76-2.36s-.1-.07,0,0ZM81.29,52h0v0Zm4.76-5.57s0,.07,0,.07.06,0,0-.07Zm-.1.1s-.06,0,0,.07Zm.78-12.91s0,0,0,0Zm-2.2,14.54h0v0ZM81.29,51.9a0,0,0,0,1,0,0Zm6.64-18a0,0,0,0,0,0,0h0s0-.06,0,0Zm-.55-1.07s0,0,0-.06ZM83,32l0,0Zm1.33,16.12s0,0,0,0Zm.41-14.7s0,0,0,0h0ZM82.36,50.19l0,0ZM84.5,48l0,0ZM81.17,52.1v0Zm2.36-17.74s0,0,0,0Z" transform="translate(-15.15 -13.42)"/>
        </g>
      </g>
      <g id="Group_767" data-name="Group 767">
        <g id="Group_766" data-name="Group 766">
          <path id="Path_826" data-name="Path 826" class="cls-5" d="M87.54,38.15a1.8,1.8,0,0,0,.32.06.47.47,0,0,0,.39-.16c.13-.1.2-.23.33-.29.35-.13.42-.45.55-.74a.39.39,0,0,0,0-.26c-.1-.29-.1-.62-.33-.85s-.19-.35-.32-.51a1.54,1.54,0,0,0-.49-.46.83.83,0,0,0-.35-.1.59.59,0,0,0-.36.13.62.62,0,0,0-.26.59,3.86,3.86,0,0,0,.23.87.68.68,0,0,0,.52.42.16.16,0,0,1,.14.18s0,0,0,0l-.1.29C87.73,37.63,87.64,37.86,87.54,38.15Z" transform="translate(-15.15 -13.42)"/>
        </g>
      </g>
      <g id="Group_769" data-name="Group 769">
        <g id="Group_768" data-name="Group 768">
          <path id="Path_827" data-name="Path 827" class="cls-5" d="M92.3,45.59a12.65,12.65,0,0,0,1.39.78.8.8,0,0,0-.23.29.39.39,0,0,1-.35.36c-.17,0-.23.1-.33.16s-.06.16-.1.16l-.16,0c-.19,0-.26.13-.32.26s0,.1-.07.1a1.43,1.43,0,0,0-.61.45,1.17,1.17,0,0,0-.3.19,1.92,1.92,0,0,0-1.16,1c-.23.29-.29.62-.55,1a.86.86,0,0,0,0,.59,3.43,3.43,0,0,0,1,1.75,1.89,1.89,0,0,0,1.36.68,2.58,2.58,0,0,0,.91-.17A2.47,2.47,0,0,0,94,52.39l.29-.23c.68-.48.91-.58,1.23-1.16a2.52,2.52,0,0,1,.39-.59,3.05,3.05,0,0,0,.13-.32,4.6,4.6,0,0,0,.52-1.62v-.16A5.31,5.31,0,0,0,96,47a1.34,1.34,0,0,0-.49-.61c-.13-.13-.1-.19,0-.26s.07-.1.16-.13c.62-.29,3.59-1,4.24-1.13a1.72,1.72,0,0,0,.45-.16c.1,0,.1-.07.1-.1a.36.36,0,0,0-.25-.13h-.14a6.14,6.14,0,0,1-1,.32c-.29.13-2.91.68-3.27.81a1.49,1.49,0,0,0-.45.19.78.78,0,0,1-.39.1,1,1,0,0,1-.49-.16,5.06,5.06,0,0,1-1.13-.64.58.58,0,0,1-.3-.76v0a7.71,7.71,0,0,0,.52-.75,1,1,0,0,1,.71-.6,1.55,1.55,0,0,0,.55-.33A2.59,2.59,0,0,1,96,42.2a3.63,3.63,0,0,0,1.3-.39,7.28,7.28,0,0,1,.77-.13,1.84,1.84,0,0,0,.33,0c.23-.07.32-.13.32-.26s-.19-.26-.32-.33a2.52,2.52,0,0,0-.81-.19,6,6,0,0,1-.74-.07,10.41,10.41,0,0,0-1.1-.16,3.89,3.89,0,0,0-.68.13,7.67,7.67,0,0,0-.84.32,4.66,4.66,0,0,0-2.24,2,3.14,3.14,0,0,0-.42,1.1.27.27,0,0,0,.1.29,1.12,1.12,0,0,1,.35.68C92,45.33,92.17,45.46,92.3,45.59Zm2.46,1.52a.69.69,0,0,1,.13.29,2.62,2.62,0,0,1-.33,1.78A6.34,6.34,0,0,1,91.65,52a2.13,2.13,0,0,1-.42.1H91a.91.91,0,0,1-.46-.1c-.16-.13-.16-.36-.32-.55a.09.09,0,0,0,0-.07c.19-.38,0-.81.19-1.26a3.63,3.63,0,0,1,1.75-2,.8.8,0,0,1,.32-.19,4,4,0,0,0,1-.59c.2-.16.55-.25.78-.42,0,0,.06,0,.1,0a.52.52,0,0,1,.42.29Zm-1.42,4.53s-.1,0,0-.06-.12,0-.1-.07a1.93,1.93,0,0,1,.78-.87c.07,0-.06,0,.07,0s.1.1,0,.1C93.85,51,93.62,51.32,93.34,51.64Zm1.13-1.45c-.07.1-.1.19-.23.26h-.1l0,0c0-.1.06-.22.12-.38s.23-.13.23-.07.07.1,0,.23Zm-2.2,2.13a.1.1,0,0,1-.1,0c0-.16.13-.23.39-.23,0,.23,0,.23-.3.26Zm2.49-2.61s-.07.06-.1.06,0,0-.1,0a.17.17,0,0,0,.1-.13h.06A.18.18,0,0,1,94.76,49.71Zm-2.88,2.68a.15.15,0,0,0,0-.07h.23s0,.07-.07.07ZM93,51.61l0,0h0Zm-.71,1.14h0v0Z" transform="translate(-15.15 -13.42)"/>
        </g>
      </g>
      <g id="Group_773" data-name="Group 773">
        <g id="Group_772" data-name="Group 772">
          <path id="Path_829" data-name="Path 829" class="cls-5" d="M125.6,29.93c0-.1-.13-.1-.26-.13s-.23.1-.32.1-.26-.07-.36-.07a.28.28,0,0,0-.13,0c-.06,0-.1,0-.13,0a.2.2,0,0,1-.13,0c-.1,0-.19-.07-.32-.07h-.58c-.13,0-.23.1-.33.1a.31.31,0,0,1-.13-.06,6.62,6.62,0,0,0-.77,0,6.79,6.79,0,0,0-.78,0,1.15,1.15,0,0,1-.55.1h-.29a1.24,1.24,0,0,0-.68.16,1.07,1.07,0,0,1-.36.1.36.36,0,0,1-.26-.07s-.13,0-.22,0a13.39,13.39,0,0,1-1.62.35.65.65,0,0,1-.36.1,1.15,1.15,0,0,1-.48-.13.47.47,0,0,0-.17,0,.45.45,0,0,0-.32.19.85.85,0,0,1-.55.39,11.21,11.21,0,0,1-1.78.58,17,17,0,0,0-2,.68c-.07.1-.23,0-.33.13a7.2,7.2,0,0,0-1.29.42c-.49.23-1,.43-1.49.62a1.07,1.07,0,0,0-.88.9.26.26,0,0,0,.19.31h0a.69.69,0,0,0,.42-.1c.13-.06.26.1.36.1a.13.13,0,0,0,.1,0h.06c.23-.13.55-.07.75-.29a20.9,20.9,0,0,1,3.5-1.43,24.46,24.46,0,0,1,2.42-.77.83.83,0,0,0,0,.22,6.88,6.88,0,0,1-.13.91,10,10,0,0,1-.22,1.33c-.07.29-.1.61-.17.93l-.19,1.17c-.1.52-.22,1-.29,1.59s-.26,1.16-.29,1.74c-.16.26,0,.55-.19.81-.17.84-.36,1.69-.49,2.56-.1.58-.23,1.2-.29,1.81a8.6,8.6,0,0,0-.23,1.33,38.79,38.79,0,0,0-1,4.27c-.16,1-.42,1.88-.64,2.78-.07.36-.07.59.32.78a.84.84,0,0,0,.29.2l.13,0a.38.38,0,0,0,.36-.29c.12-.52.29-1.07.38-1.62a5.44,5.44,0,0,1,.17-.78c0-.1.45-1.75.45-1.81a3.27,3.27,0,0,1,.26-1.11v-.19a3.7,3.7,0,0,1,.1-.58c.06-.23.13-.42.19-.65a7,7,0,0,0,.19-.91,5,5,0,0,1,.19-1.16.82.82,0,0,0,.07-.3,14.89,14.89,0,0,1,.42-2.07c.19-.64.16-1.32.42-2a.09.09,0,0,0,0-.07c0-.3,0-.6.1-.9a8.75,8.75,0,0,1,.23-.88,2.72,2.72,0,0,0,.16-.74,15.14,15.14,0,0,1,.45-2.4c.2-1,.39-2,.55-3a3.87,3.87,0,0,0,.13-.84,4.09,4.09,0,0,1,.1-.61c0-.13.13-.2.23-.3a6.9,6.9,0,0,1,1.78-.48c.35,0,.71-.13,1-.13h.17c.06,0,.1,0,.13,0a.69.69,0,0,1,.48-.13h.2c.06,0,.12,0,.22,0s.39-.06.62-.06a6.88,6.88,0,0,1,.9-.1c.13,0,.23-.16.36-.1a.42.42,0,0,0,.19,0,2.36,2.36,0,0,0,.46-.1.44.44,0,0,1,.35-.1h4.57a4.57,4.57,0,0,0,1.16.16,6,6,0,0,0,.74-.06c-.12-.13-.25,0-.35-.13a.91.91,0,0,0-.33-.1.47.47,0,0,0-.19.06c-.06-.13-.13-.16-.19-.16h-.2a.43.43,0,0,0-.22-.06.47.47,0,0,0-.2.06.13.13,0,0,1-.12,0c-.1,0-.23-.06-.33-.06a.1.1,0,0,0-.1,0,.15.15,0,0,1-.13,0c-.13,0-.22-.1-.35-.13a.75.75,0,0,0-.33-.1c-.13,0-.29.13-.39.1a1,1,0,0,0-.51-.1.85.85,0,0,1-.42-.06l-.07,0c-.1,0-.13.1-.19.19s0,0-.07,0a.19.19,0,0,1-.13-.1s-.06-.13-.1-.06-.06.1-.1.1S125.66,29.93,125.6,29.93ZM112.82,49.22c.1.16.12.29,0,.35C112.79,49.48,112.72,49.35,112.82,49.22ZM125.44,30a.23.23,0,0,0,.16,0c0,.1-.07.13-.13.13s0,0-.06,0S125.41,30,125.44,30ZM113.2,47l0-.06h0Zm-.48,5.25h0v0Zm1.62-9v0l0,0Z" transform="translate(-15.15 -13.42)"/>
        </g>
      </g>
      <g id="Group_775" data-name="Group 775">
        <g id="Group_774" data-name="Group 774">
          <path id="Path_830" data-name="Path 830" class="cls-5" d="M122.49,48.34c0-.06,0-.13-.1-.16v-.06c0-.07,0-.13.07-.13l.06,0c.1,0,.23.06.23.26v.61a4.16,4.16,0,0,0,.13.59,3,3,0,0,0,1.29,2.16s.13,0,.17.07a.39.39,0,0,0,.19.06,6.23,6.23,0,0,0,2-1.36c.13-.1.06-.25.16-.35a2.1,2.1,0,0,0,.33-.26s0-.1,0-.1h-.1a14.88,14.88,0,0,1-1.75,1.07,1.29,1.29,0,0,1-.58.13.92.92,0,0,1-.29,0,2.2,2.2,0,0,1-.43-1.36,21.41,21.41,0,0,1,1.53-6.63,1.81,1.81,0,0,0,.2-1.23,1.09,1.09,0,0,0-.49-.19.51.51,0,0,0-.29.1.15.15,0,0,1-.13,0,.22.22,0,0,1-.16,0,2.9,2.9,0,0,0-1.39-.23,3.25,3.25,0,0,0-2.07.75,3.37,3.37,0,0,1-.85.65.15.15,0,0,0-.06.1,1,1,0,0,1-.42.45c-.26.13-.2.42-.42.58a7.8,7.8,0,0,0-1.56,2.45.82.82,0,0,0-.12.2,13.23,13.23,0,0,0-.88,4.82,2.06,2.06,0,0,0,.71,1.59l.23.22a.52.52,0,0,0,.39.17,1.89,1.89,0,0,0,.52-.13,6.41,6.41,0,0,0,1.87-1.4c.07-.1.26-.13.33-.26a2.76,2.76,0,0,1,.39-.51c-.1-.26.22-.39.25-.59a2.31,2.31,0,0,1,.26-.55,2.89,2.89,0,0,1,.29-.55c.07-.13.17-.22.13-.38C122.36,48.83,122.43,48.57,122.49,48.34Zm-4.34,4.12s-.1,0-.16.06-.13-.1-.13-.13a.3.3,0,0,1-.06-.23,1.76,1.76,0,0,0-.1-.68.28.28,0,0,1,0-.25,9.42,9.42,0,0,0,.19-1.4,3,3,0,0,0,.13-.52,15.27,15.27,0,0,1,.55-1.74c.16-.36.26-.72.42-1,.07-.13.16-.23.23-.36a4.43,4.43,0,0,0,.42-.81s0-.1.06-.12c.33-.23.49-.59.81-.84s.49-.55.78-.78a6.43,6.43,0,0,1,1.52-.94,2.59,2.59,0,0,0,.88-.58c.1-.07.12-.1.19-.1s.1,0,.16.1.23.26.13.48a7.56,7.56,0,0,0-.45,1.2,8.67,8.67,0,0,1-.65,2c-.29.64-.61,1.29-.94,2a6.32,6.32,0,0,1-.71,1.2c-.19.39-.45.75-.64,1.13A8.28,8.28,0,0,1,118.15,52.46Zm4-3.89a.13.13,0,0,0,0-.1l.06.07s0,.06-.06.1,0,0,0-.07Zm-3.69-3.08h0v0Zm4.28,2h0v0Zm-4.37-1.78v0h0Z" transform="translate(-15.15 -13.42)"/>
        </g>
      </g>
      <g id="Group_777" data-name="Group 777">
        <g id="Group_776" data-name="Group 776">
          <path id="Path_831" data-name="Path 831" class="cls-5" d="M131.17,33.65v.06s-.07,0-.1.07a8.17,8.17,0,0,0-.36,1.16c-.07.26-1.42,3.66-1.36,4,0,0-.07,0-.1.07-.16.55-.36,1.13-.52,1.68a2.16,2.16,0,0,0,0,.36,1,1,0,0,0-.23.61s0,0,0,.07a.84.84,0,0,0,.19-.68c.07,0,.1-.07.1-.13.16-.46.26-.94.42-1.39a1.7,1.7,0,0,0,.1-.59c.54-1.15,1-2.33,1.43-3.52a6.84,6.84,0,0,1,.35-1.17,2,2,0,0,0,0-.49.13.13,0,0,0,.13-.13.68.68,0,0,1,.16-.38.18.18,0,0,1,.13-.1.26.26,0,0,1,.2.1c-.16.57-.34,1.13-.55,1.68a.1.1,0,0,0,0,.1c0,.36-1.36,3.85-1.46,4.21-.16.52-.26,1-.45,1.52a37.26,37.26,0,0,1-1.17,3.62c0,.07,0,.2-.06.29-.07.43-.26.81-.3,1.23a.16.16,0,0,1-.06.13c0,.16-.1.29-.13.45a4.16,4.16,0,0,0-.26,1.2s0,0,0,.07a3.43,3.43,0,0,0-.29,1.13,3.91,3.91,0,0,0-.16,1.07.44.44,0,0,1-.07.19.07.07,0,0,0,0-.06,13.52,13.52,0,0,1,.13-1.91v0a2,2,0,0,0,.26-1,19.89,19.89,0,0,1,.68-2.71,14.28,14.28,0,0,0,.58-2.49c-.1.45-.84,2.91-1,3.3a21.52,21.52,0,0,0-1,4.2v.23a4.65,4.65,0,0,0-.1,1.62c0,.32.19,1,.52,1.2a4.35,4.35,0,0,1,.77.65.42.42,0,0,0,.3.12.54.54,0,0,0,.25-.06l.91-.39a3.79,3.79,0,0,0,1.07-.65s-.07,0-.07-.1.07,0,.1-.06.07-.1.13-.1V52a0,0,0,0,0,0,0h-.1v.1a.08.08,0,0,0,.1-.07v0h0v0s0,0,.07,0l-.07-.07v0a1.86,1.86,0,0,1,.49-.52.17.17,0,0,1,.16-.06.22.22,0,0,1,.16,0,.86.86,0,0,0,.13,0,.18.18,0,0,0,.1-.06c0-.07,0-.1-.06-.13a.15.15,0,0,1-.07-.1c0-.1.16-.13.23-.13h.06a.13.13,0,0,0,.1,0s.06,0,0-.07,0,0,0,0,0-.23.1-.32a2.46,2.46,0,0,0,.68-.72.29.29,0,0,0,.06-.22c0-.1,0-.13.13-.16a.59.59,0,0,1,.23,0,.32.32,0,0,0,.32-.35v0a.18.18,0,0,0,.13-.2v-.42c.19,0,.19,0,.23-.23h0v0a.08.08,0,0,0,.1-.07v0h-.1v0l0,0h0v.1a0,0,0,0,0,0,0h-.14a.21.21,0,0,1,.13-.16c0-.07,0-.13.06-.2a1.51,1.51,0,0,1,.45-.42v0c0-.1.07-.12.13-.16v0a.7.7,0,0,1,.36-.38.46.46,0,0,1,.16-.33c.2-.19.42-.42.62-.64a10.59,10.59,0,0,1,1.13-1.36.25.25,0,0,0,.06-.26c-.1,0-.16.1-.22.16-.39.45-.81.87-1.2,1.33a19.5,19.5,0,0,1-1.58,1.81c-.17.19-.36.35-.52.55a3.72,3.72,0,0,1-.55.64l-.94.94a2,2,0,0,1-.29.29,3,3,0,0,0-.71.62A12.88,12.88,0,0,1,128.67,52a3.33,3.33,0,0,1-.58.33.86.86,0,0,1-.13,0c-.13,0-.19-.1-.26-.23a1.75,1.75,0,0,1-.13-.68v-.74a4.93,4.93,0,0,1,0-.55,1.6,1.6,0,0,0,.1-.72,2.11,2.11,0,0,1,.1-.61,1.19,1.19,0,0,0,.13-.49,6,6,0,0,1,.39-1.45c.06-.2.06-.36.13-.55a1.66,1.66,0,0,1,.12-.45,9.2,9.2,0,0,0,.26-1,.88.88,0,0,1,.1-.36c.07-.13.78-2.33.81-2.49.1-.42.23-.84.36-1.23.23-.78,1.71-4.7,1.94-5.47a1.64,1.64,0,0,1,.13-.43,16.72,16.72,0,0,0,.65-1.84l.71-1.72a8.2,8.2,0,0,1,.94-1.87.91.91,0,0,0,.22-.49,4.75,4.75,0,0,0,.2-.64.73.73,0,0,0,0-.36,5,5,0,0,0-.29-.62.92.92,0,0,0-.62-.22s0,0-.06,0a2.46,2.46,0,0,0-.84,1.39c-.33.94-.81,1.78-1.1,2.75,0,.13-.13.26-.17.39Zm1.26,15.47a1.86,1.86,0,0,1,.48-.49v.26a.89.89,0,0,0-.22.16A.36.36,0,0,1,132.43,49.12Zm.1-18.35a.08.08,0,0,1,.1,0,.09.09,0,0,1,0,.07c0,.1,0,.13-.13.2h0l0-.16c0-.1,0-.13.09-.13Zm-.46.87c0-.06,0-.1.07-.13a.08.08,0,0,1,.13.07l0,.1c-.07,0-.14,0-.17,0Zm1.1,16.73c0-.06.07-.1.13-.13v.13Zm-6.54,2.34s0-.07,0-.1l.1-.1v.12ZM135,46.5s0,0,0,0Zm-3.65,3.72v0h0Zm1-18.94h0v0Z" transform="translate(-15.15 -13.42)"/>
        </g>
      </g>
      <g id="Group_779" data-name="Group 779">
        <g id="Group_778" data-name="Group 778">
          <path id="Path_832" data-name="Path 832" class="cls-5" d="M142.3,50.84a9.29,9.29,0,0,1-2.75.61h-.36a1.77,1.77,0,0,1-.87-.26.65.65,0,0,1-.26-.26,1.71,1.71,0,0,1-.33-.74,8.68,8.68,0,0,1-.1-2.33,2.92,2.92,0,0,0,.1-1.1c.13-.26,0-.55-.12-.81a.51.51,0,0,1-.07-.17.74.74,0,0,1,.29-.29c.42-.32.88-.64,1.3-1s.94-.74,1.42-1.1a.54.54,0,0,0,.16-.1,9,9,0,0,1,1.52-1.1.71.71,0,0,0,.36-.58.29.29,0,0,0-.07-.23l-.19-.32a.52.52,0,0,0-.45-.26l-.13,0a3.8,3.8,0,0,0-1.23.68A3.8,3.8,0,0,1,140,42c-.29.22-.55.45-.81.68s-.48.38-.74.61a16.51,16.51,0,0,1-1.95,1.46c-.06,0-.12,0-.12-.1a.28.28,0,0,0,.19-.26,1.17,1.17,0,0,1,.19-.68.24.24,0,0,0,.07-.16c.06-.36.1-.75.16-1.1,0-.07-.06-.16-.13-.13a.13.13,0,0,0-.1,0c-.06.16-.1.32-.16.52a.34.34,0,0,1-.19-.36s0-.1,0-.13a5,5,0,0,0,.39-1.51,4.81,4.81,0,0,1,.71-2.11c0-.09-.19-.22-.13-.35.2-.42.62-2.36.75-2.82,0-.13,0-.26.16-.29v0a4.25,4.25,0,0,1-.36,2.08c-.12.16-.1.42-.25.58s0,.16,0,.26.06.1.06.16a10,10,0,0,1-.81,2.78c.17.26,0,.46-.06.68a.48.48,0,0,0,.1.33c.1-.36.19-.68.26-1,.13-.61.61-2.49.84-3.14a1.86,1.86,0,0,0,.1-.58,17.93,17.93,0,0,1,.52-2c.06-.19.1-.36.16-.52a8.41,8.41,0,0,0,.19-.87c.2-.68.42-1.33.59-2,.29-1.1.61-2.17.94-3.27a1.06,1.06,0,0,0-.36-1.1c-.13-.12-.23-.25-.42-.25a1.08,1.08,0,0,0-.42.16,1.05,1.05,0,0,0-.49.64,12.89,12.89,0,0,1-.62,2.75,29.08,29.08,0,0,0-.84,3.4,7.7,7.7,0,0,0-.26,1.23c0,.23-.55,1.91-.55,2.17a1,1,0,0,1-.17.68,17.13,17.13,0,0,1-.58,2.24,5.52,5.52,0,0,1-.1.71,25.81,25.81,0,0,0-.65,2.59,7.75,7.75,0,0,0-.32,1.26,4.11,4.11,0,0,1-.29.9.51.51,0,0,1-.26.36.17.17,0,0,0-.08.23l0,0a.4.4,0,0,1,.06.42,3.19,3.19,0,0,0-.19.81l-.59,2.49c-.19.71-.22,1.46-.38,2.2a.3.3,0,0,0,.16.32c.26.2.58.36.87.55a1.87,1.87,0,0,0,.13-.42,9.74,9.74,0,0,1,.49-1.65,1.37,1.37,0,0,0,.13-.45,1.91,1.91,0,0,1,.12-.75,1.25,1.25,0,0,0-.22-.16.78.78,0,0,0,.39-.65c0-.1.1-.22.12-.32.1-.36.17-.71.26-1,0,0,0,0,0-.06a.06.06,0,0,0-.08,0l0,0a.15.15,0,0,0-.06.1.13.13,0,0,1-.1,0,.17.17,0,0,1-.13-.1s0-.16.06-.19.42,0,.46-.2a3.61,3.61,0,0,1,.35-.81h.08s.1,0,.1.07a1.09,1.09,0,0,1,0,.26,2.27,2.27,0,0,0,0,1,2.37,2.37,0,0,1,0,.84V49a1.34,1.34,0,0,1,.16.68,2.29,2.29,0,0,0,.1.23,3.38,3.38,0,0,0,.81,1.1,1.75,1.75,0,0,1,.58.71c.13.26.81.45,1,.45h1a.94.94,0,0,0,.72-.22.63.63,0,0,1,.42-.17.67.67,0,0,0,.51-.13c.13-.12.36-.12.42-.35,0-.07.13-.1.2-.1a1,1,0,0,0,.52-.2c.13-.06.26-.13.42-.19a1.1,1.1,0,0,0,.74-.52c0-.06.13-.1.2-.13Zm-6-6.35s0,.1,0,.13c-.12,0-.25,0-.22.2l0,.1c-.1,0-.1-.07-.1-.13a1.59,1.59,0,0,1,.1-.78s.06-.07.12-.1.07,0,.1,0,.07.06.07.1a.17.17,0,0,1-.07.13A.26.26,0,0,0,136.34,44.49Zm.1-1.32s0,0,.1,0,.13.13.13.2a.66.66,0,0,1-.19.39c-.07,0-.16,0-.16,0a.37.37,0,0,1,.12-.51Zm2.07-9c.07-.13.13-.23.23-.39.13.26,0,.35-.1.45h-.06c-.07,0-.1,0-.07-.06ZM137,37.57a.19.19,0,0,1-.13.22s0,0,0-.06a.14.14,0,0,1,.07-.18l0,0s.06,0,.06,0Zm1.52-2.46a.08.08,0,0,1-.06.13h-.13v-.1c0-.07,0-.13.13-.1a.06.06,0,0,1,.06.06Zm.07-.59c0,.07,0,.1-.1.1s-.07-.06-.07-.06a.52.52,0,0,1,.13-.13s0,.06,0,.09Zm-1.07.78s0,0,.07,0a.22.22,0,0,0,0,.13s-.06,0-.06-.06a.19.19,0,0,0,0-.1ZM139,33.58s-.06,0-.1,0,0,0,0-.07h.1ZM136.12,41l.06,0v0Zm-.91,7.41,0,0h0Zm1.29-3.2,0,0v0Zm1.2-10.45,0,0h0Z" transform="translate(-15.15 -13.42)"/>
        </g>
      </g>
    </g>
  </g>
</svg>
