<svg xmlns="http://www.w3.org/2000/svg" viewBox="0 0 327.52 83.19">
  <title>MDX_Small_B</title>
  <g id="Layer_2" data-name="Layer 2">
    <g id="Layer_2-2" data-name="Layer 2">
      <g id="MDX_Small_B">
        <g>
          <g>
            <path d="M0,48.59V34.33L52.5,0V15L10.87,41.54Z"/>
            <polygon points="10.87 41.51 0 48.59 52.5 83.19 52.5 68.16 10.87 41.51"/>
          </g>
          <g>
            <path d="M327.52,34.6V48.86L275,83.19v-15l41.63-26.51Z"/>
            <polygon points="316.65 41.68 327.52 34.6 275.02 0 275.02 15.03 316.65 41.68"/>
          </g>
        </g>
        <g>
          <g>
            <polygon points="245.06 45.53 237.68 54.47 254.43 75.1 269.52 75.1 245.06 45.53"/>
            <polygon points="234.06 31.91 218.72 13.45 203.72 13.45 226.44 41.15 234.06 31.91"/>
            <polygon points="227.6 61.9 235.57 52.24 235.72 52.06 235.72 52.06 248.22 36.92 248.22 36.92 267.27 13.45 252.44 13.45 242.69 25.45 242.74 25.5 225.87 45.95 202 75.1 217 75.1 227.6 61.9 227.6 61.9"/>
          </g>
          <path d="M192.82,28.41a28.6,28.6,0,0,0-11.62-11,36.47,36.47,0,0,0-17.13-3.92H138.23V75.1h0l11.92-9.53V22.76h12.26q10.23,0,16.24,5.78t6,15.76q0,9.62-6,15.56t-15.87,5.93h-8.68L142.53,75.1h20.81A38.86,38.86,0,0,0,181,71.26,28,28,0,0,0,192.8,60.44a30.7,30.7,0,0,0,4.17-16A31.12,31.12,0,0,0,192.82,28.41Z"/>
          <g>
            <polygon points="92.21 35.93 73.48 13.45 62.76 13.45 62.76 75.1 74.68 75.1 74.68 31.81 75.03 31.81 85.5 44.56 92.21 35.93"/>
            <polygon points="124.63 13.8 124.63 13.45 114 13.45 102.23 27.58 87.29 46.75 92.86 53.52 94.53 53.52 95.59 52.23 124.63 13.8"/>
            <polygon points="112.71 33.98 112.71 75.1 124.63 75.1 124.63 18.21 112.71 33.98"/>
          </g>
        </g>
      </g>
    </g>
  </g>
</svg>
