<svg xmlns="http://www.w3.org/2000/svg" viewBox="0 0 233.97 233.97">
  <defs>
    <style>
      .cls-1 {
        fill: #fff;
      }
    </style>
  </defs>
  <title>Favicon2</title>
  <g id="Layer_2" data-name="Layer 2">
    <g id="Layer_1-2" data-name="Layer 1">
      <g>
        <path class="cls-1" d="M65.74,117c-.54.14-.44,1-.43,1.62C65.84,118.31,65.73,117.66,65.74,117Z"/>
        <path class="cls-1" d="M65.14,118.78c-.16,0-.32.09-.12.5A1.51,1.51,0,0,1,65.14,118.78Z"/>
        <path class="cls-1" d="M64.44,128.41a3.92,3.92,0,0,0,.14-1,1.24,1.24,0,0,0-.28.53C64.15,128,64.3,128.27,64.44,128.41Z"/>
        <path class="cls-1" d="M66.75,114.86c.14-.15-.14-.43-.14-.72a5,5,0,0,1-.22,1.16C66.55,115.1,66.75,115,66.75,114.86Z"/>
        <path class="cls-1" d="M66.3,115.58c-.54.16-.55.85-.55,1.41C66.27,116.85,66.3,116.34,66.3,115.58Z"/>
        <path class="cls-1" d="M65.75,124.26c-.52.13-.46.71-.44,1.35.55-.41.44-.93.44-1.34.71-.42.57-1.14.57-1.71a1.77,1.77,0,0,0,1-1.57s0-.44-.15-.44-.14-.14-.14,0a2.51,2.51,0,0,0-.71,2C65.75,122.69,65.89,123.55,65.75,124.26Z"/>
        <path class="cls-1" d="M64.3,121.27c0,.3-.14.3-.14.44S64.59,121.71,64.3,121.27Z"/>
        <path class="cls-1" d="M61.88,130.71v-.9a1.3,1.3,0,0,0-.44.46.29.29,0,0,0,0,.13A.37.37,0,0,0,61.88,130.71Z"/>
        <path class="cls-1" d="M68,118.3a2.91,2.91,0,0,0,.28-2.71,13.7,13.7,0,0,0-.71,2.28c-.15,0,.14.43.14.57C67.87,118.3,67.87,118.3,68,118.3Z"/>
        <path class="cls-1" d="M61.32,132.69l-.14-.44c-.15,0-.15,0-.15.28a1.89,1.89,0,0,0-.14.84A1.52,1.52,0,0,0,61.32,132.69Z"/>
        <path class="cls-1" d="M64.16,121.71h0a5.33,5.33,0,0,1-.41.87,3.39,3.39,0,0,1,.14.57A4.38,4.38,0,0,0,64.16,121.71Z"/>
        <path class="cls-1" d="M60.87,133.4c-.26,0-.41.56-.54.84C60.59,134.1,60.74,134,60.87,133.4Z"/>
        <path class="cls-1" d="M63.45,124.42a6.46,6.46,0,0,0-1,3.57A3.88,3.88,0,0,0,63.45,124.42Z"/>
        <path class="cls-1" d="M62.44,128c-.46.23-.46.82-.45,1.34C62.42,129.1,62.44,128.5,62.44,128Z"/>
        <polygon class="cls-1" points="68.86 106.58 68.72 106.58 68.86 106.72 68.86 106.58"/>
        <path class="cls-1" d="M65.18,125.9c-.4.2-.44.68-.44,1.28C65.2,126.9,65.18,126.38,65.18,125.9Z"/>
        <path class="cls-1" d="M73.83,97.59s-.15-.29-.29-.29c0,.43-.14.58-.14,1.14C73.69,98.42,73.83,97.87,73.83,97.59Z"/>
        <path class="cls-1" d="M73.24,99.3a1.68,1.68,0,0,0,.14-.83A.68.68,0,0,0,73,99,.3.3,0,0,0,73.24,99.3Z"/>
        <path class="cls-1" d="M76.56,86.32a.57.57,0,0,0-.28.57l.14.28C76.56,87.17,76.71,86.46,76.56,86.32Z"/>
        <polygon class="cls-1" points="67.72 110.3 67.58 110.3 67.72 110.58 67.72 110.3"/>
        <path class="cls-1" d="M76,89.6c0-.43.15-.7-.14-1.14a3.55,3.55,0,0,0-.57.71c-.27,1-.43,2-.71,3.14,0,.28.14.71.14,1.28C75.56,92.31,75.42,90.9,76,89.6Z"/>
        <path class="cls-1" d="M72.87,101.6v-.14a.39.39,0,0,0-.45-.3v.9A1.42,1.42,0,0,0,72.87,101.6Z"/>
        <path class="cls-1" d="M77.71,82.48l-.15-.3a1.58,1.58,0,0,0-.14.71c0,.16,0,.16.14.45C77.56,82.92,77.71,82.77,77.71,82.48Z"/>
        <path class="cls-1" d="M60.31,134.26c-.55.29-.55,1-.55,1.55C60.44,135.52,60.31,134.82,60.31,134.26Z"/>
        <polygon class="cls-1" points="68.86 114.12 68.72 114.41 68.86 114.41 68.86 114.12"/>
        <path class="cls-1" d="M69.44,113c.13-.71.42-1.43.56-2.12.15-.13-.14-.28-.14-.57-.14,0-.14.29-.28.29a2,2,0,0,0-.14,2.42Z"/>
        <polygon class="cls-1" points="71 98.59 70.86 98.73 71 98.73 71 98.59"/>
        <path class="cls-1" d="M71.31,105.31c1.08-.41,1-1.61,1-3a5.16,5.16,0,0,0-1,3.1,4,4,0,0,0-1,3.57A5.42,5.42,0,0,0,71.31,105.31Z"/>
        <polygon class="cls-1" points="69.3 104.03 69.3 104.17 69.44 104.17 69.3 104.03"/>
        <polygon class="cls-1" points="134.52 131.7 134.52 131.41 134.38 131.41 134.52 131.7"/>
        <path class="cls-1" d="M103.52,175.76h0c0,.29.15.29.14.41.28,0,.28-.7.14-1.14C103.52,175.47,103.52,175.62,103.52,175.76Z"/>
        <path class="cls-1" d="M92.54,176.36a1,1,0,0,0,.6-.14c.14,0,.14,0,.29-.14-.16,0-.3-.28-.45-.28S92.55,176.08,92.54,176.36Z"/>
        <path class="cls-1" d="M80.12,178.34c.12,0,.24.18.36.25C80.44,178.35,80.42,178.14,80.12,178.34Z"/>
        <path class="cls-1" d="M91.84,176.34a1.88,1.88,0,0,0-1.43.44.86.86,0,0,0,.86.44H92a.86.86,0,0,0,.44-.85h.08Z"/>
        <path class="cls-1" d="M84.25,177.47c-.14-.3-.28,0-.28.14v0a.52.52,0,0,0,.41.13C84.39,177.61,84.39,177.47,84.25,177.47Z"/>
        <polygon class="cls-1" points="82.84 177.63 82.98 177.63 82.84 177.49 82.84 177.63"/>
        <polygon class="cls-1" points="98.82 176.2 98.82 175.78 98.68 176.06 98.82 176.2"/>
        <path class="cls-1" d="M132.66,143.11c.71-.28.58-.85.14-1.57C132.37,142.12,132.68,142.68,132.66,143.11Z"/>
        <path class="cls-1" d="M59.6,136.67c.13-.13.14-.54.14-.83-.15.26-.29.41-.43.69a2.9,2.9,0,0,1,.15.71A.87.87,0,0,0,59.6,136.67Z"/>
        <path class="cls-1" d="M117,0A117,117,0,1,0,234,117,117,117,0,0,0,117,0Zm5.37,174.16a1.9,1.9,0,0,1-1,1.43,16.61,16.61,0,0,1-2.86.71h-4.67a2.44,2.44,0,0,0-1.57.44,3.6,3.6,0,0,1-1.57.45,2,2,0,0,1-1.57-.72h-2.71a1.82,1.82,0,0,1-1.57.72H101c.15-.42.15-.86.29-.86s.57-.57.28-1.28a1.33,1.33,0,0,0-.44-.14c-.57,0-.85,0-.85.71,0,1.43-.58,1.57-1.43,1.57a24.08,24.08,0,0,1-3.29-.14,1,1,0,0,0-.56-.14c-.16,0-.3.13-.44.57-.15.28-.43.28-.72.28a2.62,2.62,0,0,1-1.43.29h-1a29.32,29.32,0,0,0-5.71,1.14,9.2,9.2,0,0,1-2.85.57,3.8,3.8,0,0,1-2.28-.86h0c0,.75-.06,1.33-.58,1.47a9,9,0,0,0-3.28.57,2.68,2.68,0,0,1-1,.29c-.13,0-.43-.14-.57,0a1.81,1.81,0,0,0-1.57.57H73a23.07,23.07,0,0,0-5.55,1.85,63.12,63.12,0,0,1-6.71,2.29c-1.14.14-2.14,1.27-3.14,1.71a113.72,113.72,0,0,0-11.41,7.55c-.44.27-.72.57-1,.71a2.24,2.24,0,0,1-1.28.57c-.57,0-1.14-.43-1.85-1.57a20.37,20.37,0,0,0-1.29-2.27,4.37,4.37,0,0,1-.44-4c.57-1.85,1.13-4,1.57-6a5.44,5.44,0,0,1,.29-.86,9.29,9.29,0,0,0,1.71-4.7c.15-.58.3-1,.44-1.43a39.06,39.06,0,0,0,2.28-5.71c1.29-3.71,2.71-7.28,4.14-11a27.34,27.34,0,0,1,1.71-5.13A31.9,31.9,0,0,0,54,149c.72-1.87,1.29-3.44,1.86-5.29,1.57-5.42,3.42-10.28,5-15.4,1.43-4.42,2.57-8.56,3.71-12.84a26.07,26.07,0,0,1,.72-2.57,101.93,101.93,0,0,0,4-13.71c.72-2.71,1.43-5.28,2.29-7.7a139.59,139.59,0,0,0,3.55-15.13c.86-4,2-8,2.85-12.11.58-2.3,1-4.57,1.43-6.71a6,6,0,0,1,.44-1.71,2,2,0,0,1,1.57-1.14,2,2,0,0,1,1.43.85c.16.15.3.29.44.29A10.7,10.7,0,0,1,85,65.94a52,52,0,0,1-2.14,7.55,57.36,57.36,0,0,0-2.28,8.13C80,84.19,79.28,86.47,78.71,89c-.43,1.43-1.42,2.43-1.71,3.86a22.09,22.09,0,0,1-1,4.4c-.43,1.15-.84,2.15-1.28,3.43A12.35,12.35,0,0,0,74,104a7.34,7.34,0,0,1-.71,2.57c-.3.57-1,.71-.44,1.71a3.72,3.72,0,0,1-.29,1c-.57,1-1.12,2.15-1.56,3-.14.57-.28.84-.14,1.29a2,2,0,0,1-.14,1.56,29.59,29.59,0,0,0-2.41,6.57c0,.43-.29.56-.29,1a14.7,14.7,0,0,1-1.85,6.7,12,12,0,0,0-.45,1.86c-.57,1-.28,2.7-1.14,3.42-.7.71-.28,2.56-1.14,2.85a1.39,1.39,0,0,0-.44,1.14,5.09,5.09,0,0,1-.57,2.71,14.19,14.19,0,0,0-1.71,4.85,1.6,1.6,0,0,1-1,1.28l-.08.06a.88.88,0,0,0-.21,1.23,2.74,2.74,0,0,1,0,2.14,26.86,26.86,0,0,0-1.85,4.67c-.43,1.57-1.55,2.71-2,4.28-.15.72-.86,1.29-.29,2.14a10.51,10.51,0,0,1-.86,2.57c-1,1.86-1.28,4.43-2.14,6.43a33.51,33.51,0,0,0-2.28,6.7c.28,1.42-.86,1.71-1.14,2.85a13.68,13.68,0,0,1-1,3.14,4.09,4.09,0,0,0-.29,1.86.55.55,0,0,0,.44.14,1.27,1.27,0,0,0,.85-.44A51.24,51.24,0,0,1,67.58,177c1.14-.28,2.14-.56,3.28-.85a6.65,6.65,0,0,1,2.84-.57,2.39,2.39,0,0,0,2.15-.71h.26c1.87,0,3.58-.86,5.29-.86h.45A22,22,0,0,0,87,172.88a2,2,0,0,1,.86-.29,26.38,26.38,0,0,0,4.7-.28c1.43,0,3-.72,4.57-.72h16a4.86,4.86,0,0,1,2.71.72,1.06,1.06,0,0,0,.57.28,1.12,1.12,0,0,0,.72-.28,14.54,14.54,0,0,1,4.28.71C122.07,173.45,122.5,173.72,122.36,174.16ZM203.73,58.29H183.62a2,2,0,0,0-1.57.44,10.5,10.5,0,0,1-2,.44,2,2,0,0,1-.86-.14c-.56-.28-1,.44-1.56.44a33.51,33.51,0,0,0-4,.44c-1,0-1.85.28-2.71.28-.43,0-.71-.14-1-.14h-.86a3.14,3.14,0,0,0-2.14.56c-.13.14-.28.14-.57.14h-.71c-1.43,0-3,.57-4.57.57a30,30,0,0,0-7.84,2.15c-.44.42-.86.71-1,1.28a19.13,19.13,0,0,0-.44,2.71,18.58,18.58,0,0,1-.56,3.71c-.72,4.28-1.57,8.71-2.43,13a66.47,66.47,0,0,0-2,10.58,12,12,0,0,1-.71,3.28,39.57,39.57,0,0,0-1,3.85,36,36,0,0,0-.44,4,.42.42,0,0,1-.14.28c-1.14,2.86-1,5.86-1.86,8.71a72.73,72.73,0,0,0-1.85,9.13,3.35,3.35,0,0,1-.28,1.28,21.76,21.76,0,0,0-.86,5.13,32,32,0,0,1-.82,4c-.29,1-.57,1.85-.86,2.85a17.48,17.48,0,0,0-.44,2.57v.86a14.09,14.09,0,0,0-1.14,4.87c0,.29-1.86,7.55-2,8a23.33,23.33,0,0,0-.71,3.42c-.43,2.43-1.15,4.85-1.72,7.13a1.64,1.64,0,0,1-1.56,1.29c-.13,0-.43-.15-.57-.15a3.38,3.38,0,0,1-1.29-.85c-1.71-.86-1.71-1.86-1.42-3.43,1-4,2.13-8,2.85-12.27a170.92,170.92,0,0,1,4.28-18.83,38.45,38.45,0,0,1,1-5.85c.28-2.7.84-5.42,1.28-8,.57-3.85,1.43-7.56,2.14-11.27.72-1.14.15-2.42.86-3.57.14-2.57,1.14-5.13,1.28-7.7s.84-4.71,1.29-7l.84-5.14c.27-1.43.43-2.85.72-4.14a42.81,42.81,0,0,0,1-5.85,35.79,35.79,0,0,0,.56-4,3.06,3.06,0,0,1-.14-1q-5.55,1.5-10.69,3.42A91.43,91.43,0,0,0,119,76.08c-.86,1-2.28.72-3.28,1.28h-.29a.52.52,0,0,1-.44.15c-.43,0-1-.73-1.57-.45a3,3,0,0,1-1.86.45l-.17,0a1.12,1.12,0,0,1-.81-1.36,4.71,4.71,0,0,1,3.85-4c2.29-.85,4.43-1.71,6.57-2.71a29.29,29.29,0,0,1,5.71-1.85c.42-.43,1.14-.13,1.42-.57a71.09,71.09,0,0,1,8.71-3,50.26,50.26,0,0,0,7.84-2.57,3.69,3.69,0,0,0,2.42-1.7,2,2,0,0,1,1.43-.86,1.37,1.37,0,0,1,.72.14,5.67,5.67,0,0,0,2.14.57,3.23,3.23,0,0,0,1.57-.44,56,56,0,0,0,7.13-1.57c.43-.14.86-.28,1-.14a1.72,1.72,0,0,0,1.14.29,5,5,0,0,0,1.57-.44,5.82,5.82,0,0,1,3-.72H168a4.55,4.55,0,0,0,2.43-.44,42,42,0,0,1,6.85,0,1.07,1.07,0,0,0,.57.29c.42,0,.85-.44,1.42-.44h2.57c.58,0,1,.28,1.43.28a.89.89,0,0,0,.57-.14c.13-.14.28-.14.57-.14a.89.89,0,0,1,.57.14c.43,0,1,.43,1.57.29.42,0,.86-.44,1.43-.44s1,.13,1.14.57h0c.29,0,.57.27.85.17s.3,0,.44-.45c.15-.28.3.15.44.29a.76.76,0,0,0,.57.44c.14,0,.28,0,.28-.14.29-.41.42-.85.86-.85a.61.61,0,0,0,.29.14,3.89,3.89,0,0,0,1.85.28,4.42,4.42,0,0,1,2.29.44c.42.13,1.14-.3,1.71-.44a2.86,2.86,0,0,1,1.42.44c.57.13,1,.57,1.57.57a.89.89,0,0,0,.57-.14.55.55,0,0,1,.44-.14c.43,0,1,.29,1.43.29a.89.89,0,0,0,.57-.14,2,2,0,0,1,.86-.29,2,2,0,0,1,1,.29h.86c.28,0,.57.14.85.71a2,2,0,0,1,.86-.29,4.24,4.24,0,0,1,1.43.44c.42.43,1,0,1.57.57a27.91,27.91,0,0,1-3.29.29A20.74,20.74,0,0,1,203.73,58.29Z"/>
        <polygon class="cls-1" points="139.51 115.44 139.51 115.3 139.37 115.3 139.51 115.44"/>
        <polygon class="cls-1" points="132.24 154.81 132.38 154.81 132.24 154.67 132.24 154.81"/>
        <path class="cls-1" d="M188.31,57c.14,0,.14.14.28.14s.43-.13.57-.57h0a1.35,1.35,0,0,1-.71.14C188.3,56.66,188.3,57,188.31,57Z"/>
        <polygon class="cls-1" points="110.67 174.63 110.81 174.35 110.53 174.35 110.67 174.63"/>
        <path class="cls-1" d="M51.45,163.79c.15,0,.43,0,.45-.44,0-.14-.3-.14-.45-.14a.84.84,0,0,0-.56.14C51,163.79,51.17,163.79,51.45,163.79Z"/>
        <path class="cls-1" d="M53.17,157.23c.42-1.14,1.71-2,1.85-3.43.14-1.85,1-3,1.28-4.84,0-.72.14-1.43.14-2.15h0a1.5,1.5,0,0,0-.57.72c-1,2.85-1.86,5.56-2.71,8.27a4.16,4.16,0,0,0-.29,1.14C52.88,157.09,52.88,157.09,53.17,157.23Z"/>
        <path class="cls-1" d="M52.31,161.36h0c.15,0,.29,0,.29-.14s-.15-.57-.29-.72c-.15,0-.3-.14-.44-.14s-.14.86,0,1Z"/>
        <path class="cls-1" d="M53,158.65c-.14,0-.28-.14-.42-.12a.74.74,0,0,0,.14.56C52.88,159.09,53,158.94,53,158.65Z"/>
        <path class="cls-1" d="M58,141.67a2.41,2.41,0,0,0,.58-1.84c0-.3,0-.3-.29-.44a10.81,10.81,0,0,1-.71,2l.14.28Z"/>
        <path class="cls-1" d="M57.45,145.67c.14-.29,0-1-.15-1-.56,0-.85,1.7-.85,2.14C56.88,146.81,57.16,146.11,57.45,145.67Z"/>
        <path class="cls-1" d="M49.89,167.5a2.07,2.07,0,0,0,.29-1c-.29-.28-.44,0-.58.29v.57C49.6,167.5,49.75,167.64,49.89,167.5Z"/>
        <path class="cls-1" d="M48.32,172.78v-1c-.2.23-.33.45-.44.57a.33.33,0,0,0,0,.14A.37.37,0,0,0,48.32,172.78Z"/>
        <path class="cls-1" d="M45.77,178.91c0,.15.27.29.27.29a7,7,0,0,1,.57-.85c-.29-.17-.29-.29-.4-.29C45.92,178.06,45.77,178.34,45.77,178.91Z"/>
        <path class="cls-1" d="M49.3,170.63a.85.85,0,0,0-.14-1,.45.45,0,0,0-.72.29v1.66A1.39,1.39,0,0,0,49.3,170.63Z"/>
        <polygon class="cls-1" points="50.89 164.93 50.74 165.22 50.89 165.22 50.89 164.93"/>
        <polygon class="cls-1" points="46.89 176.2 47.17 176.05 47.03 175.76 46.89 176.2"/>
      </g>
    </g>
  </g>
</svg>
